<?xml version="1.0" encoding="UTF-8"?>
<svg xmlns="http://www.w3.org/2000/svg" viewBox="0 0 298.437 193.88">
  <g style="isolation: isolate;">
    <g id="Layer_2" data-name="Layer 2">
      <g id="_ÎÓÈ_6" data-name="—ÎÓÈ_6">
        <g id="cloud">
          <g style="mix-blend-mode: multiply;">
            <path d="m150.479,193.773C64.703,196.587-13.497,143.813,1.966,74.618,14.688,17.67,120.108-8.058,193.049,2.211c39.008,5.488,94.139,35.003,104.278,92.751,7.542,42.96-21.406,94.693-146.849,98.81Z" style="fill: #fff; opacity: 0;"/>
            <path d="m150.36,190.313C66.963,193.257-9.978,142.388,4.523,75.352,16.493,20.381,118.746-5.492,189.554,4.545c38.491,5.483,94.537,33.826,104.319,90.284,7.268,41.925-22.545,91.332-143.514,95.484Z" style="fill: #f9fafa; opacity: .048;"/>
            <path d="m150.24,186.853C69.222,189.927-6.46,140.963,7.079,76.085,18.299,23.094,117.386-2.925,186.059,6.878c37.973,5.478,94.936,32.649,104.359,87.816,6.995,40.889-23.683,87.97-140.178,92.159Z" style="fill: #f2f4f5; opacity: .095;"/>
            <path d="m150.121,183.394C71.483,186.597-3.081,139.51,9.637,76.818,19.99,25.783,116.026-.358,182.563,9.212c37.457,5.473,95.336,31.472,104.4,85.349,6.723,39.855-24.821,84.609-136.842,88.834Z" style="fill: #eceff0; opacity: .143;"/>
            <path d="m150.002,179.934C73.735,183.111.392,138.077,12.193,77.552,21.759,28.487,114.664,2.208,179.069,11.545c36.938,5.468,95.734,30.294,104.44,82.882,6.448,38.818-25.969,81.027-133.507,85.507Z" style="fill: #e6e9eb; opacity: .19;"/>
            <path d="m149.883,176.475C75.992,179.746,3.867,136.647,14.75,78.285,23.531,31.194,113.303,4.774,175.572,13.879c36.422,5.462,96.134,29.118,104.481,80.414,6.175,37.783-27.11,77.619-130.171,82.182Z" style="fill: #dfe4e6; opacity: .238;"/>
            <path d="m149.764,173.015c-71.514,3.367-142.418-37.798-132.457-93.996C25.304,33.902,111.962,7.209,172.078,16.212c35.915,5.379,96.531,27.941,104.521,77.948,5.901,36.747-28.25,74.213-126.836,78.856Z" style="fill: #d9dee0; opacity: .286;"/>
            <path d="m149.645,169.555c-69.139,3.465-138.819-35.767-129.781-89.803C27.079,36.61,110.604,9.76,168.582,18.545c35.4,5.364,96.932,26.764,104.562,75.48,5.628,35.712-29.392,70.813-123.5,75.53Z" style="fill: #d3d9db; opacity: .333;"/>
            <path d="m149.526,166.096c-66.762,3.566-135.218-33.734-127.105-85.61C28.858,39.321,109.244,12.317,165.087,20.879c34.884,5.349,97.33,25.586,104.603,73.013,5.355,34.677-30.533,67.417-120.164,72.204Z" style="fill: #ccd4d6; opacity: .381;"/>
            <path d="m149.406,162.636c-64.386,3.669-131.614-31.7-124.43-81.417C30.64,42.032,107.885,14.873,161.592,23.212c34.368,5.336,97.729,24.41,104.644,70.545,5.081,33.642-31.674,64.026-116.829,68.878Z" style="fill: #c6ced1; opacity: .429;"/>
            <path d="m149.287,159.176c-62.01,3.775-128.005-29.663-121.754-77.223,4.891-37.208,78.991-64.518,130.562-56.407,33.853,5.325,98.129,23.233,104.686,68.078,4.808,32.605-32.816,60.64-113.494,65.552Z" style="fill: #c0c9cc; opacity: .476;"/>
            <path d="m149.168,155.716c-59.634,3.885-124.393-27.625-119.078-73.03,4.123-35.227,75.075-62.689,124.512-54.808,33.336,5.314,98.527,22.056,104.725,65.611,4.534,31.571-33.957,57.262-110.158,62.227Z" style="fill: #b9c3c7; opacity: .524;"/>
            <path d="m149.05,152.257c-57.259,4-120.774-25.586-116.403-68.838,3.359-33.244,71.158-60.854,118.459-53.206,32.82,5.306,98.927,20.878,104.766,63.143,4.262,30.536-35.098,53.891-106.821,58.901Z" style="fill: #b3bec2; opacity: .571;"/>
            <path d="m148.931,148.797c-54.883,4.12-117.149-23.543-113.728-64.644,2.603-31.26,67.24-59.017,112.407-51.606,32.303,5.3,99.326,19.701,104.807,60.676,3.987,29.499-36.239,50.527-103.486,55.575Z" style="fill: #adb8bd; opacity: .619;"/>
            <path d="m148.812,145.338c-52.507,4.247-113.517-21.499-111.052-60.451,1.852-29.276,63.322-57.177,106.355-50.007,31.786,5.296,99.725,18.524,104.847,58.208,3.714,28.465-37.379,47.173-100.15,52.25Z" style="fill: #a6b3b8; opacity: .667;"/>
            <path d="m148.693,141.878c-50.13,4.381-109.872-19.454-108.376-56.258,1.109-27.288,59.403-55.334,100.304-48.407,31.268,5.295,100.124,17.348,104.888,55.741,3.44,27.43-38.519,43.83-96.815,48.924Z" style="fill: #a0aeb3; opacity: .714;"/>
            <path d="m148.573,138.418c-47.753,4.525-106.217-17.406-105.7-52.064.377-25.302,55.484-53.486,94.252-46.807,30.749,5.298,100.522,16.17,104.928,53.274,3.168,26.394-39.658,40.497-93.479,45.597Z" style="fill: #9aa8ad; opacity: .762;"/>
            <path d="m148.454,134.959c-45.374,4.682-102.544-15.359-103.023-47.872-.344-23.314,51.562-51.634,88.199-45.207,30.231,5.304,100.921,14.994,104.968,50.807,2.894,25.358-40.795,37.181-90.144,42.272Z" style="fill: #93a3a8; opacity: .81;"/>
            <path d="m148.335,131.499c-42.993,4.855-98.852-13.314-100.348-43.679-1.051-21.327,47.642-49.778,82.146-43.607,29.712,5.315,101.321,13.816,105.01,48.339,2.621,24.323-41.931,33.879-86.809,38.946Z" style="fill: #8d9da3; opacity: .857;"/>
            <path d="m148.216,128.04c-40.61,5.049-95.133-11.273-97.672-39.486-1.74-19.343,43.719-47.918,76.095-42.007,29.19,5.33,101.72,12.639,105.05,45.872,2.348,23.288-43.062,30.596-83.473,35.621Z" style="fill: #87989e; opacity: .905;"/>
            <path d="m148.097,124.58c-38.221,5.273-91.381-9.241-94.996-35.292-2.41-17.366,39.79-46.018,70.043-40.407,28.662,5.385,102.118,11.462,105.091,43.405,2.073,22.252-44.191,27.335-80.138,32.294Z" style="fill: #809299; opacity: .952;"/>
            <path d="m147.978,121.12c-35.823,5.536-87.584-7.229-92.32-31.1-3.056-15.402,35.872-44.186,63.991-38.807,28.145,5.38,102.518,10.285,105.131,40.938,1.801,21.217-45.312,24.1-76.802,28.969Z" style="fill: #7a8d94;"/>
          </g>
          <path d="m190.235,26.966c-3.924,0-7.728.555-11.33,1.568C171.129,11.752,154.138.105,134.421.105c-17.618,0-33.058,9.299-41.694,23.251-4.326-2.457-9.327-3.876-14.658-3.876-12.698,0-23.537,7.997-27.75,19.227-2.992-1.041-6.208-1.616-9.554-1.616-16.034,0-29.02,12.999-29.02,29.024s12.986,29.029,29.02,29.029c1.882,0,3.724-.19,5.517-.531,5.692,16.114,21.052,27.67,39.129,27.67,11.876,0,22.579-5.002,30.145-13.003,6.32,10.181,17.586,16.963,30.452,16.963,13.26,0,24.831-7.217,31.023-17.932,4.148,1.383,8.588,2.143,13.203,2.143,23.054,0,41.742-18.688,41.742-41.745s-18.688-41.742-41.742-41.742Z" style="fill: #f0f7fc;"/>
        </g>
      </g>
    </g>
  </g>
</svg>