<?xml version="1.0" encoding="UTF-8"?>
<svg xmlns="http://www.w3.org/2000/svg" xmlns:xlink="http://www.w3.org/1999/xlink" viewBox="0 0 1301.614 544.241">
  <defs>
    <linearGradient id="linear-gradient" x1="0" y1="296.04" x2="1264.318" y2="296.04" gradientUnits="userSpaceOnUse">
      <stop offset="0" stop-color="#79a30d"/>
      <stop offset="1" stop-color="#568200"/>
    </linearGradient>
  </defs>
  <g style="isolation: isolate;">
    <g id="Layer_2" data-name="Layer 2">
      <g id="_ÎÓÈ_6" data-name="—ÎÓÈ_6">
        <g id="hill-2">
          <g style="mix-blend-mode: multiply;">
            <path d="m759.68,347.948c-137.617,21.836-741.675,52.419-733.582-22.672,12.226-113.426,529-193,758-282,110.016-42.757,438.348-85.591,514.844,38.903,40.48,65.882-389.988,242.084-539.262,265.769Z" style="fill: #fff; opacity: 0;"/>
            <path d="m759.668,345.753c-140.774,22.153-734.467,51.006-726.45-22.29,11.887-109.426,517.409-186.568,745.719-275.686,113.357-44.381,440.665-86.691,514.184,33.837,39.04,64.182-384.449,240.626-533.452,264.14Z" style="fill: #fafafa; opacity: .048;"/>
            <path d="m759.656,343.556c-143.931,22.471-727.258,49.593-719.318-21.906,11.548-105.427,505.818-180.137,733.436-269.374,116.7-46.006,442.982-87.791,513.523,28.77,37.6,62.482-378.909,239.17-527.642,262.511Z" style="fill: #f5f5f5; opacity: .095;"/>
            <path d="m759.644,341.361c-147.087,22.788-720.049,48.179-712.186-21.525,11.208-101.426,494.228-173.703,721.155-263.06,120.041-47.631,445.299-88.892,512.862,23.703,36.16,60.782-373.368,237.712-521.831,260.882Z" style="fill: #f0f0f0; opacity: .143;"/>
            <path d="m759.632,339.165c-150.243,23.106-712.84,46.767-705.053-21.142,10.87-97.427,482.637-167.272,708.873-256.748,123.385-49.254,447.896-90.155,512.202,18.637,34.871,58.995-367.829,236.256-516.021,259.253Z" style="fill: #ebebeb; opacity: .19;"/>
            <path d="m759.62,336.968c-153.399,23.424-705.632,45.354-697.921-20.76,10.531-93.426,471.046-160.839,696.591-250.434,126.726-50.879,450.273-91.29,511.542,13.57,33.465,57.275-362.289,234.799-510.212,257.623Z" style="fill: #e6e6e6; opacity: .238;"/>
            <path d="m759.608,334.772c-156.557,23.741-698.273,43.959-690.789-20.376,10.4-89.402,459.636-153.956,684.31-244.121,130.174-52.241,452.647-92.42,510.881,8.503,32.058,55.559-356.75,233.342-504.401,255.994Z" style="fill: #e0e0e0; opacity: .286;"/>
            <path d="m759.597,332.577c-159.713,24.059-691.044,42.548-683.657-19.994,10.086-85.399,448.057-147.496,672.027-237.808,133.525-53.842,455.017-93.548,510.221,3.437,30.647,53.843-351.209,231.884-498.591,254.365Z" style="fill: #dbdbdb; opacity: .333;"/>
            <path d="m759.584,330.381c-162.869,24.377-683.815,41.139-676.524-19.611,9.769-81.397,436.474-141.047,659.746-231.494,136.875-55.448,457.38-94.67,509.559-1.631,29.236,52.131-345.669,230.428-492.781,252.736Z" style="fill: #d6d6d6; opacity: .381;"/>
            <path d="m759.572,328.185c-166.025,24.693-676.589,39.727-669.393-19.228,9.448-77.395,424.887-134.609,647.464-225.182,140.224-57.06,459.738-95.788,508.9-6.697,27.822,50.419-340.13,228.971-486.972,251.107Z" style="fill: #d1d1d1; opacity: .429;"/>
            <path d="m759.56,325.989c-169.183,25.012-669.366,38.316-662.26-18.847,9.122-73.392,413.295-128.18,635.182-218.867,143.568-58.679,462.087-96.902,508.238-11.765,26.405,48.711-334.589,227.514-481.16,249.478Z" style="fill: #ccc; opacity: .476;"/>
            <path d="m759.549,323.794c-172.339,25.329-662.144,36.906-655.128-18.464,8.793-69.391,401.701-121.761,622.9-212.555,146.912-60.302,464.433-98.01,507.58-16.831,24.983,47.004-329.051,226.056-475.352,247.85Z" style="fill: #c7c7c7; opacity: .524;"/>
            <path d="m759.537,321.597c-175.496,25.647-654.927,35.495-647.997-18.081,8.458-65.39,390.103-115.348,610.619-206.241,150.253-61.932,466.766-99.113,506.919-21.898,23.558,45.301-323.511,224.6-469.541,246.221Z" style="fill: #c2c2c2; opacity: .571;"/>
            <path d="m759.524,319.402c-178.651,25.964-647.711,34.083-640.863-17.699,8.118-61.389,378.319-109.383,598.336-199.929,153.464-63.874,469.089-100.208,506.259-26.964,22.127,43.601-317.971,223.143-463.731,244.592Z" style="fill: #bdbdbd; opacity: .619;"/>
            <path d="m759.514,317.206c-181.81,26.282-640.501,32.671-633.732-17.316,7.771-57.389,366.729-102.951,586.055-193.615,156.806-65.498,471.4-101.296,505.598-32.03,20.688,41.904-312.43,221.685-457.92,242.962Z" style="fill: #b8b8b8; opacity: .667;"/>
            <path d="m759.501,315.009c-184.965,26.6-633.296,31.259-626.6-16.934,7.418-53.39,355.138-96.52,573.773-187.302,160.147-67.123,473.698-102.377,504.936-37.098,19.244,40.215-306.891,220.228-452.11,241.333Z" style="fill: #b3b3b3; opacity: .714;"/>
            <path d="m759.489,312.814c-188.122,26.917-626.097,29.846-619.467-16.552,7.058-49.392,343.546-90.087,561.491-180.989,163.489-68.746,475.98-103.45,504.276-42.164,17.789,38.528-301.35,218.772-446.3,239.705Z" style="fill: #adadad; opacity: .762;"/>
            <path d="m759.477,310.619c-191.278,27.234-618.907,28.43-612.335-16.17,6.689-45.396,331.956-83.654,549.21-174.676,166.831-70.371,478.242-104.516,503.616-47.231,16.321,36.847-295.811,217.315-440.49,238.076Z" style="fill: #a8a8a8; opacity: .81;"/>
            <path d="m759.466,308.423c-194.435,27.552-611.728,27.015-605.204-15.786,6.311-41.4,320.366-77.224,536.927-168.363,170.174-71.995,480.481-105.571,502.956-52.297,14.838,35.171-290.27,215.857-434.68,236.446Z" style="fill: #a3a3a3; opacity: .857;"/>
            <path d="m759.453,306.226c-197.591,27.87-604.561,25.596-598.071-15.403,5.922-37.407,308.775-70.791,524.646-162.05,173.516-73.62,482.693-106.619,502.296-57.364,13.333,33.503-284.731,214.4-428.871,234.817Z" style="fill: #9e9e9e; opacity: .905;"/>
            <path d="m759.441,304.03c-200.748,28.189-597.415,24.174-590.938-15.02,5.521-33.416,297.184-64.359,512.364-155.736,176.858-75.244,484.871-107.658,501.635-62.432,11.803,31.843-279.191,212.943-423.06,233.188Z" style="fill: #999; opacity: .952;"/>
            <path d="m759.43,301.835c-203.904,28.505-590.294,22.745-583.807-14.639,5.108-29.429,285.593-57.927,500.082-149.423,180.2-76.869,487.01-108.691,500.975-67.498,10.236,30.19-273.651,211.486-417.25,231.56Z" style="fill: #949494;"/>
          </g>
          <path d="m0,241.266C553.1,275.266,687.1-8.734,1187.1,55.266c252.782,32.356-196,458-196,458,0,0-813.1,160-991.1-272Z" style="fill: #9ed90a;"/>
          <path d="m0,243.268C553.1,277.268,687.1-6.732,1187.1,57.268c252.782,32.356-196,458-196,458,0,0-813.1,160-991.1-272Z" style="fill: url(#linear-gradient);"/>
        </g>
      </g>
    </g>
  </g>
</svg>