<?xml version="1.0" encoding="UTF-8"?>
<svg xmlns="http://www.w3.org/2000/svg" xmlns:xlink="http://www.w3.org/1999/xlink" viewBox="0 0 1878.352 445.836">
  <defs>
    <linearGradient id="linear-gradient" x1="-229.233" y1="235.644" x2="1649.118" y2="235.644" gradientTransform="translate(1649.118) rotate(-180) scale(1 -1)" gradientUnits="userSpaceOnUse">
      <stop offset="0" stop-color="#648c00"/>
      <stop offset="1" stop-color="#557800"/>
    </linearGradient>
  </defs>
  <g style="isolation: isolate;">
    <g id="Layer_2" data-name="Layer 2">
      <g id="_ÎÓÈ_6" data-name="—ÎÓÈ_6">
        <g id="hill-3">
          <g style="mix-blend-mode: multiply;">
            <path d="m780.155,268.476c-137.342-23.508-376.276-98.004-344.5-166.52C483.652-1.538,719.141-7.538,915.631,4.461c117.812,7.194,543.776,71.811,556.916,191.97,8.404,76.867-543.417,97.545-692.392,72.046Z" style="fill: #fff; opacity: 0;"/>
            <path d="m780.681,266.352c-140.433-24.22-374.509-97.12-343.168-163.825C484.464,2.291,718.808-5.566,912.702,6.461c119.598,7.507,540.167,72.678,552.682,189.185,8.004,74.725-536.04,96.281-684.703,70.706Z" style="fill: #fafafa; opacity: .048;"/>
            <path d="m781.206,264.229c-143.525-24.934-372.741-96.238-341.837-161.131C485.275,6.121,718.474-3.593,909.774,8.461c121.383,7.818,536.557,73.543,548.445,186.4,7.603,72.582-528.661,95.02-677.014,69.368Z" style="fill: #f5f5f5; opacity: .095;"/>
            <path d="m781.731,262.106c-146.615-25.646-370.973-95.355-340.505-158.436C486.087,9.95,718.141-1.621,906.846,10.461c123.168,8.13,532.948,74.409,544.21,183.616,7.204,70.439-521.283,93.756-669.324,68.029Z" style="fill: #f0f0f0; opacity: .143;"/>
            <path d="m782.257,259.982c-149.708-26.358-369.062-94.401-339.174-155.74C487.111,13.883,717.808.353,903.917,12.461c124.954,8.442,529.339,75.275,539.976,180.831,6.804,68.298-513.906,92.494-661.635,66.691Z" style="fill: #ebebeb; opacity: .19;"/>
            <path d="m782.783,257.859c-152.798-27.072-367.263-93.502-337.842-153.046C487.966,17.735,717.474,2.326,900.989,14.46c126.739,8.755,525.728,76.142,535.739,178.047,6.404,66.155-506.527,91.231-653.946,65.352Z" style="fill: #e6e6e6; opacity: .238;"/>
            <path d="m783.309,255.735c-155.891-27.784-365.468-92.603-336.512-150.351C488.816,21.587,717.141,4.298,898.06,16.46c128.525,9.067,522.119,77.008,531.505,175.263,6.003,64.013-499.149,89.968-646.257,64.013Z" style="fill: #e0e0e0; opacity: .286;"/>
            <path d="m783.834,253.612c-158.981-28.498-363.674-91.706-335.18-147.656C489.662,25.435,716.808,6.271,895.132,18.46c130.311,9.379,518.51,77.873,527.27,172.478,5.603,61.871-491.771,88.706-638.567,62.675Z" style="fill: #dbdbdb; opacity: .333;"/>
            <path d="m784.359,251.488c-162.073-29.21-361.883-90.81-333.848-144.961C490.503,29.282,716.475,8.244,892.204,20.46c132.095,9.691,514.9,78.739,523.034,169.693,5.202,59.729-484.394,87.442-630.879,61.335Z" style="fill: #d6d6d6; opacity: .381;"/>
            <path d="m784.885,249.365c-165.164-29.923-360.097-89.914-332.517-142.267C491.338,33.128,716.141,10.216,889.275,22.46c133.88,10.003,511.291,79.605,518.799,166.908,4.803,57.586-477.015,86.181-623.189,59.997Z" style="fill: #d1d1d1; opacity: .429;"/>
            <path d="m785.41,247.241c-168.256-30.636-358.314-89.02-331.185-139.571C492.167,36.97,715.833,11.843,886.347,24.46c135.686,10.039,507.682,80.471,514.564,164.124,4.401,55.442-469.638,84.917-615.501,58.657Z" style="fill: #ccc; opacity: .476;"/>
            <path d="m785.935,245.118c-171.347-31.349-356.536-88.129-329.853-136.877C492.989,40.81,715.5,13.82,883.419,26.46c137.473,10.348,504.071,81.337,510.328,161.34,4.002,53.3-462.26,83.654-607.812,57.318Z" style="fill: #c7c7c7; opacity: .524;"/>
            <path d="m786.461,242.994c-174.438-32.061-354.761-87.237-328.521-134.182C493.805,44.646,715.166,15.804,880.49,28.46c139.258,10.66,500.462,82.203,506.094,158.555,3.601,51.158-454.882,82.392-600.123,55.979Z" style="fill: #c2c2c2; opacity: .571;"/>
            <path d="m786.986,240.871c-177.529-32.774-352.992-86.352-327.19-131.487,34.816-60.905,255.011-91.275,417.765-78.924,141.023,11.25,496.853,83.068,501.858,155.769,3.201,49.016-447.504,81.129-592.434,54.642Z" style="fill: #bdbdbd; opacity: .619;"/>
            <path d="m787.512,238.747c-180.622-33.486-351.23-85.466-325.859-128.791,33.758-57.648,252.821-89.875,412.98-77.496,142.807,11.562,493.243,83.935,497.623,152.985,2.802,46.873-440.126,79.866-584.745,53.302Z" style="fill: #b8b8b8; opacity: .667;"/>
            <path d="m788.037,236.624c-183.712-34.199-349.474-84.586-324.527-126.098,32.69-54.396,250.631-88.473,408.195-76.066,144.593,11.875,489.634,84.8,493.388,150.2,2.401,44.731-432.748,78.605-577.056,51.964Z" style="fill: #b3b3b3; opacity: .714;"/>
            <path d="m788.563,234.5c-186.804-34.912-347.727-83.71-323.196-123.401,31.613-51.152,248.441-87.072,403.409-74.64,146.378,12.188,486.024,85.667,489.153,147.417,2.001,42.589-425.37,77.341-569.367,50.624Z" style="fill: #adadad; opacity: .762;"/>
            <path d="m789.088,232.377c-189.895-35.626-345.987-82.841-321.864-120.707,30.524-47.914,246.251-85.67,398.624-73.21,148.163,12.498,482.414,86.532,484.917,144.631,1.601,40.447-417.992,76.078-561.677,49.286Z" style="fill: #a8a8a8; opacity: .81;"/>
            <path d="m789.614,230.253c-192.987-36.338-344.259-81.978-320.533-118.012,29.423-44.686,244.06-84.27,393.838-71.782,149.948,12.811,478.805,87.398,480.682,141.848,1.201,38.304-410.613,74.815-553.987,47.946Z" style="fill: #a3a3a3; opacity: .857;"/>
            <path d="m790.139,228.129c-196.078-37.051-342.543-81.127-319.201-115.317,28.31-41.468,241.87-82.867,389.053-70.354,151.734,13.123,475.196,88.265,476.447,139.062.801,36.162-403.236,73.553-546.299,46.608Z" style="fill: #9e9e9e; opacity: .905;"/>
            <path d="m790.665,226.005c-199.17-37.763-340.841-80.286-317.87-112.622,27.182-38.263,239.679-81.466,384.268-68.925,153.519,13.436,471.586,89.131,472.212,136.278.399,34.019-395.859,72.29-538.61,45.269Z" style="fill: #999; opacity: .952;"/>
            <path d="m791.19,223.882c-202.261-38.477-339.155-79.462-316.538-109.928,26.039-35.073,237.489-80.064,379.483-67.496,155.305,13.747,467.977,89.996,467.977,133.493,0,31.877-388.48,71.027-530.921,43.931Z" style="fill: #949494;"/>
          </g>
          <path d="m1878.352,209.45C1325.252,243.45,1195.332,23.45,691.252,23.45,306,23.45,0,344.021,0,344.021c0,0,1700.352,297.429,1878.352-134.571Z" style="fill: #9ad110;"/>
          <path d="m1878.352,211.452C1325.252,245.452,1195.332,25.452,691.252,25.452,306,25.452,0,346.023,0,346.023c0,0,1700.352,297.429,1878.352-134.571Z" style="fill: url(#linear-gradient);"/>
        </g>
      </g>
    </g>
  </g>
</svg>