<?xml version="1.0" encoding="UTF-8"?>
<svg xmlns="http://www.w3.org/2000/svg" xmlns:xlink="http://www.w3.org/1999/xlink" viewBox="0 0 307.787 315.005">
  <defs>
    <linearGradient id="linear-gradient" x1="136.567" y1="25.345" x2="168.522" y2="57.3" gradientUnits="userSpaceOnUse">
      <stop offset="0" stop-color="#ffd45c"/>
      <stop offset="1" stop-color="#ff9d00"/>
    </linearGradient>
    <linearGradient id="linear-gradient-2" x1="136.567" y1="248.077" x2="168.522" y2="280.033" xlink:href="#linear-gradient"/>
    <linearGradient id="linear-gradient-3" x1="2417.658" y1="1033.12" x2="2385.702" y2="1065.076" gradientTransform="translate(-1007.919 2554.369) rotate(-90)" xlink:href="#linear-gradient"/>
    <linearGradient id="linear-gradient-4" x1="2417.657" y1="1255.852" x2="2385.702" y2="1287.807" gradientTransform="translate(-1007.919 2554.369) rotate(-90)" xlink:href="#linear-gradient"/>
    <linearGradient id="linear-gradient-5" x1="2380.004" y1="2382.477" x2="2347.411" y2="2382.477" gradientTransform="translate(60.524 3587.463) rotate(-135)" xlink:href="#linear-gradient"/>
    <linearGradient id="linear-gradient-6" x1="2380.004" y1="2605.212" x2="2347.408" y2="2605.212" gradientTransform="translate(60.524 3587.463) rotate(-135)" xlink:href="#linear-gradient"/>
    <linearGradient id="linear-gradient-7" x1="60.702" y1="3292.142" x2="60.702" y2="3228.375" gradientTransform="translate(2579.545 2493.842) rotate(135)" xlink:href="#linear-gradient"/>
    <linearGradient id="linear-gradient-8" x1="60.703" y1="3514.877" x2="60.703" y2="3451.11" gradientTransform="translate(2579.545 2493.842) rotate(135)" xlink:href="#linear-gradient"/>
    <linearGradient id="linear-gradient-9" x1="238.771" y1="178.643" x2="272.097" y2="211.97" gradientUnits="userSpaceOnUse">
      <stop offset="0" stop-color="#ffbb31"/>
      <stop offset="1" stop-color="#ff9d00"/>
    </linearGradient>
    <linearGradient id="linear-gradient-10" x1="32.989" y1="93.405" x2="66.319" y2="126.735" xlink:href="#linear-gradient-9"/>
    <linearGradient id="linear-gradient-11" x1="93.264" y1="33.136" x2="126.591" y2="66.463" xlink:href="#linear-gradient-9"/>
    <linearGradient id="linear-gradient-12" x1="178.499" y1="238.915" x2="211.826" y2="272.241" xlink:href="#linear-gradient-9"/>
    <linearGradient id="linear-gradient-13" x1="39.782" y1="185.433" x2="59.531" y2="205.182" xlink:href="#linear-gradient-9"/>
    <linearGradient id="linear-gradient-14" x1="245.559" y1="100.194" x2="265.309" y2="119.944" xlink:href="#linear-gradient-9"/>
    <linearGradient id="linear-gradient-15" x1="100.053" y1="245.702" x2="119.804" y2="265.453" xlink:href="#linear-gradient-9"/>
    <linearGradient id="linear-gradient-16" x1="185.288" y1="39.923" x2="205.037" y2="59.673" xlink:href="#linear-gradient-9"/>
    <linearGradient id="linear-gradient-17" x1="88.346" y1="88.489" x2="216.744" y2="216.886" xlink:href="#linear-gradient"/>
  </defs>
  <g style="isolation: isolate;">
    <g id="Layer_2" data-name="Layer 2">
      <g id="_ÎÓÈ_6" data-name="—ÎÓÈ_6">
        <g id="sun">
          <g>
            <g style="mix-blend-mode: multiply;">
              <path d="m230.875,146.125c-19.981-7.547-21.284-28.103-3.182-45.073,9.519-8.915,24.818-14.195,43.016-11.374,19.768,3.068,28.06,18.745,15.101,35.611-12.694,16.523-36.247,27.891-54.935,20.836Z" style="fill: #fff; opacity: 0;"/>
              <path d="m231.574,145.2c-19.64-7.135-20.908-27.334-3.181-43.715,9.496-8.775,24.567-13.814,42.121-11.12,19.142,2.933,27.227,18.146,14.409,34.634-12.353,15.971-35.071,26.879-53.35,20.202Z" style="fill: #f9fbfb; opacity: .048;"/>
              <path d="m232.272,144.274c-19.296-6.723-20.524-26.559-3.18-42.358,9.476-8.631,24.316-13.434,41.227-10.866,18.516,2.797,26.354,17.516,13.718,33.656-12.05,15.39-33.896,25.867-51.766,19.567Z" style="fill: #f3f6f7; opacity: .095;"/>
              <path d="m232.971,143.349c-18.937-6.364-20.139-25.779-3.179-40.999,9.457-8.486,24.065-13.053,40.333-10.611,17.89,2.662,25.503,16.903,13.027,32.678-11.725,14.826-32.705,24.806-50.182,18.933Z" style="fill: #eef2f4; opacity: .143;"/>
              <path d="m233.67,142.424c-18.589-5.968-19.748-24.997-3.177-39.642,9.438-8.341,23.813-12.672,39.438-10.358,17.264,2.526,24.652,16.291,12.336,31.7-11.399,14.262-31.525,23.78-48.598,18.299Z" style="fill: #e8edf0; opacity: .19;"/>
              <path d="m234.369,141.498c-18.244-5.571-19.354-24.212-3.177-38.283,9.423-8.196,23.563-12.291,38.545-10.104,16.637,2.391,23.803,15.678,11.644,30.723-11.071,13.7-30.347,22.753-47.013,17.664Z" style="fill: #e2e9ec; opacity: .238;"/>
              <path d="m235.068,140.572c-17.898-5.173-18.958-23.424-3.176-36.925,9.408-8.048,23.311-11.91,37.65-9.85,16.011,2.256,22.954,15.067,10.953,29.745-10.741,13.138-29.169,21.729-45.428,17.029Z" style="fill: #dce4e8; opacity: .286;"/>
              <path d="m235.767,139.647c-17.555-4.774-18.559-22.632-3.176-35.567,9.394-7.9,23.061-11.529,36.757-9.594,15.384,2.119,22.107,14.455,10.262,28.767-10.41,12.578-27.992,20.706-43.843,16.395Z" style="fill: #d7e0e5; opacity: .333;"/>
              <path d="m236.467,138.722c-17.211-4.373-18.154-21.836-3.175-34.209,9.383-7.75,22.81-11.148,35.862-9.341,14.758,1.984,21.263,13.845,9.57,27.789-10.077,12.018-26.816,19.685-42.258,15.761Z" style="fill: #d1dce1; opacity: .381;"/>
              <path d="m237.165,137.796c-16.868-3.97-17.745-21.037-3.173-32.85,9.373-7.599,22.555-10.74,34.968-9.087,14.128,1.881,20.419,13.237,8.88,26.812-9.742,11.46-25.642,18.664-40.675,15.126Z" style="fill: #cbd7dd; opacity: .429;"/>
              <path d="m237.863,136.871c-16.527-3.566-17.335-20.236-3.172-31.494,9.366-7.445,22.304-10.356,34.074-8.833,13.501,1.748,19.577,12.629,8.187,25.834-9.405,10.904-24.467,17.648-39.09,14.492Z" style="fill: #c5d3d9; opacity: .476;"/>
              <path d="m238.562,135.945c-16.186-3.159-16.92-19.428-3.171-30.135,9.36-7.289,22.053-9.973,33.179-8.578,12.874,1.615,18.739,12.023,7.498,24.855-9.066,10.35-23.294,16.631-37.506,13.858Z" style="fill: #c0ced6; opacity: .524;"/>
              <path d="m239.261,135.02c-15.847-2.751-16.501-18.617-3.17-28.778,9.355-7.13,21.801-9.591,32.285-8.323,12.247,1.481,17.9,11.419,6.806,23.878-8.725,9.797-22.121,15.618-35.921,13.223Z" style="fill: #bacad2; opacity: .571;"/>
              <path d="m239.961,134.095c-15.509-2.338-16.079-17.801-3.17-27.419,9.354-6.97,21.551-9.21,31.391-8.07,11.622,1.347,17.066,10.817,6.115,22.9-8.38,9.246-20.948,14.607-34.336,12.589Z" style="fill: #b4c5ce; opacity: .619;"/>
              <path d="m240.659,133.169c-15.169-1.923-15.652-16.98-3.168-26.061,9.355-6.805,21.299-8.829,30.497-7.815,10.996,1.212,16.234,10.217,5.423,21.922-8.033,8.697-19.777,13.599-32.752,11.954Z" style="fill: #aec1ca; opacity: .667;"/>
              <path d="m241.358,132.244c-14.831-1.504-15.224-16.156-3.168-24.704,9.36-6.637,21.049-8.448,29.603-7.561,10.37,1.076,15.408,9.622,4.732,20.945-7.685,8.151-18.605,12.594-31.167,11.32Z" style="fill: #a9bdc7; opacity: .714;"/>
              <path d="m242.056,131.318c-14.493-1.082-14.791-15.324-3.166-23.345,9.366-6.463,20.798-8.069,28.708-7.307,9.744.939,14.585,9.029,4.042,19.967-7.333,7.607-17.435,11.592-29.584,10.685Z" style="fill: #a3b8c3; opacity: .762;"/>
              <path d="m242.756,130.394c-14.155-.654-14.355-14.489-3.165-21.988,9.377-6.284,20.547-7.691,27.813-7.053,9.119.801,13.766,8.442,3.351,18.989-6.978,7.067-16.263,10.594-27.999,10.052Z" style="fill: #9db4bf; opacity: .81;"/>
              <path d="m243.455,129.467c-13.816-.223-13.918-13.646-3.165-20.629,9.391-6.099,20.297-7.314,26.92-6.799,8.493.661,12.952,7.861,2.659,18.012-6.621,6.529-15.091,9.599-26.414,9.417Z" style="fill: #97afbb; opacity: .857;"/>
              <path d="m244.154,128.542c-13.477.215-13.476-12.797-3.164-19.271,9.408-5.907,20.047-6.939,26.025-6.544,7.867.519,12.144,7.287,1.968,17.034-6.261,5.996-13.918,8.608-24.829,8.782Z" style="fill: #92abb8; opacity: .905;"/>
              <path d="m244.853,127.617c-13.136.658-13.033-11.942-3.163-17.914,9.431-5.705,19.796-6.566,25.131-6.291,7.241.374,11.344,6.722,1.275,16.056-5.896,5.466-12.743,7.622-23.243,8.148Z" style="fill: #8ca6b4; opacity: .952;"/>
              <path d="m245.551,126.691c-12.79,1.108-12.587-11.081-3.162-16.556,9.457-5.493,19.546-6.196,24.237-6.036,6.616.223,10.552,6.168.585,15.078-5.531,4.941-11.566,6.641-21.66,7.514Z" style="fill: #86a2b0;"/>
            </g>
            <g style="mix-blend-mode: multiply;">
              <path d="m207.213,93.42c-19.448,8.83-39.193-7.461-38.434-32.26.401-13.034,7.461-27.598,22.308-38.499,16.12-11.841,37.979,1.345,40.783,22.434,2.741,20.647-6.466,40.071-24.657,48.324Z" style="fill: #fff; opacity: 0;"/>
              <path d="m206.847,92.143c-18.914,8.878-38.175-7.056-37.268-31.173.486-12.918,7.554-27.151,21.856-37.686,15.582-11.493,36.733,1.132,39.368,21.853,2.593,20.016-6.321,38.777-23.957,47.006Z" style="fill: #f9fbfb; opacity: .048;"/>
              <path d="m206.482,90.866c-18.399,8.888-37.153-6.651-36.102-30.087.574-12.802,7.646-26.705,21.405-36.874,15.045-11.144,35.441.926,37.955,21.272,2.396,19.392-6.197,37.447-23.258,45.689Z" style="fill: #f3f6f7; opacity: .095;"/>
              <path d="m206.117,89.589c-17.874,8.921-36.125-6.246-34.936-29.001.663-12.688,7.738-26.258,20.954-36.061,14.507-10.796,34.171.716,36.541,20.691,2.226,18.764-6.062,36.137-22.559,44.371Z" style="fill: #eef2f4; opacity: .143;"/>
              <path d="m205.752,88.312c-17.349,8.954-35.092-5.842-33.77-27.914.753-12.572,7.831-25.812,20.503-35.249,13.969-10.448,32.903.506,35.127,20.11,2.057,18.135-5.927,34.829-21.859,43.052Z" style="fill: #e8edf0; opacity: .19;"/>
              <path d="m205.386,87.036c-16.823,8.989-34.056-5.438-32.605-26.827.845-12.458,7.924-25.365,20.051-34.436,13.433-10.1,31.639.294,33.715,19.528,1.89,17.507-5.791,33.523-21.16,41.735Z" style="fill: #e2e9ec; opacity: .238;"/>
              <path d="m205.021,85.758c-16.299,9.026-33.015-5.034-31.439-25.74.938-12.343,8.017-24.918,19.6-33.624,12.895-9.752,30.372.084,32.3,18.948,1.725,16.878-5.655,32.217-20.46,40.416Z" style="fill: #dce4e8; opacity: .286;"/>
              <path d="m204.656,84.481c-15.772,9.064-31.967-4.63-30.273-24.653,1.034-12.229,8.109-24.473,19.148-32.812,12.356-9.404,29.107-.128,30.886,18.367,1.561,16.248-5.519,30.914-19.761,39.098Z" style="fill: #d7e0e5; opacity: .333;"/>
              <path d="m204.291,83.205c-15.246,9.104-30.916-4.227-29.108-23.567,1.133-12.116,8.219-24.003,18.698-31.998,11.838-9.031,27.846-.341,29.472,17.785,1.4,15.618-5.383,29.613-19.061,37.781Z" style="fill: #d1dce1; opacity: .381;"/>
              <path d="m203.926,81.928c-14.72,9.146-29.858-3.823-27.942-22.48,1.232-12.002,8.312-23.556,18.246-31.186,11.301-8.681,26.586-.552,28.058,17.205,1.242,14.987-5.245,28.312-18.361,36.462Z" style="fill: #cbd7dd; opacity: .429;"/>
              <path d="m203.56,80.651c-14.192,9.189-28.798-3.42-26.777-21.395,1.336-11.888,8.406-23.107,17.795-30.373,10.767-8.331,25.329-.766,26.645,16.623,1.086,14.356-5.106,27.015-17.662,35.145Z" style="fill: #c5d3d9; opacity: .476;"/>
              <path d="m203.195,79.374c-13.663,9.235-27.728-3.016-25.611-20.308,1.441-11.773,8.501-22.66,17.344-29.56,10.228-7.982,24.073-.979,25.23,16.042.933,13.725-4.968,25.718-16.963,33.826Z" style="fill: #c0ced6; opacity: .524;"/>
              <path d="m202.83,78.098c-13.133,9.284-26.654-2.611-24.445-19.222,1.551-11.66,8.594-22.212,16.892-28.747,9.691-7.632,22.821-1.193,23.816,15.46.782,13.094-4.828,24.425-16.264,32.509Z" style="fill: #bacad2; opacity: .571;"/>
              <path d="m202.465,76.821c-12.602,9.335-25.576-2.206-23.279-18.135,1.664-11.544,8.686-21.766,16.44-27.936,9.155-7.283,21.573-1.407,22.402,14.88.635,12.462-4.685,23.134-15.563,31.191Z" style="fill: #b4c5ce; opacity: .619;"/>
              <path d="m202.099,75.544c-12.068,9.388-24.49-1.8-22.113-17.048,1.782-11.429,8.778-21.32,15.989-27.123,8.617-6.936,20.328-1.621,20.988,14.298.49,11.83-4.542,21.844-14.864,29.873Z" style="fill: #aec1ca; opacity: .667;"/>
              <path d="m201.734,74.267c-11.533,9.443-23.399-1.393-20.948-15.961,1.903-11.314,8.871-20.874,15.539-26.31,8.08-6.587,19.089-1.836,19.574,13.717.35,11.197-4.398,20.557-14.165,28.554Z" style="fill: #a9bdc7; opacity: .714;"/>
              <path d="m201.369,72.99c-10.995,9.503-22.304-.984-19.783-14.875,2.031-11.196,8.963-20.429,15.088-25.498,7.542-6.242,17.853-2.051,18.16,13.136.213,10.565-4.25,19.272-13.465,27.237Z" style="fill: #a3b8c3; opacity: .762;"/>
              <path d="m201.004,71.713c-10.454,9.565-21.2-.574-18.617-13.789,2.165-11.077,9.054-19.984,14.637-24.685,7.002-5.895,16.626-2.266,16.746,12.555.08,9.933-4.101,17.99-12.766,25.918Z" style="fill: #9db4bf; opacity: .81;"/>
              <path d="m200.638,70.436c-9.909,9.63-20.091-.162-17.451-12.702,2.306-10.956,9.143-19.542,14.185-23.872,6.462-5.551,15.407-2.479,15.333,11.974-.048,9.301-3.948,16.71-12.066,24.601Z" style="fill: #97afbb; opacity: .857;"/>
              <path d="m200.273,69.159c-9.358,9.698-18.975.253-16.285-11.615,2.455-10.833,9.232-19.1,13.733-23.06,5.92-5.208,14.196-2.693,13.918,11.393-.171,8.67-3.791,15.432-11.366,23.282Z" style="fill: #92abb8; opacity: .905;"/>
              <path d="m199.908,67.882c-8.803,9.769-17.852.671-15.119-10.529,2.613-10.706,9.313-18.667,13.282-22.248,5.365-4.878,12.998-2.905,12.504,10.811-.289,8.04-3.631,14.157-10.667,21.965Z" style="fill: #8ca6b4; opacity: .952;"/>
              <path d="m199.543,66.605c-8.239,9.845-16.729,1.091-13.954-9.442,2.779-10.576,9.405-18.221,12.831-21.434,4.828-4.53,11.817-3.115,11.091,10.23-.401,7.41-3.464,12.884-9.968,20.646Z" style="fill: #86a2b0;"/>
            </g>
            <g style="mix-blend-mode: multiply;">
              <path d="m145.602,70.462c-6.148,20.452-26.573,23.166-44.747,6.271-9.547-8.877-15.866-23.78-14.304-42.128,1.694-19.934,24.785-22.869,42.506-11.1,17.357,11.523,22.303,27.824,16.545,46.956Z" style="fill: #fff; opacity: 0;"/>
              <path d="m144.632,69.829c-5.761,20.082-25.83,22.735-43.393,6.177-9.403-8.865-15.47-23.556-13.989-41.253,1.602-19.299,23.863-22.302,41.196-10.648,16.784,11.221,21.594,27.027,16.185,45.725Z" style="fill: #f9fbfb; opacity: .048;"/>
              <path d="m143.66,69.195c-5.414,19.701-25.081,22.299-42.037,6.083-9.259-8.855-15.072-23.332-13.675-40.379,1.511-18.666,22.913-21.691,39.887-10.197,16.183,10.96,20.847,26.22,15.825,44.493Z" style="fill: #f3f6f7; opacity: .095;"/>
              <path d="m142.688,68.562c-5.045,19.327-24.329,21.859-40.682,5.988-9.114-8.846-14.675-23.108-13.359-39.505,1.418-18.031,21.977-21.105,38.577-9.745,15.597,10.674,20.121,25.418,15.464,43.262Z" style="fill: #eef2f4; opacity: .143;"/>
              <path d="m141.718,67.928c-4.674,18.953-23.577,21.418-39.328,5.894-8.968-8.838-14.277-22.884-13.044-38.63,1.326-17.397,21.043-20.519,37.267-9.293,15.013,10.388,19.398,24.619,15.105,42.03Z" style="fill: #e8edf0; opacity: .19;"/>
              <path d="m140.747,67.294c-4.301,18.582-22.822,20.971-37.974,5.8-8.821-8.833-13.881-22.66-12.729-37.756,1.235-16.763,20.108-19.935,35.957-8.842,14.43,10.1,18.677,23.819,14.746,40.798Z" style="fill: #e2e9ec; opacity: .238;"/>
              <path d="m139.775,66.661c-3.929,18.209-22.062,20.52-36.618,5.706-8.674-8.829-13.483-22.436-12.415-36.882,1.143-16.129,19.176-19.352,34.647-8.391,13.847,9.81,17.955,23.02,14.386,39.567Z" style="fill: #dce4e8; opacity: .286;"/>
              <path d="m138.803,66.027c-3.553,17.838-21.3,20.066-35.263,5.611-8.525-8.826-13.086-22.212-12.101-36.008,1.052-15.494,18.243-18.771,33.339-7.94,13.264,9.518,17.233,22.224,14.024,38.336Z" style="fill: #d7e0e5; opacity: .333;"/>
              <path d="m137.833,65.394c-3.177,17.469-20.534,19.608-33.908,5.517-8.375-8.824-12.661-21.985-11.785-35.133.99-14.858,17.31-18.191,32.028-7.487,12.684,9.224,16.517,21.425,13.665,37.104Z" style="fill: #d1dce1; opacity: .381;"/>
              <path d="m136.861,64.761c-2.799,17.099-19.766,19.146-32.553,5.422-8.223-8.826-12.263-21.762-11.471-34.259.901-14.225,16.38-17.613,30.719-7.036,12.104,8.928,15.8,20.629,13.305,35.873Z" style="fill: #cbd7dd; opacity: .429;"/>
              <path d="m135.89,64.127c-2.419,16.731-18.994,18.681-31.199,5.328-8.069-8.829-11.863-21.538-11.155-33.385.812-13.59,15.45-17.038,29.409-6.585,11.526,8.631,15.086,19.835,12.945,34.642Z" style="fill: #c5d3d9; opacity: .476;"/>
              <path d="m134.92,63.493c-2.035,16.363-18.217,18.211-29.844,5.233-7.914-8.833-11.466-21.314-10.842-32.51.722-12.956,14.52-16.463,28.1-6.133,10.95,8.33,14.374,19.039,12.586,33.41Z" style="fill: #c0ced6; opacity: .524;"/>
              <path d="m133.948,62.86c-1.651,15.996-17.436,17.737-28.489,5.139-7.756-8.841-11.065-21.09-10.525-31.636.632-12.321,13.593-15.892,26.789-5.682,10.375,8.028,13.664,18.244,12.226,32.179Z" style="fill: #bacad2; opacity: .571;"/>
              <path d="m132.976,62.226c-1.264,15.629-16.651,17.26-27.134,5.045-7.596-8.851-10.669-20.866-10.211-30.761.541-11.688,12.669-15.324,25.479-5.23,9.803,7.723,12.956,17.451,11.865,30.947Z" style="fill: #b4c5ce; opacity: .619;"/>
              <path d="m132.006,61.593c-.872,15.263-15.862,16.778-25.779,4.95-7.431-8.863-10.272-20.642-9.897-29.887.449-11.054,11.746-14.758,24.17-4.778,9.23,7.415,12.252,16.656,11.506,29.715Z" style="fill: #aec1ca; opacity: .667;"/>
              <path d="m131.034,60.959c-.478,14.897-15.068,16.293-24.424,4.856-7.263-8.879-9.876-20.419-9.582-29.013.356-10.419,10.827-14.197,22.86-4.327,8.662,7.105,11.551,15.863,11.145,28.484Z" style="fill: #a9bdc7; opacity: .714;"/>
              <path d="m130.063,60.326c-.079,14.531-14.27,15.805-23.069,4.762-7.092-8.899-9.481-20.195-9.267-28.139.264-9.786,9.911-13.639,21.551-3.876,8.096,6.791,10.853,15.069,10.786,27.252Z" style="fill: #a3b8c3; opacity: .762;"/>
              <path d="m129.092,59.692c.324,14.164-13.465,15.312-21.714,4.668-6.914-8.922-9.088-19.971-8.953-27.264.169-9.152,9.001-13.087,20.241-3.424,7.532,6.475,10.157,14.275,10.426,26.021Z" style="fill: #9db4bf; opacity: .81;"/>
              <path d="m128.12,59.059c.732,13.796-12.654,14.816-20.358,4.573-6.73-8.949-8.693-19.747-8.638-26.39.072-8.519,8.094-12.541,18.932-2.973,6.972,6.155,9.465,13.48,10.064,24.789Z" style="fill: #97afbb; opacity: .857;"/>
              <path d="m127.149,58.425c1.145,13.427-11.84,14.318-19.005,4.479-6.539-8.98-8.303-19.524-8.323-25.516-.026-7.884,7.197-12.001,17.623-2.521,6.414,5.832,8.777,12.684,9.705,23.558Z" style="fill: #92abb8; opacity: .905;"/>
              <path d="m126.178,57.791c1.563,13.056-11.019,13.816-17.65,4.385-6.34-9.016-7.913-19.299-8.008-24.641-.129-7.251,6.306-11.47,16.312-2.069,5.861,5.506,8.095,11.885,9.346,22.326Z" style="fill: #8ca6b4; opacity: .952;"/>
              <path d="m125.207,57.158c1.991,12.681-10.188,13.312-16.295,4.29-6.131-9.057-7.527-19.075-7.693-23.767-.235-6.616,5.428-10.948,15.003-1.618,5.313,5.177,7.418,11.085,8.985,21.095Z" style="fill: #86a2b0;"/>
            </g>
            <g style="mix-blend-mode: multiply;">
              <path d="m215.385,206.237c-9.938-18.905,2.732-35.148,27.537-35.828,13.034-.354,27.983,5.853,39.726,20.043,12.751,15.408,8.551,32.638-12.341,36.658-20.458,3.937-45.625-3.19-54.922-20.873Z" style="fill: #fff; opacity: 0;"/>
              <path d="m216.522,206.009c-9.955-18.37,2.504-34.321,26.637-34.811,12.923-.263,27.543,5.971,38.888,19.639,12.372,14.892,8.324,31.637-12.208,35.469-19.837,3.75-44.074-3.168-53.316-20.296Z" style="fill: #f9fbfb; opacity: .048;"/>
              <path d="m217.66,205.78c-9.974-17.834,2.274-33.486,25.735-33.795,12.812-.168,27.102,6.089,38.051,19.236,11.993,14.375,8.089,30.588-12.077,34.278-19.225,3.518-42.523-3.145-51.709-19.719Z" style="fill: #f3f6f7; opacity: .095;"/>
              <path d="m218.797,205.552c-9.941-17.327,2.047-32.932,24.835-32.778,12.704.086,26.662,6.207,37.213,18.832,11.615,13.858,7.859,29.565-11.944,33.089-18.607,3.311-40.927-3.149-50.103-19.143Z" style="fill: #eef2f4; opacity: .143;"/>
              <path d="m219.934,205.323c-9.944-16.801,1.822-32.162,23.934-31.761,12.592.229,26.222,6.325,36.376,18.428,11.236,13.341,7.63,28.542-11.813,31.899-17.988,3.106-39.362-3.135-48.496-18.566Z" style="fill: #e8edf0; opacity: .19;"/>
              <path d="m221.071,205.095c-9.949-16.274,1.601-31.383,23.033-30.745,12.48.371,25.782,6.443,35.538,18.025,10.857,12.825,7.401,27.52-11.681,30.709-17.371,2.902-37.801-3.12-46.891-17.989Z" style="fill: #e2e9ec; opacity: .238;"/>
              <path d="m222.208,204.866c-9.955-15.748,1.367-30.102,22.133-29.728,12.376.223,25.342,6.561,34.701,17.621,10.478,12.308,7.172,26.5-11.55,29.519-16.752,2.701-36.24-3.105-45.284-17.412Z" style="fill: #dce4e8; opacity: .286;"/>
              <path d="m223.345,204.638c-9.963-15.22,1.141-29.244,21.232-28.712,12.267.325,24.9,6.68,33.862,17.218,10.101,11.792,6.944,25.483-11.417,28.329-16.133,2.501-34.681-3.09-43.678-16.835Z" style="fill: #d7e0e5; opacity: .333;"/>
              <path d="m224.482,204.409c-9.973-14.692.916-28.38,20.331-27.695,12.16.429,24.44,6.815,33.026,16.814,9.698,11.294,6.717,24.465-11.286,27.139-15.513,2.304-33.122-3.073-42.071-16.258Z" style="fill: #d1dce1; opacity: .381;"/>
              <path d="m225.619,204.181c-9.983-14.164.691-27.511,19.432-26.678,12.051.536,23.997,6.934,32.187,16.41,9.317,10.78,6.489,23.45-11.153,25.949-14.893,2.109-31.567-3.057-40.466-15.681Z" style="fill: #cbd7dd; opacity: .429;"/>
              <path d="m226.757,203.952c-9.997-13.635.465-26.639,18.53-25.662,11.943.646,23.556,7.055,31.35,16.007,8.937,10.266,6.265,22.438-11.021,24.76-14.27,1.917-30.013-3.04-38.858-15.105Z" style="fill: #c5d3d9; opacity: .476;"/>
              <path d="m227.893,203.724c-10.012-13.104.24-25.759,17.63-24.645,11.836.758,23.114,7.174,30.512,15.603,8.558,9.75,6.038,21.429-10.889,23.569-13.649,1.726-28.462-3.02-37.253-14.527Z" style="fill: #c0ced6; opacity: .524;"/>
              <path d="m229.031,203.495c-10.029-12.572.015-24.874,16.729-23.628,11.727.874,22.673,7.293,29.675,15.199,8.178,9.234,5.812,20.421-10.757,22.379-13.027,1.54-26.911-3.001-35.646-13.951Z" style="fill: #bacad2; opacity: .571;"/>
              <path d="m230.168,203.267c-10.05-12.039-.21-23.984,15.828-22.612,11.62.994,22.232,7.411,28.838,14.795,7.799,8.719,5.587,19.419-10.626,21.19-12.404,1.355-25.362-2.979-34.04-13.374Z" style="fill: #b4c5ce; opacity: .619;"/>
              <path d="m231.304,203.038c-10.072-11.503-.436-23.087,14.928-21.595,11.512,1.118,21.792,7.529,28,14.392,7.419,8.202,5.363,18.419-10.494,20-11.782,1.174-23.817-2.956-32.434-12.797Z" style="fill: #aec1ca; opacity: .667;"/>
              <path d="m232.442,202.81c-10.097-10.966-.664-22.185,14.026-20.578,11.402,1.247,21.354,7.647,27.162,13.988,7.041,7.685,5.141,17.424-10.361,18.809-11.158.998-22.274-2.931-30.827-12.22Z" style="fill: #a9bdc7; opacity: .714;"/>
              <path d="m233.579,202.581c-10.125-10.425-.891-21.276,13.126-19.562,11.294,1.381,20.914,7.765,26.325,13.584,6.664,7.168,4.917,16.436-10.229,17.621-10.535.824-20.733-2.903-29.222-11.644Z" style="fill: #a3b8c3; opacity: .762;"/>
              <path d="m234.717,202.353c-10.156-9.882-1.12-20.361,12.225-18.545,11.182,1.522,20.477,7.881,25.487,13.181,6.287,6.65,4.694,15.453-10.098,16.431-9.91.655-19.193-2.873-27.614-11.066Z" style="fill: #9db4bf; opacity: .81;"/>
              <path d="m235.853,202.124c-10.189-9.333-1.352-19.44,11.324-17.528,11.07,1.67,20.039,7.996,24.65,12.777,5.912,6.13,4.471,14.478-9.967,15.24-9.286.49-17.656-2.839-26.008-10.489Z" style="fill: #97afbb; opacity: .857;"/>
              <path d="m236.99,201.895c-10.225-8.78-1.584-18.513,10.424-16.512,10.956,1.826,19.603,8.111,23.813,12.374,5.539,5.609,4.247,13.514-9.834,14.051-8.664.33-16.122-2.802-24.402-9.913Z" style="fill: #92abb8; opacity: .905;"/>
              <path d="m238.127,201.667c-10.263-8.221-1.817-17.579,9.523-15.495,10.838,1.991,19.168,8.224,22.975,11.97,5.167,5.086,4.024,12.561-9.701,12.86-8.041.175-14.589-2.76-22.797-9.336Z" style="fill: #8ca6b4; opacity: .952;"/>
              <path d="m239.264,201.438c-10.306-7.655-2.058-16.64,8.622-14.479,10.718,2.166,18.735,8.334,22.138,11.566,4.799,4.559,3.799,11.619-9.57,11.671-7.419.023-13.058-2.714-21.189-8.759Z" style="fill: #86a2b0;"/>
            </g>
            <g style="mix-blend-mode: multiply;">
              <path d="m166.598,236.639c6.546-20.325,27.018-22.647,44.861-5.408,9.376,9.061,15.408,24.082,13.492,42.398-2.081,19.895-17.329,28.957-34.823,16.843-17.126-11.854-29.651-34.818-23.53-53.832Z" style="fill: #fff; opacity: 0;"/>
              <path d="m167.37,237.042c6.151-19.963,26.367-22.19,43.607-5.299,9.233,9.046,14.973,23.692,13.151,41.358-1.976,19.264-16.831,28.212-33.939,16.223-16.559-11.541-28.583-33.695-22.818-52.281Z" style="fill: #f9fbfb; opacity: .048;"/>
              <path d="m168.141,237.446c5.757-19.601,25.714-21.729,42.353-5.191,9.088,9.033,14.535,23.302,12.809,40.32-1.873,18.631-16.304,27.426-33.056,15.601-15.963-11.268-27.514-32.571-22.106-50.73Z" style="fill: #f3f6f7; opacity: .095;"/>
              <path d="m168.914,237.85c5.416-19.223,25.057-21.264,41.099-5.082,8.943,9.021,14.099,22.912,12.467,39.28-1.769,17.999-15.792,26.663-32.172,14.98-15.384-10.972-26.394-31.434-21.394-49.179Z" style="fill: #eef2f4; opacity: .143;"/>
              <path d="m169.685,238.254c5.038-18.857,24.396-20.795,39.845-4.973,8.798,9.011,13.662,22.521,12.125,38.241-1.664,17.367-15.281,25.901-31.288,14.36-14.805-10.674-25.31-30.307-20.682-47.628Z" style="fill: #e8edf0; opacity: .19;"/>
              <path d="m170.457,238.658c4.66-18.493,23.734-20.322,38.591-4.864,8.65,9.001,13.226,22.13,11.782,37.201-1.559,16.735-14.77,25.14-30.403,13.739-14.226-10.375-24.227-29.181-19.97-46.077Z" style="fill: #e2e9ec; opacity: .238;"/>
              <path d="m171.229,239.062c4.279-18.128,23.067-19.846,37.335-4.755,8.503,8.994,12.79,21.739,11.441,36.162-1.455,16.102-14.26,24.381-29.52,13.119-13.65-10.074-23.144-28.057-19.257-44.526Z" style="fill: #dce4e8; opacity: .286;"/>
              <path d="m172.001,239.466c3.898-17.765,22.398-19.367,36.081-4.647,8.354,8.988,12.353,21.35,11.1,35.123-1.352,15.471-13.751,23.624-28.637,12.498-13.073-9.771-22.064-26.931-18.544-42.974Z" style="fill: #d7e0e5; opacity: .333;"/>
              <path d="m172.772,239.869c3.515-17.402,21.727-18.883,34.827-4.538,8.204,8.984,11.89,20.957,10.758,34.085-1.278,14.835-13.242,22.866-27.752,11.877-12.5-9.467-20.986-25.808-17.833-41.424Z" style="fill: #d1dce1; opacity: .381;"/>
              <path d="m173.544,240.273c3.129-17.041,21.053-18.396,33.573-4.43,8.052,8.982,11.45,20.567,10.416,33.045-1.177,14.204-12.734,22.113-26.869,11.257-11.926-9.159-19.909-24.686-17.12-39.872Z" style="fill: #cbd7dd; opacity: .429;"/>
              <path d="m174.316,240.677c2.742-16.68,20.371-17.905,32.318-4.321,7.899,8.982,11.012,20.176,10.074,32.006-1.076,13.571-12.229,21.359-25.984,10.636-11.355-8.851-18.834-23.563-16.408-38.321Z" style="fill: #c5d3d9; opacity: .476;"/>
              <path d="m175.088,241.081c2.352-16.32,19.689-17.411,31.064-4.212,7.742,8.983,10.573,19.786,9.732,30.967-.973,12.939-11.725,20.609-25.102,10.016-10.783-8.54-17.761-22.442-15.695-36.77Z" style="fill: #c0ced6; opacity: .524;"/>
              <path d="m175.859,241.485c1.961-15.961,19.002-16.912,29.81-4.103,7.584,8.987,10.136,19.395,9.391,29.927-.871,12.307-11.222,19.861-24.217,9.395-10.215-8.226-16.691-21.321-14.984-35.219Z" style="fill: #bacad2; opacity: .571;"/>
              <path d="m176.631,241.889c1.565-15.602,18.31-16.409,28.557-3.994,7.423,8.994,9.699,19.005,9.049,28.889-.768,11.675-10.721,19.116-23.334,8.774-9.647-7.91-15.623-20.2-14.271-33.668Z" style="fill: #b4c5ce; opacity: .619;"/>
              <path d="m177.402,242.292c1.169-15.243,17.615-15.902,27.303-3.885,7.259,9.004,9.263,18.615,8.707,27.849-.664,11.043-10.222,18.374-22.45,8.153-9.082-7.591-14.559-19.08-13.56-32.117Z" style="fill: #aec1ca; opacity: .667;"/>
              <path d="m178.175,242.696c.767-14.885,16.912-15.392,26.048-3.776,7.091,9.016,8.827,18.225,8.365,26.809-.56,10.412-9.727,17.636-21.566,7.533-8.52-7.27-13.496-17.961-12.847-30.566Z" style="fill: #a9bdc7; opacity: .714;"/>
              <path d="m178.946,243.1c.361-14.527,16.208-14.879,24.794-3.668,6.918,9.032,8.393,17.835,8.023,25.771-.454,9.78-9.234,16.901-20.683,6.912-7.96-6.946-12.437-16.84-12.135-29.015Z" style="fill: #a3b8c3; opacity: .762;"/>
              <path d="m179.718,243.503c-.049-14.169,15.495-14.361,23.54-3.559,6.74,9.051,7.958,17.445,7.682,24.732-.348,9.148-8.747,16.172-19.799,6.291-7.403-6.619-11.383-15.72-11.423-27.464Z" style="fill: #9db4bf; opacity: .81;"/>
              <path d="m180.489,243.908c-.464-13.809,14.779-13.842,22.286-3.45,6.555,9.073,7.524,17.054,7.339,23.692-.238,8.517-8.265,15.449-18.914,5.671-6.849-6.288-10.331-14.6-10.711-25.913Z" style="fill: #97afbb; opacity: .857;"/>
              <path d="m181.26,244.312c-.883-13.448,14.056-13.318,21.032-3.341,6.364,9.1,7.094,16.664,6.997,22.653-.128,7.885-7.792,14.732-18.03,5.051-6.299-5.956-9.284-13.478-9.999-24.362Z" style="fill: #92abb8; opacity: .905;"/>
              <path d="m182.032,244.715c-1.31-13.085,13.326-12.793,19.778-3.233,6.164,9.133,6.666,16.275,6.655,21.615-.014,7.253-7.326,14.023-17.146,4.429-5.752-5.619-8.24-12.353-9.287-22.811Z" style="fill: #8ca6b4; opacity: .952;"/>
              <path d="m182.804,245.119c-1.742-12.719,12.591-12.266,18.523-3.124,5.955,9.169,6.242,15.885,6.314,20.575.108,6.621-6.871,13.322-16.263,3.808-5.21-5.28-7.201-11.226-8.574-21.26Z" style="fill: #86a2b0;"/>
            </g>
            <g style="mix-blend-mode: multiply;">
              <path d="m106.443,227.299c18.471-10.727,35.233,1.251,36.951,26.004.906,13.006-4.667,28.201-18.353,40.527-14.86,13.394-32.251,9.92-37.143-10.787-4.791-20.269,1.273-45.715,18.546-55.744Z" style="fill: #fff; opacity: 0;"/>
              <path d="m106.609,228.069c17.843-10.488,34.221.942,35.856,25.035.863,12.877-4.74,27.748-17.922,39.656-14.359,12.994-31.281,9.735-35.97-10.622-4.579-19.657,1.36-44.275,18.035-54.069Z" style="fill: #f9fbfb; opacity: .048;"/>
              <path d="m106.775,228.839c17.216-10.249,33.208.633,34.762,24.067.82,12.747-4.812,27.296-17.489,38.784-13.86,12.594-30.264,9.539-34.797-10.456-4.32-19.056,1.448-42.835,17.524-52.395Z" style="fill: #f3f6f7; opacity: .095;"/>
              <path d="m106.941,229.61c16.588-10.011,32.195.324,33.667,23.098.777,12.617-4.886,26.843-17.058,37.913-13.359,12.193-29.27,9.35-33.623-10.291-4.088-18.447,1.535-41.395,17.014-50.72Z" style="fill: #eef2f4; opacity: .143;"/>
              <path d="m107.106,230.38c15.961-9.772,31.228.012,32.573,22.129.76,12.487-4.959,26.39-16.626,37.042-12.858,11.793-28.279,9.161-32.449-10.126-3.856-17.838,1.623-39.956,16.502-49.045Z" style="fill: #e8edf0; opacity: .19;"/>
              <path d="m107.272,231.151c15.334-9.534,30.225-.297,31.479,21.161.722,12.357-5.032,25.937-16.195,36.17-12.358,11.394-27.289,8.973-31.275-9.96-3.628-17.229,1.71-38.516,15.991-47.371Z" style="fill: #e2e9ec; opacity: .238;"/>
              <path d="m107.438,231.921c14.706-9.294,29.221-.606,30.385,20.192.685,12.228-5.105,25.484-15.763,35.299-11.858,10.994-26.302,8.785-30.102-9.795-3.4-16.62,1.798-37.076,15.48-45.696Z" style="fill: #dce4e8; opacity: .286;"/>
              <path d="m107.604,232.691c14.078-9.056,28.214-.916,29.29,19.224.646,12.098-5.179,25.032-15.331,34.428-11.358,10.593-25.313,8.598-28.929-9.63-3.175-16.01,1.885-35.637,14.97-44.022Z" style="fill: #d7e0e5; opacity: .333;"/>
              <path d="m107.769,233.462c13.452-8.817,27.208-1.226,28.196,18.255.607,11.968-5.271,24.557-14.899,33.556-10.881,10.169-24.327,8.411-27.754-9.464-2.952-15.398,1.971-34.197,14.457-42.347Z" style="fill: #d1dce1; opacity: .381;"/>
              <path d="m107.935,234.232c12.824-8.579,26.199-1.534,27.102,17.286.567,11.838-5.346,24.102-14.468,32.685-10.382,9.767-23.344,8.225-26.581-9.299-2.731-14.787,2.059-32.757,13.947-40.672Z" style="fill: #cbd7dd; opacity: .429;"/>
              <path d="m108.101,235.002c12.196-8.34,25.188-1.843,26.007,16.318.527,11.709-5.421,23.648-14.036,31.813-9.883,9.366-22.362,8.04-25.407-9.133-2.514-14.174,2.146-31.317,13.437-38.997Z" style="fill: #c5d3d9; opacity: .476;"/>
              <path d="m108.267,235.773c11.569-8.102,24.177-2.151,24.912,15.349.486,11.58-5.495,23.195-13.603,30.941-9.384,8.965-21.385,7.856-24.234-8.968-2.297-13.561,2.234-29.877,12.926-37.323Z" style="fill: #c0ced6; opacity: .524;"/>
              <path d="m108.433,236.543c10.941-7.862,23.164-2.46,23.818,14.381.444,11.451-5.569,22.742-13.173,30.07-8.885,8.564-20.408,7.671-23.06-8.803-2.084-12.948,2.32-28.438,12.414-35.648Z" style="fill: #bacad2; opacity: .571;"/>
              <path d="m108.598,237.313c10.314-7.624,22.151-2.769,22.725,13.412.401,11.322-5.642,22.289-12.741,29.199-8.385,8.163-19.434,7.488-21.886-8.637-1.874-12.334,2.407-26.998,11.902-33.974Z" style="fill: #b4c5ce; opacity: .619;"/>
              <path d="m108.764,238.084c9.687-7.386,21.135-3.078,21.63,12.443.357,11.192-5.715,21.836-12.309,28.328-7.886,7.762-18.466,7.306-20.712-8.472-1.668-11.719,2.495-25.558,11.392-32.299Z" style="fill: #aec1ca; opacity: .667;"/>
              <path d="m108.93,238.854c9.059-7.146,20.116-3.386,20.535,11.475.311,11.063-5.787,21.384-11.877,27.456-7.385,7.363-17.504,7.124-19.54-8.307-1.465-11.104,2.584-24.118,10.882-30.624Z" style="fill: #a9bdc7; opacity: .714;"/>
              <path d="m109.096,239.625c8.432-6.908,19.096-3.695,19.44,10.506.265,10.934-5.859,20.933-11.445,26.584-6.883,6.964-16.544,6.942-18.365-8.141-1.266-10.488,2.67-22.678,10.37-28.949Z" style="fill: #a3b8c3; opacity: .762;"/>
              <path d="m109.262,240.395c7.805-6.669,18.074-4.003,18.346,9.538.217,10.805-5.931,20.482-11.014,25.713-6.381,6.566-15.593,6.762-17.191-7.976-1.071-9.872,2.757-21.239,9.859-27.275Z" style="fill: #9db4bf; opacity: .81;"/>
              <path d="m109.427,241.165c7.178-6.431,17.051-4.311,17.252,8.569.167,10.676-6.001,20.032-10.582,24.842-5.877,6.17-14.649,6.582-16.018-7.81-.88-9.256,2.845-19.799,9.348-25.601Z" style="fill: #97afbb; opacity: .857;"/>
              <path d="m109.593,241.936c6.55-6.192,16.026-4.621,16.158,7.6.113,10.546-6.07,19.584-10.15,23.971-5.372,5.775-13.716,6.402-14.845-7.646-.694-8.64,2.932-18.359,8.837-23.925Z" style="fill: #92abb8; opacity: .905;"/>
              <path d="m109.76,242.706c5.923-5.954,14.981-4.929,15.063,6.632.043,10.417-6.137,19.137-9.719,23.099-4.865,5.382-12.794,6.222-13.671-7.48-.514-8.024,3.018-16.919,8.326-22.251Z" style="fill: #8ca6b4; opacity: .952;"/>
              <path d="m109.926,243.477c5.295-5.715,13.969-5.238,13.969,5.663,0,10.288-6.201,18.692-9.287,22.228-4.351,4.993-11.888,6.041-12.497-7.314-.339-7.409,3.106-15.479,7.815-20.576Z" style="fill: #86a2b0;"/>
            </g>
            <g style="mix-blend-mode: multiply;">
              <path d="m70.412,174.719c21.095,3.316,26.683,20.594,12.416,40.896-7.504,10.665-24.219,16.092-42.614,17.036-19.976,1.028-31.288-12.629-22.038-31.789,9.06-18.754,32.501-29.245,52.236-26.144Z" style="fill: #fff; opacity: 0;"/>
              <path d="m69.941,175.286c20.457,3.106,26.071,19.715,12.156,39.454-7.455,10.538-23.855,15.831-41.595,16.768-19.335,1.033-30.419-12.162-21.231-30.921,8.839-18.145,31.547-28.208,50.67-25.301Z" style="fill: #f9fbfb; opacity: .048;"/>
              <path d="m69.469,175.854c19.82,2.895,25.461,18.836,11.898,38.011-7.407,10.41-23.493,15.569-40.577,16.5-18.694,1.039-29.508-11.673-20.424-30.053,8.657-17.516,30.593-27.17,49.102-24.457Z" style="fill: #f3f6f7; opacity: .095;"/>
              <path d="m68.998,176.421c19.184,2.685,24.85,17.957,11.64,36.568-7.358,10.283-23.13,15.309-39.558,16.232-18.055,1.043-28.618-11.195-19.617-29.185,8.454-16.898,29.639-26.133,47.535-23.615Z" style="fill: #eef2f4; opacity: .143;"/>
              <path d="m68.527,176.988c18.545,2.475,24.282,17.11,11.381,35.125-7.285,10.173-22.768,15.047-38.54,15.964-17.413,1.048-27.73-10.716-18.811-28.317,8.25-16.28,28.686-25.096,45.97-22.772Z" style="fill: #e8edf0; opacity: .19;"/>
              <path d="m68.055,177.556c17.908,2.264,23.678,16.235,11.122,33.682-7.232,10.049-22.404,14.787-37.521,15.697-16.771,1.053-26.842-10.239-18.003-27.45,8.044-15.663,27.731-24.059,44.402-21.929Z" style="fill: #e2e9ec; opacity: .238;"/>
              <path d="m67.584,178.123c17.271,2.053,23.074,15.361,10.863,32.239-7.18,9.924-22.041,14.525-36.502,15.429-16.132,1.058-25.956-9.762-17.196-26.582,7.835-15.045,26.776-23.021,42.835-21.086Z" style="fill: #dce4e8; opacity: .286;"/>
              <path d="m67.113,178.69c16.633,1.843,22.467,14.486,10.604,30.796-7.128,9.8-21.679,14.264-35.484,15.161-15.49,1.064-25.07-9.285-16.389-25.714,7.626-14.43,25.823-21.983,41.269-20.243Z" style="fill: #d7e0e5; opacity: .333;"/>
              <path d="m66.642,179.258c15.996,1.632,21.858,13.61,10.345,29.353-7.076,9.675-21.317,13.976-34.465,14.893-14.853,1.037-24.188-8.809-15.583-24.846,7.414-13.815,24.87-20.946,39.703-19.4Z" style="fill: #d1dce1; opacity: .381;"/>
              <path d="m66.171,179.825c15.358,1.422,21.25,12.733,10.086,27.91-7.024,9.549-20.954,13.712-33.446,14.626-14.212,1.039-23.308-8.333-14.775-23.978,7.199-13.201,23.916-19.909,38.136-18.557Z" style="fill: #cbd7dd; opacity: .429;"/>
              <path d="m65.699,180.393c14.722,1.211,20.642,11.856,9.828,26.467-6.975,9.424-20.592,13.449-32.428,14.357-13.572,1.041-22.43-7.858-13.969-23.11,6.983-12.588,22.961-18.872,36.568-17.714Z" style="fill: #c5d3d9; opacity: .476;"/>
              <path d="m65.228,180.96c14.084,1.001,20.03,10.977,9.568,25.024-6.925,9.298-20.229,13.186-31.408,14.09-12.932,1.045-21.554-7.385-13.162-22.243,6.765-11.977,22.007-17.834,35.002-16.872Z" style="fill: #c0ced6; opacity: .524;"/>
              <path d="m64.757,181.527c13.446.79,19.419,10.099,9.311,23.581-6.876,9.171-19.867,12.925-30.391,13.822-12.292,1.048-20.679-6.914-12.354-21.375,6.543-11.366,21.053-16.797,33.434-16.028Z" style="fill: #bacad2; opacity: .571;"/>
              <path d="m64.286,182.095c12.81.58,18.805,9.218,9.051,22.139-6.826,9.044-19.504,12.663-29.372,13.554-11.65,1.052-19.809-6.442-11.547-20.507,6.318-10.757,20.1-15.76,31.868-15.185Z" style="fill: #b4c5ce; opacity: .619;"/>
              <path d="m63.814,182.662c12.172.369,18.191,8.337,8.793,20.695-6.78,8.916-19.142,12.402-28.353,13.286-11.01,1.057-18.941-5.973-10.74-19.639,6.091-10.149,19.144-14.723,30.301-14.343Z" style="fill: #aec1ca; opacity: .667;"/>
              <path d="m63.343,183.229c11.535.158,17.575,7.455,8.534,19.253-6.733,8.787-18.779,12.142-27.335,13.017-10.369,1.062-18.078-5.507-9.934-18.771,5.861-9.544,18.191-13.685,28.734-13.5Z" style="fill: #a9bdc7; opacity: .714;"/>
              <path d="m62.872,183.797c10.897-.052,16.956,6.57,8.274,17.809-6.687,8.657-18.416,11.883-26.316,12.751-9.729,1.068-17.22-5.043-9.126-17.902,5.627-8.94,17.237-12.648,27.168-12.657Z" style="fill: #a3b8c3; opacity: .762;"/>
              <path d="m62.4,184.364c10.261-.263,16.339,5.686,8.017,16.366-6.644,8.527-18.053,11.625-25.298,12.483-9.089,1.076-16.367-4.585-8.319-17.035,5.391-8.339,16.283-11.61,25.601-11.814Z" style="fill: #9db4bf; opacity: .81;"/>
              <path d="m61.929,184.932c9.623-.473,15.718,4.801,7.757,14.923-6.602,8.395-17.689,11.368-24.278,12.215-8.448,1.086-15.521-4.129-7.513-16.168,5.149-7.74,15.329-10.573,24.034-10.971Z" style="fill: #97afbb; opacity: .857;"/>
              <path d="m61.458,185.499c8.985-.684,15.097,3.913,7.498,13.48-6.561,8.261-17.326,11.112-23.26,11.947-7.807,1.098-14.683-3.681-6.706-15.299,4.906-7.146,14.376-9.536,22.468-10.128Z" style="fill: #92abb8; opacity: .905;"/>
              <path d="m60.987,186.066c8.348-.894,14.462,3.017,7.239,12.038-6.533,8.118-16.963,10.859-22.241,11.679-7.164,1.113-13.854-3.24-5.899-14.432,4.658-6.553,13.422-8.498,20.901-9.285Z" style="fill: #8ca6b4; opacity: .952;"/>
              <path d="m60.515,186.634c7.711-1.104,13.852,2.138,6.98,10.595-6.484,7.99-16.598,10.609-21.223,11.411-6.521,1.133-13.034-2.808-5.092-13.564,4.407-5.965,12.468-7.461,19.334-8.442Z" style="fill: #86a2b0;"/>
            </g>
            <g style="mix-blend-mode: multiply;">
              <path d="m223.681,181.915c-18.188-16.636-10.788-39.23,15.876-49.665,14.011-5.488,32.666-4.601,50.962,6.215,19.878,11.737,22.058,32.091.949,44.625-20.666,12.269-50.778,14.385-67.787-1.175Z" style="fill: #fff; opacity: 0;"/>
              <path d="m224.827,181.222c-17.998-16.047-10.691-38.185,15.295-48.209,13.938-5.314,32.235-4.3,49.895,6.105,19.266,11.325,21.421,31.093.628,43.282-20.065,11.825-49.086,13.803-65.817-1.177Z" style="fill: #f9fbfb; opacity: .048;"/>
              <path d="m225.971,180.529c-17.807-15.459-10.632-37.24,14.716-46.753,13.845-5.196,31.803-3.999,48.828,5.994,18.651,10.912,20.754,30.047.305,41.938-19.491,11.334-47.394,13.221-63.849-1.179Z" style="fill: #f3f6f7; opacity: .095;"/>
              <path d="m227.116,179.837c-17.572-14.922-10.55-36.241,14.137-45.298,13.762-5.049,31.37-3.698,47.761,5.884,18.038,10.499,20.103,29.024-.019,40.594-18.901,10.868-45.661,12.592-61.879-1.18Z" style="fill: #eef2f4; opacity: .143;"/>
              <path d="m228.261,179.144c-17.37-14.35-10.468-35.235,13.556-43.842,13.682-4.901,30.939-3.397,46.693,5.773,17.426,10.086,19.456,28.003-.34,39.251-18.311,10.404-43.958,11.996-59.909-1.182Z" style="fill: #e8edf0; opacity: .19;"/>
              <path d="m229.406,178.451c-17.169-13.777-10.381-34.226,12.977-42.387,13.601-4.752,30.508-3.096,45.627,5.664,16.81,9.673,18.806,26.984-.664,37.907-17.719,9.941-42.256,11.401-57.939-1.184Z" style="fill: #e2e9ec; opacity: .238;"/>
              <path d="m230.551,177.758c-16.97-13.204-10.294-33.212,12.396-40.931,13.522-4.6,30.076-2.794,44.56,5.554,16.197,9.26,18.158,25.965-.986,36.563-17.126,9.48-40.556,10.807-55.97-1.186Z" style="fill: #dce4e8; opacity: .286;"/>
              <path d="m231.696,177.065c-16.772-12.628-10.202-32.193,11.816-39.475,13.444-4.446,29.628-2.465,43.492,5.443,15.567,8.879,17.513,24.949-1.308,35.22-16.532,9.022-38.857,10.214-54.001-1.188Z" style="fill: #d7e0e5; opacity: .333;"/>
              <path d="m232.842,176.372c-16.576-12.052-10.11-31.168,11.235-38.019,13.368-4.291,29.195-2.162,42.426,5.332,14.952,8.469,16.867,23.934-1.63,33.876-15.937,8.565-37.16,9.623-52.031-1.189Z" style="fill: #d1dce1; opacity: .381;"/>
              <path d="m233.986,175.68c-16.382-11.474-10.015-30.138,10.656-36.563,13.293-4.132,28.762-1.858,41.358,5.223,14.337,8.059,16.224,22.921-1.952,32.532-15.339,8.111-35.466,9.032-50.062-1.191Z" style="fill: #cbd7dd; opacity: .429;"/>
              <path d="m235.131,174.986c-16.188-10.894-9.917-29.101,10.076-35.107,13.219-3.971,28.33-1.556,40.293,5.112,13.722,7.648,15.58,21.91-2.276,31.188-14.74,7.659-33.772,8.444-48.093-1.193Z" style="fill: #c5d3d9; opacity: .476;"/>
              <path d="m236.277,174.294c-16-10.312-9.819-28.06,9.494-33.652,13.146-3.807,27.898-1.253,39.226,5.002,13.109,7.238,14.94,20.901-2.598,29.845-14.141,7.211-32.079,7.857-46.122-1.194Z" style="fill: #c0ced6; opacity: .524;"/>
              <path d="m237.422,173.601c-15.81-9.728-9.717-27.01,8.915-32.195,13.074-3.638,27.466-.951,38.158,4.891,12.495,6.827,14.302,19.897-2.92,28.502-13.538,6.765-30.389,7.273-44.153-1.197Z" style="fill: #bacad2; opacity: .571;"/>
              <path d="m238.566,172.908c-15.623-9.142-9.613-25.957,8.336-30.74,13.004-3.466,27.034-.648,37.09,4.781,11.882,6.416,13.665,18.894-3.242,27.157-12.934,6.321-28.7,6.691-42.184-1.198Z" style="fill: #b4c5ce; opacity: .619;"/>
              <path d="m239.711,172.215c-15.437-8.551-9.508-24.895,7.756-29.284,12.935-3.289,26.602-.347,36.023,4.671,11.27,6.002,13.03,17.896-3.564,25.814-12.328,5.882-27.014,6.112-40.215-1.2Z" style="fill: #aec1ca; opacity: .667;"/>
              <path d="m240.856,171.522c-15.255-7.958-9.401-23.827,7.176-27.829,12.867-3.106,26.171-.047,34.956,4.56,10.656,5.589,12.397,16.904-3.887,24.471-11.722,5.446-25.329,5.536-38.245-1.202Z" style="fill: #a9bdc7; opacity: .714;"/>
              <path d="m242.002,170.829c-15.074-7.36-9.293-22.75,6.595-26.372,12.801-2.917,25.741.252,33.89,4.45,10.043,5.174,11.769,15.916-4.21,23.126-11.111,5.014-23.645,4.963-36.274-1.204Z" style="fill: #a3b8c3; opacity: .762;"/>
              <path d="m243.146,170.137c-14.895-6.758-9.184-21.669,6.016-24.917,12.735-2.721,25.311.55,32.822,4.34,9.432,4.759,11.142,14.936-4.532,21.783-10.501,4.586-21.962,4.395-34.306-1.206Z" style="fill: #9db4bf; opacity: .81;"/>
              <path d="m244.292,169.443c-14.717-6.15-9.073-20.579,5.435-23.46,12.671-2.517,24.883.846,31.756,4.229,8.821,4.342,10.518,13.966-4.854,20.439-9.889,4.164-20.281,3.83-32.336-1.208Z" style="fill: #97afbb; opacity: .857;"/>
              <path d="m245.436,168.751c-14.54-5.535-8.963-19.481,4.855-22.005,12.607-2.303,24.453,1.142,30.688,4.119,8.212,3.921,9.897,13.005-5.177,19.095-9.275,3.747-18.601,3.27-30.367-1.209Z" style="fill: #92abb8; opacity: .905;"/>
              <path d="m246.582,168.058c-14.364-4.914-8.853-18.375,4.274-20.549,12.545-2.078,24.027,1.435,29.622,4.008,7.604,3.498,9.281,12.058-5.5,17.752-8.658,3.335-16.919,2.715-28.396-1.211Z" style="fill: #8ca6b4; opacity: .952;"/>
              <path d="m247.726,167.365c-14.187-4.285-8.745-17.263,3.695-19.094,12.482-1.84,23.601,1.723,28.555,3.898,6.999,3.067,8.67,11.128-5.822,16.408-8.042,2.931-15.238,2.166-26.428-1.213Z" style="fill: #86a2b0;"/>
            </g>
            <g style="mix-blend-mode: multiply;">
              <path d="m221.058,123.26c-24.645.043-34.47-21.609-21.883-47.324,6.616-13.516,20.963-25.474,41.751-29.882,22.581-4.785,38.805,14.615,31.726,38.127-6.928,23.015-28.541,39.042-51.594,39.079Z" style="fill: #fff; opacity: 0;"/>
              <path d="m221.433,121.975c-24.107.348-33.745-20.931-21.326-45.859,6.652-13.353,20.849-24.96,40.891-29.242,21.851-4.675,37.619,14.031,30.539,37.075-6.786,22.281-27.647,37.749-50.103,38.026Z" style="fill: #f9fbfb; opacity: .048;"/>
              <path d="m221.808,120.691c-23.568.604-33.014-20.251-20.769-44.395,6.689-13.19,20.733-24.446,40.03-28.601,21.118-4.565,36.378,13.429,29.352,36.022-6.695,21.53-26.754,36.413-48.613,36.974Z" style="fill: #f3f6f7; opacity: .095;"/>
              <path d="m222.183,119.406c-23.032.889-32.276-19.567-20.211-42.93,6.727-13.026,20.618-23.933,39.168-27.961,20.389-4.455,35.169,12.835,28.166,34.97-6.577,20.789-25.86,35.101-47.123,35.921Z" style="fill: #eef2f4; opacity: .143;"/>
              <path d="m222.558,118.122c-22.496,1.173-31.536-18.885-19.654-41.465,6.768-12.862,20.504-23.42,38.308-27.321,19.657-4.344,33.959,12.243,26.979,33.918-6.456,20.047-24.969,33.791-45.633,34.869Z" style="fill: #e8edf0; opacity: .19;"/>
              <path d="m222.933,116.837c-21.96,1.46-30.79-18.198-19.098-40,6.81-12.698,20.389-22.906,37.448-26.681,18.926-4.234,32.751,11.65,25.792,32.866-6.333,19.306-24.076,32.481-44.143,33.815Z" style="fill: #e2e9ec; opacity: .238;"/>
              <path d="m223.308,115.553c-21.426,1.748-30.039-17.511-18.54-38.536,6.854-12.532,20.274-22.392,36.587-26.041,18.195-4.124,31.544,11.057,24.605,31.813-6.207,18.566-23.184,31.175-42.652,32.764Z" style="fill: #dce4e8; opacity: .286;"/>
              <path d="m223.683,114.269c-20.89,2.038-29.282-16.82-17.982-37.071,6.9-12.368,20.158-21.88,35.725-25.4,17.464-4.015,30.341,10.465,23.419,30.761-6.079,17.826-22.294,29.87-41.162,31.711Z" style="fill: #d7e0e5; opacity: .333;"/>
              <path d="m224.058,112.984c-20.356,2.331-28.522-16.128-17.426-35.607,6.949-12.2,20.051-21.335,34.865-24.76,16.74-3.87,29.138,9.873,22.232,29.708-5.949,17.087-21.403,28.567-39.672,30.659Z" style="fill: #d1dce1; opacity: .381;"/>
              <path d="m224.434,111.699c-19.822,2.624-27.755-15.433-16.87-34.142,7.001-12.033,19.937-20.82,34.005-24.12,16.011-3.756,27.938,9.281,21.046,28.656-5.816,16.349-20.513,27.266-38.181,29.605Z" style="fill: #cbd7dd; opacity: .429;"/>
              <path d="m224.808,110.415c-19.288,2.921-26.981-14.735-16.312-32.676,7.056-11.865,19.823-20.304,33.144-23.48,15.281-3.643,26.741,8.691,19.859,27.603-5.681,15.612-19.621,25.968-36.691,28.553Z" style="fill: #c5d3d9; opacity: .476;"/>
              <path d="m225.183,109.13c-18.753,3.221-26.203-14.035-15.754-31.212,7.113-11.693,19.708-19.788,32.283-22.839,14.55-3.53,25.546,8.101,18.672,26.551-5.542,14.874-18.731,24.671-35.201,27.5Z" style="fill: #c0ced6; opacity: .524;"/>
              <path d="m225.559,107.846c-18.22,3.524-25.42-13.331-15.198-29.747,7.174-11.522,19.595-19.274,31.422-22.199,13.821-3.418,24.355,7.511,17.486,25.498-5.4,14.139-17.84,23.379-33.71,26.448Z" style="fill: #bacad2; opacity: .571;"/>
              <path d="m225.934,106.562c-17.686,3.83-24.63-12.624-14.641-28.283,7.238-11.346,19.479-18.759,30.562-21.559,13.09-3.307,23.166,6.923,16.298,24.446-5.254,13.404-16.948,22.089-32.219,25.395Z" style="fill: #b4c5ce; opacity: .619;"/>
              <path d="m226.309,105.276c-17.15,4.139-23.835-11.912-14.084-26.817,7.308-11.17,19.365-18.246,29.701-20.919,12.359-3.196,21.983,6.337,15.111,23.394-5.105,12.671-16.057,20.802-30.728,24.343Z" style="fill: #aec1ca; opacity: .667;"/>
              <path d="m226.684,103.992c-16.614,4.452-23.034-11.197-13.526-25.354,7.38-10.989,19.25-17.733,28.84-20.278,11.628-3.086,20.807,5.754,13.926,22.342-4.952,11.939-15.164,19.518-29.239,23.29Z" style="fill: #a9bdc7; opacity: .714;"/>
              <path d="m227.058,102.708c-16.075,4.77-22.226-10.479-12.969-23.888,7.46-10.806,19.135-17.222,27.979-19.639,10.897-2.978,19.635,5.171,12.738,21.289-4.796,11.209-14.27,18.238-27.749,22.237Z" style="fill: #a3b8c3; opacity: .762;"/>
              <path d="m227.434,101.423c-15.536,5.093-21.414-9.754-12.412-22.423,7.544-10.617,19.019-16.711,27.118-18.998,10.166-2.871,18.47,4.594,11.552,20.237-4.635,10.481-13.375,16.962-26.258,21.185Z" style="fill: #9db4bf; opacity: .81;"/>
              <path d="m227.809,100.139c-14.994,5.42-20.596-9.026-11.856-20.958,7.635-10.423,18.904-16.202,26.259-18.358,9.433-2.765,17.311,4.019,10.364,19.185-4.469,9.755-12.476,15.689-24.767,20.132Z" style="fill: #97afbb; opacity: .857;"/>
              <path d="m228.184,98.854c-14.447,5.753-19.774-8.291-11.298-19.494,7.732-10.222,18.787-15.695,25.397-17.718,8.701-2.663,16.165,3.45,9.178,18.132-4.299,9.033-11.576,14.42-23.277,19.08Z" style="fill: #92abb8; opacity: .905;"/>
              <path d="m228.559,97.569c-13.899,6.091-18.943-7.55-10.74-18.029,7.839-10.013,18.67-15.19,24.536-17.078,7.967-2.563,15.03,2.889,7.991,17.08-4.123,8.313-10.673,13.156-21.787,18.027Z" style="fill: #8ca6b4; opacity: .952;"/>
              <path d="m228.934,96.285c-13.341,6.438-18.112-6.805-10.184-16.565,7.952-9.797,18.551-14.691,23.676-16.438,7.229-2.473,13.908,2.336,6.805,16.027-3.944,7.598-9.764,11.896-20.297,16.975Z" style="fill: #86a2b0;"/>
            </g>
            <g style="mix-blend-mode: multiply;">
              <path d="m185.051,80.324c-16.848,17.985-43.832,11.685-53.955-15.101-5.318-14.073-4.209-32.719,6.815-50.888,11.978-19.731,41.774-19.155,54.063,2.101,12.029,20.812,8.835,47.06-6.923,63.888Z" style="fill: #fff; opacity: 0;"/>
              <path d="m184.158,79.236c-16.257,17.802-42.627,11.556-52.293-14.568-5.176-13.988-3.913-32.284,6.692-49.822,11.558-19.123,40.319-18.65,52.267,2.287,11.592,20.205,8.509,45.545-6.666,62.103Z" style="fill: #f9fbfb; opacity: .048;"/>
              <path d="m183.265,78.148c-15.667,17.618-41.418,11.424-50.631-14.037-5.03-13.902-3.617-31.848,6.57-48.756,11.137-18.515,38.815-18.117,50.47,2.473,11.108,19.625,8.183,44.032-6.409,60.319Z" style="fill: #f3f6f7; opacity: .095;"/>
              <path d="m182.373,77.06c-15.125,17.392-40.203,11.29-48.969-13.504-4.886-13.819-3.321-31.413,6.447-47.69,10.717-17.907,37.338-17.599,48.674,2.66,10.648,19.03,7.81,42.478-6.152,58.535Z" style="fill: #eef2f4; opacity: .143;"/>
              <path d="m181.48,75.972c-14.55,17.196-38.983,11.153-47.306-12.972-4.738-13.736-3.026-30.978,6.323-46.624,10.297-17.299,35.86-17.082,46.878,2.846,10.191,18.434,7.47,40.953-5.895,56.75Z" style="fill: #e8edf0; opacity: .19;"/>
              <path d="m180.588,74.884c-13.974,17.002-37.76,11.015-45.644-12.44-4.59-13.655-2.73-30.542,6.2-45.559C151.021.194,175.529.319,186.226,19.917c9.735,17.837,7.131,39.43-5.639,54.966Z" style="fill: #e2e9ec; opacity: .238;"/>
              <path d="m179.695,73.796c-13.398,16.81-36.531,10.874-43.981-11.908-4.438-13.574-2.435-30.107,6.078-44.492,9.455-16.083,32.91-16.05,43.285,3.218,9.282,17.239,6.793,37.908-5.382,53.182Z" style="fill: #dce4e8; opacity: .286;"/>
              <path d="m178.802,72.708c-12.82,16.618-35.297,10.73-42.319-11.376-4.287-13.495-2.139-29.672,5.955-43.427,9.035-15.476,31.437-15.537,41.489,3.404,8.83,16.639,6.455,36.388-5.125,51.398Z" style="fill: #d7e0e5; opacity: .333;"/>
              <path d="m177.91,71.619c-12.241,16.429-34.057,10.583-40.656-10.843-4.133-13.416-1.844-29.236,5.831-42.361,8.616-14.868,29.966-15.024,39.692,3.591,8.381,16.039,6.119,34.869-4.867,49.613Z" style="fill: #d1dce1; opacity: .381;"/>
              <path d="m177.017,70.531c-11.661,16.241-32.812,10.435-38.994-10.311-3.975-13.339-1.518-28.784,5.709-41.295,8.228-14.241,28.496-14.512,37.896,3.777,7.934,15.436,5.783,33.352-4.611,47.829Z" style="fill: #cbd7dd; opacity: .429;"/>
              <path d="m176.125,69.443c-11.079,16.055-31.561,10.286-37.332-9.78-3.814-13.263-1.221-28.348,5.586-40.228,7.81-13.632,27.028-14.002,36.1,3.963,7.489,14.832,5.452,31.836-4.353,46.045Z" style="fill: #c5d3d9; opacity: .476;"/>
              <path d="m175.232,68.355c-10.495,15.871-30.305,10.133-35.67-9.247-3.651-13.188-.924-27.912,5.463-39.163,7.393-13.024,25.565-13.495,34.305,4.149,7.047,14.226,5.12,30.322-4.098,44.261Z" style="fill: #c0ced6; opacity: .524;"/>
              <path d="m174.34,67.268c-9.909,15.689-29.042,9.979-34.008-8.716-3.483-13.114-.626-27.476,5.34-38.097,6.974-12.414,24.101-12.987,32.508,4.336,6.608,13.619,4.792,28.81-3.84,42.476Z" style="fill: #bacad2; opacity: .571;"/>
              <path d="m173.446,66.179c-9.32,15.509-27.772,9.823-32.345-8.183-3.313-13.042-.329-27.04,5.218-37.032,6.555-11.806,22.644-12.482,30.711,4.522,6.172,13.01,4.464,27.3-3.584,40.692Z" style="fill: #b4c5ce; opacity: .619;"/>
              <path d="m172.554,65.091c-8.728,15.331-26.495,9.665-30.683-7.651-3.137-12.971-.034-26.605,5.094-35.965,6.135-11.198,21.189-11.98,28.915,4.709,5.739,12.399,4.141,25.791-3.326,38.907Z" style="fill: #aec1ca; opacity: .667;"/>
              <path d="m171.661,64.003c-8.132,15.154-25.213,9.505-29.019-7.119-2.954-12.901.261-26.171,4.971-34.899,5.715-10.59,19.74-11.48,27.119,4.895,5.311,11.787,3.819,24.284-3.07,37.123Z" style="fill: #a9bdc7; opacity: .714;"/>
              <path d="m170.768,62.915c-7.532,14.98-23.923,9.345-27.357-6.587-2.767-12.832.556-25.736,4.849-33.833,5.294-9.983,18.298-10.983,25.322,5.081,4.886,11.173,3.502,22.779-2.813,35.339Z" style="fill: #a3b8c3; opacity: .762;"/>
              <path d="m169.876,61.827c-6.928,14.808-22.626,9.183-25.695-6.055-2.571-12.765.849-25.303,4.725-32.768,4.871-9.378,16.862-10.487,23.526,5.267,4.466,10.557,3.188,21.276-2.557,33.556Z" style="fill: #9db4bf; opacity: .81;"/>
              <path d="m168.983,60.739c-6.318,14.637-21.321,9.021-24.033-5.523-2.368-12.697,1.141-24.87,4.602-31.701,4.446-8.772,15.435-9.996,21.73,5.453,4.051,9.94,2.879,19.772-2.3,31.771Z" style="fill: #97afbb; opacity: .857;"/>
              <path d="m168.091,59.651c-5.701,14.467-20.008,8.859-22.37-4.991-2.155-12.632,1.43-24.439,4.478-30.636,4.019-8.168,14.019-9.507,19.935,5.641,3.641,9.32,2.574,18.271-2.043,29.986Z" style="fill: #92abb8; opacity: .905;"/>
              <path d="m167.198,58.562c-5.078,14.298-18.687,8.698-20.708-4.459-1.93-12.566,1.718-24.006,4.356-29.569,3.589-7.565,12.615-9.023,18.138,5.826,3.235,8.7,2.275,16.769-1.786,28.202Z" style="fill: #8ca6b4; opacity: .952;"/>
              <path d="m166.305,57.475c-4.445,14.129-17.361,8.537-19.046-3.927-1.694-12.501,2.001-23.577,4.233-28.504,3.151-6.966,11.226-8.542,16.342,6.013,2.837,8.079,1.982,15.267-1.529,26.418Z" style="fill: #86a2b0;"/>
            </g>
            <g style="mix-blend-mode: multiply;">
              <path d="m127.986,110.221c-5.865,23.941-29.235,28.292-51.188,9.915-11.539-9.66-19.717-26.456-19.015-47.696.76-23.072,17.569-34.753,38.697-22.252,20.684,12.242,36.99,37.646,31.506,60.033Z" style="fill: #fff; opacity: 0;"/>
              <path d="m126.829,109.549c-5.44,23.491-28.402,27.749-49.633,9.725-11.373-9.656-19.246-26.222-18.6-46.708.692-22.336,17-33.714,37.673-21.324,20.007,11.928,35.668,36.44,30.56,58.306Z" style="fill: #f9fbfb; opacity: .048;"/>
              <path d="m125.672,108.877c-5.017,23.04-27.566,27.202-48.077,9.534-11.205-9.652-18.775-25.987-18.185-45.718.624-21.6,16.401-32.629,36.65-20.396,19.299,11.659,34.344,35.234,29.611,56.58Z" style="fill: #f3f6f7; opacity: .095;"/>
              <path d="m124.514,108.206c-4.656,22.578-26.728,26.651-46.522,9.344-11.037-9.65-18.303-25.752-17.768-44.728.556-20.864,15.815-31.568,35.625-19.469,18.608,11.366,32.963,34.016,28.665,54.853Z" style="fill: #eef2f4; opacity: .143;"/>
              <path d="m123.357,107.534c-4.251,22.124-25.888,26.095-44.967,9.153-10.868-9.65-17.832-25.517-17.353-43.739.487-20.128,15.232-30.508,34.602-18.541,17.918,11.071,31.621,32.808,27.718,53.126Z" style="fill: #e8edf0; opacity: .19;"/>
              <path d="m122.2,106.862c-3.845,21.672-25.042,25.534-43.411,8.963-10.698-9.652-17.361-25.283-16.937-42.75.42-19.391,14.648-29.449,33.577-17.612,17.227,10.773,30.283,31.6,26.771,51.399Z" style="fill: #e2e9ec; opacity: .238;"/>
              <path d="m121.042,106.19c-3.436,21.222-24.194,24.971-41.854,8.773-10.528-9.656-16.89-25.049-16.521-41.761.352-18.655,14.065-28.393,32.553-16.684,16.539,10.474,28.945,30.393,25.823,49.672Z" style="fill: #dce4e8; opacity: .286;"/>
              <path d="m119.885,105.519c-3.027,20.773-23.343,24.401-40.299,8.583-10.356-9.662-16.419-24.814-16.106-40.771.283-17.919,13.483-27.338,31.529-15.757,15.851,10.173,27.609,29.188,24.876,47.945Z" style="fill: #d7e0e5; opacity: .333;"/>
              <path d="m118.728,104.847c-2.615,20.324-22.489,23.827-38.745,8.393-10.183-9.669-15.914-24.578-15.69-39.782.253-17.182,12.903-26.285,30.505-14.829,15.165,9.87,26.277,27.982,23.931,46.218Z" style="fill: #d1dce1; opacity: .381;"/>
              <path d="m117.57,104.176c-2.201,19.874-21.63,23.249-37.188,8.202-10.008-9.679-15.439-24.344-15.274-38.793.187-16.446,12.321-25.233,29.48-13.9,14.479,9.564,24.944,26.778,22.982,44.492Z" style="fill: #cbd7dd; opacity: .429;"/>
              <path d="m116.413,103.504c-1.785,19.427-20.768,22.666-35.634,8.012-9.83-9.69-14.966-24.11-14.858-37.805.123-15.709,11.743-24.185,28.457-12.973,13.796,9.255,23.615,25.575,22.035,42.766Z" style="fill: #c5d3d9; opacity: .476;"/>
              <path d="m115.256,102.832c-1.366,18.98-19.901,22.079-34.078,7.821-9.65-9.706-14.493-23.875-14.443-36.815.058-14.974,11.166-23.139,27.434-12.044,13.113,8.943,22.288,24.371,21.088,41.038Z" style="fill: #c0ced6; opacity: .524;"/>
              <path d="m114.098,102.16c-.945,18.533-19.03,21.485-32.522,7.631-9.469-9.723-14.02-23.64-14.027-35.825-.008-14.238,10.589-22.096,26.408-11.117,12.434,8.629,20.965,23.169,20.142,39.311Z" style="fill: #bacad2; opacity: .571;"/>
              <path d="m112.941,101.488c-.519,18.087-18.154,20.888-30.967,7.441-9.284-9.744-13.548-23.406-13.612-34.836-.075-13.502,10.016-21.056,25.385-10.189,11.755,8.312,19.643,21.966,19.194,37.584Z" style="fill: #b4c5ce; opacity: .619;"/>
              <path d="m111.783,100.817c-.091,17.642-17.272,20.286-29.41,7.251-9.097-9.769-13.078-23.172-13.197-33.847-.143-12.767,9.446-20.021,24.361-9.261,11.078,7.992,18.324,20.764,18.246,35.858Z" style="fill: #aec1ca; opacity: .667;"/>
              <path d="m110.626,100.145c.342,17.195-16.386,19.679-27.854,7.06-8.903-9.797-12.607-22.937-12.781-32.858-.211-12.031,8.877-18.989,23.336-8.334,10.405,7.669,17.01,19.562,17.3,34.132Z" style="fill: #a9bdc7; opacity: .714;"/>
              <path d="m109.469,99.474c.779,16.75-15.497,19.068-26.301,6.87-8.706-9.829-12.139-22.704-12.366-31.869-.28-11.294,8.314-17.963,22.313-7.405,9.733,7.341,15.7,18.36,16.353,32.404Z" style="fill: #a3b8c3; opacity: .762;"/>
              <path d="m108.312,98.802c1.222,16.302-14.599,18.452-24.745,6.68-8.503-9.866-11.67-22.469-11.95-30.88-.352-10.558,7.754-16.942,21.288-6.477,9.065,7.01,14.393,17.157,15.407,30.677Z" style="fill: #9db4bf; opacity: .81;"/>
              <path d="m107.154,98.13c1.669,15.854-13.695,17.831-23.188,6.489-8.292-9.907-11.204-22.234-11.535-29.89-.425-9.823,7.201-15.93,20.265-5.549,8.4,6.675,13.091,15.952,14.459,28.951Z" style="fill: #97afbb; opacity: .857;"/>
              <path d="m105.997,97.458c2.123,15.403-12.784,17.208-21.633,6.299-8.074-9.955-10.74-22-11.12-28.901-.501-9.086,6.657-14.925,19.241-4.622,7.739,6.337,11.792,14.746,13.512,27.224Z" style="fill: #92abb8; opacity: .905;"/>
              <path d="m104.84,96.787c2.583,14.95-11.867,16.581-20.078,6.108-7.847-10.008-10.275-21.765-10.703-27.912-.58-8.35,6.121-13.93,18.216-3.694,7.083,5.995,10.499,13.538,12.565,25.498Z" style="fill: #8ca6b4; opacity: .952;"/>
              <path d="m103.682,96.115c3.053,14.492-10.943,15.951-18.523,5.918-7.608-10.066-9.821-21.529-10.288-26.923-.67-7.612,5.597-12.945,17.192-2.766,6.432,5.648,9.212,12.326,11.618,23.77Z" style="fill: #86a2b0;"/>
            </g>
            <g style="mix-blend-mode: multiply;">
              <path d="m68.416,277.432c-24.61,1.311-35.54-19.802-24.299-46.135,5.903-13.842,19.617-26.527,40.15-32.001,22.303-5.946,41.496,8.296,35.64,32.143-5.729,23.341-28.472,44.761-51.491,45.993Z" style="fill: #fff; opacity: 0;"/>
              <path d="m68.724,276.129c-24.058,1.589-34.727-19.137-23.667-44.7,5.976-13.668,19.529-26.008,39.323-31.317,21.579-5.799,40.187,7.977,34.306,31.357-5.625,22.6-27.551,43.219-49.962,44.66Z" style="fill: #f9fbfb; opacity: .048;"/>
              <path d="m69.032,274.827c-23.504,1.864-34.01-18.518-23.034-43.267,5.995-13.518,19.44-25.489,38.497-30.633,20.855-5.65,38.821,7.645,32.971,30.573-5.574,21.846-26.63,41.677-48.434,43.327Z" style="fill: #f3f6f7; opacity: .095;"/>
              <path d="m69.341,273.525c-22.957,2.077-33.241-17.874-22.403-41.833,6.042-13.357,19.353-24.97,37.672-29.949,20.129-5.503,37.487,7.319,31.637,29.788-5.494,21.1-25.715,40.077-46.905,41.994Z" style="fill: #eef2f4; opacity: .143;"/>
              <path d="m69.649,272.223c-22.407,2.334-32.467-17.23-21.771-40.399,6.091-13.195,19.265-24.451,36.845-29.265,19.405-5.355,36.154,6.995,30.303,29.002-5.412,20.352-24.797,38.517-45.376,40.661Z" style="fill: #e8edf0; opacity: .19;"/>
              <path d="m69.957,270.92c-21.856,2.592-31.685-16.584-21.139-38.965,6.142-13.033,19.177-23.932,36.018-28.581,18.681-5.207,34.822,6.669,28.968,28.218-5.326,19.606-23.879,36.959-43.848,39.328Z" style="fill: #e2e9ec; opacity: .238;"/>
              <path d="m70.265,269.618c-21.308,2.853-30.9-15.935-20.507-37.531,6.194-12.87,19.089-23.413,35.191-27.896,17.957-5.059,33.493,6.344,27.634,27.433-5.24,18.859-22.961,35.403-42.318,37.995Z" style="fill: #dce4e8; opacity: .286;"/>
              <path d="m70.574,268.316c-20.76,3.115-30.11-15.285-19.875-36.097,6.249-12.707,19-22.894,34.364-27.213,17.232-4.911,32.165,6.019,26.3,26.648-5.149,18.114-22.044,33.849-40.789,36.662Z" style="fill: #d7e0e5; opacity: .333;"/>
              <path d="m70.883,267.014c-20.211,3.379-29.315-14.633-19.244-34.663,6.308-12.544,18.922-22.344,33.539-26.528,16.518-4.728,30.839,5.694,24.966,25.863-5.058,17.369-21.128,32.297-39.261,35.329Z" style="fill: #d1dce1; opacity: .381;"/>
              <path d="m71.19,265.711c-19.662,3.645-28.513-13.979-18.611-33.229,6.367-12.379,18.835-21.823,32.712-25.845,15.795-4.578,29.516,5.371,23.632,25.078-4.963,16.625-20.21,30.747-37.732,33.996Z" style="fill: #cbd7dd; opacity: .429;"/>
              <path d="m71.499,264.409c-19.113,3.914-27.706-13.323-17.979-31.795,6.431-12.213,18.747-21.301,31.885-25.16,15.072-4.427,28.194,5.047,22.298,24.292-4.865,15.88-19.293,29.2-36.203,32.663Z" style="fill: #c5d3d9; opacity: .476;"/>
              <path d="m71.807,263.106c-18.565,4.186-26.894-12.663-17.349-30.361,6.496-12.045,18.66-20.78,31.059-24.476,14.348-4.277,26.877,4.724,20.964,23.508-4.766,15.138-18.376,27.654-34.675,31.329Z" style="fill: #c0ced6; opacity: .524;"/>
              <path d="m72.115,261.805c-18.016,4.46-26.074-12.001-16.716-28.928,6.566-11.877,18.572-20.259,30.233-23.792,13.624-4.127,25.561,4.401,19.629,22.723-4.662,14.396-17.458,26.113-33.146,29.997Z" style="fill: #bacad2; opacity: .571;"/>
              <path d="m72.424,260.502c-17.467,4.739-25.249-11.336-16.084-27.493,6.64-11.705,18.484-19.741,29.406-23.108,12.9-3.978,24.251,4.081,18.295,21.939-4.554,13.654-16.54,24.573-31.617,28.663Z" style="fill: #b4c5ce; opacity: .619;"/>
              <path d="m72.732,259.2c-16.917,5.02-24.419-10.667-15.452-26.06,6.718-11.531,18.396-19.221,28.58-22.424,12.176-3.83,22.943,3.76,16.96,21.152-4.443,12.914-15.622,23.038-30.088,27.331Z" style="fill: #aec1ca; opacity: .667;"/>
              <path d="m73.041,257.897c-16.365,5.306-23.583-9.994-14.82-24.625,6.801-11.356,18.308-18.703,27.753-21.74,11.453-3.683,21.645,3.443,15.627,20.368-4.329,12.175-14.702,21.504-28.56,25.997Z" style="fill: #a9bdc7; opacity: .714;"/>
              <path d="m73.348,256.595c-15.812,5.595-22.739-9.317-14.189-23.191,6.889-11.176,18.221-18.186,26.928-21.056,10.727-3.537,20.349,3.127,14.292,19.583-4.209,11.438-13.781,19.975-27.031,24.664Z" style="fill: #a3b8c3; opacity: .762;"/>
              <path d="m73.657,255.293c-15.256,5.89-21.891-8.637-13.557-21.757,6.982-10.992,18.131-17.67,26.101-20.373,10.003-3.392,19.06,2.814,12.958,18.798-4.086,10.702-12.857,18.45-25.502,23.331Z" style="fill: #9db4bf; opacity: .81;"/>
              <path d="m73.966,253.991c-14.697,6.189-21.037-7.952-12.925-20.323,7.083-10.802,18.042-17.156,25.273-19.688,9.278-3.248,17.78,2.505,11.624,18.013-3.958,9.969-11.932,16.928-23.973,21.999Z" style="fill: #97afbb; opacity: .857;"/>
              <path d="m74.274,252.688c-14.136,6.494-20.177-7.26-12.293-18.889,7.191-10.607,17.952-16.643,24.447-19.004,8.552-3.108,16.511,2.2,10.289,17.228-3.824,9.238-11.003,15.41-22.443,20.665Z" style="fill: #92abb8; opacity: .905;"/>
              <path d="m74.582,251.386c-13.568,6.803-19.311-6.564-11.661-17.456,7.308-10.404,17.862-16.132,23.621-18.319,7.823-2.971,15.256,1.903,8.956,16.443-3.687,8.511-10.072,13.895-20.916,19.332Z" style="fill: #8ca6b4; opacity: .952;"/>
              <path d="m74.89,250.084c-12.997,7.116-18.442-5.861-11.029-16.022,7.434-10.193,17.769-15.626,22.795-17.636,7.092-2.841,14.011,1.613,7.621,15.658-3.545,7.786-9.137,12.383-19.387,17.999Z" style="fill: #86a2b0;"/>
            </g>
            <g style="mix-blend-mode: multiply;">
              <path d="m15.055,189.149c-21.571-11.911-19.665-35.611,3.808-52.001,12.336-8.612,30.685-12.114,51.005-5.89,22.072,6.763,28.953,26.036,11.369,43.167-17.221,16.768-46.003,25.87-66.183,14.724Z" style="fill: #fff; opacity: 0;"/>
              <path d="m16.007,188.208c-21.249-11.384-19.36-34.667,3.585-50.45,12.288-8.453,30.335-11.72,49.941-5.747,21.38,6.504,28.101,25.215,10.742,41.936-16.741,16.194-44.494,24.908-64.269,14.261Z" style="fill: #f9fbfb; opacity: .048;"/>
              <path d="m16.958,187.266c-20.904-10.899-19.051-33.716,3.362-48.898,12.241-8.292,29.985-11.327,48.878-5.605,20.687,6.247,27.21,24.355,10.113,40.706-16.296,15.584-42.964,23.907-62.353,13.797Z" style="fill: #f3f6f7; opacity: .095;"/>
              <path d="m17.908,186.325c-20.572-10.39-18.737-32.764,3.14-47.348,12.196-8.13,29.637-10.933,47.815-5.461,19.994,5.989,26.338,23.514,9.484,39.475-15.831,14.993-41.446,22.927-60.439,13.334Z" style="fill: #eef2f4; opacity: .143;"/>
              <path d="m18.86,185.383c-20.242-9.882-18.423-31.807,2.916-45.797,12.151-7.967,29.286-10.539,46.752-5.318,19.301,5.731,25.467,22.673,8.856,38.244-15.366,14.404-39.93,21.949-58.524,12.872Z" style="fill: #e8edf0; opacity: .19;"/>
              <path d="m19.81,184.441c-19.913-9.371-18.102-30.845,2.693-44.246,12.11-7.803,28.937-10.146,45.689-5.176,18.607,5.472,24.598,21.835,8.228,37.013-14.9,13.815-38.416,20.972-56.611,12.409Z" style="fill: #e2e9ec; opacity: .238;"/>
              <path d="m20.761,183.5c-19.585-8.86-17.779-29.88,2.47-42.695,12.069-7.638,28.588-9.752,44.626-5.034,17.915,5.215,23.73,20.996,7.601,35.782-14.431,13.229-36.901,19.997-54.696,11.946Z" style="fill: #dce4e8; opacity: .286;"/>
              <path d="m21.713,182.559c-19.259-8.347-17.453-28.91,2.247-41.144,12.029-7.47,28.238-9.358,43.562-4.89,17.222,4.956,22.862,20.158,6.972,34.551-13.96,12.644-35.388,19.023-52.781,11.483Z" style="fill: #d7e0e5; opacity: .333;"/>
              <path d="m22.664,181.617c-18.934-7.833-17.124-27.935,2.023-39.592,11.992-7.301,27.88-8.936,42.499-4.748,16.52,4.732,22,19.323,6.345,33.32-13.488,12.06-33.878,18.049-50.867,11.02Z" style="fill: #d1dce1; opacity: .381;"/>
              <path d="m23.615,180.675c-18.608-7.316-16.79-26.955,1.8-38.041,11.956-7.13,27.531-8.539,41.437-4.605,15.826,4.477,21.136,18.489,5.716,32.09-13.013,11.478-32.366,17.078-48.952,10.557Z" style="fill: #cbd7dd; opacity: .429;"/>
              <path d="m24.565,179.733c-18.285-6.798-16.452-25.971,1.578-36.49,11.922-6.956,27.18-8.143,40.372-4.463,15.134,4.222,20.276,17.656,5.089,30.859-12.537,10.899-30.858,16.109-47.039,10.094Z" style="fill: #c5d3d9; opacity: .476;"/>
              <path d="m25.516,178.792c-17.965-6.277-16.111-24.981,1.354-34.939,11.89-6.779,26.831-7.747,39.31-4.319,14.439,3.966,19.417,16.826,4.46,29.628-12.059,10.321-29.35,15.143-45.124,9.631Z" style="fill: #c0ced6; opacity: .524;"/>
              <path d="m26.468,177.85c-17.644-5.753-15.768-23.986,1.132-33.388,11.859-6.598,26.48-7.353,38.246-4.177,13.746,3.71,18.56,15.998,3.832,28.397-11.577,9.747-27.844,14.179-43.21,9.168Z" style="fill: #bacad2; opacity: .571;"/>
              <path d="m27.419,176.909c-17.326-5.226-15.421-22.985.908-31.837,11.832-6.414,26.132-6.958,37.184-4.034,13.054,3.454,17.706,15.173,3.203,27.166-11.094,9.174-26.337,13.217-41.295,8.705Z" style="fill: #b4c5ce; opacity: .619;"/>
              <path d="m28.37,175.967c-17.009-4.697-15.07-21.978.685-30.287,11.807-6.227,25.782-6.564,36.12-3.891,12.361,3.196,16.856,14.352,2.576,25.935-10.608,8.605-24.834,12.26-39.381,8.243Z" style="fill: #aec1ca; opacity: .667;"/>
              <path d="m29.321,175.025c-16.692-4.163-14.717-20.963.462-28.735,11.782-6.033,25.434-6.172,35.057-3.749,11.669,2.938,16.009,13.535,1.947,24.705-10.119,8.039-23.33,11.305-37.466,7.779Z" style="fill: #a9bdc7; opacity: .714;"/>
              <path d="m30.272,174.084c-16.377-3.624-14.36-19.944.238-27.184,11.763-5.834,25.084-5.78,33.994-3.606,10.976,2.678,15.166,12.723,1.319,23.474-9.63,7.477-21.827,10.354-35.552,7.316Z" style="fill: #a3b8c3; opacity: .762;"/>
              <path d="m31.223,173.143c-16.062-3.08-14-18.917.016-25.633,11.745-5.628,24.735-5.39,32.931-3.464,10.283,2.417,14.326,11.917.69,22.243-9.135,6.917-20.324,9.406-33.637,6.854Z" style="fill: #9db4bf; opacity: .81;"/>
              <path d="m32.174,172.201c-15.745-2.53-13.638-17.883-.207-24.082,11.73-5.414,24.389-4.999,31.867-3.32,9.594,2.154,13.493,11.118.062,21.012-8.639,6.363-18.821,8.464-31.723,6.391Z" style="fill: #97afbb; opacity: .857;"/>
              <path d="m33.125,171.259c-15.43-1.974-13.274-16.842-.431-22.531,11.72-5.191,24.04-4.612,30.804-3.178,8.903,1.889,12.666,10.33-.564,19.781-8.14,5.814-17.318,7.526-29.809,5.928Z" style="fill: #92abb8; opacity: .905;"/>
              <path d="m34.076,170.317c-15.113-1.412-12.909-15.791-.653-20.979,11.712-4.958,23.692-4.229,29.74-3.036,8.213,1.62,11.847,9.554-1.192,18.55-7.638,5.27-15.815,6.594-27.894,5.465Z" style="fill: #8ca6b4; opacity: .952;"/>
              <path d="m35.027,169.376c-14.795-.84-12.543-14.733-.877-19.429,11.708-4.71,23.346-3.847,28.678-2.893,7.523,1.345,11.029,8.787-1.821,17.319-7.135,4.729-14.309,5.667-25.979,5.002Z" style="fill: #86a2b0;"/>
            </g>
            <g style="mix-blend-mode: multiply;">
              <path d="m192.568,235.926c-3.832-24.346,16.046-37.385,43.392-28.909,14.375,4.454,28.4,16.79,35.951,36.658,8.206,21.576-2.789,38.839-27.102,35.46-23.808-3.299-48.659-20.439-52.241-43.209Z" style="fill: #fff; opacity: 0;"/>
              <path d="m193.672,235.963c-4.05-23.767,15.55-36.735,42.095-28.307,14.219,4.515,27.836,16.648,35.1,35.938,7.886,20.905-2.494,37.564-26.376,34.234-23.042-3.198-47.091-19.721-50.818-41.866Z" style="fill: #f9fbfb; opacity: .048;"/>
              <path d="m194.775,236.001c-4.269-23.189,15.053-36.082,40.796-27.705,14.063,4.577,27.272,16.507,34.249,35.218,7.564,20.235-2.199,36.29-25.649,33.009-22.275-3.098-45.522-19.005-49.395-40.523Z" style="fill: #f3f6f7; opacity: .095;"/>
              <path d="m195.879,236.039c-4.42-22.623,14.556-35.423,39.498-27.101,13.906,4.64,26.708,16.365,33.397,34.498,7.244,19.565-1.904,35.015-24.923,31.783-21.51-2.997-43.893-18.299-47.973-39.179Z" style="fill: #eef2f4; opacity: .143;"/>
              <path d="m196.982,236.076c-4.619-22.049,14.057-34.761,38.199-26.499,13.752,4.706,26.145,16.224,32.546,33.778,6.925,18.894-1.608,33.739-24.195,30.557-20.743-2.897-42.308-17.587-46.55-37.836Z" style="fill: #e8edf0; opacity: .19;"/>
              <path d="m198.086,236.114c-4.819-21.476,13.557-34.091,36.9-25.897,13.597,4.773,25.58,16.083,31.695,33.058,6.603,18.224-1.313,32.465-23.469,29.332-19.978-2.796-40.724-16.873-45.127-36.493Z" style="fill: #e2e9ec; opacity: .238;"/>
              <path d="m199.19,236.151c-5.022-20.903,13.055-33.418,35.602-25.295,13.439,4.842,25.016,15.941,30.844,32.339,6.283,17.553-1.018,31.189-22.742,28.106-19.211-2.696-39.141-16.162-43.703-35.15Z" style="fill: #dce4e8; opacity: .286;"/>
              <path d="m200.294,236.188c-5.226-20.33,12.553-32.737,34.304-24.691,13.282,4.913,24.451,15.799,29.992,31.618,5.963,16.882-.724,29.915-22.016,26.88-18.445-2.596-37.56-15.449-42.28-33.807Z" style="fill: #d7e0e5; opacity: .333;"/>
              <path d="m201.396,236.227c-5.434-19.757,12.051-32.052,33.006-24.09,13.125,4.987,23.888,15.658,29.141,30.898,5.643,16.211-.428,28.64-21.288,25.654-17.679-2.495-35.983-14.737-40.858-32.463Z" style="fill: #d1dce1; opacity: .381;"/>
              <path d="m202.501,236.264c-5.643-19.185,11.543-31.361,31.707-23.487,12.967,5.063,23.323,15.516,28.29,30.178,5.322,15.541-.134,27.365-20.562,24.43-16.913-2.395-34.406-14.025-39.434-31.121Z" style="fill: #cbd7dd; opacity: .429;"/>
              <path d="m203.604,236.302c-5.853-18.611,11.037-30.664,30.408-22.885,12.81,5.144,22.76,15.374,27.438,29.458,5.002,14.87.162,26.091-19.835,23.204-16.146-2.294-32.833-13.312-38.012-29.777Z" style="fill: #c5d3d9; opacity: .476;"/>
              <path d="m204.708,236.339c-6.066-18.037,10.527-29.96,29.11-22.282,12.648,5.226,22.168,15.241,26.587,28.738,4.652,14.209.456,24.815-19.108,21.978-15.381-2.194-31.263-12.598-36.589-28.434Z" style="fill: #c0ced6; opacity: .524;"/>
              <path d="m205.811,236.377c-6.284-17.464,10.016-29.252,27.811-21.68,12.488,5.314,21.604,15.1,25.736,28.018,4.332,13.539.752,23.541-18.382,20.753-14.614-2.094-29.694-11.885-35.166-27.091Z" style="fill: #bacad2; opacity: .571;"/>
              <path d="m206.915,236.414c-6.505-16.888,9.502-28.536,26.514-21.077,12.325,5.404,21.038,14.959,24.884,27.298,4.011,12.868,1.047,22.266-17.654,19.527-13.849-1.993-28.128-11.171-33.743-25.748Z" style="fill: #b4c5ce; opacity: .619;"/>
              <path d="m208.019,236.452c-6.728-16.312,8.984-27.815,25.214-20.476,12.161,5.499,20.475,14.817,24.033,26.578,3.69,12.198,1.342,20.991-16.928,18.301-13.082-1.893-26.565-10.454-32.319-24.404Z" style="fill: #aec1ca; opacity: .667;"/>
              <path d="m209.122,236.489c-6.956-15.733,8.465-27.086,23.917-19.872,11.993,5.6,19.911,14.674,23.182,25.858,3.371,11.527,1.637,19.716-16.201,17.076-12.316-1.793-25.007-9.738-30.897-23.061Z" style="fill: #a9bdc7; opacity: .714;"/>
              <path d="m210.226,236.527c-7.188-15.153,7.94-26.353,22.617-19.27,11.824,5.706,19.349,14.533,22.331,25.138,3.053,10.855,1.932,18.441-15.475,15.85-11.55-1.692-23.451-9.02-29.474-21.718Z" style="fill: #a3b8c3; opacity: .762;"/>
              <path d="m211.33,236.564c-7.423-14.571,7.414-25.612,21.319-18.668,11.65,5.818,18.787,14.39,21.479,24.418,2.734,10.183,2.227,17.167-14.748,14.624-10.784-1.591-21.898-8.298-28.051-20.375Z" style="fill: #9db4bf; opacity: .81;"/>
              <path d="m212.433,236.603c-7.663-13.985,6.883-24.866,20.021-18.065,11.472,5.938,18.226,14.247,20.628,23.698,2.418,9.511,2.521,15.892-14.021,13.398-10.018-1.491-20.35-7.574-26.628-19.031Z" style="fill: #97afbb; opacity: .857;"/>
              <path d="m213.537,236.64c-7.908-13.394,6.347-24.112,18.723-17.462,11.289,6.066,17.683,14.1,19.777,22.978,2.118,8.835,2.816,14.617-13.295,12.172-9.252-1.39-18.804-6.847-25.205-17.688Z" style="fill: #92abb8; opacity: .905;"/>
              <path d="m214.64,236.677c-8.158-12.798,5.806-23.353,17.425-16.86,11.1,6.202,17.119,13.959,18.925,22.258,1.798,8.165,3.112,13.342-12.567,10.947-8.486-1.29-17.262-6.116-23.782-16.345Z" style="fill: #8ca6b4; opacity: .952;"/>
              <path d="m215.744,236.715c-8.414-12.195,5.258-22.587,16.126-16.258,10.901,6.352,16.555,13.817,18.074,21.538,1.478,7.494,3.407,12.067-11.841,9.722-7.72-1.189-15.724-5.38-22.359-15.002Z" style="fill: #86a2b0;"/>
            </g>
            <g style="mix-blend-mode: multiply;">
              <path d="m179.284,231.349c-17.522-17.329-39.722-8.806-48.811,18.344-4.78,14.271-2.959,32.859,8.754,50.589,12.724,19.266,33.152,20.426,44.62-1.288,11.222-21.255,11.826-51.43-4.563-67.644Z" style="fill: #fff; opacity: 0;"/>
              <path d="m178.67,232.267c-16.925-17.168-38.903-8.829-47.563,17.642-4.639,14.18-2.744,32.318,8.668,49.477,12.365,18.614,31.944,19.92,43.199-1.414,10.856-20.574,11.493-49.738-4.304-65.705Z" style="fill: #f9fbfb; opacity: .048;"/>
              <path d="m178.055,233.185c-16.328-17.007-38.083-8.851-46.315,16.939-4.498,14.09-2.53,31.779,8.58,48.366,12.009,17.962,30.738,19.416,41.78-1.54,10.49-19.893,11.159-48.045-4.045-63.765Z" style="fill: #f3f6f7; opacity: .095;"/>
              <path d="m177.441,234.103c-15.778-16.802-37.258-8.87-45.068,16.236-4.355,14-2.314,31.238,8.493,47.255,11.652,17.31,29.531,18.91,40.36-1.666,10.126-19.213,10.782-46.312-3.785-61.825Z" style="fill: #eef2f4; opacity: .143;"/>
              <path d="m176.828,235.02c-15.196-16.629-36.428-8.888-43.821,15.534-4.212,13.912-2.101,30.697,8.406,46.143,11.294,16.659,28.323,18.405,38.94-1.791,9.76-18.532,10.435-44.61-3.525-59.886Z" style="fill: #e8edf0; opacity: .19;"/>
              <path d="m176.213,235.938c-14.614-16.457-35.591-8.903-42.572,14.831-4.066,13.825-1.887,30.157,8.318,45.032,10.937,16.007,27.116,17.899,37.519-1.918,9.395-17.851,10.089-42.907-3.266-57.945Z" style="fill: #e2e9ec; opacity: .238;"/>
              <path d="m175.599,236.856c-14.031-16.286-34.752-8.916-41.326,14.129-3.919,13.738-1.672,29.616,8.232,43.92,10.579,15.355,25.908,17.394,36.1-2.043,9.029-17.171,9.743-41.208-3.006-56.006Z" style="fill: #dce4e8; opacity: .286;"/>
              <path d="m174.985,237.774c-13.446-16.117-33.908-8.928-40.079,13.426-3.769,13.653-1.457,29.076,8.145,42.809,10.222,14.703,24.702,16.889,34.68-2.169,8.664-16.49,9.399-39.508-2.746-54.066Z" style="fill: #d7e0e5; opacity: .333;"/>
              <path d="m174.371,238.693c-12.861-15.95-33.057-8.937-38.831,12.723-3.617,13.569-1.242,28.536,8.058,41.698,9.865,14.051,23.495,16.384,33.26-2.295,8.299-15.809,9.057-37.81-2.486-52.126Z" style="fill: #d1dce1; opacity: .381;"/>
              <path d="m173.757,239.61c-12.274-15.785-32.2-8.943-37.584,12.022-3.463,13.485-1.028,27.995,7.972,40.586,9.507,13.399,22.287,15.879,31.84-2.421,7.934-15.129,8.714-36.116-2.228-50.187Z" style="fill: #cbd7dd; opacity: .429;"/>
              <path d="m173.142,240.529c-11.687-15.621-31.337-8.949-36.336,11.318-3.306,13.404-.813,27.455,7.883,39.475,9.151,12.747,21.082,15.373,30.422-2.547,7.566-14.448,8.373-34.422-1.969-48.246Z" style="fill: #c5d3d9; opacity: .476;"/>
              <path d="m172.528,241.447c-11.095-15.459-30.47-8.952-35.089,10.616-3.144,13.322-.575,26.897,7.797,38.363,8.818,12.078,19.873,14.868,29-2.673,7.203-13.768,8.035-32.729-1.708-46.306Z" style="fill: #c0ced6; opacity: .524;"/>
              <path d="m171.914,242.365c-10.502-15.3-29.595-8.953-33.841,9.914-2.98,13.243-.36,26.355,7.71,37.252,8.462,11.425,18.666,14.363,27.58-2.799,6.837-13.087,7.699-31.039-1.449-44.367Z" style="fill: #bacad2; opacity: .571;"/>
              <path d="m171.3,243.283c-9.907-15.142-28.713-8.953-32.593,9.211-2.811,13.164-.145,25.815,7.622,36.141,8.104,10.773,17.459,13.857,26.16-2.925,6.472-12.406,7.365-29.351-1.189-42.426Z" style="fill: #b4c5ce; opacity: .619;"/>
              <path d="m170.685,244.201c-9.309-14.987-27.825-8.952-31.346,8.508-2.639,13.086.069,25.274,7.535,35.029,7.746,10.121,16.252,13.352,24.741-3.051,6.105-11.726,7.033-27.664-.931-40.487Z" style="fill: #aec1ca; opacity: .667;"/>
              <path d="m170.072,245.119c-8.707-14.835-26.932-8.949-30.1,7.806-2.46,13.01.284,24.733,7.449,33.917,7.388,9.47,15.045,12.847,23.32-3.176,5.74-11.045,6.706-25.98-.67-38.547Z" style="fill: #a9bdc7; opacity: .714;"/>
              <path d="m169.457,246.037c-8.101-14.683-26.028-8.945-28.851,7.103-2.274,12.934.496,24.194,7.361,32.806,7.03,8.818,13.838,12.342,21.9-3.302,5.375-10.364,6.381-24.297-.411-36.607Z" style="fill: #a3b8c3; opacity: .762;"/>
              <path d="m168.843,246.955c-7.49-14.534-25.12-8.94-27.604,6.4-2.082,12.859.71,23.655,7.275,31.695,6.67,8.167,12.63,11.836,20.48-3.428,5.009-9.683,6.06-22.616-.151-34.667Z" style="fill: #9db4bf; opacity: .81;"/>
              <path d="m168.229,247.873c-6.874-14.386-24.204-8.935-26.356,5.699-1.881,12.784.92,23.116,7.187,30.584,6.311,7.519,11.423,11.331,19.061-3.554,4.645-9.003,5.743-20.936.108-32.728Z" style="fill: #97afbb; opacity: .857;"/>
              <path d="m167.615,248.791c-6.251-14.24-23.279-8.931-25.109,4.996-1.67,12.709,1.132,22.578,7.1,29.472,5.948,6.87,10.217,10.826,17.641-3.68,4.278-8.323,5.431-19.256.368-30.788Z" style="fill: #92abb8; opacity: .905;"/>
              <path d="m167.001,249.708c-5.622-14.095-22.347-8.926-23.861,4.293-1.448,12.637,1.332,22.051,7.014,28.361,5.576,6.23,9.008,10.321,16.221-3.806,3.913-7.642,5.123-17.577.627-28.848Z" style="fill: #8ca6b4; opacity: .952;"/>
              <path d="m166.386,250.627c-4.984-13.95-21.406-8.925-22.614,3.591-1.213,12.562,1.547,21.51,6.927,27.249,5.22,5.578,7.802,9.816,14.801-3.932,3.548-6.961,4.822-15.898.887-26.908Z" style="fill: #86a2b0;"/>
            </g>
          </g>
          <g>
            <path d="m167.359,39.839c0,17.607-16.301,31.883-16.301,31.883,0,0-16.295-14.275-16.295-31.883s16.295-31.888,16.295-31.888c0,0,16.301,14.275,16.301,31.888Z" style="fill: #ffe3ab;"/>
            <path d="m167.359,262.57c0,17.612-16.301,31.883-16.301,31.883,0,0-16.295-14.27-16.295-31.883s16.295-31.883,16.295-31.883c0,0,16.301,14.272,16.301,31.883Z" style="fill: #ffe3ab;"/>
            <path d="m39.694,134.907c17.607,0,31.884,16.3,31.884,16.3,0,0-14.276,16.295-31.884,16.295s-31.888-16.295-31.888-16.295c0,0,14.276-16.3,31.888-16.3Z" style="fill: #ffe3ab;"/>
            <path d="m262.426,134.907c17.612,0,31.888,16.3,31.888,16.3,0,0-14.275,16.295-31.888,16.295s-31.888-16.295-31.888-16.295c0,0,14.28-16.3,31.888-16.3Z" style="fill: #ffe3ab;"/>
            <path d="m60.789,218.428c12.45-12.449,34.068-11.02,34.068-11.02,0,0,1.431,21.618-11.018,34.067-12.454,12.449-34.073,11.024-34.073,11.024,0,0-1.43-21.623,11.023-34.072Z" style="fill: #ffe3ab;"/>
            <path d="m218.283,60.929c12.454-12.449,34.072-11.02,34.072-11.02,0,0,1.431,21.619-11.023,34.068-12.449,12.454-34.067,11.024-34.067,11.024,0,0-1.43-21.619,11.019-34.073Z" style="fill: #ffe3ab;"/>
            <path d="m218.283,241.476c-12.453-12.449-11.019-34.067-11.019-34.067,0,0,21.613-1.43,34.067,11.02,12.454,12.453,11.023,34.072,11.023,34.072,0,0-21.618,1.425-34.072-11.024Z" style="fill: #ffe3ab;"/>
            <path d="m60.785,83.978c-12.449-12.449-11.019-34.068-11.019-34.068,0,0,21.619-1.43,34.073,11.02,12.449,12.454,11.018,34.073,11.018,34.073,0,0-21.618,1.43-34.072-11.024Z" style="fill: #ffe3ab;"/>
          </g>
          <g>
            <path d="m248.959,205.865c-13.012-5.39-18.575-21.803-18.575-21.803,0,0,15.54-7.679,28.556-2.284,13.016,5.39,18.574,21.803,18.574,21.803,0,0-15.54,7.678-28.555,2.284Z" style="fill: #ffe3ab;"/>
            <path d="m43.182,120.631c-13.016-5.389-18.58-21.807-18.58-21.807,0,0,15.541-7.674,28.556-2.284,13.016,5.39,18.58,21.808,18.58,21.808,0,0-15.541,7.678-28.556,2.283Z" style="fill: #ffe3ab;"/>
            <path d="m120.488,43.326c5.389,13.016-2.285,28.551-2.285,28.551,0,0-16.418-5.559-21.807-18.574-5.39-13.016,2.284-28.556,2.284-28.556,0,0,16.417,5.564,21.808,18.579Z" style="fill: #ffe3ab;"/>
            <path d="m205.725,249.102c5.39,13.016-2.284,28.561-2.284,28.561,0,0-16.418-5.564-21.807-18.579-5.395-13.016,2.283-28.556,2.283-28.556,0,0,16.413,5.56,21.808,18.574Z" style="fill: #ffe3ab;"/>
            <path d="m43.182,181.778c13.015-5.395,28.556,2.284,28.556,2.284,0,0-5.564,16.413-18.58,21.803-13.011,5.394-28.556-2.284-28.556-2.284,0,0,5.564-16.413,18.58-21.803Z" style="fill: #ffe3ab;"/>
            <path d="m248.963,96.54c13.011-5.39,28.551,2.284,28.551,2.284,0,0-5.559,16.413-18.574,21.807-13.016,5.395-28.556-2.283-28.556-2.283,0,0,5.563-16.418,18.579-21.808Z" style="fill: #ffe3ab;"/>
            <path d="m96.396,249.102c5.389-13.015,21.807-18.574,21.807-18.574,0,0,7.674,15.54,2.285,28.556-5.391,13.016-21.808,18.579-21.808,18.579,0,0-7.674-15.545-2.284-28.561Z" style="fill: #ffe3ab;"/>
            <path d="m181.635,43.326c5.389-13.016,21.807-18.579,21.807-18.579,0,0,7.674,15.54,2.284,28.556-5.39,13.016-21.808,18.574-21.808,18.574,0,0-7.678-15.535-2.283-28.551Z" style="fill: #ffe3ab;"/>
          </g>
          <g>
            <path d="m168.84,41.32c0,17.612-16.295,31.888-16.295,31.888,0,0-16.295-14.275-16.295-31.888s16.295-31.883,16.295-31.883c0,0,16.295,14.275,16.295,31.883Z" style="fill: url(#linear-gradient);"/>
            <path d="m168.84,264.058c0,17.606-16.295,31.883-16.295,31.883,0,0-16.295-14.276-16.295-31.883s16.295-31.888,16.295-31.888c0,0,16.295,14.275,16.295,31.888Z" style="fill: url(#linear-gradient-2);"/>
            <path d="m41.176,136.389c17.612,0,31.888,16.301,31.888,16.301,0,0-14.275,16.3-31.888,16.3s-31.883-16.3-31.883-16.3c0,0,14.275-16.301,31.883-16.301Z" style="fill: url(#linear-gradient-3);"/>
            <path d="m263.914,136.389c17.606,0,31.882,16.301,31.882,16.301,0,0-14.275,16.3-31.882,16.3s-31.888-16.3-31.888-16.3c0,0,14.275-16.301,31.888-16.301Z" style="fill: url(#linear-gradient-4);"/>
            <path d="m62.271,219.914c12.454-12.454,34.072-11.02,34.072-11.02,0,0,1.43,21.614-11.023,34.063-12.449,12.454-34.068,11.023-34.068,11.023,0,0-1.43-21.618,11.02-34.067Z" style="fill: url(#linear-gradient-5);"/>
            <path d="m219.769,62.415c12.449-12.454,34.068-11.019,34.068-11.019,0,0,1.431,21.613-11.019,34.067-12.454,12.454-34.072,11.019-34.072,11.019,0,0-1.431-21.614,11.023-34.068Z" style="fill: url(#linear-gradient-6);"/>
            <path d="m219.769,242.958c-12.454-12.449-11.023-34.063-11.023-34.063,0,0,21.618-1.435,34.072,11.02,12.45,12.449,11.019,34.067,11.019,34.067,0,0-21.619,1.431-34.068-11.023Z" style="fill: url(#linear-gradient-7);"/>
            <path d="m62.271,85.464c-12.449-12.454-11.02-34.067-11.02-34.067,0,0,21.619-1.436,34.068,11.019,12.453,12.454,11.023,34.068,11.023,34.068,0,0-21.618,1.435-34.072-11.019Z" style="fill: url(#linear-gradient-8);"/>
          </g>
          <g>
            <path d="m250.444,207.352c-13.015-5.39-18.574-21.808-18.574-21.808,0,0,15.536-7.673,28.556-2.284,13.011,5.395,18.574,21.808,18.574,21.808,0,0-15.54,7.678-28.556,2.284Z" style="fill: url(#linear-gradient-9);"/>
            <path d="m44.664,122.118c-13.011-5.39-18.575-21.812-18.575-21.812,0,0,15.541-7.673,28.557-2.279,13.016,5.39,18.575,21.808,18.575,21.808,0,0-15.541,7.674-28.557,2.284Z" style="fill: url(#linear-gradient-10);"/>
            <path d="m121.973,44.809c5.39,13.016-2.284,28.556-2.284,28.556,0,0-16.417-5.56-21.807-18.575-5.394-13.016,2.284-28.556,2.284-28.556,0,0,16.413,5.56,21.807,18.575Z" style="fill: url(#linear-gradient-11);"/>
            <path d="m207.207,250.589c5.395,13.016-2.284,28.556-2.284,28.556,0,0-16.413-5.56-21.802-18.574-5.394-13.016,2.283-28.561,2.283-28.561,0,0,16.414,5.564,21.803,18.579Z" style="fill: url(#linear-gradient-12);"/>
            <path d="m44.669,183.26c13.011-5.389,28.552,2.284,28.552,2.284,0,0-5.56,16.418-18.575,21.808-13.016,5.394-28.557-2.284-28.557-2.284,0,0,5.564-16.413,18.58-21.808Z" style="fill: url(#linear-gradient-13);"/>
            <path d="m250.444,98.021c13.016-5.389,28.556,2.284,28.556,2.284,0,0-5.563,16.418-18.574,21.812-13.016,5.39-28.556-2.284-28.556-2.284,0,0,5.56-16.418,18.574-21.812Z" style="fill: url(#linear-gradient-14);"/>
            <path d="m97.883,250.589c5.39-13.016,21.807-18.579,21.807-18.579,0,0,7.674,15.54,2.284,28.561-5.394,13.015-21.807,18.574-21.807,18.574,0,0-7.674-15.54-2.284-28.556Z" style="fill: url(#linear-gradient-15);"/>
            <path d="m183.116,44.809c5.394-13.016,21.807-18.575,21.807-18.575,0,0,7.679,15.535,2.284,28.556-5.389,13.011-21.803,18.575-21.803,18.575,0,0-7.678-15.54-2.288-28.556Z" style="fill: url(#linear-gradient-16);"/>
          </g>
          <g style="mix-blend-mode: multiply;">
            <path d="m253.875,267.049c-46.063,38.235-109.102,46.399-164.969,11.567-74.421-46.409-57.318-109.179-23.161-110.628,33.567-1.43,61.892,9.755,83.491-12.869,25.153-26.348,25.333-55.361,31.978-85.733,7.409-33.817,50.25-44.615,96.513,4.587,50.278,53.478,34.204,144.908-23.852,193.076Z" style="fill: #fff; opacity: 0;"/>
            <path d="m252.485,264.195c-44.779,37.448-105.85,45.78-160.37,12.648-72.927-44.135-57.586-105.155-24.501-106.811,32.332-1.543,61.422,10.572,83.921-13.335,25.059-26.627,24.968-55.156,31.163-85.056,6.836-32.99,48.546-43.401,93.157,4.782,48.245,51.794,33.216,140.428-23.37,187.773Z" style="fill: #f9fbfb; opacity: .048;"/>
            <path d="m251.096,261.342c-43.495,36.66-102.599,45.16-155.773,13.729-71.433-41.861-57.857-101.212-25.84-102.995,31.093-1.732,60.957,11.395,84.351-13.8,24.973-26.895,24.609-54.948,30.349-84.379,6.271-32.159,46.698-42.055,89.803,4.976,46.057,50.251,32.227,135.948-22.889,182.469Z" style="fill: #f3f6f7; opacity: .095;"/>
            <path d="m249.708,258.488c-42.212,35.873-99.262,44.391-151.176,14.809-69.824-39.788-58.129-97.227-27.18-99.177,29.854-1.882,60.495,12.222,84.779-14.267,24.896-27.156,24.255-54.738,29.536-83.702,5.712-31.326,44.923-40.778,86.446,5.171,43.949,48.632,31.238,131.468-22.406,177.166Z" style="fill: #eef2f4; opacity: .143;"/>
            <path d="m248.318,255.635c-40.928,35.086-95.986,43.725-146.577,15.889-68.299-37.579-58.4-93.24-28.519-95.359,28.614-2.03,60.038,13.055,85.207-14.732,24.827-27.409,23.903-54.526,28.723-83.025,5.156-30.491,43.148-39.506,83.092,5.365,41.845,47.007,30.249,126.988-21.926,171.862Z" style="fill: #e8edf0; opacity: .19;"/>
            <path d="m246.929,252.781c-39.645,34.298-92.716,43.061-141.98,16.97-66.777-35.366-58.672-89.253-29.857-91.543,27.377-2.175,59.588,13.893,85.637-15.198,24.764-27.655,23.555-54.312,27.908-82.348,4.605-29.654,41.377-38.237,79.736,5.56,39.745,45.378,29.261,122.507-21.443,166.559Z" style="fill: #e2e9ec; opacity: .238;"/>
            <path d="m245.541,249.928c-38.36,33.511-89.447,42.399-137.383,18.05-65.261-33.149-58.945-85.265-31.197-87.726,26.137-2.319,59.143,14.736,86.066-15.663,24.706-27.895,23.209-54.096,27.094-81.671,4.06-28.814,39.607-36.973,76.382,5.754,37.648,43.743,28.272,118.028-20.962,161.255Z" style="fill: #dce4e8; opacity: .286;"/>
            <path d="m244.152,247.074c-37.077,32.724-86.184,41.742-132.785,19.131-63.749-30.931-59.219-81.273-32.537-83.909,24.897-2.459,58.701,15.583,86.496-16.129,24.655-28.131,22.867-53.878,26.279-80.993,3.519-27.972,37.84-35.713,73.026,5.949,35.558,42.101,27.283,113.547-20.479,155.952Z" style="fill: #d7e0e5; opacity: .333;"/>
            <path d="m242.763,244.221c-35.793,31.936-82.924,41.087-128.187,20.211-62.242-28.707-59.492-77.279-33.877-80.092,23.656-2.597,58.266,16.435,86.926-16.595,24.609-28.361,22.531-53.658,25.465-80.316,2.985-27.128,36.076-34.458,69.672,6.144,33.472,40.452,26.294,109.067-19.998,150.648Z" style="fill: #d1dce1; opacity: .381;"/>
            <path d="m241.374,241.367c-34.509,31.148-79.667,40.438-123.59,21.291-60.741-26.476-59.767-73.284-35.216-76.276,22.416-2.731,57.835,17.292,87.354-17.06,24.566-28.588,22.201-53.436,24.652-79.64,2.458-26.283,34.315-33.209,66.315,6.339,31.392,38.796,25.307,104.587-19.517,145.345Z" style="fill: #cbd7dd; opacity: .429;"/>
            <path d="m239.985,238.514c-33.225,30.361-76.414,39.793-118.992,22.372-59.246-24.241-60.043-69.284-36.556-72.458,21.176-2.862,57.408,18.152,87.783-17.526,24.53-28.812,21.877-53.213,23.839-78.962,1.938-25.436,32.56-31.968,62.961,6.533,29.319,37.132,24.317,100.106-19.035,140.041Z" style="fill: #c5d3d9; opacity: .476;"/>
            <path d="m238.595,235.66c-31.878,29.642-73.168,39.154-114.394,23.452-57.757-21.998-60.318-65.28-37.895-68.641,19.933-2.988,56.987,19.017,88.213-17.992,24.495-29.033,21.559-52.987,23.024-78.285,1.425-24.586,30.812-30.733,59.605,6.728,27.256,35.46,23.412,95.716-18.554,134.738Z" style="fill: #c0ced6; opacity: .524;"/>
            <path d="m237.207,232.807c-30.593,28.855-69.925,38.523-109.797,24.533-56.273-19.745-60.595-61.273-39.234-64.825,18.692-3.109,56.572,19.887,88.643-18.457,24.464-29.25,21.247-52.76,22.21-77.608.92-23.737,29.07-29.509,56.251,6.922,25.201,33.777,22.426,91.237-18.072,129.435Z" style="fill: #bacad2; opacity: .571;"/>
            <path d="m235.818,229.953c-29.31,28.067-66.686,37.899-105.199,25.613-54.796-17.481-60.872-57.257-40.574-61.008,17.449-3.224,56.162,20.761,89.072-18.922,24.436-29.465,20.945-52.534,21.396-76.931.424-22.886,27.337-28.293,52.894,7.117,23.157,32.084,21.438,86.757-17.59,124.131Z" style="fill: #b4c5ce; opacity: .619;"/>
            <path d="m234.429,227.1c-28.026,27.277-63.451,37.286-100.603,26.694-53.323-15.203-61.147-53.236-41.913-57.19,16.209-3.333,55.756,21.637,89.501-19.389,24.412-29.679,20.652-52.306,20.583-76.253-.064-22.036,25.618-27.088,49.54,7.311,21.126,30.38,20.448,82.274-17.108,118.827Z" style="fill: #aec1ca; opacity: .667;"/>
            <path d="m233.04,224.246c-26.744,26.486-60.219,36.684-96.004,27.774-51.856-12.911-61.423-49.208-43.253-53.374,14.969-3.433,55.354,22.517,89.931-19.855,24.39-29.889,20.37-52.079,19.768-75.576-.543-21.185,23.914-25.896,46.185,7.506,19.111,28.664,19.457,77.79-16.627,113.524Z" style="fill: #a9bdc7; opacity: .714;"/>
            <path d="m231.65,221.393c-25.466,25.693-56.989,36.093-91.405,28.855-50.393-10.599-61.698-45.166-44.592-49.557,13.729-3.524,54.959,23.402,90.359-20.32,24.37-30.099,20.1-51.854,18.954-74.899-1.011-20.335,22.23-24.718,42.83,7.701,17.114,26.934,18.462,73.302-16.146,108.22Z" style="fill: #a3b8c3; opacity: .762;"/>
            <path d="m230.261,218.539c-24.187,24.898-53.762,35.517-86.809,29.935-48.933-8.266-61.968-41.113-45.931-45.739,12.493-3.604,54.567,24.291,90.788-20.786,24.354-30.307,19.843-51.629,18.141-74.222-1.469-19.487,20.574-23.557,39.475,7.896,15.139,25.192,17.466,68.813-15.664,102.917Z" style="fill: #9db4bf; opacity: .81;"/>
            <path d="m228.873,215.686c-22.955,24.061-50.535,34.957-82.211,31.016-47.472-5.908-62.231-37.043-47.27-41.923,11.262-3.673,54.183,25.182,91.218-21.251,24.338-30.514,19.6-51.41,17.326-73.545-1.915-18.643,18.953-22.415,36.12,8.09,13.189,23.436,16.407,64.266-15.183,97.613Z" style="fill: #97afbb; opacity: .857;"/>
            <path d="m227.483,212.832c-21.67,23.274-47.303,34.416-77.612,32.096-46.006-3.521-62.486-32.952-48.61-38.105,10.038-3.727,53.895,26.149,91.647-21.717,24.385-30.672,19.375-51.195,16.513-72.868-2.352-17.803,17.38-21.291,32.764,8.285,11.271,21.669,15.419,59.786-14.701,92.31Z" style="fill: #92abb8; opacity: .905;"/>
            <path d="m226.094,209.979c-20.387,22.487-44.065,33.893-73.016,33.176-44.53-1.102-62.725-28.834-49.949-34.289,8.823-3.767,53.474,27.013,92.077-22.183,24.343-30.899,19.166-50.986,15.698-72.191-2.775-16.968,15.872-20.19,29.408,8.479,9.392,19.893,14.431,55.306-14.219,87.007Z" style="fill: #8ca6b4; opacity: .952;"/>
            <path d="m224.706,207.125c-19.103,21.699-40.816,33.389-68.418,34.257-43.04,1.35-62.936-24.682-51.289-30.472,7.626-3.79,53.053,27.876,92.506-22.648,24.304-31.127,18.976-50.787,14.885-71.514-3.19-16.141,14.464-19.113,26.054,8.674,7.56,18.111,13.441,50.825-13.737,81.703Z" style="fill: #86a2b0;"/>
          </g>
          <path d="m241.851,151.207c0,50.137-40.647,90.788-90.793,90.788s-90.788-40.651-90.788-90.788,40.646-90.797,90.788-90.797,90.793,40.65,90.793,90.797Z" style="fill: #ffe3ab;"/>
          <path d="m243.338,152.689c0,50.141-40.651,90.787-90.793,90.787s-90.793-40.646-90.793-90.787,40.652-90.793,90.793-90.793,90.793,40.65,90.793,90.793Z" style="fill: url(#linear-gradient-17);"/>
        </g>
      </g>
    </g>
  </g>
</svg>