<?xml version="1.0" encoding="UTF-8"?><svg xmlns="http://www.w3.org/2000/svg" width="298.44" height="193.88" viewBox="0 0 298.44 193.88"><defs><style>.cls-1{fill:#f9fafa;opacity:.05;}.cls-2{fill:#f2f4f5;opacity:.1;}.cls-3{fill:#f0f7fc;}.cls-4{fill:#7a8d94;}.cls-5{mix-blend-mode:multiply;}.cls-6{fill:#eceff0;opacity:.14;}.cls-7{fill:#e6e9eb;opacity:.19;}.cls-8{fill:#fff;opacity:0;}.cls-9{isolation:isolate;}.cls-10{fill:#b3bec2;opacity:.57;}.cls-11{fill:#adb8bd;opacity:.62;}.cls-12{fill:#b9c3c7;opacity:.52;}.cls-13{fill:#c0c9cc;opacity:.48;}.cls-14{fill:#87989e;opacity:.9;}.cls-15{fill:#8d9da3;opacity:.86;}.cls-16{fill:#9aa8ad;opacity:.76;}.cls-17{fill:#93a3a8;opacity:.81;}.cls-18{fill:#a0aeb3;opacity:.71;}.cls-19{fill:#d3d9db;opacity:.33;}.cls-20{fill:#d9dee0;opacity:.29;}.cls-21{fill:#dfe4e6;opacity:.24;}.cls-22{fill:#c6ced1;opacity:.43;}.cls-23{fill:#ccd4d6;opacity:.38;}.cls-24{fill:#a6b3b8;opacity:.67;}.cls-25{fill:#809299;opacity:.95;}</style></defs><g class="cls-9"><g id="Layer_2"><g id="spring-scene"><g id="cloud"><g class="cls-5"><path class="cls-8" d="m150.48,193.77C64.7,196.59-13.5,143.81,1.97,74.62,14.69,17.67,120.11-8.06,193.05,2.21c39.01,5.49,94.14,35,104.28,92.75,7.54,42.96-21.41,94.69-146.85,98.81Z"/><path class="cls-1" d="m150.36,190.31C66.96,193.26-9.98,142.39,4.52,75.35,16.49,20.38,118.75-5.49,189.55,4.54c38.49,5.48,94.54,33.83,104.32,90.28,7.27,41.92-22.54,91.33-143.51,95.48Z"/><path class="cls-2" d="m150.24,186.85C69.22,189.93-6.46,140.96,7.08,76.09,18.3,23.09,117.39-2.92,186.06,6.88c37.97,5.48,94.94,32.65,104.36,87.82,7,40.89-23.68,87.97-140.18,92.16Z"/><path class="cls-6" d="m150.12,183.39C71.48,186.6-3.08,139.51,9.64,76.82,19.99,25.78,116.03-.36,182.56,9.21c37.46,5.47,95.34,31.47,104.4,85.35,6.72,39.85-24.82,84.61-136.84,88.83Z"/><path class="cls-7" d="m150,179.93C73.73,183.11.39,138.08,12.19,77.55,21.76,28.49,114.66,2.21,179.07,11.55c36.94,5.47,95.73,30.29,104.44,82.88,6.45,38.82-25.97,81.03-133.51,85.51Z"/><path class="cls-21" d="m149.88,176.47C75.99,179.75,3.87,136.65,14.75,78.29,23.53,31.19,113.3,4.77,175.57,13.88c36.42,5.46,96.13,29.12,104.48,80.41,6.17,37.78-27.11,77.62-130.17,82.18Z"/><path class="cls-20" d="m149.76,173.01c-71.51,3.37-142.42-37.8-132.46-94C25.3,33.9,111.96,7.21,172.08,16.21c35.92,5.38,96.53,27.94,104.52,77.95,5.9,36.75-28.25,74.21-126.84,78.86Z"/><path class="cls-19" d="m149.64,169.56c-69.14,3.47-138.82-35.77-129.78-89.8C27.08,36.61,110.6,9.76,168.58,18.55c35.4,5.36,96.93,26.76,104.56,75.48,5.63,35.71-29.39,70.81-123.5,75.53Z"/><path class="cls-23" d="m149.53,166.1c-66.76,3.57-135.22-33.73-127.11-85.61C28.86,39.32,109.24,12.32,165.09,20.88c34.88,5.35,97.33,25.59,104.6,73.01,5.36,34.68-30.53,67.42-120.16,72.2Z"/><path class="cls-22" d="m149.41,162.64c-64.39,3.67-131.61-31.7-124.43-81.42C30.64,42.03,107.88,14.87,161.59,23.21c34.37,5.34,97.73,24.41,104.64,70.55,5.08,33.64-31.67,64.03-116.83,68.88Z"/><path class="cls-13" d="m149.29,159.18c-62.01,3.77-128-29.66-121.75-77.22,4.89-37.21,78.99-64.52,130.56-56.41,33.85,5.32,98.13,23.23,104.69,68.08,4.81,32.61-32.82,60.64-113.49,65.55Z"/><path class="cls-12" d="m149.17,155.72c-59.63,3.89-124.39-27.62-119.08-73.03,4.12-35.23,75.08-62.69,124.51-54.81,33.34,5.31,98.53,22.06,104.72,65.61,4.53,31.57-33.96,57.26-110.16,62.23Z"/><path class="cls-10" d="m149.05,152.26c-57.26,4-120.77-25.59-116.4-68.84,3.36-33.24,71.16-60.85,118.46-53.21,32.82,5.31,98.93,20.88,104.77,63.14,4.26,30.54-35.1,53.89-106.82,58.9Z"/><path class="cls-11" d="m148.93,148.8c-54.88,4.12-117.15-23.54-113.73-64.64,2.6-31.26,67.24-59.02,112.41-51.61,32.3,5.3,99.33,19.7,104.81,60.68,3.99,29.5-36.24,50.53-103.49,55.57Z"/><path class="cls-24" d="m148.81,145.34c-52.51,4.25-113.52-21.5-111.05-60.45,1.85-29.28,63.32-57.18,106.36-50.01,31.79,5.3,99.72,18.52,104.85,58.21,3.71,28.46-37.38,47.17-100.15,52.25Z"/><path class="cls-18" d="m148.69,141.88c-50.13,4.38-109.87-19.45-108.38-56.26,1.11-27.29,59.4-55.33,100.3-48.41,31.27,5.3,100.12,17.35,104.89,55.74,3.44,27.43-38.52,43.83-96.82,48.92Z"/><path class="cls-16" d="m148.57,138.42c-47.75,4.52-106.22-17.41-105.7-52.06.38-25.3,55.48-53.49,94.25-46.81,30.75,5.3,100.52,16.17,104.93,53.27,3.17,26.39-39.66,40.5-93.48,45.6Z"/><path class="cls-17" d="m148.45,134.96c-45.37,4.68-102.54-15.36-103.02-47.87-.34-23.31,51.56-51.63,88.2-45.21,30.23,5.3,100.92,14.99,104.97,50.81,2.89,25.36-40.79,37.18-90.14,42.27Z"/><path class="cls-15" d="m148.34,131.5c-42.99,4.85-98.85-13.31-100.35-43.68-1.05-21.33,47.64-49.78,82.15-43.61,29.71,5.31,101.32,13.82,105.01,48.34,2.62,24.32-41.93,33.88-86.81,38.95Z"/><path class="cls-14" d="m148.22,128.04c-40.61,5.05-95.13-11.27-97.67-39.49-1.74-19.34,43.72-47.92,76.09-42.01,29.19,5.33,101.72,12.64,105.05,45.87,2.35,23.29-43.06,30.6-83.47,35.62Z"/><path class="cls-25" d="m148.1,124.58c-38.22,5.27-91.38-9.24-95-35.29-2.41-17.37,39.79-46.02,70.04-40.41,28.66,5.38,102.12,11.46,105.09,43.4,2.07,22.25-44.19,27.34-80.14,32.29Z"/><path class="cls-4" d="m147.98,121.12c-35.82,5.54-87.58-7.23-92.32-31.1-3.06-15.4,35.87-44.19,63.99-38.81,28.14,5.38,102.52,10.29,105.13,40.94,1.8,21.22-45.31,24.1-76.8,28.97Z"/></g><path class="cls-3" d="m190.23,26.97c-3.92,0-7.73.55-11.33,1.57C171.13,11.75,154.14.1,134.42.1c-17.62,0-33.06,9.3-41.69,23.25-4.33-2.46-9.33-3.88-14.66-3.88-12.7,0-23.54,8-27.75,19.23-2.99-1.04-6.21-1.62-9.55-1.62-16.03,0-29.02,13-29.02,29.02s12.99,29.03,29.02,29.03c1.88,0,3.72-.19,5.52-.53,5.69,16.11,21.05,27.67,39.13,27.67,11.88,0,22.58-5,30.15-13,6.32,10.18,17.59,16.96,30.45,16.96s24.83-7.22,31.02-17.93c4.15,1.38,8.59,2.14,13.2,2.14,23.05,0,41.74-18.69,41.74-41.75s-18.69-41.74-41.74-41.74Z"/></g></g></g></g></svg>