<?xml version="1.0" encoding="UTF-8"?><svg xmlns="http://www.w3.org/2000/svg" width="1301.61" height="544.24" xmlns:xlink="http://www.w3.org/1999/xlink" viewBox="0 0 1301.61 544.24"><defs><style>.cls-1{fill:#fafafa;opacity:.05;}.cls-2{fill:#f5f5f5;opacity:.1;}.cls-3{fill:url(#linear-gradient);}.cls-4{fill:#9ed90a;}.cls-5{fill:#949494;}.cls-6{mix-blend-mode:multiply;}.cls-7{fill:#f0f0f0;opacity:.14;}.cls-8{fill:#ebebeb;opacity:.19;}.cls-9{fill:#fff;opacity:0;}.cls-10{isolation:isolate;}.cls-11{fill:#c2c2c2;opacity:.57;}.cls-12{fill:#bdbdbd;opacity:.62;}.cls-13{fill:#c7c7c7;opacity:.52;}.cls-14{fill:#ccc;opacity:.48;}.cls-15{fill:#9e9e9e;opacity:.9;}.cls-16{fill:#a3a3a3;opacity:.86;}.cls-17{fill:#adadad;opacity:.76;}.cls-18{fill:#a8a8a8;opacity:.81;}.cls-19{fill:#b3b3b3;opacity:.71;}.cls-20{fill:#dbdbdb;opacity:.33;}.cls-21{fill:#e0e0e0;opacity:.29;}.cls-22{fill:#e6e6e6;opacity:.24;}.cls-23{fill:#d1d1d1;opacity:.43;}.cls-24{fill:#d6d6d6;opacity:.38;}.cls-25{fill:#b8b8b8;opacity:.67;}.cls-26{fill:#999;opacity:.95;}</style><linearGradient id="linear-gradient" x1="0" y1="296.04" x2="1264.32" y2="296.04" gradientUnits="userSpaceOnUse"><stop offset="0" stop-color="#79a30d"/><stop offset="1" stop-color="#568200"/></linearGradient></defs><g class="cls-10"><g id="Layer_2"><g id="spring-scene"><g id="hill-2"><g class="cls-6"><path class="cls-9" d="m759.68,347.95c-137.62,21.84-741.67,52.42-733.58-22.67,12.23-113.43,529-193,758-282,110.02-42.76,438.35-85.59,514.84,38.9,40.48,65.88-389.99,242.08-539.26,265.77Z"/><path class="cls-1" d="m759.67,345.75c-140.77,22.15-734.47,51.01-726.45-22.29,11.89-109.43,517.41-186.57,745.72-275.69,113.36-44.38,440.67-86.69,514.18,33.84,39.04,64.18-384.45,240.63-533.45,264.14Z"/><path class="cls-2" d="m759.66,343.56c-143.93,22.47-727.26,49.59-719.32-21.91,11.55-105.43,505.82-180.14,733.44-269.37,116.7-46.01,442.98-87.79,513.52,28.77,37.6,62.48-378.91,239.17-527.64,262.51Z"/><path class="cls-7" d="m759.64,341.36c-147.09,22.79-720.05,48.18-712.19-21.53,11.21-101.43,494.23-173.7,721.15-263.06,120.04-47.63,445.3-88.89,512.86,23.7,36.16,60.78-373.37,237.71-521.83,260.88Z"/><path class="cls-8" d="m759.63,339.16c-150.24,23.11-712.84,46.77-705.05-21.14,10.87-97.43,482.64-167.27,708.87-256.75,123.38-49.25,447.9-90.16,512.2,18.64,34.87,59-367.83,236.26-516.02,259.25Z"/><path class="cls-22" d="m759.62,336.97c-153.4,23.42-705.63,45.35-697.92-20.76,10.53-93.43,471.05-160.84,696.59-250.43,126.73-50.88,450.27-91.29,511.54,13.57,33.46,57.28-362.29,234.8-510.21,257.62Z"/><path class="cls-21" d="m759.61,334.77c-156.56,23.74-698.27,43.96-690.79-20.38,10.4-89.4,459.64-153.96,684.31-244.12,130.17-52.24,452.65-92.42,510.88,8.5,32.06,55.56-356.75,233.34-504.4,255.99Z"/><path class="cls-20" d="m759.6,332.58c-159.71,24.06-691.04,42.55-683.66-19.99,10.09-85.4,448.06-147.5,672.03-237.81,133.53-53.84,455.02-93.55,510.22,3.44,30.65,53.84-351.21,231.88-498.59,254.37Z"/><path class="cls-24" d="m759.58,330.38c-162.87,24.38-683.82,41.14-676.52-19.61,9.77-81.4,436.47-141.05,659.75-231.49,136.87-55.45,457.38-94.67,509.56-1.63,29.24,52.13-345.67,230.43-492.78,252.74Z"/><path class="cls-23" d="m759.57,328.19c-166.03,24.69-676.59,39.73-669.39-19.23,9.45-77.39,424.89-134.61,647.46-225.18,140.22-57.06,459.74-95.79,508.9-6.7,27.82,50.42-340.13,228.97-486.97,251.11Z"/><path class="cls-14" d="m759.56,325.99c-169.18,25.01-669.37,38.32-662.26-18.85,9.12-73.39,413.3-128.18,635.18-218.87,143.57-58.68,462.09-96.9,508.24-11.76,26.41,48.71-334.59,227.51-481.16,249.48Z"/><path class="cls-13" d="m759.55,323.79c-172.34,25.33-662.14,36.91-655.13-18.46,8.79-69.39,401.7-121.76,622.9-212.55,146.91-60.3,464.43-98.01,507.58-16.83,24.98,47-329.05,226.06-475.35,247.85Z"/><path class="cls-11" d="m759.54,321.6c-175.5,25.65-654.93,35.5-648-18.08,8.46-65.39,390.1-115.35,610.62-206.24,150.25-61.93,466.77-99.11,506.92-21.9,23.56,45.3-323.51,224.6-469.54,246.22Z"/><path class="cls-12" d="m759.52,319.4c-178.65,25.96-647.71,34.08-640.86-17.7,8.12-61.39,378.32-109.38,598.34-199.93,153.46-63.87,469.09-100.21,506.26-26.96,22.13,43.6-317.97,223.14-463.73,244.59Z"/><path class="cls-25" d="m759.51,317.21c-181.81,26.28-640.5,32.67-633.73-17.32,7.77-57.39,366.73-102.95,586.05-193.62,156.81-65.5,471.4-101.3,505.6-32.03,20.69,41.9-312.43,221.68-457.92,242.96Z"/><path class="cls-19" d="m759.5,315.01c-184.96,26.6-633.3,31.26-626.6-16.93,7.42-53.39,355.14-96.52,573.77-187.3,160.15-67.12,473.7-102.38,504.94-37.1,19.24,40.21-306.89,220.23-452.11,241.33Z"/><path class="cls-17" d="m759.49,312.81c-188.12,26.92-626.1,29.85-619.47-16.55,7.06-49.39,343.55-90.09,561.49-180.99,163.49-68.75,475.98-103.45,504.28-42.16,17.79,38.53-301.35,218.77-446.3,239.71Z"/><path class="cls-18" d="m759.48,310.62c-191.28,27.23-618.91,28.43-612.34-16.17,6.69-45.4,331.96-83.65,549.21-174.68,166.83-70.37,478.24-104.52,503.62-47.23,16.32,36.85-295.81,217.31-440.49,238.08Z"/><path class="cls-16" d="m759.47,308.42c-194.43,27.55-611.73,27.01-605.2-15.79,6.31-41.4,320.37-77.22,536.93-168.36,170.17-72,480.48-105.57,502.96-52.3,14.84,35.17-290.27,215.86-434.68,236.45Z"/><path class="cls-15" d="m759.45,306.23c-197.59,27.87-604.56,25.6-598.07-15.4,5.92-37.41,308.77-70.79,524.65-162.05,173.52-73.62,482.69-106.62,502.3-57.36,13.33,33.5-284.73,214.4-428.87,234.82Z"/><path class="cls-26" d="m759.44,304.03c-200.75,28.19-597.41,24.17-590.94-15.02,5.52-33.42,297.18-64.36,512.36-155.74,176.86-75.24,484.87-107.66,501.63-62.43,11.8,31.84-279.19,212.94-423.06,233.19Z"/><path class="cls-5" d="m759.43,301.83c-203.9,28.5-590.29,22.75-583.81-14.64,5.11-29.43,285.59-57.93,500.08-149.42,180.2-76.87,487.01-108.69,500.97-67.5,10.24,30.19-273.65,211.49-417.25,231.56Z"/></g><path class="cls-4" d="m0,241.27C553.1,275.27,687.1-8.73,1187.1,55.27c252.78,32.36-196,458-196,458,0,0-813.1,160-991.1-272Z"/><path class="cls-3" d="m0,243.27C553.1,277.27,687.1-6.73,1187.1,57.27c252.78,32.36-196,458-196,458,0,0-813.1,160-991.1-272Z"/></g></g></g></g></svg>