<?xml version="1.0" encoding="UTF-8"?><svg xmlns="http://www.w3.org/2000/svg" width="1878.35" height="445.84" xmlns:xlink="http://www.w3.org/1999/xlink" viewBox="0 0 1878.35 445.84"><defs><style>.cls-1{fill:#fafafa;opacity:.05;}.cls-2{fill:#f5f5f5;opacity:.1;}.cls-3{fill:url(#linear-gradient);}.cls-4{fill:#9ad110;}.cls-5{fill:#949494;}.cls-6{mix-blend-mode:multiply;}.cls-7{fill:#f0f0f0;opacity:.14;}.cls-8{fill:#ebebeb;opacity:.19;}.cls-9{fill:#fff;opacity:0;}.cls-10{isolation:isolate;}.cls-11{fill:#c2c2c2;opacity:.57;}.cls-12{fill:#bdbdbd;opacity:.62;}.cls-13{fill:#c7c7c7;opacity:.52;}.cls-14{fill:#ccc;opacity:.48;}.cls-15{fill:#9e9e9e;opacity:.9;}.cls-16{fill:#a3a3a3;opacity:.86;}.cls-17{fill:#adadad;opacity:.76;}.cls-18{fill:#a8a8a8;opacity:.81;}.cls-19{fill:#b3b3b3;opacity:.71;}.cls-20{fill:#dbdbdb;opacity:.33;}.cls-21{fill:#e0e0e0;opacity:.29;}.cls-22{fill:#e6e6e6;opacity:.24;}.cls-23{fill:#d1d1d1;opacity:.43;}.cls-24{fill:#d6d6d6;opacity:.38;}.cls-25{fill:#b8b8b8;opacity:.67;}.cls-26{fill:#999;opacity:.95;}</style><linearGradient id="linear-gradient" x1="-229.23" y1="235.64" x2="1649.12" y2="235.64" gradientTransform="translate(1649.12) rotate(-180) scale(1 -1)" gradientUnits="userSpaceOnUse"><stop offset="0" stop-color="#648c00"/><stop offset="1" stop-color="#557800"/></linearGradient></defs><g class="cls-10"><g id="Layer_2"><g id="spring-scene"><g id="hill-3"><g class="cls-6"><path class="cls-9" d="m780.16,268.48c-137.34-23.51-376.28-98-344.5-166.52C483.65-1.54,719.14-7.54,915.63,4.46c117.81,7.19,543.78,71.81,556.92,191.97,8.4,76.87-543.42,97.54-692.39,72.05Z"/><path class="cls-1" d="m780.68,266.35c-140.43-24.22-374.51-97.12-343.17-163.83C484.46,2.29,718.81-5.57,912.7,6.46c119.6,7.51,540.17,72.68,552.68,189.19,8,74.72-536.04,96.28-684.7,70.71Z"/><path class="cls-2" d="m781.21,264.23c-143.52-24.93-372.74-96.24-341.84-161.13C485.27,6.12,718.47-3.59,909.77,8.46c121.38,7.82,536.56,73.54,548.45,186.4,7.6,72.58-528.66,95.02-677.01,69.37Z"/><path class="cls-7" d="m781.73,262.11c-146.62-25.65-370.97-95.36-340.51-158.44C486.09,9.95,718.14-1.62,906.85,10.46c123.17,8.13,532.95,74.41,544.21,183.62,7.2,70.44-521.28,93.76-669.32,68.03Z"/><path class="cls-8" d="m782.26,259.98c-149.71-26.36-369.06-94.4-339.17-155.74C487.11,13.88,717.81.35,903.92,12.46c124.95,8.44,529.34,75.28,539.98,180.83,6.8,68.3-513.91,92.49-661.64,66.69Z"/><path class="cls-22" d="m782.78,257.86c-152.8-27.07-367.26-93.5-337.84-153.05C487.97,17.73,717.47,2.33,900.99,14.46c126.74,8.75,525.73,76.14,535.74,178.05,6.4,66.16-506.53,91.23-653.95,65.35Z"/><path class="cls-21" d="m783.31,255.73c-155.89-27.78-365.47-92.6-336.51-150.35C488.82,21.59,717.14,4.3,898.06,16.46c128.52,9.07,522.12,77.01,531.5,175.26,6,64.01-499.15,89.97-646.26,64.01Z"/><path class="cls-20" d="m783.83,253.61c-158.98-28.5-363.67-91.71-335.18-147.66C489.66,25.44,716.81,6.27,895.13,18.46c130.31,9.38,518.51,77.87,527.27,172.48,5.6,61.87-491.77,88.71-638.57,62.67Z"/><path class="cls-24" d="m784.36,251.49c-162.07-29.21-361.88-90.81-333.85-144.96C490.5,29.28,716.47,8.24,892.2,20.46c132.09,9.69,514.9,78.74,523.03,169.69,5.2,59.73-484.39,87.44-630.88,61.33Z"/><path class="cls-23" d="m784.88,249.36c-165.16-29.92-360.1-89.91-332.52-142.27C491.34,33.13,716.14,10.22,889.28,22.46c133.88,10,511.29,79.61,518.8,166.91,4.8,57.59-477.02,86.18-623.19,60Z"/><path class="cls-14" d="m785.41,247.24c-168.26-30.64-358.31-89.02-331.18-139.57C492.17,36.97,715.83,11.84,886.35,24.46c135.69,10.04,507.68,80.47,514.56,164.12,4.4,55.44-469.64,84.92-615.5,58.66Z"/><path class="cls-13" d="m785.94,245.12c-171.35-31.35-356.54-88.13-329.85-136.88C492.99,40.81,715.5,13.82,883.42,26.46c137.47,10.35,504.07,81.34,510.33,161.34,4,53.3-462.26,83.65-607.81,57.32Z"/><path class="cls-11" d="m786.46,242.99c-174.44-32.06-354.76-87.24-328.52-134.18C493.8,44.65,715.17,15.8,880.49,28.46c139.26,10.66,500.46,82.2,506.09,158.55,3.6,51.16-454.88,82.39-600.12,55.98Z"/><path class="cls-12" d="m786.99,240.87c-177.53-32.77-352.99-86.35-327.19-131.49,34.82-60.91,255.01-91.28,417.77-78.92,141.02,11.25,496.85,83.07,501.86,155.77,3.2,49.02-447.5,81.13-592.43,54.64Z"/><path class="cls-25" d="m787.51,238.75c-180.62-33.49-351.23-85.47-325.86-128.79,33.76-57.65,252.82-89.88,412.98-77.5,142.81,11.56,493.24,83.93,497.62,152.99,2.8,46.87-440.13,79.87-584.74,53.3Z"/><path class="cls-19" d="m788.04,236.62c-183.71-34.2-349.47-84.59-324.53-126.1,32.69-54.4,250.63-88.47,408.2-76.07,144.59,11.88,489.63,84.8,493.39,150.2,2.4,44.73-432.75,78.6-577.06,51.96Z"/><path class="cls-17" d="m788.56,234.5c-186.8-34.91-347.73-83.71-323.2-123.4,31.61-51.15,248.44-87.07,403.41-74.64,146.38,12.19,486.02,85.67,489.15,147.42,2,42.59-425.37,77.34-569.37,50.62Z"/><path class="cls-18" d="m789.09,232.38c-189.89-35.63-345.99-82.84-321.86-120.71,30.52-47.91,246.25-85.67,398.62-73.21,148.16,12.5,482.41,86.53,484.92,144.63,1.6,40.45-417.99,76.08-561.68,49.29Z"/><path class="cls-16" d="m789.61,230.25c-192.99-36.34-344.26-81.98-320.53-118.01,29.42-44.69,244.06-84.27,393.84-71.78,149.95,12.81,478.8,87.4,480.68,141.85,1.2,38.3-410.61,74.82-553.99,47.95Z"/><path class="cls-15" d="m790.14,228.13c-196.08-37.05-342.54-81.13-319.2-115.32,28.31-41.47,241.87-82.87,389.05-70.35,151.73,13.12,475.2,88.26,476.45,139.06.8,36.16-403.24,73.55-546.3,46.61Z"/><path class="cls-26" d="m790.66,226.01c-199.17-37.76-340.84-80.29-317.87-112.62,27.18-38.26,239.68-81.47,384.27-68.92,153.52,13.44,471.59,89.13,472.21,136.28.4,34.02-395.86,72.29-538.61,45.27Z"/><path class="cls-5" d="m791.19,223.88c-202.26-38.48-339.16-79.46-316.54-109.93,26.04-35.07,237.49-80.06,379.48-67.5,155.3,13.75,467.98,90,467.98,133.49,0,31.88-388.48,71.03-530.92,43.93Z"/></g><path class="cls-4" d="m1878.35,209.45C1325.25,243.45,1195.33,23.45,691.25,23.45,306,23.45,0,344.02,0,344.02c0,0,1700.35,297.43,1878.35-134.57Z"/><path class="cls-3" d="m1878.35,211.45C1325.25,245.45,1195.33,25.45,691.25,25.45,306,25.45,0,346.02,0,346.02c0,0,1700.35,297.43,1878.35-134.57Z"/></g></g></g></g></svg>