<?xml version="1.0" encoding="UTF-8"?><svg xmlns="http://www.w3.org/2000/svg" width="1630.78" height="418.48" xmlns:xlink="http://www.w3.org/1999/xlink" viewBox="0 0 1630.78 418.48"><defs><style>.cls-1{fill:#f9faf9;opacity:.05;}.cls-2{fill:#f3f5f2;opacity:.1;}.cls-3{fill:url(#linear-gradient);}.cls-4{fill:#7e947a;}.cls-5{fill:#bbf825;}.cls-6{mix-blend-mode:multiply;}.cls-7{fill:#edf0ec;opacity:.14;}.cls-8{fill:#e6ebe6;opacity:.19;}.cls-9{fill:#fff;opacity:0;}.cls-10{isolation:isolate;}.cls-11{fill:#b5c2b3;opacity:.57;}.cls-12{fill:#afbdad;opacity:.62;}.cls-13{fill:#bbc7b9;opacity:.52;}.cls-14{fill:#c2ccc0;opacity:.48;}.cls-15{fill:#8a9e87;opacity:.9;}.cls-16{fill:#90a38d;opacity:.86;}.cls-17{fill:#9dad9a;opacity:.76;}.cls-18{fill:#97a893;opacity:.81;}.cls-19{fill:#a3b3a0;opacity:.71;}.cls-20{fill:#d4dbd3;opacity:.33;}.cls-21{fill:#dae0d9;opacity:.29;}.cls-22{fill:#e0e6df;opacity:.24;}.cls-23{fill:#c8d1c6;opacity:.43;}.cls-24{fill:#ced6cc;opacity:.38;}.cls-25{fill:#a9b8a6;opacity:.67;}.cls-26{fill:#849980;opacity:.95;}</style><linearGradient id="linear-gradient" x1="88.18" y1="139.21" x2="1518.15" y2="139.21" gradientUnits="userSpaceOnUse"><stop offset="0" stop-color="#93ca09"/><stop offset="1" stop-color="#7dab08"/></linearGradient></defs><g class="cls-10"><g id="Layer_2"><g id="spring-scene"><g id="hill-1"><g class="cls-6"><path class="cls-9" d="m868.8,417.15C748.45,436.25-105.37,245.64,10.84,72.17c74.34-110.97,465.23-31.37,674.93-3.2,122.52,16.46,366.61,39.19,498.01-1.3,98.65-30.39,378.74-125.73,445.63-16.85,35.4,57.62-630.07,345.62-760.62,366.34Z"/><path class="cls-1" d="m870.3,413.8C747.19,433.17-98.62,243.85,14.42,72.78c73.03-111.21,463.8-28.13,670.71.05,126.33,17.49,367.1,38.77,495.84-1.68,101.53-31.9,377-124.3,441.29-18.89,34.14,56.13-621.66,340.97-751.97,361.53Z"/><path class="cls-2" d="m871.8,410.44C745.93,430.09-91.39,242.36,18,73.4c72.02-111.25,462.42-25.32,666.49,3.31,130.18,18.26,367.56,38.3,493.67-2.06,104.41-33.42,375.27-122.86,436.96-20.93,32.88,54.64-613.25,336.32-743.32,356.73Z"/><path class="cls-7" d="m873.3,407.08C744.66,427.01-84.42,240.7,21.58,74.01c70.85-111.4,461.01-22.24,662.26,6.56,134.02,19.18,368.02,37.79,491.5-2.45,107.29-34.96,373.53-121.43,432.62-22.96,31.62,53.16-604.83,331.67-734.67,351.93Z"/><path class="cls-8" d="m874.8,403.73C743.4,423.93-77.48,239.02,25.16,74.62c69.66-111.57,459.6-19.14,658.04,9.81,137.85,20.11,368.47,37.23,489.33-2.83,110.17-36.52,372.04-120.14,428.28-25,30.5,51.59-596.42,327.01-726.02,347.13Z"/><path class="cls-22" d="m876.3,400.37C742.14,420.85-70.56,237.31,28.75,75.24c68.47-111.74,458.18-16,653.82,13.07,141.68,21.05,368.9,36.64,487.16-3.22,113.04-38.1,370.36-118.74,423.94-27.04,29.27,50.09-588,322.36-717.37,342.32Z"/><path class="cls-21" d="m877.8,397.01C740.88,417.78-63.67,235.6,32.33,75.85c67.26-111.93,456.76-12.84,649.6,16.32,145.5,22,369.33,36.01,484.99-3.6,115.91-39.7,368.68-117.34,419.61-29.08,28.04,48.59-579.59,317.71-708.72,337.52Z"/><path class="cls-20" d="m879.3,393.66C739.62,414.7-56.79,233.86,35.91,76.46c66.04-112.12,455.34-9.66,645.38,19.57,149.33,22.97,369.74,35.35,482.82-3.99,118.77-41.32,366.99-115.93,415.27-31.11,26.8,47.09-571.18,313.06-700.07,332.72Z"/><path class="cls-24" d="m880.8,390.3C738.36,411.62-49.95,232.11,39.49,77.07c64.8-112.33,453.91-6.45,641.15,22.83,153.16,23.95,370.15,34.66,480.64-4.37,121.63-42.96,365.3-114.52,410.93-33.15,25.57,45.59-562.76,308.41-691.42,327.92Z"/><path class="cls-23" d="m882.3,386.94C737.1,408.54-43.13,230.34,43.07,77.69c63.55-112.55,452.48-3.23,636.93,26.08,156.98,24.95,370.55,33.94,478.47-4.75,124.47-44.63,363.6-113.1,406.59-35.19,24.33,44.09-554.35,303.75-682.77,323.11Z"/><path class="cls-14" d="m883.8,383.59C735.84,405.46-36.33,228.55,46.65,78.3c62.28-112.77,451.05.01,632.71,29.33,160.8,25.96,370.93,33.2,476.3-5.14,127.31-46.32,361.89-111.68,402.25-37.22,23.09,42.6-545.94,299.1-674.12,318.31Z"/><path class="cls-13" d="m885.3,380.23C734.58,402.38-29.56,226.75,50.23,78.91c61-113.01,449.62,3.27,628.49,32.59,164.62,26.98,371.31,32.43,474.13-5.52,130.14-48.04,360.18-110.25,397.92-39.26,21.85,41.11-537.52,294.45-665.47,313.51Z"/><path class="cls-11" d="m886.8,376.87C733.32,399.3-22.81,224.93,53.81,79.53c59.69-113.26,448.18,6.55,624.26,35.84,168.44,28.02,371.68,31.65,471.96-5.91,132.96-49.79,358.46-108.83,393.58-41.3,20.6,39.62-529.11,289.8-656.82,308.71Z"/><path class="cls-12" d="m888.3,373.51C732.06,396.22-16.1,223.1,57.39,80.14c58.36-113.52,446.74,9.84,620.04,39.09,172.25,29.08,372.05,30.84,469.79-6.29,135.77-51.57,356.73-107.39,389.24-43.34,19.35,38.13-520.7,285.15-648.17,303.9Z"/><path class="cls-25" d="m889.8,370.16C730.8,393.14-9.41,221.26,60.98,80.75c57.01-113.8,445.3,13.15,615.82,42.35,176.06,30.15,372.4,30.01,467.62-6.67,138.56-53.38,354.99-105.95,384.9-45.37,18.09,36.65-512.28,280.5-639.52,299.1Z"/><path class="cls-19" d="m891.3,366.8C729.54,390.06-2.75,219.4,64.56,81.37c55.63-114.08,443.85,16.46,611.6,45.6,179.87,31.24,372.75,29.17,465.45-7.06,141.33-55.23,353.24-104.5,380.56-47.41,16.83,35.17-503.87,275.84-630.87,294.3Z"/><path class="cls-17" d="m892.8,363.44C728.28,386.98,3.88,217.53,68.14,81.98c54.23-114.38,442.4,19.79,607.38,48.86,183.67,32.35,373.09,28.31,463.28-7.44,144.1-57.12,351.48-103.05,376.23-49.45,15.56,33.69-495.46,271.19-622.22,289.5Z"/><path class="cls-18" d="m894.3,360.09C727.02,383.9,10.47,215.65,71.72,82.59c52.79-114.68,440.95,23.13,603.15,52.11,187.47,33.49,373.43,27.43,461.11-7.83,146.84-59.04,349.7-101.58,371.89-51.49,14.27,32.22-487.04,266.54-613.57,284.7Z"/><path class="cls-16" d="m895.8,356.73C725.76,380.83,17.04,213.76,75.3,83.21c51.32-115,439.5,26.49,598.93,55.36,191.26,34.64,373.75,26.54,458.94-8.21,149.56-61.01,347.9-100.11,367.55-53.52,12.98,30.76-478.63,261.89-604.92,279.89Z"/><path class="cls-15" d="m897.3,353.37C724.5,377.75,23.57,211.86,78.88,83.82c49.82-115.33,438,30.13,594.71,58.62,194.99,36.16,374.07,25.64,456.77-8.59,152.26-63.03,346.07-98.64,363.21-55.56,11.66,29.3-470.22,257.24-596.27,275.09Z"/><path class="cls-26" d="m898.8,350.02C723.24,374.67,30.08,209.95,82.46,84.43c48.28-115.67,436.56,33.37,590.49,61.87,198.8,37.2,374.38,24.73,454.6-8.98,154.94-65.1,344.21-97.15,358.87-57.6,10.32,27.85-461.8,252.58-587.62,270.29Z"/><path class="cls-4" d="m900.3,346.66C721.97,371.59,36.54,208.04,86.04,85.05c46.69-116.03,435.13,36.6,586.27,65.12,202.62,38.24,374.68,23.8,452.42-9.36,157.59-67.23,342.32-95.66,354.54-59.63,8.95,26.4-453.39,247.93-578.97,265.49Z"/></g><path class="cls-5" d="m122.18,22.21c242,0,498,128,734,128,262,0,432-100,583-100s39,202,39,202H88.18L122.18,22.21Z"/><path class="cls-3" d="m122.18,24.21c242,0,498,128,734,128,262,0,432-100,583-100s39,202,39,202H88.18L122.18,24.21Z"/></g></g></g></g></svg>