<?xml version="1.0" encoding="UTF-8"?><svg xmlns="http://www.w3.org/2000/svg" width="20.18" height="18.22" xmlns:xlink="http://www.w3.org/1999/xlink" viewBox="0 0 20.18 18.22"><defs><style>.cls-1{opacity:.06;}.cls-1,.cls-2{fill:#f3f6f7;}.cls-3{opacity:.05;}.cls-3,.cls-4{fill:#f9fbfb;}.cls-5{opacity:.09;}.cls-5,.cls-6{fill:#eef2f4;}.cls-4{opacity:.03;}.cls-7{opacity:.11;}.cls-7,.cls-8{fill:#e8edf0;}.cls-2{opacity:.1;}.cls-9{fill:url(#linear-gradient);}.cls-10{fill:#ffe3ab;}.cls-11,.cls-12{fill:#86a2b0;}.cls-13{mix-blend-mode:multiply;}.cls-14,.cls-6{opacity:.14;}.cls-14,.cls-15{fill:#e2e9ec;}.cls-16{opacity:.23;}.cls-16,.cls-17{fill:#d1dce1;}.cls-8{opacity:.19;}.cls-18{opacity:.2;}.cls-18,.cls-19{fill:#d7e0e5;}.cls-20{opacity:.17;}.cls-20,.cls-21{fill:#dce4e8;}.cls-22{fill:url(#linear-gradient-3);}.cls-23{fill:url(#linear-gradient-4);}.cls-24{fill:url(#linear-gradient-2);}.cls-25{fill:#fff;opacity:0;}.cls-26{isolation:isolate;}.cls-27,.cls-28{opacity:.57;}.cls-27,.cls-29{fill:#8ca6b4;}.cls-28,.cls-30{fill:#bacad2;}.cls-12{opacity:.6;}.cls-31{opacity:.62;}.cls-31,.cls-32{fill:#b4c5ce;}.cls-33{opacity:.51;}.cls-33,.cls-34{fill:#97afbb;}.cls-35{opacity:.52;}.cls-35,.cls-36{fill:#c0ced6;}.cls-37{opacity:.54;}.cls-37,.cls-38{fill:#92abb8;}.cls-39{opacity:.48;}.cls-39,.cls-40{fill:#c5d3d9;}.cls-41{opacity:.49;}.cls-41,.cls-42{fill:#9db4bf;}.cls-38{opacity:.9;}.cls-34{opacity:.86;}.cls-43{opacity:.76;}.cls-43,.cls-44{fill:#a3b8c3;}.cls-42{opacity:.81;}.cls-45{opacity:.71;}.cls-45,.cls-46{fill:#a9bdc7;}.cls-30{opacity:.34;}.cls-19{opacity:.33;}.cls-40,.cls-21{opacity:.29;}.cls-36{opacity:.31;}.cls-47{opacity:.26;}.cls-47,.cls-48{fill:#cbd7dd;}.cls-15{opacity:.24;}.cls-44{opacity:.46;}.cls-49{opacity:.4;}.cls-49,.cls-50{fill:#aec1ca;}.cls-46,.cls-48{opacity:.43;}.cls-17{opacity:.38;}.cls-32{opacity:.37;}.cls-50{opacity:.67;}.cls-29{opacity:.95;}</style><linearGradient id="linear-gradient" x1="593.36" y1="-236.03" x2="603.16" y2="-226.23" gradientTransform="translate(-252.33 595.03) rotate(-45)" gradientUnits="userSpaceOnUse"><stop offset="0" stop-color="#ffd45c"/><stop offset="1" stop-color="#ff9d00"/></linearGradient><linearGradient id="linear-gradient-2" x1="611.14" y1="261.63" x2="612.81" y2="263.29" gradientTransform="translate(-598.13 -259.88) rotate(-.08)" gradientUnits="userSpaceOnUse"><stop offset="0" stop-color="#ffca36"/><stop offset="1" stop-color="#ff9d00"/></linearGradient><linearGradient id="linear-gradient-3" x1="607.59" y1="266.07" x2="609.55" y2="268.03" xlink:href="#linear-gradient-2"/><linearGradient id="linear-gradient-4" x1="615.5" y1="267.81" x2="616.69" y2="269" xlink:href="#linear-gradient-2"/></defs><g class="cls-26"><g id="Layer_2"><g id="weather-icons"><g id="moon-and-stars"><g id="moon"><g><g class="cls-13"><path class="cls-25" d="m9.74,18.2c-2.97.23-7.49-1.44-8.52-3.64-.98-2.11-.2-3.7,1.4-4.24.99-.33,3.49,1.53,5.74,1.46,3.04-.1,3.61-1.09,4.6-2.54.81-1.18,4.77-.32,4.39,2.72-.49,3.97-3.88,5.95-7.61,6.24Z"/><path class="cls-3" d="m9.75,18.04c-2.89.24-7.26-1.38-8.3-3.49-1.02-2.06-.31-3.59,1.23-4.11.96-.33,3.43,1.53,5.72,1.43,2.99-.13,3.62-1.14,4.59-2.55.79-1.15,4.54-.26,4.14,2.67-.51,3.81-3.75,5.74-7.38,6.05Z"/><path class="cls-2" d="m9.76,17.88c-2.81.26-7.02-1.32-8.09-3.34-1.06-2-.42-3.48,1.06-3.99.93-.32,3.37,1.53,5.71,1.41,2.93-.15,3.63-1.19,4.58-2.57.77-1.12,4.3-.21,3.9,2.63-.53,3.65-3.63,5.53-7.15,5.85Z"/><path class="cls-6" d="m9.77,17.72c-2.73.27-6.79-1.26-7.88-3.18-1.1-1.95-.53-3.36.89-3.86.89-.32,3.32,1.53,5.69,1.38,2.88-.18,3.64-1.24,4.57-2.59.75-1.09,4.07-.15,3.65,2.59-.54,3.49-3.5,5.33-6.92,5.66Z"/><path class="cls-8" d="m9.78,17.56c-2.65.29-6.56-1.2-7.67-3.03-1.14-1.9-.64-3.24.72-3.73.86-.31,3.26,1.53,5.67,1.36,2.83-.2,3.66-1.29,4.56-2.6.73-1.06,3.84-.1,3.4,2.54-.56,3.33-3.38,5.12-6.69,5.46Z"/><path class="cls-15" d="m9.79,17.4c-2.57.3-6.33-1.14-7.46-2.88-1.19-1.84-.75-3.13.55-3.61.83-.31,3.2,1.53,5.66,1.34,2.77-.22,3.67-1.34,4.55-2.62.71-1.03,3.61-.05,3.15,2.5-.58,3.17-3.26,4.9-6.46,5.27Z"/><path class="cls-21" d="m9.8,17.24c-2.5.31-6.11-1.08-7.24-2.73-1.23-1.79-.86-3.02.39-3.49.8-.3,3.14,1.54,5.64,1.31,2.72-.24,3.68-1.39,4.54-2.64.69-1,3.39,0,2.9,2.46-.6,3.01-3.13,4.69-6.22,5.08Z"/><path class="cls-19" d="m9.81,17.09c-2.42.32-5.88-1.01-7.03-2.57-1.28-1.74-.97-2.9.22-3.36.76-.3,3.09,1.54,5.62,1.29,2.66-.26,3.7-1.45,4.53-2.65.67-.97,3.16.06,2.65,2.41-.61,2.85-3.01,4.48-5.99,4.88Z"/><path class="cls-17" d="m9.82,16.93c-2.34.34-5.66-.95-6.82-2.42-1.33-1.69-1.07-2.79.05-3.23.73-.29,3.03,1.55,5.61,1.27,2.61-.28,3.71-1.5,4.52-2.67.65-.94,2.93.12,2.41,2.37-.62,2.69-2.88,4.27-5.76,4.69Z"/><path class="cls-48" d="m9.83,16.77c-2.26.35-5.44-.89-6.61-2.27-1.38-1.63-1.18-2.67-.12-3.11.7-.29,2.97,1.55,5.59,1.24,2.55-.3,3.72-1.55,4.51-2.69.63-.91,2.7.17,2.16,2.33-.64,2.53-2.76,4.07-5.53,4.5Z"/><path class="cls-39" d="m9.84,16.61c-2.18.36-5.22-.82-6.4-2.12-1.43-1.58-1.29-2.56-.29-2.98.67-.28,2.91,1.56,5.58,1.22,2.5-.32,3.73-1.6,4.49-2.7.61-.88,2.47.22,1.91,2.28-.65,2.37-2.64,3.86-5.3,4.3Z"/><path class="cls-35" d="m9.85,16.45c-2.1.38-5.01-.76-6.18-1.96-1.49-1.52-1.4-2.44-.46-2.86.63-.28,2.86,1.56,5.56,1.19,2.45-.33,3.75-1.65,4.48-2.72.59-.85,2.25.28,1.66,2.24-.66,2.21-2.51,3.65-5.06,4.11Z"/><path class="cls-28" d="m9.86,16.29c-2.02.39-4.79-.69-5.97-1.81-1.54-1.46-1.51-2.33-.62-2.73.6-.27,2.8,1.57,5.55,1.17,2.39-.35,3.76-1.71,4.47-2.74.57-.82,2.02.33,1.41,2.19-.67,2.05-2.39,3.44-4.83,3.91Z"/><path class="cls-31" d="m9.87,16.13c-1.94.41-4.58-.62-5.76-1.66-1.6-1.41-1.62-2.22-.79-2.61.57-.27,2.74,1.58,5.53,1.15,2.34-.36,3.77-1.76,4.46-2.75.55-.79,1.8.38,1.16,2.15-.68,1.89-2.26,3.23-4.6,3.72Z"/><path class="cls-50" d="m9.88,15.97c-1.87.42-4.37-.55-5.55-1.5-1.66-1.34-1.73-2.1-.96-2.48.53-.26,2.69,1.59,5.51,1.12,2.28-.38,3.78-1.81,4.45-2.77.53-.76,1.57.44.92,2.11-.68,1.73-2.14,3.03-4.37,3.53Z"/><path class="cls-45" d="m9.89,15.81c-1.79.43-4.16-.48-5.34-1.35-1.72-1.28-1.84-1.99-1.13-2.36.5-.26,2.63,1.6,5.5,1.1,2.23-.39,3.8-1.86,4.44-2.79.51-.73,1.35.49.67,2.06-.69,1.57-2.01,2.82-4.14,3.33Z"/><path class="cls-43" d="m9.9,15.65c-1.71.45-3.95-.4-5.12-1.2-1.79-1.21-1.95-1.88-1.3-2.23.47-.26,2.57,1.61,5.48,1.08,2.18-.4,3.81-1.91,4.43-2.8.49-.7,1.14.55.42,2.02-.69,1.42-1.89,2.61-3.9,3.14Z"/><path class="cls-42" d="m9.91,15.49c-1.63.46-3.74-.33-4.91-1.04-1.85-1.14-2.06-1.77-1.47-2.11.44-.25,2.52,1.63,5.46,1.05,2.12-.41,3.82-1.96,4.42-2.82.47-.68.92.6.17,1.97-.69,1.26-1.77,2.4-3.67,2.95Z"/><path class="cls-34" d="m9.92,15.33c-1.55.48-3.53-.25-4.7-.89-1.92-1.06-2.17-1.65-1.64-1.98.4-.25,2.46,1.64,5.45,1.03,2.07-.43,3.83-2.02,4.41-2.84.45-.65.71.66-.08,1.93-.68,1.1-1.64,2.2-3.44,2.75Z"/><path class="cls-38" d="m9.94,15.17c-1.47.5-3.32-.17-4.49-.74-1.99-.98-2.28-1.54-1.81-1.86.37-.25,2.4,1.66,5.43,1,2.02-.44,3.85-2.07,4.4-2.85.43-.62.5.72-.33,1.89-.67.95-1.52,1.99-3.21,2.56Z"/><path class="cls-29" d="m9.95,15.02c-1.39.51-3.11-.08-4.28-.59-2.05-.89-2.39-1.43-1.97-1.73.33-.24,2.35,1.68,5.42.98,1.96-.45,3.86-2.12,4.39-2.87.41-.59.3.79-.57,1.84-.67.8-1.39,1.79-2.98,2.37Z"/><path class="cls-11" d="m9.96,14.86c-1.31.53-2.9,0-4.07-.43-2.12-.8-2.5-1.32-2.14-1.61.3-.24,2.3,1.7,5.4.96,1.91-.46,3.87-2.17,4.37-2.89.39-.56.1.87-.82,1.8-.65.66-1.27,1.58-2.75,2.17Z"/></g><g class="cls-13"><path class="cls-25" d="m.6,5.51C1.79,2.66,4.99,1.66,6.58,1.68c.99,0,1.86,1.05.42,3.45-1.61,2.69-.77,4.93.46,6.13,1.47,1.42,3.54,1.38,3.1,2.6-.76,2.14-4.5,2.58-7.41.87C.22,13.01-.76,8.79.6,5.51Z"/><path class="cls-3" d="m.65,5.6C1.8,2.73,4.98,1.68,6.5,1.72c.94.02,1.72,1.02.32,3.39-1.6,2.69-.76,4.92.46,6.14,1.44,1.41,3.53,1.43,3.11,2.6-.74,2.05-4.42,2.46-7.26.79C.28,12.95-.65,8.82.65,5.6Z"/><path class="cls-2" d="m.69,5.69C1.81,2.81,4.97,1.71,6.41,1.76c.89.03,1.59,1,.21,3.33-1.59,2.7-.75,4.92.47,6.15,1.4,1.41,3.53,1.49,3.13,2.6-.71,1.95-4.34,2.35-7.1.71C.35,12.9-.54,8.86.69,5.69Z"/><path class="cls-6" d="m.73,5.78C1.82,2.89,4.97,1.73,6.32,1.8c.84.04,1.45.97.11,3.27-1.58,2.7-.74,4.91.48,6.16,1.37,1.41,3.53,1.55,3.14,2.6-.68,1.86-4.25,2.23-6.95.63C.41,12.85-.44,8.9.73,5.78Z"/><path class="cls-8" d="m.78,5.87C1.83,2.97,4.96,1.76,6.24,1.84c.79.05,1.32.94,0,3.21-1.57,2.71-.73,4.9.49,6.17,1.34,1.4,3.52,1.6,3.15,2.6-.65,1.76-4.17,2.12-6.79.54C.47,12.8-.33,8.93.78,5.87Z"/><path class="cls-15" d="m.82,5.97C1.84,3.04,4.95,1.78,6.15,1.88c.75.06,1.19.91-.1,3.15-1.55,2.71-.72,4.89.49,6.18,1.31,1.39,3.52,1.66,3.17,2.61-.63,1.66-4.09,2-6.64.46C.54,12.75-.23,8.97.82,5.97Z"/><path class="cls-21" d="m.86,6.06C1.85,3.12,4.94,1.81,6.06,1.92c.7.07,1.05.88-.2,3.09-1.54,2.72-.7,4.88.5,6.19,1.27,1.38,3.52,1.72,3.18,2.61-.6,1.57-4,1.88-6.49.38C.6,12.7-.12,9,.86,6.06Z"/><path class="cls-19" d="m.91,6.15C1.86,3.19,4.93,1.83,5.98,1.96c.65.08.92.86-.3,3.03-1.53,2.72-.69,4.87.51,6.2,1.24,1.38,3.51,1.77,3.19,2.61-.57,1.47-3.92,1.77-6.33.3C.66,12.65-.02,9.03.91,6.15Z"/><path class="cls-17" d="m.95,6.24C1.87,3.27,4.92,1.86,5.89,2c.6.09.78.83-.4,2.97-1.52,2.73-.68,4.86.52,6.21,1.21,1.37,3.51,1.83,3.2,2.61-.54,1.38-3.84,1.65-6.18.22C.73,12.6.08,9.07.95,6.24Z"/><path class="cls-48" d="m.99,6.34C1.87,3.34,4.91,1.88,5.81,2.04c.56.1.65.8-.51,2.91-1.5,2.73-.67,4.85.52,6.22,1.18,1.36,3.51,1.89,3.22,2.61-.52,1.28-3.76,1.53-6.03.13C.79,12.55.18,9.1.99,6.34Z"/><path class="cls-39" d="m1.03,6.43C1.88,3.41,4.9,1.91,5.72,2.08c.51.11.52.78-.61,2.85-1.49,2.74-.65,4.84.53,6.23,1.15,1.35,3.51,1.94,3.23,2.61-.49,1.19-3.67,1.42-5.87.05C.85,12.5.28,9.13,1.03,6.43Z"/><path class="cls-35" d="m1.08,6.52C1.88,3.49,4.89,1.93,5.63,2.12c.46.12.38.75-.71,2.79-1.48,2.75-.64,4.83.54,6.24,1.12,1.34,3.5,2,3.24,2.61-.46,1.09-3.59,1.3-5.72-.03C.92,12.45.38,9.16,1.08,6.52Z"/><path class="cls-28" d="m1.12,6.61C1.89,3.56,4.89,1.96,5.55,2.16c.42.13.25.72-.81,2.73-1.46,2.75-.63,4.82.55,6.25,1.09,1.33,3.5,2.06,3.26,2.62-.43.99-3.51,1.18-5.56-.11-1.99-1.25-2.5-4.45-1.85-7.04Z"/><path class="cls-31" d="m1.16,6.7C1.89,3.63,4.88,1.98,5.46,2.21c.37.14.12.7-.92,2.67-1.45,2.76-.61,4.81.55,6.26,1.06,1.32,3.5,2.11,3.27,2.62-.41.9-3.42,1.07-5.41-.2-1.91-1.21-2.39-4.33-1.79-6.85Z"/><path class="cls-50" d="m1.21,6.8c.68-3.09,3.67-4.78,4.17-4.55.32.15-.01.67-1.02,2.61-1.43,2.76-.6,4.79.56,6.27,1.03,1.31,3.49,2.17,3.28,2.62-.38.8-3.34.95-5.26-.28-1.83-1.17-2.28-4.21-1.73-6.67Z"/><path class="cls-45" d="m1.25,6.89c.64-3.11,3.62-4.85,4.04-4.6.28.16-.15.64-1.12,2.55-1.42,2.77-.58,4.78.57,6.28,1,1.3,3.49,2.23,3.3,2.62-.35.71-3.26.84-5.1-.36-1.75-1.13-2.17-4.09-1.68-6.49Z"/><path class="cls-43" d="m1.29,6.98c.59-3.13,3.57-4.91,3.91-4.65.23.18-.28.62-1.23,2.49-1.41,2.78-.57,4.77.58,6.29.97,1.29,3.49,2.28,3.31,2.62-.32.61-3.17.72-4.95-.44-1.68-1.09-2.06-3.97-1.62-6.31Z"/><path class="cls-42" d="m1.34,7.07c.55-3.15,3.52-4.97,3.78-4.7.19.19-.41.59-1.33,2.43-1.39,2.78-.55,4.76.58,6.3.95,1.28,3.48,2.34,3.32,2.62-.3.52-3.09.6-4.79-.52-1.6-1.05-1.96-3.85-1.56-6.13Z"/><path class="cls-34" d="m1.38,7.16c.5-3.17,3.46-5.03,3.65-4.76.14.21-.54.57-1.43,2.37-1.38,2.79-.54,4.75.59,6.31.92,1.27,3.48,2.4,3.33,2.62-.27.42-3.01.49-4.64-.61-1.52-1.01-1.85-3.73-1.5-5.94Z"/><path class="cls-38" d="m1.42,7.26c.44-3.19,3.41-5.09,3.52-4.81.09.22-.67.54-1.53,2.31-1.35,2.8-.52,4.73.6,6.32.89,1.26,3.47,2.46,3.35,2.62-.24.32-2.92.37-4.49-.69-1.44-.97-1.75-3.61-1.44-5.76Z"/><path class="cls-29" d="m1.46,7.35c.39-3.21,3.35-5.15,3.39-4.86.03.24-.8.51-1.64,2.25-1.34,2.81-.5,4.72.61,6.33.86,1.25,3.47,2.51,3.36,2.63-.22.23-2.84.25-4.33-.77-1.36-.94-1.64-3.48-1.39-5.58Z"/><path class="cls-11" d="m1.51,7.44c.34-3.23,3.29-5.21,3.26-4.91-.02.25-.93.49-1.74,2.19-1.33,2.81-.49,4.71.61,6.34.84,1.24,3.47,2.57,3.37,2.63-.19.13-2.76.14-4.18-.85-1.29-.9-1.54-3.36-1.33-5.4Z"/></g></g><path class="cls-10" d="m12.38,11.4c-2.27,2.27-5.96,2.27-8.23,0-2.27-2.27-2.27-5.96,0-8.23.89-.89,2.11-1.33,3.26-1.52-1.82-.08-3.76.53-5.14,1.92C-.44,6.27-.44,10.66,2.26,13.37c2.71,2.71,7.1,2.71,9.8,0,1.53-1.53,2.3-3.48,2.1-5.47-.17,1.32-.78,2.49-1.79,3.5Z"/><path class="cls-9" d="m12.49,11.5c-2.27,2.27-5.96,2.27-8.23,0s-2.27-5.96,0-8.23c.89-.89,2-1.43,3.15-1.63-1.82-.04-3.65.64-5.04,2.03C-.34,6.38-.34,10.77,2.37,13.48c2.71,2.71,7.1,2.71,9.8,0,1.53-1.53,2.19-3.58,2-5.58-.12,1.31-.68,2.6-1.68,3.6Z"/></g><g id="star-3"><g class="cls-13"><path class="cls-25" d="m16.64,1.53c-.07-.24-.39-.62-.59-.81-.21-.2-.42-.57-1.04-.7-.42-.09-1.44.29-1.63,1.23-.22,1.14-.29,2.6.79,2.79.32.06,1.17-.31,1.42-.28.21.03.57-.18.84-.36.29-.19.25-.5.33-.81.08-.3-.06-.85-.12-1.07Z"/><path class="cls-4" d="m16.59,1.53c-.06-.23-.39-.59-.59-.79-.2-.2-.42-.57-1.02-.69-.41-.09-1.39.3-1.58,1.23-.22,1.11-.27,2.51.76,2.7.31.06,1.15-.31,1.39-.27.21.03.56-.16.82-.33.28-.19.23-.49.31-.8.08-.3-.04-.83-.1-1.04Z"/><path class="cls-1" d="m16.53,1.52c-.06-.22-.39-.57-.59-.77-.2-.2-.42-.57-.99-.69-.39-.08-1.34.32-1.53,1.22-.22,1.08-.26,2.42.72,2.61.31.06,1.13-.3,1.36-.27.2.03.55-.13.8-.3.27-.18.22-.48.3-.79.08-.3-.02-.81-.07-1.02Z"/><path class="cls-5" d="m16.48,1.52c-.06-.22-.4-.55-.59-.74-.2-.21-.42-.57-.97-.68-.38-.08-1.29.33-1.48,1.21-.21,1.05-.24,2.32.69,2.52.3.06,1.12-.3,1.34-.27.19.03.54-.11.78-.28.26-.18.21-.47.29-.77.08-.3,0-.79-.05-.99Z"/><path class="cls-7" d="m16.42,1.52c-.06-.21-.4-.53-.59-.72-.19-.21-.41-.56-.95-.67-.36-.07-1.24.35-1.43,1.2-.21,1.01-.23,2.23.65,2.42.29.06,1.1-.3,1.31-.26.18.03.53-.09.76-.25.25-.17.19-.46.27-.76.08-.29.02-.77-.03-.96Z"/><path class="cls-14" d="m16.37,1.52c-.06-.2-.41-.51-.58-.7-.19-.21-.41-.56-.93-.66-.34-.07-1.2.36-1.38,1.2-.21.98-.22,2.14.62,2.33.28.07,1.08-.3,1.28-.26.18.04.51-.07.74-.23.24-.17.18-.45.26-.75.08-.29.04-.75,0-.94Z"/><path class="cls-20" d="m16.31,1.52c-.05-.19-.41-.49-.58-.68-.19-.21-.41-.56-.9-.65-.33-.06-1.15.37-1.33,1.19-.21.95-.2,2.05.58,2.24.28.07,1.06-.29,1.25-.25.17.04.5-.05.72-.2.23-.16.16-.44.24-.73.08-.29.06-.73.01-.91Z"/><path class="cls-18" d="m16.26,1.51c-.05-.19-.42-.47-.58-.65-.19-.21-.41-.55-.88-.64-.31-.06-1.1.39-1.28,1.18-.2.91-.19,1.96.55,2.15.27.07,1.04-.29,1.22-.25.16.04.49-.03.7-.18.22-.15.15-.44.23-.72.08-.28.08-.72.04-.89Z"/><path class="cls-16" d="m16.2,1.51c-.05-.18-.42-.44-.58-.63-.18-.22-.4-.55-.86-.64-.3-.05-1.05.4-1.23,1.18-.2.88-.17,1.87.51,2.06.26.07,1.02-.29,1.2-.24.16.04.48,0,.68-.15.21-.15.14-.43.22-.71.08-.28.1-.7.06-.86Z"/><path class="cls-47" d="m16.15,1.51c-.05-.17-.43-.42-.58-.61-.18-.22-.4-.55-.84-.63-.28-.05-1,.41-1.17,1.17-.2.85-.16,1.78.48,1.96.26.08,1-.29,1.17-.24.15.04.47.02.66-.12.2-.14.12-.42.2-.7.08-.28.12-.68.08-.84Z"/><path class="cls-40" d="m16.1,1.51c-.04-.17-.43-.4-.58-.59-.18-.22-.4-.55-.82-.62-.26-.05-.95.43-1.12,1.16-.19.82-.15,1.69.44,1.87.25.08.98-.28,1.14-.23.14.04.46.04.64-.1.19-.14.11-.41.19-.68.08-.27.14-.66.1-.81Z"/><path class="cls-36" d="m16.04,1.51c-.04-.16-.43-.38-.57-.56-.17-.22-.4-.55-.79-.61-.25-.04-.9.44-1.07,1.15-.19.79-.13,1.6.41,1.78.25.08.97-.28,1.11-.23.14.05.45.06.63-.07.18-.13.1-.4.17-.67.08-.27.16-.64.12-.79Z"/><path class="cls-30" d="m15.99,1.5c-.04-.15-.44-.36-.57-.54-.17-.23-.39-.54-.77-.6-.23-.04-.85.45-1.02,1.15-.19.75-.12,1.52.37,1.69.24.08.95-.28,1.08-.22.13.05.44.08.61-.05.17-.13.08-.39.16-.66.08-.27.18-.62.15-.76Z"/><path class="cls-32" d="m15.93,1.5c-.04-.15-.44-.34-.57-.52-.17-.23-.39-.54-.75-.6-.22-.03-.8.47-.97,1.14-.18.72-.11,1.43.34,1.59.23.08.93-.27,1.06-.22.12.05.43.1.59-.02.16-.12.07-.38.15-.64.08-.27.2-.6.17-.73Z"/><path class="cls-49" d="m15.88,1.5c-.04-.14-.45-.32-.57-.5-.16-.23-.39-.54-.73-.59-.2-.03-.75.48-.92,1.13-.18.69-.1,1.35.3,1.5.23.09.91-.27,1.03-.22.12.05.42.12.57,0,.15-.12.05-.38.13-.63.08-.26.22-.59.19-.71Z"/><path class="cls-46" d="m15.82,1.5c-.03-.13-.45-.3-.57-.47-.16-.24-.39-.54-.7-.58-.18-.02-.7.5-.87,1.13-.18.65-.08,1.27.27,1.41.22.09.89-.27,1-.21.11.06.41.14.55.03.14-.11.04-.37.12-.62.08-.26.24-.57.21-.68Z"/><path class="cls-44" d="m15.77,1.5c-.03-.12-.45-.28-.57-.45-.16-.24-.38-.54-.68-.57-.17-.02-.65.51-.82,1.12-.17.62-.07,1.18.23,1.32.21.09.87-.26.97-.21.1.06.4.17.53.06.13-.11.03-.36.1-.61.08-.26.26-.55.23-.66Z"/><path class="cls-41" d="m15.71,1.49c-.03-.12-.46-.26-.57-.43-.15-.24-.38-.53-.66-.56-.15-.02-.61.52-.77,1.11-.17.59-.06,1.1.2,1.23.21.1.86-.26.95-.2.1.06.39.19.51.08.12-.1.01-.35.09-.59.08-.25.28-.53.26-.63Z"/><path class="cls-33" d="m15.66,1.49c-.03-.11-.46-.24-.56-.4-.15-.24-.38-.53-.64-.56-.14-.01-.56.54-.72,1.1-.16.56-.05,1.02.16,1.13.2.11.84-.26.92-.2.09.06.38.21.49.11.11-.1,0-.34.08-.58.08-.25.3-.51.28-.61Z"/><path class="cls-37" d="m15.6,1.49c-.03-.1-.46-.21-.56-.38-.14-.25-.38-.53-.61-.55-.12,0-.51.55-.67,1.1-.16.53-.04.95.13,1.04.19.11.82-.25.89-.19.08.07.37.23.47.13.1-.09-.01-.33.06-.57.08-.25.32-.49.3-.58Z"/><path class="cls-27" d="m15.55,1.49c-.02-.09-.47-.19-.56-.36-.14-.25-.37-.53-.59-.54-.1,0-.45.56-.62,1.09-.16.49-.03.87.09.95.18.12.8-.25.86-.19.07.07.36.25.45.16.09-.09-.03-.32.05-.56.08-.25.34-.47.32-.56Z"/><path class="cls-12" d="m15.5,1.49c-.02-.09-.47-.17-.56-.34-.13-.25-.37-.53-.57-.53-.09,0-.41.58-.57,1.08-.15.46-.02.79.06.86.17.14.78-.24.83-.18.07.07.35.27.43.18.08-.08-.04-.31.03-.54.08-.24.36-.45.34-.53Z"/></g><path class="cls-10" d="m14.25.43l.31.63.7.1c.1.01.13.09.05.16l-.5.49.12.69c.02.1-.04.15-.14.1l-.62-.33-.62.33c-.09.05-.16,0-.14-.1l.12-.69-.5-.49c-.08-.07-.05-.15.05-.16l.7-.1.31-.63c.05-.1.12-.1.17,0Z"/><path class="cls-24" d="m14.29.47l.31.63.7.1c.11.02.13.09.05.16l-.5.49.12.69c.02.11-.04.15-.14.1l-.62-.33-.62.33c-.09.05-.16,0-.14-.1l.12-.69-.5-.49c-.08-.07-.05-.15.05-.16l.69-.1.31-.63c.05-.1.12-.1.17,0Z"/></g><g id="star-2"><g class="cls-13"><path class="cls-25" d="m13.68,6.09c-.08-.28-.45-.72-.7-.96-.24-.24-.5-.67-1.22-.83-.5-.11-1.7.34-1.92,1.45-.26,1.35-.34,3.07.93,3.29.38.07,1.38-.37,1.67-.33.25.03.67-.21.98-.42.34-.22.29-.58.39-.95.09-.36-.07-1-.14-1.26Z"/><path class="cls-4" d="m13.61,6.08c-.08-.27-.46-.7-.69-.93-.24-.24-.5-.67-1.2-.82-.48-.1-1.64.36-1.86,1.44-.26,1.31-.32,2.96.89,3.18.37.07,1.36-.36,1.64-.32.24.03.66-.18.96-.39.33-.22.27-.57.37-.94.09-.35-.04-.97-.11-1.23Z"/><path class="cls-1" d="m13.55,6.08c-.07-.26-.46-.67-.69-.9-.24-.24-.49-.67-1.17-.81-.46-.1-1.58.38-1.8,1.44-.26,1.27-.3,2.84.85,3.07.36.07,1.34-.36,1.6-.32.23.04.64-.16.94-.36.32-.21.26-.56.35-.92.09-.35-.02-.95-.09-1.2Z"/><path class="cls-5" d="m13.49,6.08c-.07-.26-.47-.65-.69-.88-.23-.24-.49-.66-1.14-.8-.44-.09-1.52.39-1.74,1.43-.25,1.23-.29,2.74.81,2.96.35.07,1.31-.36,1.57-.31.23.04.63-.13.92-.33.3-.21.24-.55.34-.91.09-.34,0-.93-.06-1.16Z"/><path class="cls-7" d="m13.42,6.08c-.07-.25-.48-.62-.69-.85-.23-.25-.49-.66-1.12-.79-.42-.09-1.47.41-1.68,1.42-.25,1.19-.27,2.63.77,2.86.34.08,1.29-.35,1.54-.31.22.04.62-.11.89-.3.29-.2.23-.54.32-.89.09-.34.03-.91-.03-1.14Z"/><path class="cls-14" d="m13.36,6.07c-.06-.24-.48-.6-.69-.82-.23-.25-.49-.66-1.09-.78-.41-.08-1.41.42-1.62,1.41-.25,1.15-.25,2.52.73,2.75.34.08,1.27-.35,1.51-.3.21.04.61-.08.87-.27.28-.19.21-.53.3-.88.09-.34.05-.89,0-1.11Z"/><path class="cls-20" d="m13.29,6.07c-.06-.23-.49-.57-.69-.8-.22-.25-.48-.66-1.07-.77-.39-.08-1.35.44-1.56,1.4-.24,1.12-.24,2.41.68,2.64.33.08,1.25-.35,1.47-.3.2.04.59-.06.85-.24.27-.19.19-.52.29-.86.09-.34.07-.86.02-1.08Z"/><path class="cls-18" d="m13.23,6.07c-.06-.22-.49-.55-.68-.77-.22-.25-.48-.65-1.04-.76-.37-.07-1.29.45-1.5,1.39-.24,1.08-.22,2.31.64,2.53.32.08,1.23-.34,1.44-.29.19.05.58-.03.83-.21.26-.18.18-.51.27-.85.09-.33.1-.84.04-1.05Z"/><path class="cls-16" d="m13.16,6.07c-.06-.21-.5-.52-.68-.74-.21-.26-.48-.65-1.01-.75-.35-.06-1.24.47-1.44,1.39-.24,1.04-.21,2.2.6,2.42.31.09,1.2-.34,1.41-.29.19.05.57,0,.8-.18.24-.18.16-.5.25-.83.09-.33.12-.82.07-1.02Z"/><path class="cls-47" d="m13.1,6.06c-.05-.2-.5-.5-.68-.72-.21-.26-.47-.65-.99-.74-.33-.06-1.18.49-1.38,1.38-.23,1-.19,2.1.56,2.31.3.09,1.18-.34,1.38-.28.18.05.56.02.78-.15.23-.17.14-.49.24-.82.09-.33.14-.8.09-.99Z"/><path class="cls-40" d="m13.04,6.06c-.05-.2-.51-.47-.68-.69-.21-.26-.47-.64-.96-.73-.31-.05-1.12.5-1.33,1.37-.23.96-.17,1.99.52,2.2.3.09,1.16-.33,1.34-.28.17.05.54.04.76-.12.22-.16.13-.48.22-.8.09-.32.17-.78.12-.96Z"/><path class="cls-36" d="m12.97,6.06c-.05-.19-.51-.45-.68-.66-.2-.26-.47-.64-.93-.72-.29-.05-1.06.52-1.27,1.36-.22.92-.16,1.89.48,2.1.29.09,1.14-.33,1.31-.27.16.05.53.07.74-.09.21-.16.11-.47.21-.79.09-.32.19-.75.15-.93Z"/><path class="cls-30" d="m12.91,6.06c-.05-.18-.52-.42-.68-.64-.2-.27-.46-.64-.91-.71-.27-.04-1,.53-1.21,1.35-.22.89-.14,1.79.44,1.99.28.1,1.12-.33,1.28-.26.15.06.52.09.71-.06.2-.15.1-.46.19-.77.09-.32.22-.73.17-.9Z"/><path class="cls-32" d="m12.84,6.06c-.05-.17-.52-.4-.67-.61-.19-.27-.46-.64-.88-.7-.25-.04-.95.55-1.15,1.34-.22.85-.13,1.69.4,1.88.28.1,1.1-.32,1.25-.26.15.06.51.12.69-.03.19-.15.08-.45.17-.76.09-.31.24-.71.2-.87Z"/><path class="cls-49" d="m12.78,6.05c-.04-.16-.53-.37-.67-.58-.19-.27-.46-.63-.85-.69-.24-.03-.89.57-1.09,1.33-.21.81-.11,1.59.36,1.77.27.1,1.07-.32,1.21-.25.14.06.49.14.67,0,.17-.14.06-.44.16-.74.09-.31.26-.69.22-.84Z"/><path class="cls-46" d="m12.72,6.05c-.04-.15-.53-.35-.67-.56-.19-.28-.45-.63-.83-.68-.22-.03-.83.58-1.03,1.33-.21.77-.1,1.49.31,1.66.26.11,1.05-.31,1.18-.25.13.07.48.17.65.03.16-.13.05-.43.14-.73.09-.31.29-.67.25-.81Z"/><path class="cls-44" d="m12.65,6.05c-.04-.15-.54-.32-.67-.53-.18-.28-.45-.63-.8-.67-.2-.02-.77.6-.97,1.32-.2.73-.08,1.4.27,1.55.25.11,1.03-.31,1.15-.24.12.07.47.19.62.06.15-.13.03-.42.12-.71.09-.3.31-.64.28-.78Z"/><path class="cls-41" d="m12.59,6.04c-.03-.14-.54-.3-.67-.5-.18-.28-.45-.63-.78-.66-.18-.02-.71.62-.91,1.31-.2.7-.07,1.3.23,1.44.25.12,1.01-.3,1.11-.24.11.07.46.22.6.09.14-.12.02-.41.11-.7.09-.3.33-.62.3-.75Z"/><path class="cls-33" d="m12.52,6.04c-.03-.13-.54-.28-.67-.48-.17-.29-.45-.63-.75-.65-.16-.01-.65.63-.85,1.3-.19.66-.06,1.21.19,1.34.24.12.98-.3,1.08-.23.1.07.44.25.58.12.13-.11,0-.4.09-.68.09-.3.36-.6.33-.72Z"/><path class="cls-37" d="m12.46,6.04c-.03-.12-.55-.25-.66-.45-.17-.29-.44-.63-.72-.64-.14,0-.59.65-.79,1.29-.19.62-.04,1.11.15,1.23.23.13.96-.3,1.05-.23.09.08.43.27.56.16.12-.11-.02-.39.07-.67.09-.29.38-.58.35-.69Z"/><path class="cls-27" d="m12.39,6.04c-.03-.11-.55-.23-.66-.42-.16-.29-.44-.62-.7-.63-.12,0-.54.67-.73,1.28-.18.58-.03,1.02.11,1.12.21.15.94-.29,1.02-.22.09.08.42.3.53.19.1-.1-.03-.38.06-.66.09-.29.4-.56.38-.66Z"/><path class="cls-12" d="m12.33,6.04c-.02-.1-.56-.2-.66-.4-.16-.3-.44-.62-.67-.62-.1,0-.48.68-.67,1.28-.18.54-.03.93.07,1.01.2.17.92-.29.98-.22.08.08.41.32.51.22.09-.09-.05-.37.04-.64.09-.29.43-.54.4-.63Z"/></g><path class="cls-10" d="m10.87,4.8l.37.74.82.12c.12.02.15.1.06.19l-.59.58.14.82c.02.12-.05.18-.16.12l-.73-.38-.73.39c-.11.06-.18,0-.16-.12l.14-.82-.59-.58c-.09-.09-.06-.17.06-.19l.82-.12.36-.74c.06-.11.15-.11.2,0Z"/><path class="cls-22" d="m10.91,4.84l.37.74.82.12c.12.02.15.1.06.19l-.59.58.14.82c.02.12-.05.18-.16.12l-.73-.38-.73.39c-.11.06-.18,0-.16-.12l.14-.82-.59-.58c-.09-.09-.06-.17.06-.19l.82-.12.37-.74c.05-.11.14-.11.2,0Z"/></g><g id="star-1"><g class="cls-13"><path class="cls-25" d="m20.08,7.52c-.05-.17-.28-.44-.42-.58-.15-.14-.3-.41-.74-.5-.3-.07-1.03.21-1.16.88-.16.82-.2,1.86.57,2,.23.04.84-.22,1.02-.2.15.02.41-.13.6-.25.21-.14.18-.36.23-.58.06-.22-.04-.61-.08-.76Z"/><path class="cls-4" d="m20.04,7.51c-.05-.16-.28-.42-.42-.57-.15-.14-.3-.41-.73-.5-.29-.06-1,.22-1.13.88-.16.8-.19,1.8.54,1.93.22.04.83-.22,1-.2.15.02.4-.11.58-.24.2-.13.17-.35.22-.57.06-.21-.03-.59-.07-.75Z"/><path class="cls-1" d="m20,7.51c-.04-.16-.28-.41-.42-.55-.14-.15-.3-.41-.71-.49-.28-.06-.96.23-1.09.87-.16.77-.18,1.73.52,1.87.22.04.81-.22.98-.19.14.02.39-.1.57-.22.19-.13.16-.34.21-.56.06-.21-.01-.58-.05-.73Z"/><path class="cls-5" d="m19.96,7.51c-.04-.15-.29-.39-.42-.53-.14-.15-.3-.4-.7-.49-.27-.06-.93.24-1.06.87-.15.75-.17,1.66.49,1.8.21.04.8-.22.96-.19.14.02.38-.08.56-.2.18-.13.15-.34.2-.55.06-.21,0-.56-.04-.71Z"/><path class="cls-7" d="m19.92,7.51c-.04-.15-.29-.38-.42-.52-.14-.15-.3-.4-.68-.48-.26-.05-.89.25-1.02.86-.15.73-.16,1.6.47,1.74.21.05.79-.22.94-.19.13.02.38-.06.54-.18.18-.12.14-.33.19-.54.06-.21.02-.55-.02-.69Z"/><path class="cls-14" d="m19.88,7.51c-.04-.14-.29-.36-.42-.5-.14-.15-.29-.4-.66-.47-.25-.05-.86.26-.99.86-.15.7-.15,1.53.44,1.67.2.05.77-.21.92-.18.13.02.37-.05.53-.16.17-.12.13-.33.18-.54.06-.21.03-.54,0-.67Z"/><path class="cls-20" d="m19.84,7.51c-.04-.14-.3-.35-.42-.48-.14-.15-.29-.4-.65-.47-.23-.05-.82.27-.95.85-.15.68-.14,1.47.42,1.6.2.05.76-.21.9-.18.12.03.36-.03.52-.14.16-.12.12-.32.17-.53.06-.21.05-.53.01-.65Z"/><path class="cls-18" d="m19.8,7.51c-.04-.13-.3-.33-.42-.47-.13-.15-.29-.4-.63-.46-.22-.04-.79.28-.91.85-.15.66-.13,1.4.39,1.54.19.05.75-.21.88-.18.12.03.35-.02.5-.12.16-.11.11-.31.16-.52.06-.2.06-.51.03-.64Z"/><path class="cls-16" d="m19.76,7.5c-.03-.13-.3-.32-.41-.45-.13-.16-.29-.4-.62-.46-.21-.04-.75.29-.88.84-.14.63-.12,1.34.37,1.47.19.05.73-.21.86-.17.11.03.35,0,.49-.11.15-.11.1-.31.15-.51.06-.2.07-.5.04-.62Z"/><path class="cls-47" d="m19.72,7.5c-.03-.12-.3-.3-.41-.44-.13-.16-.29-.39-.6-.45-.2-.04-.72.3-.84.84-.14.61-.11,1.27.34,1.41.19.05.72-.2.84-.17.11.03.34.01.48-.09.14-.1.09-.3.14-.5.06-.2.09-.48.06-.6Z"/><path class="cls-40" d="m19.69,7.5c-.03-.12-.31-.29-.41-.42-.13-.16-.29-.39-.58-.44-.19-.03-.68.3-.81.83-.14.59-.11,1.21.32,1.34.18.05.71-.2.82-.17.1.03.33.03.46-.07.13-.1.08-.29.13-.49.06-.2.1-.47.07-.58Z"/><path class="cls-36" d="m19.65,7.5c-.03-.11-.31-.27-.41-.4-.12-.16-.28-.39-.57-.44-.18-.03-.65.32-.77.83-.14.56-.1,1.15.29,1.27.18.06.69-.2.8-.16.1.03.32.04.45-.05.13-.1.07-.29.12-.48.06-.19.12-.46.09-.56Z"/><path class="cls-30" d="m19.61,7.5c-.03-.11-.31-.26-.41-.39-.12-.16-.28-.39-.55-.43-.17-.03-.61.32-.73.82-.13.54-.09,1.09.27,1.21.17.06.68-.2.78-.16.09.03.32.06.43-.03.12-.09.06-.28.11-.47.06-.19.13-.45.1-.54Z"/><path class="cls-32" d="m19.57,7.5c-.03-.1-.32-.24-.41-.37-.12-.16-.28-.39-.54-.43-.15-.02-.58.33-.7.82-.13.52-.08,1.03.24,1.14.17.06.67-.2.76-.16.09.04.31.07.42-.02.11-.09.05-.27.1-.46.06-.19.15-.43.12-.53Z"/><path class="cls-49" d="m19.53,7.5c-.03-.1-.32-.23-.41-.35-.12-.17-.28-.39-.52-.42-.14-.02-.54.34-.66.81-.13.49-.07.97.22,1.08.16.06.65-.19.74-.15.08.04.3.09.41,0,.11-.08.04-.27.09-.45.06-.19.16-.42.14-.51Z"/><path class="cls-46" d="m19.49,7.49c-.02-.09-.32-.21-.41-.34-.11-.17-.28-.39-.5-.42-.13-.02-.5.35-.63.81-.13.47-.06.91.19,1.01.16.07.64-.19.72-.15.08.04.29.1.39.02.1-.08.03-.26.08-.44.06-.19.17-.41.15-.49Z"/><path class="cls-44" d="m19.45,7.49c-.02-.09-.33-.2-.41-.32-.11-.17-.27-.38-.49-.41-.12-.01-.47.36-.59.8-.12.45-.05.85.16.94.15.07.63-.19.7-.15.07.04.28.12.38.04.09-.08.02-.26.07-.43.06-.18.19-.39.17-.47Z"/><path class="cls-41" d="m19.41,7.49c-.02-.08-.33-.18-.41-.31-.11-.17-.27-.38-.47-.4-.11-.01-.43.37-.55.8-.12.42-.04.79.14.88.15.07.61-.18.68-.14.07.04.28.13.37.06.08-.07,0-.25.06-.42.06-.18.2-.38.18-.45Z"/><path class="cls-33" d="m19.37,7.49c-.02-.08-.33-.17-.4-.29-.1-.17-.27-.38-.46-.4-.1,0-.4.38-.52.79-.12.4-.03.73.12.81.14.08.6-.18.66-.14.06.04.27.15.35.08.08-.07,0-.24.05-.42.06-.18.22-.36.2-.43Z"/><path class="cls-37" d="m19.33,7.49c-.02-.07-.33-.15-.4-.27-.1-.18-.27-.38-.44-.39-.09,0-.36.39-.48.79-.12.38-.03.68.09.75.14.08.59-.18.64-.14.06.05.26.17.34.09.07-.06-.01-.24.04-.41.06-.18.23-.35.21-.42Z"/><path class="cls-27" d="m19.3,7.49c-.02-.07-.34-.14-.4-.26-.1-.18-.27-.38-.42-.38-.07,0-.33.4-.45.78-.11.35-.02.62.07.68.13.09.57-.18.62-.13.05.05.25.18.32.11.06-.06-.02-.23.03-.4.06-.17.24-.34.23-.4Z"/><path class="cls-12" d="m19.26,7.49c-.02-.06-.34-.12-.4-.24-.1-.18-.27-.38-.41-.38-.06,0-.29.41-.41.78-.11.33-.02.57.04.61.12.1.56-.17.6-.13.05.05.25.2.31.13.06-.06-.03-.22.02-.39.06-.17.26-.33.25-.38Z"/></g><path class="cls-10" d="m18.37,6.73l.22.45.5.07c.08.01.09.06.04.12l-.36.35.09.5c.01.08-.03.11-.1.07l-.45-.23-.45.23c-.07.04-.11,0-.1-.07l.08-.5-.36-.35c-.05-.05-.04-.11.04-.12l.5-.07.22-.45c.03-.07.09-.07.12,0Z"/><path class="cls-23" d="m18.4,6.76l.22.45.5.07c.08.01.09.06.04.12l-.36.35.09.5c.01.07-.03.11-.1.07l-.45-.23-.45.23c-.07.04-.11,0-.1-.07l.08-.5-.36-.35c-.05-.05-.04-.11.04-.12l.5-.07.22-.45c.03-.07.09-.07.12,0Z"/></g></g></g></g></g></svg>