<?xml version="1.0" encoding="UTF-8"?>
<svg xmlns="http://www.w3.org/2000/svg" width="1388.97" height="436.52" xmlns:xlink="http://www.w3.org/1999/xlink"
     viewBox="0 0 1388.97 436.52">
    <defs>
        <style>
            .cls-1{fill:#f1f5f6;opacity:.06;}.cls-2{fill:#f8f9fa;opacity:.05;}.cls-3{fill:#eaf1f2;opacity:.09;}.cls-4{fill:#f8fafb;opacity:.03;}.cls-5{fill:#e3eced;opacity:.11;}.cls-6{fill:#f1f3f6;opacity:.1;}.cls-7{fill:url(#linear-gradient);}.cls-8{fill:#69869e;}.cls-9,.cls-10{fill:#fff;}.cls-11{fill:#9ec9f0;}.cls-12{fill:#e1f0fa;}.cls-13{mix-blend-mode:multiply;}.cls-14{fill:#dce7e9;}.cls-14,.cls-15{opacity:.14;}.cls-15{fill:#eaeef1;}.cls-16{fill:#c6d9dc;opacity:.23;}.cls-17{fill:#e2e8ed;opacity:.19;}.cls-18{fill:#cddde0;opacity:.2;}.cls-19{fill:#d4e2e5;opacity:.17;}.cls-10{opacity:0;}.cls-20{isolation:isolate;}.cls-21{fill:#719fa7;}.cls-21,.cls-22{opacity:.57;}.cls-22{fill:#a9bac8;}.cls-23{fill:#6a9aa3;opacity:.6;}.cls-24{fill:#a2b4c3;opacity:.62;}.cls-25{fill:#7fa8b0;opacity:.51;}.cls-26{fill:#b0c0cc;opacity:.52;}.cls-27{fill:#78a4ac;opacity:.54;}.cls-28{fill:#b8c5d1;opacity:.48;}.cls-29{fill:#86adb5;opacity:.49;}.cls-30{fill:#7792a7;opacity:.9;}.cls-31{fill:#7e97ac;opacity:.86;}.cls-32{fill:#8da3b5;opacity:.76;}.cls-33{fill:#869db0;opacity:.81;}.cls-34{fill:#94a9ba;opacity:.71;}.cls-35{fill:#aac5ca;opacity:.34;}.cls-36{fill:#cdd7df;opacity:.33;}.cls-37{fill:#d4dce3;}.cls-37,.cls-38{opacity:.29;}.cls-38{fill:#b8cfd3;}.cls-39{fill:#b1cacf;opacity:.31;}.cls-40{fill:#bfd4d8;opacity:.26;}.cls-41{fill:#dbe2e8;opacity:.24;}.cls-42{fill:#8db2b9;opacity:.46;}.cls-43{fill:#9cbcc2;opacity:.4;}.cls-44{fill:#95b7bd;}.cls-44,.cls-45{opacity:.43;}.cls-45{fill:#bfcbd5;}.cls-46{fill:#c6d1da;opacity:.38;}.cls-47{fill:#a3c0c6;opacity:.37;}.cls-48{fill:#9baebe;opacity:.67;}.cls-49{fill:#708ca3;opacity:.95;}
        </style>
        <linearGradient id="linear-gradient" x1="497.25" y1="225.29" x2="1130.25" y2="423.29"
                        gradientUnits="userSpaceOnUse">
            <stop offset="0" stop-color="#698ba9"/>
            <stop offset="1" stop-color="#5c7a94"/>
        </linearGradient>
    </defs>
    <g class="cls-20">
        <g id="Layer_2">
            <g id="spring-scene">
                <g id="mountain-2">
                    <g>
                        <g class="cls-13">
                            <path class="cls-10"
                                  d="m1363.19,302.96c-21.52-2.96-49.86-22.5-72.26-28.61-54-14.73-60.56-82.5-125.12-84.61-77.41-2.52-60.8,19.05-143.34-37.78-38.5-26.5-119-187-248-145-68.48,22.29-75.64,89-126,89s-78.5-23.93-117-23c-71.1,1.72-62.77,82.75-125,100-36.85,10.21-79,11.34-128.32,5.58-91.37-10.66-91.55,158.85-231.34,167.76-7.73,31.24,394.16,40.52,475.87,41.26,221.95,2.01,443.96,1.61,665.93,1.71,66.09.03,132.17-.21,198.25-.58l-23.66-85.74Z"/>
                            <path class="cls-4"
                                  d="m1363.12,303.47c-21.52-2.96-49.87-21.18-72.27-27.29-54-14.73-60.98-83.31-125.11-85.35-77.41-2.45-61.43,20.94-145.08-37.49-38.26-26.61-118.44-186.47-245.59-144.83-68.32,22.42-76.66,89.02-127.02,89.02s-77.81-24.41-116.32-23.52c-70.2,1.64-64.26,84.75-126.6,101.17-37.47,9.73-77.53,9.35-126.88,4.02-90.12-9.96-90.5,157.81-230.29,166.72-7.73,31.24,392.92,41.42,474.63,42.16,221.95,2.01,443.96,1.61,665.93,1.71,66.09.03,132.17-.21,198.25-.58l-23.66-85.74Z"/>
                            <path class="cls-1"
                                  d="m1363.06,303.99c-21.52-2.95-49.87-19.85-72.27-25.96-54-14.73-61.4-84.11-125.09-86.09-77.42-2.39-62.07,22.83-146.82-37.21-38.04-26.72-117.89-185.94-243.17-144.65-68.15,22.55-77.67,89.03-128.03,89.03s-77.13-24.89-115.64-24.05c-69.29,1.56-65.7,86.96-128.21,102.35-38.06,9.37-76.06,7.48-125.44,2.45-88.89-9.05-89.45,156.78-229.25,165.69-7.73,31.24,391.68,42.31,473.39,43.05,221.95,2.01,443.96,1.61,665.93,1.7,66.09.03,132.17-.21,198.25-.58l-23.66-85.74Z"/>
                            <path class="cls-3"
                                  d="m1362.99,304.51c-21.52-2.96-49.87-18.53-72.27-24.64-54-14.73-61.82-84.92-125.07-86.83-77.42-2.32-62.53,24.49-148.56-36.92-37.73-26.93-117.33-185.41-240.76-144.47-67.99,22.68-78.69,89.05-129.05,89.05s-76.45-25.37-114.95-24.57c-68.39,1.48-67.18,89.04-129.81,103.53-38.67,8.94-74.6,5.54-123.99.88-87.64-8.27-88.4,155.74-228.2,164.65-7.73,31.24,390.44,43.21,472.15,43.95,221.95,2.01,443.96,1.61,665.93,1.71,66.09.03,132.17-.21,198.25-.58l-23.66-85.74Z"/>
                            <path class="cls-5"
                                  d="m1362.93,305.03c-21.52-2.96-49.88-17.21-72.28-23.32-54-14.73-62.24-85.72-125.05-87.58-77.43-2.25-63.12,26.32-150.3-36.64-37.48-27.07-116.77-184.88-238.35-144.3-67.83,22.81-79.7,89.06-130.06,89.06s-75.76-25.85-114.27-25.09c-67.49,1.39-68.65,91.11-131.41,104.7-39.28,8.5-73.12,3.6-122.55-.69-86.39-7.49-87.35,154.71-227.15,163.61-7.73,31.24,389.2,44.11,470.91,44.85,221.95,2.01,443.96,1.61,665.93,1.71,66.09.03,132.17-.22,198.25-.58l-23.66-85.74Z"/>
                            <path class="cls-14"
                                  d="m1362.86,305.54c-21.52-2.96-49.88-15.89-72.28-22-54-14.73-62.66-86.52-125.04-88.32-77.43-2.18-63.71,28.16-152.04-36.36-37.24-27.2-116.22-184.36-235.94-144.12-67.67,22.94-80.72,89.08-131.08,89.08s-75.08-26.33-113.59-25.62c-66.59,1.31-70.14,93.17-133.02,105.87-39.9,8.06-71.65,1.65-121.1-2.25-85.14-6.72-86.31,153.67-226.1,162.58-7.73,31.24,387.96,45.01,469.67,45.75,221.95,2.01,443.96,1.61,665.93,1.71,66.09.03,132.17-.21,198.25-.58l-23.66-85.74Z"/>
                            <path class="cls-19"
                                  d="m1362.79,306.06c-21.52-2.96-49.88-14.57-72.29-20.68-54-14.73-63.09-87.33-125.02-89.06-77.43-2.12-64.3,30.01-153.79-36.07-37-27.32-115.66-183.83-233.52-143.95-67.51,23.07-81.73,89.09-132.1,89.09s-74.39-26.81-112.91-26.14c-65.68,1.23-71.63,95.22-134.62,107.05-40.52,7.61-70.18-.3-119.66-3.82-83.89-5.97-85.26,152.63-225.05,161.54-7.73,31.24,386.71,45.91,468.43,46.65,221.95,2.01,443.96,1.61,665.93,1.71,66.09.03,132.17-.22,198.25-.58l-23.66-85.74Z"/>
                            <path class="cls-18"
                                  d="m1362.73,306.58c-21.52-2.95-49.89-13.25-72.29-19.36-54-14.73-63.51-88.13-125-89.8-77.44-2.05-64.91,31.87-155.53-35.79-36.76-27.44-115.1-183.3-231.11-143.78-67.34,23.19-82.75,89.11-133.11,89.11s-73.71-27.29-112.22-26.67c-64.78,1.15-73.12,97.25-136.22,108.22-41.14,7.15-68.71-2.26-118.22-5.39-82.64-5.22-84.21,151.6-224.01,160.5-7.73,31.24,385.47,46.81,467.19,47.55,221.95,2.01,443.96,1.61,665.93,1.71,66.09.03,132.17-.21,198.25-.58l-23.66-85.74Z"/>
                            <path class="cls-16"
                                  d="m1362.66,307.1c-21.52-2.96-49.89-11.93-72.29-18.04-54-14.73-63.93-88.94-124.98-90.54-77.44-1.98-65.51,33.73-157.27-35.5-36.52-27.56-114.55-182.77-228.7-143.6-67.18,23.32-83.77,89.13-134.13,89.13s-73.03-27.77-111.54-27.19c-63.88,1.07-74.61,99.27-137.83,109.4-41.76,6.69-67.23-4.22-116.77-6.96-81.38-4.49-83.16,150.56-222.96,159.47-7.73,31.24,384.23,47.7,465.95,48.45,221.95,2.01,443.96,1.61,665.93,1.7,66.09.03,132.17-.21,198.25-.58l-23.66-85.74Z"/>
                            <path class="cls-40"
                                  d="m1362.6,307.61c-21.52-2.96-49.89-10.6-72.3-16.71-54-14.73-64.35-89.74-124.96-91.29-77.45-1.92-66.13,35.61-159.01-35.22-36.29-27.67-113.99-182.24-226.29-143.43-67.02,23.45-84.78,89.14-135.14,89.14s-72.34-28.25-110.86-27.71c-62.97.98-76.11,101.29-139.43,110.57-42.39,6.22-65.76-6.19-115.33-8.52-80.13-3.77-82.11,149.53-221.91,158.43-7.73,31.24,382.99,48.6,464.71,49.34,221.95,2.01,443.96,1.61,665.93,1.71,66.09.03,132.17-.21,198.25-.58l-23.66-85.74Z"/>
                            <path class="cls-38"
                                  d="m1362.53,308.13c-21.52-2.96-49.9-9.28-72.3-15.39-54-14.73-64.77-90.55-124.95-92.03-77.45-1.85-66.75,37.49-160.75-34.93-36.06-27.78-113.43-181.71-223.87-143.25-66.86,23.58-85.8,89.16-136.16,89.16s-71.66-28.73-110.17-28.24c-62.07.9-77.61,103.29-141.03,111.75-43.01,5.74-64.28-8.17-113.88-10.09-78.87-3.05-81.07,148.49-220.86,157.4-7.73,31.24,381.75,49.5,463.47,50.24,221.95,2.01,443.96,1.61,665.93,1.71,66.09.03,132.17-.21,198.25-.58l-23.66-85.74Z"/>
                            <path class="cls-39"
                                  d="m1362.46,308.65c-21.52-2.96-49.9-7.96-72.3-14.07-54-14.73-65.19-91.35-124.93-92.77-77.46-1.78-67.38,39.39-162.5-34.65-35.83-27.88-112.88-181.19-221.46-143.08-66.69,23.71-86.81,89.17-137.17,89.17s-70.97-29.21-109.49-28.76c-61.17.82-79.11,105.28-142.63,112.92-43.64,5.25-62.8-10.15-112.44-11.66-77.61-2.35-80.02,147.45-219.81,156.36-7.73,31.24,380.51,50.4,462.23,51.14,221.95,2.01,443.96,1.61,665.93,1.71,66.09.03,132.17-.21,198.25-.58l-23.66-85.74Z"/>
                            <path class="cls-35"
                                  d="m1362.4,309.17c-21.52-2.96-49.91-6.64-72.31-12.75-54-14.73-65.61-92.16-124.91-93.51-77.46-1.72-68.01,41.29-164.24-34.36-35.6-27.99-112.32-180.66-219.05-142.9-66.53,23.84-87.83,89.19-138.19,89.19s-70.29-29.69-108.81-29.29c-60.26.74-80.61,107.26-144.24,114.1-44.26,4.76-61.33-12.14-111-13.23-76.35-1.67-78.97,146.42-218.77,155.33-7.73,31.24,379.27,51.3,460.99,52.04,221.95,2.01,443.96,1.61,665.93,1.71,66.09.03,132.17-.21,198.25-.58l-23.66-85.74Z"/>
                            <path class="cls-47"
                                  d="m1362.33,309.68c-21.52-2.96-49.91-5.32-72.31-11.43-54-14.73-66.03-92.96-124.89-94.26-77.46-1.65-68.65,43.19-165.98-34.08-35.38-28.09-111.76-180.13-216.64-142.73-66.37,23.96-88.85,89.2-139.21,89.2s-69.61-30.17-108.13-29.81c-59.36.66-82.11,109.23-145.84,115.27-44.89,4.26-59.85-14.14-109.55-14.79-75.09-.99-77.92,145.38-217.72,154.29-7.73,31.24,378.03,52.2,459.75,52.94,221.95,2.01,443.96,1.61,665.93,1.71,66.09.03,132.17-.21,198.25-.58l-23.66-85.74Z"/>
                            <path class="cls-43"
                                  d="m1362.27,310.2c-21.52-2.96-49.91-4-72.31-10.11-54-14.73-66.45-93.77-124.88-95-77.47-1.58-69.3,45.11-167.72-33.8-35.16-28.19-111.21-179.6-214.22-142.55-66.21,24.09-89.86,89.22-140.22,89.22s-68.92-30.65-107.44-30.33c-58.46.57-83.61,111.19-147.44,116.45-45.52,3.75-58.37-16.14-108.11-16.36-73.84-.32-76.87,144.34-216.67,153.25-7.73,31.24,376.79,53.1,458.5,53.84,221.95,2.01,443.96,1.61,665.93,1.7,66.09.03,132.17-.21,198.25-.58l-23.66-85.74Z"/>
                            <path class="cls-44"
                                  d="m1362.2,310.72c-21.52-2.96-49.92-2.67-72.32-8.78-54-14.73-66.88-94.57-124.86-95.74-77.47-1.52-69.96,47.04-169.46-33.51-34.94-28.28-110.65-179.07-211.81-142.38-66.05,24.22-90.88,89.23-141.24,89.23s-68.24-31.12-106.76-30.86c-57.55.49-85.11,113.14-149.05,117.62-46.15,3.24-56.9-18.16-106.66-17.93-72.58.33-75.83,143.31-215.62,152.22-7.73,31.24,375.55,53.99,457.27,54.74,221.95,2.01,443.96,1.61,665.93,1.71,66.09.03,132.17-.22,198.25-.58l-23.66-85.74Z"/>
                            <path class="cls-42"
                                  d="m1362.13,311.24c-21.52-2.96-49.92-1.35-72.32-7.46-54-14.73-67.3-95.38-124.84-96.48-77.48-1.45-70.62,48.97-171.2-33.23-34.72-28.37-110.09-178.54-209.4-142.2-65.88,24.35-91.89,89.25-142.25,89.25s-67.55-31.6-106.08-31.38c-56.65.41-86.61,115.08-150.65,118.8-46.77,2.72-55.42-20.18-105.22-19.5-71.32.98-74.78,142.27-214.57,151.18-7.73,31.24,374.31,54.89,456.02,55.63,221.95,2.01,443.96,1.61,665.93,1.7,66.09.03,132.17-.21,198.25-.58l-23.66-85.74Z"/>
                            <path class="cls-29"
                                  d="m1362.07,311.75c-21.52-2.96-49.92-.03-72.33-6.14-54-14.73-67.72-96.18-124.82-97.23-77.48-1.38-71.29,50.91-172.95-32.94-34.5-28.46-109.54-178.01-206.98-142.03-65.72,24.48-92.91,89.27-143.27,89.27s-66.87-32.08-105.4-31.91c-55.75.33-88.11,117.01-152.25,119.97-47.4,2.19-53.95-22.21-103.78-21.06-70.07,1.61-73.73,141.24-213.53,150.14-7.73,31.24,373.07,55.79,454.78,56.53,221.95,2.01,443.96,1.61,665.93,1.7,66.09.03,132.17-.21,198.25-.58l-23.66-85.74Z"/>
                            <path class="cls-25"
                                  d="m1362,312.27c-21.52-2.96-49.93,1.29-72.33-4.82-54-14.73-68.14-96.98-124.81-97.97-77.49-1.31-71.97,52.86-174.69-32.66-34.29-28.55-108.98-177.49-204.57-141.85-65.56,24.61-93.92,89.28-144.29,89.28s-66.19-32.56-104.71-32.43c-54.84.25-89.61,118.94-153.86,121.15-48.03,1.65-52.47-24.25-102.33-22.63-68.81,2.24-72.68,140.2-212.48,149.11-7.73,31.24,371.83,56.69,453.54,57.43,221.95,2.01,443.96,1.61,665.93,1.7,66.09.03,132.17-.21,198.25-.58l-23.66-85.74Z"/>
                            <path class="cls-27"
                                  d="m1361.94,312.79c-21.52-2.96-49.93,2.61-72.33-3.5-54-14.73-68.56-97.79-124.79-98.71-77.49-1.25-72.79,54.99-176.43-32.37-34.12-28.58-108.42-176.96-202.16-141.68-65.4,24.73-94.94,89.3-145.3,89.3s-65.5-33.04-104.03-32.95c-53.94.16-91.11,120.86-155.46,122.32-48.65,1.11-51-26.3-100.89-24.2-67.56,2.85-71.63,139.16-211.43,148.07-7.73,31.24,370.59,57.59,452.3,58.33,221.95,2.01,443.96,1.61,665.93,1.71,66.09.03,132.17-.21,198.25-.58l-23.66-85.74Z"/>
                            <path class="cls-21"
                                  d="m1361.87,313.31c-21.52-2.96-49.93,3.93-72.34-2.18-54-14.73-68.98-98.59-124.77-99.45-77.49-1.18-73.43,56.88-178.17-32.09-33.89-28.69-107.86-176.43-199.75-141.5-65.24,24.86-95.96,89.31-146.32,89.31s-64.82-33.52-103.35-33.48c-53.04.08-92.6,122.68-157.06,123.5-49.27.49-49.53-28.44-99.44-25.77-66.31,3.34-70.58,138.13-210.38,147.04-7.73,31.24,369.35,58.49,451.06,59.23,221.95,2.01,443.96,1.61,665.93,1.71,66.09.03,132.17-.21,198.25-.58l-23.66-85.74Z"/>
                            <path class="cls-23"
                                  d="m1361.81,313.82c-21.52-2.96-49.94,5.25-72.34-.86-54-14.73-69.4-99.4-124.75-100.19-77.5-1.11-74.06,58.77-179.91-31.8-33.66-28.8-107.31-175.9-197.33-141.33-65.07,24.99-96.97,89.33-147.33,89.33s-64.13-34-102.67-34c-52.13,0-94.09,124.67-158.67,124.67-49.9,0-48.06-30.43-98-27.33-65.06,4.04-69.54,137.09-209.33,146-7.73,31.24,368.11,59.38,449.82,60.13,221.95,2.01,443.95,1.61,665.93,1.71,66.09.03,132.17-.21,198.25-.58l-23.66-85.74Z"/>
                        </g>
                        <path class="cls-11"
                              d="m1365.12,334.7c-21.7-3.42-60.64-13.65-83.22-20.71-54.45-17.03-68.41-105.24-124.22-106.16-78.14-1.29-78.66,73.94-185.39-30.79-33.94-33.3-109.27-194.68-200.04-154.7-65.61,28.9-85.57,109.27-136.34,109.27s-68.1-44.29-106.95-44.29c-52.57,0-84.1,126.61-149.21,126.61-50.31,0-58.56-40.77-108.91-37.18C205.24,181.43,141.05,355.1.1,365.4c-7.79,36.12,435.17,66.29,517.56,67.14,223.78,2.32,447.62,1.86,671.43,1.97,66.64.03,133.26-.25,199.88-.67l-23.85-99.14Z"/>
                        <path class="cls-7"
                              d="m1365.12,336.71c-21.7-3.42-60.64-13.65-83.22-20.71-54.45-17.03-68.41-105.24-124.22-106.16-78.14-1.29-78.66,73.94-185.39-30.79-33.94-33.3-109.27-194.68-200.04-154.7-65.61,28.9-85.57,109.27-136.34,109.27s-68.1-44.29-106.95-44.29c-52.57,0-84.1,126.61-149.21,126.61-50.31,0-58.56-40.77-108.91-37.18C205.24,183.43,141.05,357.1.1,367.4c-7.79,36.12,435.17,66.29,517.56,67.14,223.78,2.32,447.62,1.86,671.43,1.97,66.64.03,133.26-.25,199.88-.67l-23.85-99.14Z"/>
                    </g>
                    <g>
                        <g class="cls-13">
                            <path class="cls-10"
                                  d="m816.8,130.97c-29.96-1.26-21.71-40.49-44.33-44.33-16.68-2.83-35.33,30.67-61.6,11.06-18.53-13.83,47.27-78.73,93.6-78.06,29.43.42,110.67,67,104.06,78.67-7.09,12.53-30.39-3.53-46.73.33-18.33,4.33-13.33,33.67-45,32.33Z"/>
                            <path class="cls-2"
                                  d="m816.77,129.81c-29.59-1.23-22.11-40.73-44.43-44.58-16.51-2.85-35.65,30.76-61.27,11.79-18.42-13.55,46.86-77.71,93.27-77.22,30.55.24,110.25,66.69,103.8,77.92-7.33,12.77-30.55-4.64-47.06-.88-18.35,4.2-13.45,34.24-44.32,32.96Z"/>
                            <path class="cls-6"
                                  d="m816.74,128.66c-29.22-1.2-22.52-40.96-44.52-44.82-16.35-2.88-35.91,30.77-60.94,12.52-18.28-13.33,46.45-76.58,92.94-76.38,31.66.14,109.83,66.38,103.55,77.18-7.57,13.02-30.7-5.74-47.39-2.08-18.37,4.08-13.56,34.82-43.63,33.58Z"/>
                            <path class="cls-15"
                                  d="m816.71,127.5c-28.85-1.16-22.92-41.19-44.62-45.06-16.18-2.9-36.2,30.83-60.61,13.25-18.15-13.07,46.04-75.21,92.61-75.53,32.77-.23,109.4,66.06,103.29,76.43-7.81,13.26-30.86-6.85-47.72-3.29-18.39,3.95-13.68,35.4-42.95,34.2Z"/>
                            <path class="cls-17"
                                  d="m816.67,126.35c-28.48-1.13-23.33-41.42-44.72-45.3-16.01-2.92-36.49,30.89-60.28,13.97-18.03-12.82,45.63-74.46,92.28-74.69,33.89-.17,108.96,65.74,103.03,75.69-8.05,13.51-31.02-7.99-48.05-4.5-18.42,3.78-13.79,35.98-42.27,34.83Z"/>
                            <path class="cls-41"
                                  d="m816.64,125.19c-28.11-1.1-23.73-41.65-44.81-45.54-15.85-2.94-36.78,30.95-59.95,14.7-17.91-12.56,45.22-73.41,91.95-73.84,35.01-.32,108.52,65.41,102.78,74.94-8.3,13.75-31.18-9.1-48.38-5.7-18.44,3.65-13.9,36.56-41.58,35.45Z"/>
                            <path class="cls-37"
                                  d="m816.61,124.04c-27.73-1.07-24.14-41.88-44.91-45.78-15.68-2.97-37.08,31.02-59.62,15.43-17.79-12.31,44.81-72.37,91.62-73,36.12-.48,108.08,65.09,102.52,74.19-8.55,14-31.33-10.21-48.71-6.91-18.46,3.51-14.02,37.13-40.9,36.07Z"/>
                            <path class="cls-36"
                                  d="m816.58,122.88c-27.36-1.04-24.54-42.12-45-46.03-15.51-2.99-37.38,31.09-59.29,16.15-17.67-12.05,44.41-71.33,91.29-72.15,37.24-.65,107.63,64.76,102.26,73.45-8.8,14.24-31.49-11.32-49.04-8.11-18.48,3.38-14.13,37.71-40.22,36.69Z"/>
                            <path class="cls-46"
                                  d="m816.55,121.73c-26.99-1-24.95-42.35-45.1-46.27-15.35-3.01-37.69,31.16-58.96,16.88-17.56-11.79,44-70.31,90.96-71.31,38.35-.82,107.18,64.43,102.01,72.7-9.05,14.48-31.64-12.43-49.37-9.32-18.5,3.25-14.25,38.29-39.54,37.32Z"/>
                            <path class="cls-45"
                                  d="m816.52,120.57c-26.62-.97-25.36-42.58-45.19-46.51-15.18-3.04-38,31.24-58.63,17.61-17.44-11.53,43.59-69.28,90.63-70.46,39.47-.99,106.72,64.1,101.75,71.96-9.31,14.72-31.8-13.54-49.7-10.53-18.52,3.12-14.36,38.87-38.85,37.94Z"/>
                            <path class="cls-28"
                                  d="m816.49,119.42c-26.25-.94-25.76-42.81-45.29-46.75-15.01-3.06-38.31,31.32-58.3,18.34-17.33-11.26,43.18-68.26,90.3-69.62,40.58-1.17,106.26,63.76,101.49,71.21-9.57,14.95-31.95-14.65-50.03-11.73-18.54,2.99-14.47,39.45-38.17,38.56Z"/>
                            <path class="cls-26"
                                  d="m816.46,118.26c-25.88-.9-26.17-43.04-45.39-46.99-14.85-3.08-38.62,31.41-57.97,19.06-17.22-10.99,42.77-67.25,89.97-68.78,41.69-1.35,105.8,63.42,101.24,70.46-9.84,15.19-32.11-15.75-50.36-12.94-18.56,2.86-14.59,40.02-37.49,39.18Z"/>
                            <path class="cls-22"
                                  d="m816.42,117.11c-25.5-.87-26.57-43.28-45.48-47.24-14.68-3.1-38.94,31.5-57.64,19.79-17.12-10.72,42.37-66.24,89.64-67.93,42.81-1.54,105.33,63.08,100.98,69.72-10.11,15.42-32.26-16.86-50.69-14.14-18.58,2.74-14.7,40.6-36.8,39.81Z"/>
                            <path class="cls-24"
                                  d="m816.39,115.95c-25.13-.84-26.98-43.51-45.58-47.48-14.51-3.13-39.26,31.59-57.31,20.52-17.01-10.44,41.96-65.23,89.31-67.09,43.92-1.73,104.86,62.74,100.72,68.97-10.39,15.64-32.42-17.96-51.02-15.35-18.6,2.61-14.82,41.18-36.12,40.43Z"/>
                            <path class="cls-48"
                                  d="m816.36,114.8c-24.76-.81-27.38-43.74-45.67-47.72-14.35-3.15-39.58,31.7-56.98,21.24-16.91-10.16,41.55-64.22,88.98-66.24,45.04-1.92,104.39,62.4,100.46,68.22-10.68,15.86-32.57-19.06-51.35-16.56-18.61,2.49-14.93,41.76-35.44,41.05Z"/>
                            <path class="cls-34"
                                  d="m816.33,113.64c-24.39-.78-27.79-43.97-45.77-47.96-14.18-3.17-39.9,31.8-56.65,21.97-16.81-9.87,41.14-63.22,88.65-65.4,46.15-2.11,103.91,62.06,100.21,67.48-10.98,16.08-32.72-20.17-51.68-17.76-18.63,2.36-15.04,42.34-34.76,41.68Z"/>
                            <path class="cls-32"
                                  d="m816.3,112.49c-24.02-.74-28.19-44.21-45.86-48.2-14.01-3.19-40.23,31.91-56.32,22.7-16.72-9.58,40.73-62.22,88.32-64.55,47.26-2.31,103.43,61.71,99.95,66.73-11.28,16.28-32.88-21.27-52.01-18.97-18.65,2.24-15.16,42.91-34.07,42.3Z"/>
                            <path class="cls-33"
                                  d="m816.27,111.33c-23.65-.71-28.6-44.44-45.96-48.44-13.84-3.22-40.57,32.03-55.99,23.42-16.63-9.28,40.32-61.23,87.99-63.71,48.38-2.52,102.95,61.36,99.69,65.98-11.6,16.48-33.03-22.33-52.34-20.17-18.67,2.15-15.27,43.49-33.39,42.92Z"/>
                            <path class="cls-31"
                                  d="m816.24,110.18c-23.27-.68-29-44.67-46.06-48.69-13.68-3.24-40.9,32.15-55.66,24.15-16.54-8.97,39.91-60.24,87.66-62.87,49.49-2.73,102.47,61.01,99.44,65.24-11.94,16.66-33.18-23.43-52.67-21.38-18.69,2.03-15.39,44.07-32.71,43.54Z"/>
                            <path class="cls-30"
                                  d="m816.2,109.02c-22.9-.65-29.41-44.9-46.15-48.93-13.51-3.26-41.24,32.29-55.33,24.88-16.46-8.65,39.5-59.31,87.33-62.02,50.6-3.01,101.98,60.66,99.18,64.49-12.3,16.83-33.34-24.54-53-22.59-18.71,1.9-15.5,44.65-32.02,44.17Z"/>
                            <path class="cls-49"
                                  d="m816.17,107.87c-22.53-.61-29.82-45.13-46.25-49.17-13.34-3.28-41.58,32.42-55,25.61-16.38-8.32,39.09-58.29,87-61.18,51.71-3.19,101.5,60.3,98.92,63.75-12.69,16.98-33.49-25.65-53.34-23.79-18.72,1.77-15.61,45.23-31.34,44.79Z"/>
                            <path class="cls-8"
                                  d="m816.14,106.71c-22.16-.58-30.22-45.37-46.34-49.41-13.18-3.31-41.92,32.57-54.67,26.33-16.31-7.98,38.68-57.27,86.67-60.33,52.83-3.37,101.01,59.95,98.67,63-13.11,17.09-33.65-26.75-53.67-25-18.74,1.64-15.73,45.8-30.66,45.41Z"/>
                        </g>
                        <path class="cls-9"
                              d="m711.97,84.47c15.56,10.32,40.25-27.53,56-25,16.2,2.6,12,50.5,42,52,25.99,1.3,20.39-46.53,35.67-48.47,23.06-2.93,35.33,34.97,57.83,28.47,1.79-.52,3.3-1.08,4.58-1.68-36.97-47.26-83.85-90.31-135.79-67.44-28.9,12.73-48.94,35.45-66.66,56.88,1.7,1.79,3.81,3.54,6.37,5.24Z"/>
                        <path class="cls-12"
                              d="m711.97,86.47c15.56,10.32,40.25-27.53,56-25,16.2,2.6,12,50.5,42,52,25.99,1.3,20.39-46.53,35.67-48.47,23.06-2.93,35.33,34.97,57.83,28.47,1.79-.52,3.3-1.08,4.58-1.68-36.97-47.26-83.85-90.31-135.79-67.44-28.9,12.73-48.94,35.45-66.66,56.88,1.7,1.79,3.81,3.54,6.37,5.24Z"/>
                    </g>
                </g>
            </g>
        </g>
    </g>
</svg>