<?xml version="1.0" encoding="UTF-8"?><svg xmlns="http://www.w3.org/2000/svg" width="1576.55" height="436.04" xmlns:xlink="http://www.w3.org/1999/xlink" viewBox="0 0 1576.55 436.04"><defs><style>.cls-1{fill:#f8f9fa;opacity:.05;}.cls-2{fill:#f1f3f6;opacity:.1;}.cls-3{fill:url(#linear-gradient);}.cls-4{fill:#69869e;}.cls-5,.cls-6{fill:#fff;}.cls-7{fill:#e1f0fa;}.cls-8{fill:#89afd1;}.cls-9{mix-blend-mode:multiply;}.cls-10{fill:#eaeef1;opacity:.14;}.cls-11{fill:#e2e8ed;opacity:.19;}.cls-6{opacity:0;}.cls-12{isolation:isolate;}.cls-13{fill:#a9bac8;opacity:.57;}.cls-14{fill:#a2b4c3;opacity:.62;}.cls-15{fill:#b0c0cc;opacity:.52;}.cls-16{fill:#b8c5d1;opacity:.48;}.cls-17{fill:#7792a7;opacity:.9;}.cls-18{fill:#7e97ac;opacity:.86;}.cls-19{fill:#8da3b5;opacity:.76;}.cls-20{fill:#869db0;opacity:.81;}.cls-21{fill:#94a9ba;opacity:.71;}.cls-22{fill:#cdd7df;opacity:.33;}.cls-23{fill:#d4dce3;opacity:.29;}.cls-24{fill:#dbe2e8;opacity:.24;}.cls-25{fill:#bfcbd5;opacity:.43;}.cls-26{fill:#c6d1da;opacity:.38;}.cls-27{fill:#9baebe;opacity:.67;}.cls-28{fill:#708ca3;opacity:.95;}</style><linearGradient id="linear-gradient" x1="492.42" y1="235.99" x2="1322.42" y2="380.99" gradientUnits="userSpaceOnUse"><stop offset="0" stop-color="#516c83"/><stop offset="1" stop-color="#405a72"/></linearGradient></defs><g class="cls-12"><g id="Layer_2"><g id="spring-scene"><g id="mountain-1"><g class="cls-9"><path class="cls-6" d="m55.46,302.33c21.52-2.96,49.86-22.5,72.26-28.61,54-14.73,60.56-82.5,125.12-84.61,77.41-2.52,72.86,29.35,155.39-27.47,38.5-26.5,104.69-192.43,222.8-156.6,68.92,20.9,101.64,95.5,152,95.5s57.04-11.5,95.54-10.57c71.1,1.72,119.23,74.66,182.96,85.07,76.8,12.54,109-105.5,196.29-102.68,122.55,3.96,178.85,243.41,318.65,252.31,7.73,31.24-598.78,61.52-680.5,62.26-221.95,2.01-443.96,1.61-665.93,1.71-66.09.03-132.17-.21-198.25-.58l23.66-85.74Z"/><path class="cls-1" d="m55.53,302.85c21.52-2.96,50.23-21.03,72.63-27.14,54-14.73,61.09-83.5,125.22-85.55,77.41-2.45,72.67,31.5,156.31-26.93,38.27-26.61,104.31-192.57,220.95-156.5,68.06,21.05,100.64,95.48,151,95.48s58.31-12.05,96.81-11.16c70.2,1.64,117.23,76.36,181.03,86.23,81.53,12.62,112.13-106.03,199.27-103.19,120.5,3.92,174.85,242.79,314.65,251.7,7.73,31.24-595.63,60.93-677.35,61.67-221.95,2.01-443.96,1.61-665.93,1.71-66.09.03-132.17-.21-198.25-.58l23.66-85.74Z"/><path class="cls-2" d="m55.59,303.37c21.52-2.96,50.59-19.57,72.99-25.68,54-14.73,61.62-84.51,125.31-86.49,77.42-2.39,72.47,33.66,157.23-26.38,38.03-26.72,103.94-192.72,219.1-156.4,67.21,21.2,99.64,95.45,150,95.45s59.57-12.6,98.08-11.76c69.29,1.56,115.25,78.01,179.1,87.4,86.28,12.67,115.25-106.56,202.25-103.7,118.45,3.87,170.85,242.18,310.64,251.09,7.73,31.24-592.48,60.34-674.19,61.08-221.95,2.01-443.96,1.61-665.93,1.71-66.09.03-132.17-.21-198.25-.58l23.66-85.74Z"/><path class="cls-10" d="m55.66,303.88c21.52-2.96,50.95-18.1,73.36-24.21,54-14.73,62.16-85.51,125.41-87.43,77.42-2.32,72.11,35.58,158.15-25.84,37.73-26.93,103.56-192.87,217.26-156.3,66.36,21.34,98.64,95.43,149,95.43s60.84-13.15,99.34-12.35c68.39,1.47,113.27,79.64,177.18,88.56,91.02,12.7,118.38-107.09,205.23-104.22,116.4,3.83,166.84,241.57,306.64,250.48,7.73,31.24-589.32,59.74-671.04,60.48-221.95,2.01-443.95,1.61-665.93,1.71-66.09.03-132.17-.21-198.25-.58l23.66-85.74Z"/><path class="cls-11" d="m55.72,304.4c21.52-2.96,51.32-16.63,73.72-22.74,54-14.73,62.69-86.51,125.5-88.37,77.43-2.25,71.88,37.67,159.06-25.29,37.48-27.07,103.18-193.02,215.41-156.2,65.5,21.49,97.64,95.41,148,95.41s62.1-13.7,100.61-12.94c67.49,1.39,111.3,81.24,175.25,89.72,95.78,12.71,121.5-107.62,208.21-104.73,114.35,3.78,162.84,240.96,302.64,249.87,7.73,31.24-586.17,59.15-667.88,59.89-221.95,2.01-443.96,1.61-665.93,1.7-66.09.03-132.17-.21-198.25-.58l23.66-85.74Z"/><path class="cls-24" d="m55.79,304.92c21.52-2.96,51.68-15.17,74.08-21.28,54-14.73,63.22-87.51,125.59-89.31,77.43-2.19,71.64,39.77,159.98-24.74,37.24-27.2,102.8-193.17,213.56-156.1,64.65,21.64,96.64,95.38,147,95.38s63.36-14.25,101.87-13.54c66.58,1.31,109.33,82.81,173.32,90.88,100.54,12.69,124.63-108.15,211.19-105.24,112.3,3.74,158.84,240.34,298.64,249.25,7.73,31.24-583.02,58.56-664.73,59.3-221.95,2.01-443.96,1.61-665.93,1.71-66.09.03-132.17-.21-198.25-.58l23.66-85.74Z"/><path class="cls-23" d="m55.86,305.44c21.52-2.95,52.05-13.7,74.45-19.81,54-14.73,63.76-88.52,125.69-90.25,77.43-2.12,71.42,41.88,160.9-24.2,37-27.32,102.43-193.31,211.72-156,63.8,21.79,95.64,95.36,146,95.36s64.63-14.8,103.14-14.13c65.68,1.23,107.36,84.36,171.39,92.05,105.3,12.65,127.76-108.68,214.17-105.76,110.25,3.69,154.84,239.73,294.63,248.64,7.73,31.24-579.86,57.96-661.58,58.71-221.95,2.01-443.96,1.61-665.93,1.7-66.09.03-132.17-.21-198.25-.58l23.66-85.74Z"/><path class="cls-22" d="m55.92,305.95c21.52-2.96,52.41-12.24,74.81-18.35,54-14.73,64.29-89.52,125.78-91.19,77.44-2.05,71.19,44,161.82-23.65,36.76-27.44,102.05-193.46,209.87-155.89,62.94,21.93,94.64,95.33,145,95.33s65.89-15.34,104.41-14.72c64.78,1.15,105.4,85.89,169.47,93.21,110.06,12.58,130.88-109.21,217.15-106.27,108.2,3.64,150.83,239.12,290.63,248.03,7.73,31.24-576.71,57.37-658.42,58.11-221.95,2.01-443.96,1.61-665.93,1.71-66.09.03-132.17-.22-198.25-.58l23.66-85.74Z"/><path class="cls-26" d="m55.99,306.47c21.52-2.96,52.77-10.77,75.18-16.88,54-14.73,64.82-90.52,125.88-92.13,77.44-1.98,70.98,46.13,162.74-23.1,36.52-27.56,101.67-193.61,208.03-155.79,62.09,22.08,93.64,95.31,144,95.31s67.16-15.89,105.67-15.32c63.88,1.07,103.44,87.4,167.54,94.38,114.83,12.49,134.01-109.75,220.13-106.79,106.15,3.6,146.83,238.51,286.63,247.42,7.73,31.24-573.56,56.78-655.27,57.52-221.95,2.01-443.96,1.61-665.93,1.71-66.09.03-132.17-.21-198.25-.58l23.66-85.74Z"/><path class="cls-25" d="m56.05,306.99c21.52-2.96,53.14-9.31,75.54-15.42,54-14.73,65.35-91.53,125.97-93.07,77.45-1.92,70.77,48.27,163.65-22.56,36.29-27.67,101.3-193.76,206.18-155.69,61.24,22.23,92.64,95.29,143,95.29s68.42-16.44,106.94-15.91c62.97.98,101.48,88.91,165.61,95.54,119.61,12.37,137.13-110.28,223.11-107.3,104.1,3.55,142.83,237.9,282.63,246.8,7.73,31.24-570.4,56.18-652.12,56.92-221.95,2.01-443.96,1.61-665.93,1.71-66.09.03-132.17-.21-198.25-.58l23.66-85.74Z"/><path class="cls-16" d="m56.12,307.51c21.52-2.96,53.5-7.84,75.9-13.95,54-14.73,65.89-92.53,126.06-94.01,77.45-1.85,70.57,50.42,164.57-22.01,36.06-27.78,100.92-193.91,204.33-155.59,60.38,22.38,91.64,95.26,142,95.26s69.69-16.99,108.2-16.5c62.07.9,99.52,90.39,163.69,96.7,124.38,12.22,140.26-110.81,226.09-107.81,102.05,3.51,138.83,237.28,278.62,246.19,7.73,31.24-567.25,55.59-648.96,56.33-221.95,2.01-443.96,1.61-665.93,1.71-66.09.03-132.17-.21-198.25-.58l23.66-85.74Z"/><path class="cls-15" d="m56.18,308.02c21.52-2.96,53.87-6.38,76.27-12.48,54-14.73,66.42-93.53,126.16-94.95,77.46-1.78,70.37,52.57,165.49-21.46,35.83-27.88,100.54-194.06,202.49-155.49,59.53,22.52,90.64,95.24,141,95.24s70.95-17.54,109.47-17.1c61.17.82,97.56,91.87,161.76,97.86,129.16,12.06,143.38-111.34,229.07-108.33,100,3.46,134.83,236.67,274.62,245.58,7.73,31.24-564.1,55-645.81,55.74-221.95,2.01-443.96,1.61-665.93,1.71-66.09.03-132.17-.21-198.25-.58l23.66-85.74Z"/><path class="cls-13" d="m56.25,308.54c21.52-2.96,54.23-4.91,76.63-11.02,54-14.73,66.95-94.53,126.25-95.89,77.46-1.72,70.18,54.73,166.41-20.92,35.6-27.99,100.16-194.2,200.64-155.39,58.68,22.67,89.64,95.21,140,95.21s72.22-18.09,110.74-17.69c60.26.74,95.61,93.34,159.84,99.03,133.94,11.86,146.51-111.87,232.05-108.84,97.95,3.41,130.82,236.06,270.62,244.97,7.73,31.24-560.94,54.41-642.66,55.15-221.95,2.01-443.96,1.61-665.93,1.71-66.09.03-132.17-.21-198.25-.58l23.66-85.74Z"/><path class="cls-14" d="m56.32,309.06c21.52-2.96,54.59-3.44,77-9.55,54-14.73,67.49-95.54,126.35-96.83,77.46-1.65,70,56.9,167.32-20.37,35.38-28.09,99.79-194.35,198.79-155.29,57.82,22.82,88.64,95.19,139,95.19s73.48-18.64,112-18.28c59.36.66,93.65,94.8,157.91,100.19,138.72,11.65,149.64-112.4,235.03-109.35,95.9,3.37,126.82,235.45,266.62,244.36,7.73,31.24-557.79,53.81-639.5,54.55-221.95,2.01-443.96,1.61-665.93,1.71-66.09.03-132.17-.21-198.25-.58l23.66-85.74Z"/><path class="cls-27" d="m56.38,309.58c21.52-2.96,54.96-1.98,77.36-8.09,54-14.73,68.02-96.54,126.44-97.77,77.47-1.58,69.82,59.08,168.24-19.82,35.15-28.19,99.41-194.5,196.95-155.18,56.97,22.97,87.64,95.17,138,95.17s74.75-19.19,113.27-18.88c58.46.57,91.7,96.25,155.98,101.35,143.5,11.4,152.76-112.93,238.01-109.87,93.85,3.32,122.82,234.83,262.62,243.74,7.73,31.24-554.64,53.22-636.35,53.96-221.95,2.01-443.96,1.61-665.93,1.71-66.09.03-132.17-.21-198.25-.58l23.66-85.74Z"/><path class="cls-21" d="m56.45,310.09c21.52-2.96,55.32-.51,77.72-6.62,54-14.73,68.55-97.54,126.54-98.71,77.47-1.51,69.66,61.27,169.16-19.28,34.93-28.28,99.03-194.65,195.1-155.08,56.12,23.11,86.64,95.14,137,95.14s76.01-19.74,114.53-19.47c57.55.49,89.74,97.69,154.05,102.52,148.29,11.13,155.89-113.46,240.99-110.38,91.8,3.28,118.82,234.22,258.61,243.13,7.73,31.24-551.48,52.63-633.2,53.37-221.95,2.01-443.96,1.61-665.93,1.71-66.09.03-132.17-.21-198.25-.58l23.66-85.74Z"/><path class="cls-19" d="m56.51,310.61c21.52-2.96,55.68.95,78.09-5.16,54-14.73,69.09-98.54,126.63-99.65,77.48-1.45,69.5,63.47,170.08-18.73,34.72-28.37,98.65-194.8,193.25-154.98,55.26,23.26,85.64,95.12,136,95.12s77.27-20.29,115.8-20.06c56.65.41,87.79,99.12,152.13,103.68,153.07,10.84,159.02-113.99,243.97-110.9,89.75,3.23,114.81,233.61,254.61,242.52,7.73,31.24-548.33,52.03-630.04,52.77-221.95,2.01-443.96,1.61-665.93,1.71-66.09.03-132.17-.21-198.25-.58l23.66-85.74Z"/><path class="cls-20" d="m56.58,311.13c21.52-2.96,56.05,2.42,78.45-3.69,54-14.73,69.62-99.55,126.72-100.59,77.48-1.38,69.34,65.67,171-18.19,34.5-28.46,98.27-194.94,191.41-154.88,54.41,23.41,84.64,95.1,135,95.1s78.54-20.84,117.07-20.66c55.75.33,85.83,100.55,150.2,104.84,157.85,10.52,162.14-114.52,246.95-111.41,87.7,3.18,110.81,233,250.61,241.91,7.73,31.24-545.17,51.44-626.89,52.18-221.95,2.01-443.96,1.61-665.93,1.7-66.09.03-132.17-.21-198.25-.58l23.66-85.74Z"/><path class="cls-18" d="m56.65,311.64c21.52-2.96,56.41,3.88,78.82-2.22,54-14.73,70.15-100.55,126.82-101.53,77.49-1.31,69.2,67.88,171.91-17.64,34.29-28.55,97.9-195.09,189.56-154.78,53.56,23.56,83.64,95.07,134,95.07s79.8-21.38,118.33-21.25c54.84.25,83.87,101.98,148.27,106.01,162.64,10.18,165.27-115.05,249.94-111.92,85.65,3.14,106.81,232.39,246.61,241.3,7.73,31.24-542.02,50.85-623.74,51.59-221.95,2.01-443.96,1.61-665.93,1.71-66.09.03-132.17-.21-198.25-.58l23.66-85.74Z"/><path class="cls-17" d="m56.71,312.16c21.52-2.96,56.78,5.35,79.18-.76,54-14.73,70.68-101.55,126.91-102.47,77.49-1.25,69.2,70.27,172.83-17.09,34.12-28.58,97.52-195.24,187.71-154.68,52.7,23.7,82.64,95.05,133,95.05s81.07-21.93,119.6-21.84c53.94.16,81.92,103.39,146.35,107.17,167.42,9.81,168.39-115.58,252.92-112.44,83.6,3.09,102.81,231.77,242.6,240.68,7.73,31.24-538.87,50.25-620.58,51-221.95,2.01-443.96,1.61-665.93,1.71-66.09.03-132.17-.21-198.25-.58l23.66-85.74Z"/><path class="cls-28" d="m56.78,312.68c21.52-2.96,57.14,6.82,79.54.71,54-14.73,71.22-102.56,127.01-103.42,77.49-1.18,69,72.42,173.75-16.55,33.89-28.69,97.14-195.39,185.87-154.58,51.85,23.85,81.64,95.02,132,95.02s82.33-22.48,120.86-22.44c53.04.08,79.96,104.71,144.42,108.33,172.22,9.17,171.52-116.11,255.9-112.95,81.55,3.05,98.8,231.16,238.6,240.07,7.73,31.24-535.72,49.66-617.43,50.4-221.95,2.01-443.96,1.61-665.93,1.71-66.09.03-132.17-.21-198.25-.58l23.66-85.74Z"/><path class="cls-4" d="m56.84,313.2c21.52-2.96,57.5,8.28,79.91,2.17,54-14.73,71.75-103.56,127.1-104.35,77.5-1.11,68.81,74.57,174.67-16,33.66-28.8,96.77-195.54,184.02-154.47,51,24,80.64,95,131,95s83.6-23.03,122.13-23.03c52.14,0,78,106.22,142.49,109.5,176.99,9,174.64-116.64,258.88-113.46,79.5,3,94.8,230.55,234.6,239.46,7.73,31.24-532.56,49.07-614.28,49.81-221.95,2.01-443.96,1.61-665.93,1.71-66.09.03-132.17-.21-198.25-.58l23.66-85.74Z"/></g><path class="cls-8" d="m23.85,334.22c21.7-3.42,60.64-13.65,83.22-20.71,54.45-17.03,68.41-105.24,124.22-106.16,78.14-1.29,78.66,73.94,185.39-30.79,33.94-33.3,109.27-194.68,200.04-154.7,65.61,28.9,85.57,109.27,136.34,109.27s68.1-44.29,106.95-44.29c52.57,0,84.47,119.67,149.21,126.61,144.97,15.54,164.93-129.95,250.43-129.95,100.5,0,111.04,252.18,251.99,262.49,7.79,36.12-557.93,85.21-640.32,86.06-223.78,2.32-447.62,1.86-671.43,1.97-66.64.03-133.26-.25-199.88-.67l23.85-99.14Z"/><path class="cls-3" d="m23.85,336.22c21.7-3.42,60.64-13.65,83.22-20.71,54.45-17.03,68.41-105.24,124.22-106.16,78.14-1.29,78.66,73.94,185.39-30.79,33.94-33.3,109.27-194.68,200.04-154.7,65.61,28.9,85.57,109.27,136.34,109.27s68.1-44.29,106.95-44.29c52.57,0,84.47,119.67,149.21,126.61,144.97,15.54,164.93-129.95,250.43-129.95,100.5,0,111.04,252.18,251.99,262.49,7.79,36.12-557.93,85.21-640.32,86.06-223.78,2.32-447.62,1.86-671.43,1.97-66.64.03-133.26-.25-199.88-.67l23.85-99.14Z"/><g><g class="cls-9"><path class="cls-6" d="m601.04,135.88c-31.26-1.32-24.72-15.75-48.32-19.75-17.4-2.95-45.61,22.87-73.01,2.42-19.33-14.42,60.25-97.26,108.59-96.57,30.7.44,113.75,63.9,102.75,77.9-14.96,19.04-25.29,12.64-42.33,16.67-19.12,4.52-14.63,20.72-47.67,19.33Z"/><path class="cls-1" d="m600.61,134.81c-30.87-1.28-24.79-16.19-48.07-20.21-17.22-2.98-45.09,23.04-71.82,3.25-19.22-14.13,59.02-96.21,107.44-95.7,31.87.25,113.37,63.67,102.56,77.32-15.02,18.87-25.7,11.43-42.92,15.35-19.14,4.38-14.99,21.33-47.19,19.98Z"/><path class="cls-2" d="m600.18,133.75c-30.48-1.25-24.86-16.64-47.82-20.66-17.05-3-44.51,23.13-70.63,4.09-19.06-13.9,57.79-95.05,106.29-94.84,33.03.14,113.03,63.47,102.38,76.74-15.03,18.74-26.1,10.21-43.51,14.03-19.16,4.25-15.34,21.93-46.71,20.63Z"/><path class="cls-10" d="m599.75,132.68c-30.09-1.21-24.93-17.08-47.56-21.12-16.88-3.02-43.97,23.27-69.44,4.93-18.93-13.64,56.56-93.64,105.14-93.97,34.19-.24,112.67,63.25,102.19,76.16-15.08,18.58-26.51,9-44.1,12.71-19.18,4.12-15.7,22.54-46.24,21.29Z"/><path class="cls-11" d="m599.32,131.62c-29.7-1.18-25-17.53-47.31-21.58-16.7-3.05-43.43,23.41-68.25,5.77-18.81-13.37,55.33-92.87,103.99-93.11,35.35-.17,112.31,63.03,102.01,75.58-15.12,18.43-26.92,7.75-44.68,11.4-19.21,3.94-16.06,23.14-45.76,21.94Z"/><path class="cls-24" d="m598.9,130.56c-29.32-1.15-25.07-17.98-47.06-22.03-16.53-3.07-42.89,23.56-67.05,6.6-18.68-13.11,54.1-91.79,102.84-92.24,36.52-.34,111.94,62.81,101.82,75-15.16,18.28-27.32,6.53-45.27,10.08-19.23,3.8-16.41,23.74-45.29,22.59Z"/><path class="cls-23" d="m598.47,129.49c-28.93-1.11-25.14-18.42-46.8-22.49-16.36-3.09-42.36,23.7-65.86,7.44-18.56-12.84,52.87-90.72,101.69-91.38,37.68-.51,111.57,62.59,101.64,74.43-15.21,18.13-27.73,5.31-45.86,8.76-19.26,3.66-16.76,24.35-44.81,23.24Z"/><path class="cls-22" d="m598.04,128.43c-28.54-1.08-25.21-18.87-46.55-22.95-16.18-3.12-41.82,23.86-64.67,8.28-18.44-12.57,51.64-89.66,100.55-90.51,38.84-.68,111.21,62.36,101.45,73.85-15.26,17.97-28.13,4.09-46.45,7.44-19.28,3.53-17.12,24.95-44.33,23.89Z"/><path class="cls-26" d="m597.61,127.37c-28.15-1.05-25.28-19.31-46.3-23.4-16.01-3.14-41.29,24.01-63.48,9.12-18.31-12.3,50.41-88.6,99.4-89.65,40-.85,110.84,62.14,101.27,73.27-15.31,17.81-28.54,2.88-47.03,6.13-19.3,3.39-17.48,25.56-43.86,24.54Z"/><path class="cls-25" d="m597.18,126.3c-27.77-1.01-25.35-19.76-46.04-23.86-15.83-3.17-40.77,24.17-62.29,9.95-18.2-12.02,49.18-87.55,98.25-88.78,41.17-1.04,110.46,61.91,101.08,72.69-15.37,17.65-28.94,1.66-47.62,4.81-19.32,3.25-17.83,26.16-43.38,25.19Z"/><path class="cls-16" d="m596.75,125.24c-27.38-.98-25.42-20.21-45.79-24.31-15.66-3.19-40.25,24.34-61.1,10.79-18.08-11.75,47.95-86.5,97.1-87.92,42.33-1.22,110.09,61.69,100.9,72.11-15.42,17.49-29.35.45-48.21,3.49-19.34,3.12-18.19,26.77-42.9,25.84Z"/><path class="cls-15" d="m596.32,124.18c-26.99-.94-25.49-20.65-45.54-24.77-15.49-3.21-39.73,24.51-59.91,11.63-17.97-11.46,46.72-85.46,95.95-87.05,43.49-1.41,109.71,61.46,100.71,71.53-15.48,17.33-29.75-.76-48.79,2.17-19.36,2.99-18.54,27.37-42.43,26.49Z"/><path class="cls-13" d="m595.9,123.11c-26.6-.91-25.56-21.1-45.28-25.23-15.31-3.24-39.21,24.68-58.72,12.47-17.86-11.18,45.49-84.42,94.81-86.19,44.66-1.6,109.34,61.23,100.53,70.95-15.54,17.16-30.15-1.97-49.38.86-19.38,2.85-18.9,27.97-41.95,27.14Z"/><path class="cls-14" d="m595.47,122.05c-26.22-.88-25.63-21.54-45.03-25.68-15.14-3.26-38.7,24.86-57.53,13.3-17.75-10.89,44.26-83.38,93.66-85.32,45.82-1.8,108.96,60.99,100.34,70.37-15.61,16.99-30.56-3.18-49.97-.46-19.4,2.72-19.25,28.58-41.48,27.79Z"/><path class="cls-27" d="m595.04,120.99c-25.83-.84-25.7-21.99-44.77-26.14-14.96-3.28-38.19,25.04-56.34,14.14-17.64-10.6,43.03-82.35,92.51-84.46,46.98-2,108.58,60.76,100.16,69.79-15.68,16.82-30.96-4.39-50.56-1.78-19.42,2.59-19.61,29.18-41,28.44Z"/><path class="cls-21" d="m594.61,119.92c-25.44-.81-25.76-22.44-44.52-26.6-14.79-3.31-37.68,25.23-55.14,14.98-17.54-10.3,41.8-81.32,91.36-83.59,48.14-2.21,108.19,60.52,99.97,69.21-15.75,16.65-31.36-5.6-51.14-3.1-19.44,2.46-19.96,29.79-40.52,29.1Z"/><path class="cls-19" d="m594.18,118.86c-25.05-.78-25.83-22.88-44.27-27.05-14.62-3.33-37.18,25.43-53.95,15.81-17.44-10,40.57-80.3,90.21-82.73,49.3-2.41,107.81,60.29,99.79,68.64-15.82,16.47-31.77-6.81-51.73-4.41-19.46,2.34-20.32,30.39-40.05,29.75Z"/><path class="cls-20" d="m593.75,117.8c-24.66-.74-25.9-23.33-44.01-27.51-14.44-3.35-36.68,25.63-52.76,16.65-17.35-9.68,39.34-79.28,89.06-81.87,50.46-2.63,107.42,60.05,99.6,68.06-15.9,16.29-32.17-7.98-52.32-5.73-19.47,2.25-20.67,30.99-39.57,30.4Z"/><path class="cls-18" d="m593.32,116.73c-24.28-.71-25.97-23.78-43.76-27.96-14.27-3.38-36.18,25.84-51.57,17.49-17.26-9.36,38.11-78.26,87.92-81,51.62-2.84,107.04,59.81,99.42,67.48-15.99,16.1-32.57-9.19-52.9-7.05-19.49,2.11-21.03,31.6-39.1,31.05Z"/><path class="cls-17" d="m592.9,115.67c-23.89-.67-26.04-24.22-43.51-28.42-14.09-3.4-35.68,26.05-50.38,18.33-17.17-9.03,36.87-77.31,86.77-80.14,52.78-3.14,106.65,59.57,99.23,66.9-16.08,15.9-32.98-10.4-53.49-8.37-19.51,1.98-21.38,32.2-38.62,31.7Z"/><path class="cls-28" d="m592.47,114.61c-23.5-.64-26.11-24.67-43.25-28.88-13.92-3.42-35.19,26.27-49.19,19.16-17.09-8.68,35.64-76.26,85.62-79.27,53.94-3.33,106.26,59.32,99.05,66.32-16.17,15.7-33.38-11.61-54.08-9.68-19.53,1.84-21.74,32.81-38.14,32.35Z"/><path class="cls-4" d="m592.04,113.54c-23.11-.61-26.18-25.11-43-29.33-13.75-3.45-34.7,26.5-48,20-17.02-8.32,34.41-75.21,84.47-78.41,55.11-3.52,105.86,59.07,98.86,65.74-16.27,15.5-33.79-12.83-54.67-11-19.55,1.71-22.09,33.41-37.67,33Z"/></g><path class="cls-5" d="m499.54,107.82c12.79,3.57,30.05-23.63,47-22.28,12.5,1,20.02,29.21,39.5,30,25,1.01,28.62-32.85,41.5-34.5,19.5-2.5,41.5,32,58.5,9.5,1.25-1.65,2.02-3.56,2.39-5.66-19-23.11-40.03-49.06-71.71-63.01-49.74-21.91-94.85,16.65-131.05,61.47-1.38,11.15,2.05,21.19,13.87,24.49Z"/><path class="cls-7" d="m499.54,109.82c12.79,3.57,30.05-23.63,47-22.28,12.5,1,20.02,29.21,39.5,30,25,1.01,28.62-32.85,41.5-34.5,19.5-2.5,41.5,32,58.5,9.5,1.25-1.65,2.02-3.56,2.39-5.66-19-23.11-40.03-49.06-71.71-63.01-49.74-21.91-94.85,16.65-131.05,61.47-1.38,11.15,2.05,21.19,13.87,24.49Z"/></g><g><g class="cls-9"><path class="cls-6" d="m1258.78,146.24c-25.08,1.63-53.74,20.97-69.24,6.8-17.06-15.6,26.85-69.6,73.18-68.94,29.43.42,78.32,53.48,68.57,62.69-22.25,21-49.6-2.04-72.51-.55Z"/><path class="cls-1" d="m1258.67,144.86c-24.71,1.52-53.08,20.77-68.21,7.04-16.98-15.32,26.29-68.28,72.13-67.63,29.94.42,77.59,52.77,67.97,61.85-21.76,20.53-48.91-2.63-71.89-1.26Z"/><path class="cls-2" d="m1258.57,143.48c-24.35,1.41-52.38,20.53-67.17,7.29-16.86-15.09,25.74-66.96,71.07-66.32,30.44.42,76.86,52.06,67.37,61.01-21.28,20.06-48.21-3.22-71.27-1.97Z"/><path class="cls-10" d="m1258.46,142.1c-24,1.23-51.7,20.32-66.14,7.53-16.75-14.83,25.18-65.63,70.01-65.01,30.95.42,76.13,51.35,66.77,60.16-20.79,19.6-47.52-3.87-70.65-2.69Z"/><path class="cls-11" d="m1258.35,140.73c-23.64,1.1-51.02,20.1-65.1,7.77-16.65-14.58,24.62-64.3,68.96-63.7,31.45.41,75.4,50.63,66.17,59.32-20.31,19.13-46.83-4.48-70.03-3.4Z"/><path class="cls-24" d="m1258.25,139.35c-23.28.98-50.34,19.89-64.07,8.02-16.55-14.32,24.06-62.98,67.9-62.39,31.95.41,74.67,49.92,65.57,58.48-19.82,18.66-46.13-5.09-69.41-4.11Z"/><path class="cls-23" d="m1258.14,137.97c-22.92.85-49.67,19.68-63.03,8.26-16.46-14.06,23.51-61.65,66.85-61.08,32.46.41,73.94,49.21,64.97,57.64-19.33,18.2-45.44-5.69-68.79-4.82Z"/><path class="cls-22" d="m1258.03,136.59c-22.55.73-48.99,19.48-62,8.51-16.36-13.8,22.95-60.33,65.79-59.77,32.96.41,73.21,48.5,64.37,56.8-18.85,17.73-44.74-6.29-68.17-5.53Z"/><path class="cls-26" d="m1257.93,135.21c-22.19.61-48.32,19.27-60.96,8.75-16.26-13.53,22.39-59,64.74-58.46,33.47.41,72.48,47.78,63.77,55.96-18.36,17.26-44.05-6.89-67.55-6.25Z"/><path class="cls-25" d="m1257.82,133.83c-21.83.49-47.65,19.06-59.92,8.99-16.17-13.27,21.84-57.68,63.68-57.15,33.97.4,71.75,47.07,63.18,55.12-17.88,16.79-43.36-7.49-66.93-6.96Z"/><path class="cls-16" d="m1257.71,132.46c-21.47.38-46.98,18.86-58.89,9.24-16.08-13,21.28-56.35,62.63-55.84,34.47.4,71.02,46.36,62.58,54.28-17.39,16.33-42.66-8.08-66.31-7.67Z"/><path class="cls-15" d="m1257.61,131.08c-21.11.26-46.32,18.66-57.85,9.48-16-12.73,20.72-55.03,61.57-54.53,34.98.4,70.29,45.65,61.98,53.43-16.9,15.86-41.96-8.68-65.69-8.38Z"/><path class="cls-13" d="m1257.5,129.7c-20.75.15-45.65,18.47-56.82,9.72-15.91-12.46,20.17-53.7,60.52-53.22,35.48.4,69.56,44.93,61.38,52.59-16.42,15.39-41.27-9.27-65.08-9.09Z"/><path class="cls-14" d="m1257.39,128.32c-20.39.04-44.99,18.27-55.78,9.97-15.83-12.18,19.61-52.38,59.46-51.91,35.99.39,68.83,44.22,60.78,51.75-15.93,14.92-40.57-9.86-64.46-9.8Z"/><path class="cls-27" d="m1257.29,126.94c-20.03-.06-44.34,18.08-54.75,10.21-15.75-11.9,19.05-51.05,58.4-50.61,36.49.39,68.1,43.51,60.18,50.91-15.45,14.46-39.88-10.44-63.84-10.52Z"/><path class="cls-21" d="m1257.18,125.56c-19.66-.17-43.68,17.89-53.71,10.46-15.67-11.62,18.5-49.73,57.35-49.3,37,.39,67.37,42.8,59.58,50.07-14.96,13.99-39.18-11.02-63.22-11.23Z"/><path class="cls-19" d="m1257.07,124.18c-19.3-.27-43.02,17.71-52.68,10.7-15.6-11.33,17.94-48.4,56.29-47.99,37.5.39,66.64,42.08,58.98,49.23-14.47,13.52-38.49-11.6-62.6-11.94Z"/><path class="cls-20" d="m1256.97,122.8c-18.94-.37-42.37,17.53-51.64,10.94-15.53-11.03,17.38-47.08,55.24-46.68,38,.39,65.91,41.37,58.38,48.39-13.99,13.05-37.79-12.18-61.98-12.65Z"/><path class="cls-18" d="m1256.86,121.43c-18.58-.47-41.72,17.35-50.61,11.19-15.47-10.73,16.83-45.75,54.18-45.37,38.51.38,65.17,40.66,57.78,47.54-13.5,12.59-37.1-12.75-61.36-13.36Z"/><path class="cls-17" d="m1256.75,120.05c-18.22-.56-41.07,17.17-49.57,11.43-15.41-10.41,16.27-44.43,53.13-44.06,39.01.38,64.45,39.95,57.18,46.7-13.01,12.12-36.4-13.32-60.74-14.08Z"/><path class="cls-28" d="m1256.65,118.67c-17.86-.64-40.43,17-48.54,11.67-15.36-10.09,15.71-43.1,52.07-42.75,39.52.38,63.71,39.23,56.58,45.86-12.53,11.65-35.71-13.86-60.12-14.79Z"/><path class="cls-4" d="m1256.54,117.29c-17.5-.75-39.78,16.84-47.5,11.92-15.31-9.76,15.16-41.78,51.02-41.44,40.02.38,62.98,38.52,55.98,45.02-12.04,11.18-35.02-14.45-59.5-15.5Z"/></g><path class="cls-5" d="m1197.04,134.54c10.33,6.67,39.32-15.04,58.67-14,26.16,1.41,42.67,17,56.67,14.67,10.48-1.75,10.25-8.75,7.74-14.14-16.95-22.68-36.05-37.56-60.46-37.56-27.51,0-48.23,15.06-68.52,34.98-2.45,6.7-2.58,10.58,5.91,16.05Z"/><path class="cls-7" d="m1197.04,136.54c10.33,6.67,39.32-15.04,58.67-14,26.16,1.41,42.67,17,56.67,14.67,10.48-1.75,10.25-8.75,7.74-14.14-16.95-22.68-36.05-37.56-60.46-37.56-27.51,0-48.23,15.06-68.52,34.98-2.45,6.7-2.58,10.58,5.91,16.05Z"/></g></g></g></g></g></svg>