<?xml version="1.0" encoding="UTF-8"?>
<svg id="Layer_1" data-name="Layer 1" xmlns="http://www.w3.org/2000/svg" viewBox="0 0 1280 313.836">
  <g id="hill-2">
    <path id="hill-2-background" d="m1015.726,104c-94.431,0-142.406-25.538-188.802-50.234-45.963-24.466-93.491-49.766-186.924-49.766-78.089,0-117.833,25.26-156.27,49.688-38.918,24.735-79.162,50.312-158.416,50.312-81.894,0-123.484-25.569-163.705-50.296C121.863,29.268,80.763,4,0,4v309.836h1280V4c-65.396,0-98.712,25.212-130.93,49.595-32.745,24.781-66.604,50.405-133.345,50.405Z" fill="#708f2b"/>
    <path id="hill-2-path" d="m1015.726,100c-93.432,0-140.96-25.299-186.923-49.766C782.407,25.538,734.431,0,640,0c-79.253,0-119.497,25.577-158.415,50.312-38.436,24.429-78.18,49.688-156.27,49.688-80.763,0-121.863-25.268-161.61-49.704C123.484,25.569,81.895,0,0,0v4c80.763,0,121.863,25.268,161.61,49.704,40.221,24.727,81.811,50.296,163.705,50.296,79.253,0,119.497-25.577,158.416-50.312,38.436-24.428,78.18-49.688,156.27-49.688,93.433,0,140.961,25.3,186.924,49.766,46.396,24.696,94.371,50.234,188.802,50.234,66.74,0,100.6-25.624,133.345-50.405,32.218-24.383,65.533-49.595,130.93-49.595V0c-66.739,0-100.599,25.624-133.344,50.405-32.218,24.382-65.533,49.595-130.931,49.595Z" fill="#abd645"/>
  </g>
</svg>