<?xml version="1.0" encoding="UTF-8"?>
<svg xmlns="http://www.w3.org/2000/svg" xmlns:xlink="http://www.w3.org/1999/xlink" viewBox="0 0 1630.778 418.481">
  <defs>
    <linearGradient id="linear-gradient" x1="88.183" y1="139.211" x2="1518.146" y2="139.211" gradientUnits="userSpaceOnUse">
      <stop offset="0" stop-color="#93ca09"/>
      <stop offset="1" stop-color="#7dab08"/>
    </linearGradient>
  </defs>
  <g style="isolation: isolate;">
    <g id="Layer_2" data-name="Layer 2">
      <g id="_ÎÓÈ_6" data-name="—ÎÓÈ_6">
        <g id="hill-1">
          <g style="mix-blend-mode: multiply;">
            <path d="m868.799,417.155C748.446,436.251-105.373,245.636,10.841,72.17c74.343-110.966,465.231-31.368,674.93-3.201,122.517,16.457,366.612,39.189,498.012-1.297,98.646-30.395,378.735-125.727,445.634-16.853,35.402,57.616-630.072,345.622-760.617,366.335Z" style="fill: #fff; opacity: 0;"/>
            <path d="m870.299,413.797C747.185,433.172-98.615,243.846,14.422,72.784c73.026-111.207,463.798-28.132,670.708.053,126.331,17.493,367.095,38.771,495.841-1.682,101.531-31.901,377.001-124.295,441.295-18.89,34.144,56.13-621.658,340.97-751.967,361.532Z" style="fill: #f9faf9; opacity: .048;"/>
            <path d="m871.799,410.441C745.925,430.093-91.385,242.362,18.003,73.396c72.021-111.246,462.424-25.317,666.486,3.307,130.183,18.261,367.565,38.303,493.669-2.064,104.415-33.425,375.268-122.864,436.958-20.928,32.884,54.644-613.245,336.318-743.317,356.73Z" style="fill: #f3f5f2; opacity: .095;"/>
            <path d="m873.299,407.083C744.664,427.014-84.422,240.698,21.584,74.01c70.847-111.402,461.014-22.243,662.263,6.559,134.016,19.18,368.023,37.789,491.499-2.448,107.295-34.965,373.533-121.432,432.619-22.965,31.624,53.157-604.831,331.666-734.667,351.928Z" style="fill: #edf0ec; opacity: .143;"/>
            <path d="m874.799,403.727C743.404,423.934-77.482,239.015,25.165,74.622c69.662-111.566,459.601-19.136,658.041,9.814,137.847,20.109,368.47,37.233,489.329-2.833,110.171-36.523,372.043-120.144,428.281-25.002,30.497,51.593-596.418,327.015-726.018,347.126Z" style="fill: #e6ebe6; opacity: .19;"/>
            <path d="m876.299,400.37C742.143,420.855-70.562,237.314,28.746,75.236c68.466-111.741,458.184-16.002,653.819,13.066,141.676,21.051,368.904,36.641,487.157-3.217,113.045-38.101,370.362-118.741,423.943-27.039,29.267,50.09-588.004,322.362-717.367,342.323Z" style="fill: #e0e6df; opacity: .238;"/>
            <path d="m877.799,397.013C740.883,417.777-63.668,235.596,32.327,75.849c67.258-111.927,456.764-12.843,649.598,16.319,145.505,22.005,369.328,36.013,484.986-3.601,115.911-39.7,368.678-117.337,419.606-29.076,28.036,48.588-579.592,317.711-708.718,337.521Z" style="fill: #dae0d9; opacity: .286;"/>
            <path d="m879.298,393.656C739.622,414.698-56.795,233.86,35.908,76.462c66.037-112.122,455.341-9.66,645.375,19.573,149.332,22.973,369.743,35.352,482.815-3.985,118.774-41.32,366.989-115.928,415.268-31.113,26.804,47.089-571.178,313.059-700.068,332.719Z" style="fill: #d4dbd3; opacity: .333;"/>
            <path d="m880.798,390.299C738.362,411.618-49.948,232.107,39.489,77.075c64.801-112.327,453.914-6.454,641.153,22.828,153.158,23.952,370.151,34.661,480.645-4.369,121.628-42.963,365.296-114.518,410.93-33.15,25.568,45.589-562.765,308.406-691.419,327.916Z" style="fill: #ced6cc; opacity: .381;"/>
            <path d="m882.298,386.942C737.101,408.538-43.125,230.337,43.07,77.688c63.55-112.545,452.485-3.23,636.931,26.081,156.981,24.946,370.547,33.944,478.475-4.753,124.475-44.63,363.596-113.101,406.591-35.188,24.332,44.093-554.351,303.754-682.768,323.113Z" style="fill: #c8d1c6; opacity: .429;"/>
            <path d="m883.798,383.585C735.841,405.459-36.329,228.551,46.651,78.301c62.282-112.772,451.053.013,632.709,29.334,160.803,25.955,370.934,33.202,476.304-5.137,127.313-46.322,361.892-111.68,402.253-37.225,23.092,42.599-545.937,299.102-674.119,318.311Z" style="fill: #c2ccc0; opacity: .476;"/>
            <path d="m885.298,380.228C734.58,402.38-29.558,226.749,50.232,78.914c60.995-113.012,449.618,3.273,628.486,32.588,164.62,26.98,371.313,32.435,474.133-5.521,130.142-48.042,360.181-110.255,397.915-39.262,21.85,41.106-537.523,294.45-665.469,313.509Z" style="fill: #bbc7b9; opacity: .524;"/>
            <path d="m886.798,376.872C733.319,399.301-22.815,224.933,53.813,79.528c59.689-113.262,448.181,6.549,624.265,35.841,168.437,28.02,371.684,31.647,471.961-5.905,132.96-49.791,358.463-108.825,393.578-41.299,20.602,39.617-529.11,289.799-656.819,308.707Z" style="fill: #b5c2b3; opacity: .571;"/>
            <path d="m888.298,373.514C732.059,396.221-16.099,223.101,57.394,80.14c58.36-113.523,446.741,9.84,620.042,39.095,172.249,29.077,372.048,30.839,469.79-6.288,135.766-51.57,356.733-107.391,389.239-43.337,19.351,38.131-520.696,285.146-648.169,303.904Z" style="fill: #afbdad; opacity: .619;"/>
            <path d="m889.797,370.158C730.799,393.143-9.411,221.256,60.975,80.753c57.008-113.796,445.298,13.147,615.82,42.349,176.06,30.15,372.403,30.012,467.62-6.673,138.557-53.383,354.994-105.948,384.9-45.374,18.094,36.648-512.282,280.495-639.519,299.102Z" style="fill: #a9b8a6; opacity: .667;"/>
            <path d="m891.297,366.8C729.538,390.064-2.754,219.398,64.556,81.367c55.631-114.081,443.853,16.465,611.599,45.603,179.865,31.243,372.751,29.167,465.448-7.058,141.334-55.231,353.244-104.501,380.563-47.411,16.829,35.169-503.869,275.843-630.87,294.3Z" style="fill: #a3b3a0; opacity: .714;"/>
            <path d="m892.798,363.444C728.277,386.984,3.875,217.528,68.138,81.98c54.226-114.377,442.405,19.794,607.376,48.855,183.668,32.354,373.092,28.307,463.278-7.441,144.096-57.116,351.479-103.046,376.226-49.448,15.557,33.693-495.457,271.191-622.22,289.498Z" style="fill: #9dad9a; opacity: .762;"/>
            <path d="m894.297,360.086C727.016,383.905,10.473,215.647,71.719,82.593c52.79-114.685,440.955,23.135,603.154,52.108,187.466,33.487,373.425,27.432,461.108-7.825,146.838-59.043,349.697-101.583,371.887-51.485,14.272,32.224-487.043,266.539-613.57,284.695Z" style="fill: #97a893; opacity: .81;"/>
            <path d="m895.797,356.73C725.756,380.826,17.039,213.756,75.3,83.205c51.322-115.003,439.502,26.488,598.932,55.363,191.26,34.64,373.751,26.542,458.936-8.209,149.562-61.014,347.895-100.113,367.55-53.523,12.976,30.759-478.63,261.888-604.921,279.894Z" style="fill: #90a38d; opacity: .857;"/>
            <path d="m897.297,353.372C724.495,377.747,23.574,211.857,78.881,83.819c49.819-115.334,437.996,30.13,594.71,58.616,194.987,36.161,374.069,25.641,456.766-8.593,152.264-63.032,346.068-98.636,363.211-55.561,11.66,29.3-470.216,257.235-596.27,275.091Z" style="fill: #8a9e87; opacity: .905;"/>
            <path d="m898.797,350.015C723.235,374.667,30.077,209.951,82.462,84.432c48.277-115.675,436.562,33.366,590.488,61.87,198.801,37.198,374.38,24.726,454.595-8.978,154.94-65.101,344.213-97.149,358.872-57.598,10.321,27.848-461.802,252.583-587.62,270.288Z" style="fill: #849980; opacity: .952;"/>
            <path d="m900.297,346.659C721.974,371.588,36.545,208.039,86.043,85.045c46.693-116.027,435.129,36.602,586.266,65.123,202.615,38.235,374.685,23.801,452.424-9.361,157.592-67.226,342.322-95.659,354.535-59.635,8.951,26.402-453.389,247.932-578.971,265.486Z" style="fill: #7e947a;"/>
          </g>
          <path d="m122.183,22.209c242,0,498,128,734,128,262,0,432-100,583-100s39,202,39,202H88.183L122.183,22.209Z" style="fill: #bbf825;"/>
          <path d="m122.183,24.211c242,0,498,128,734,128,262,0,432-100,583-100s39,202,39,202H88.183L122.183,24.211Z" style="fill: url(#linear-gradient);"/>
        </g>
      </g>
    </g>
  </g>
</svg>