<svg xmlns="http://www.w3.org/2000/svg" viewBox="0 0 1089.736 1436.627">
    <g id="marmot">
        <path d="m732.231,584.883c-43.692-72.613-102.7-136.014-159.136-199.029-.006-.008-.014-.012-.02-.019,0,0-.009-.01-.012-.015-.007-.006-.014-.011-.021-.019-.004-.004-.007-.01-.012-.014,0,0-.014-.012-.02-.019-.005-.005-.009-.01-.009-.01-.011-.012-.019-.016-.026-.025,0,0-.007-.007-.011-.012-.006-.006-.012-.011-.019-.017-.005-.005-.009-.011-.014-.016-.006-.006-.014-.011-.02-.017-.005-.005-.009-.01-.009-.01-.011-.012-.019-.016-.025-.023,0,0-.009-.01-.012-.015-.008-.007-.015-.011-.021-.02-.004-.004-.009-.007-.012-.012-.005-.006-.012-.01-.019-.017-.004-.005-.009-.01-.009-.01-.011-.012-.019-.017-.025-.024,0,0-.009-.01-.012-.015,0,0-.014-.011-.021-.019-.004-.004-.007-.01-.012-.014-.006-.008-.014-.013-.02-.019-.005-.005-.009-.01-.009-.01-.011-.012-.019-.017-.026-.025,0,0-.008-.009-.011-.012,0,0-.012-.011-.019-.017-.005-.005-.009-.011-.014-.016-.006-.006-.014-.011-.02-.017l-.014-.015c-.006-.007-.014-.011-.02-.019-.004-.005-.009-.01-.012-.015,0,0-.015-.011-.021-.02-.005-.004-.009-.009-.009-.009-.01-.011-.016-.014-.022-.021,0,0-.009-.01-.014-.015-.006-.007-.014-.012-.02-.019-.005-.005-.009-.01-.012-.015-.007-.006-.014-.011-.021-.019-.004-.005-.007-.01-.007-.01-.011-.011-.019-.016-.025-.022,0,0-.009-.01-.012-.015-.008-.007-.015-.012-.022-.02-.004-.004-.007-.009-.011-.012-.006-.007-.012-.011-.019-.017-.005-.005-.01-.011-.01-.011-.011-.011-.018-.016-.025-.022,0,0-.008-.01-.012-.015-.006-.007-.014-.011-.02-.019-.004-.005-.009-.01-.012-.015-.007-.007-.015-.012-.022-.02-.004-.004-.007-.009-.007-.009-.01-.011-.016-.014-.022-.021-.004-.005-.009-.01-.014-.015,0,0-.013-.012-.02-.019-.005-.006-.009-.01-.012-.015-.007-.007-.014-.011-.021-.019-.004-.005-.009-.01-.009-.01-.011-.011-.019-.016-.025-.024,0,0-.007-.009-.011-.014,0,0-.014-.011-.021-.019-.004-.005-.009-.009-.009-.009-.01-.012-.016-.016-.022-.022,0,0-.01-.011-.014-.016-.007-.007-.014-.011-.021-.017-.004-.006-.007-.01-.012-.015-.006-.007-.014-.011-.02-.019-.005-.005-.009-.01-.009-.01-.011-.012-.019-.017-.026-.025,0,0-.007-.009-.011-.012-.006-.007-.012-.01-.019-.017-.005-.005-.009-.01-.014-.015-.006-.009-.014-.012-.02-.019-.005-.006-.009-.01-.009-.01-.011-.012-.019-.016-.025-.024,0,0-.009-.01-.012-.014-.008-.007-.015-.012-.021-.02-.004-.005-.007-.009-.012-.014-.005-.006-.012-.01-.019-.017-.004-.005-.009-.01-.009-.01-.011-.012-.019-.016-.025-.024,0,0-.009-.01-.012-.015,0,0-.013-.011-.021-.019-.004-.005-.007-.009-.012-.014-.006-.007-.014-.011-.02-.019-.005-.005-.009-.01-.009-.01-.011-.012-.019-.017-.026-.025,0,0-.007-.009-.011-.012,0,0-.012-.011-.019-.017-.005-.005-.009-.01-.014-.015-.006-.009-.014-.012-.02-.02,0,0-.009-.009-.014-.014-.006-.007-.014-.011-.02-.019-.004-.005-.009-.01-.012-.014,0,0-.015-.012-.021-.02-.004-.005-.009-.009-.009-.009-.009-.011-.016-.015-.022-.022,0,0-.009-.01-.014-.015-.006-.007-.014-.011-.02-.02-.005-.004-.009-.009-.012-.014-.007-.007-.014-.011-.021-.019-.004-.005-.007-.009-.007-.009-.011-.012-.019-.016-.025-.025,0,0-.009-.009-.012-.014-.008-.007-.015-.012-.022-.02-.004-.004-.007-.009-.011-.012-.006-.007-.012-.011-.019-.017-.005-.005-.009-.01-.009-.01-.011-.014-.019-.017-.025-.025,0,0-.009-.009-.014-.014,0,0-.014-.011-.02-.019-.004-.005-.009-.01-.012-.014-.007-.009-.015-.012-.021-.02-.005-.005-.008-.009-.008-.009-.01-.011-.016-.015-.022-.022-.004-.005-.009-.01-.014-.015,0,0-.014-.011-.02-.02-.005-.004-.009-.009-.012-.014-.007-.007-.014-.011-.021-.019-.004-.005-.007-.009-.007-.009-.012-.014-.02-.017-.026-.025,0,0-.007-.009-.011-.014,0,0-.014-.011-.021-.019-.004-.005-.007-.009-.007-.009-.011-.012-.017-.016-.023-.022,0,0-.01-.01-.014-.016-.006-.007-.014-.011-.021-.019-.004-.005-.007-.009-.012-.014,0,0-.014-.011-.02-.019-.004-.005-.009-.01-.009-.01-.011-.012-.019-.016-.026-.024,0,0-.007-.009-.011-.014-.006-.006-.012-.01-.019-.017-.004-.005-.009-.01-.014-.015-.006-.007-.014-.011-.02-.02-.005-.004-.009-.009-.009-.009-.011-.012-.017-.016-.025-.024,0,0-.009-.009-.012-.014-.008-.009-.015-.012-.021-.02-.003-.005-.007-.009-.011-.014-.006-.006-.014-.01-.02-.017-.004-.005-.009-.01-.009-.01-.011-.013-.019-.016-.025-.024,0,0-.009-.01-.012-.015,0,0-.013-.011-.021-.019-.004-.005-.007-.009-.012-.014-.006-.007-.014-.011-.02-.019-.005-.005-.009-.01-.009-.01-.011-.012-.019-.016-.026-.024,0,0-.008-.009-.011-.014,0,0-.012-.01-.019-.017-.004-.005-.009-.01-.014-.015-.006-.007-.014-.012-.02-.02l-.014-.014c-.006-.007-.014-.011-.02-.019-.004-.005-.009-.009-.012-.014,0,0-.015-.012-.021-.02l-.012-.014c-.005-.006-.012-.01-.019-.017,0,0-.009-.01-.014-.015-.006-.007-.014-.011-.02-.019-.005-.005-.009-.01-.012-.015-.007-.007-.014-.011-.021-.019-.004-.005-.007-.009-.007-.009-.011-.012-.019-.016-.025-.024,0,0-.009-.01-.012-.015-.008-.007-.015-.011-.022-.02-.004-.004-.007-.007-.011-.012-.006-.006-.012-.01-.019-.017-.005-.005-.009-.01-.009-.01-.011-.012-.019-.017-.025-.025,0,0-.009-.009-.014-.014,0,0-.014-.011-.02-.019-.004-.005-.009-.01-.012-.014-.007-.009-.015-.012-.021-.021-.004-.004-.009-.007-.009-.007-.009-.011-.016-.015-.022-.022-.004-.005-.009-.01-.014-.015,0,0-.013-.011-.02-.019,0,0-.009-.01-.012-.015-.007-.007-.014-.011-.021-.019-.004-.005-.008-.009-.008-.009-.012-.014-.019-.017-.026-.026,0,0-.007-.007-.011-.011,0,0-.014-.012-.021-.02-.004-.004-.007-.009-.007-.009-.011-.011-.017-.015-.023-.022,0,0-.009-.01-.014-.015-.006-.007-.014-.012-.02-.02-.005-.004-.009-.009-.014-.014,0,0-.014-.011-.02-.019-.004-.005-.009-.01-.009-.01-.011-.012-.019-.016-.025-.025,0,0-.009-.007-.012-.012-.006-.006-.012-.01-.019-.017-.004-.005-.009-.01-.014-.015-.006-.007-.014-.011-.02-.019-.005-.005-.008-.01-.008-.01-.011-.012-.017-.016-.025-.024,0,0-.008-.009-.012-.014-.008-.009-.015-.012-.021-.021-.004-.004-.007-.007-.011-.011-12.772-14.262-32.342,4.772-47.679,16.23-65.095,48.629-163.979,45.014-225.351-8.238-9.983-8.662-19.588-18.764-32.313-22.336-12.724-3.573-26.396-.233-27.455,12.942-58.555,76.196-112.723,155.765-162.144,238.18-16.193,27.004-31.94,54.441-43.458,83.745-12.372,31.472-19.711,64.726-24.649,98.179-11.647,78.919-9.769,161.378,18.317,236.044,15.801,42.005,40.648,81.294,72.674,112.581.01.009.019.019.027.027.012.012.024.025.036.036.011.011.021.022.032.033.012.011.024.022.036.035.009.009.019.019.027.027.012.013.024.025.036.036.011.011.021.022.032.033.011.01.022.021.033.032.011.011.024.022.035.035.01.009.019.019.029.029.011.011.022.024.035.035.011.011.021.022.032.034.012.011.024.022.036.035.009.009.019.019.027.027.012.012.024.025.036.036.011.011.021.022.032.033.012.011.023.022.036.033.01.01.02.021.03.031.01.01.02.02.031.031.011.011.022.023.035.035.011.011.021.022.032.033.012.011.024.022.036.035.009.01.019.019.027.027.012.012.024.025.036.036.011.011.021.022.032.034.012.011.024.022.036.034.009.01.019.02.027.029.012.012.024.024.035.036.011.011.022.022.034.032.011.011.021.022.032.033.012.011.023.022.036.035l.027.027c.012.012.024.025.036.036.011.011.021.022.032.034.012.011.024.022.036.033.009.01.019.02.027.029.012.012.024.023.036.036.01.011.021.022.032.032.011.011.023.022.032.033.012.011.024.022.036.035l.027.027c.012.012.024.025.036.036.011.011.021.022.032.033.012.011.024.022.036.033.009.01.019.02.027.029l.036.036c.011.011.021.022.032.032.012.012.023.024.036.035.01.011.02.021.03.031.01.01.02.02.031.03.011.012.022.025.035.036.011.011.021.022.032.033.012.011.024.024.036.033.009.01.019.02.027.029.012.012.023.024.036.036.011.011.021.022.032.032.012.012.024.024.036.035.009.01.019.02.027.029.012.011.024.024.035.036.011.01.022.021.033.032.011.011.021.022.032.034.012.011.023.024.036.035l.027.027c.012.012.024.025.036.036.011.011.021.022.032.032l.036.036c.009.009.019.019.027.027.012.011.024.024.035.036.011.01.022.021.034.032.011.011.021.022.032.033.012.011.024.024.036.035.01.009.019.019.027.027.012.012.024.025.036.036.011.011.021.022.032.032.012.013.024.024.036.036.009.009.019.019.027.027.012.011.024.024.035.036.011.01.022.021.034.032.012.012.024.024.036.036.01.01.02.02.03.03.01.01.02.02.03.03.012.012.024.025.036.036.011.011.021.022.032.032l.036.036.027.027c.012.011.024.024.036.036.011.011.021.022.032.032.012.012.024.023.036.036l.027.027c.012.011.024.024.035.036.011.01.022.021.033.032.011.011.021.022.032.033.012.011.023.022.036.035.009.009.019.019.027.029.012.01.024.022.036.035.011.011.021.022.032.032l.036.036c.009.009.019.017.027.027.012.011.024.024.035.036.011.01.022.021.033.032,24.911,24.343,54.166,43.845,86.89,56.01,35.096,13.049,72.736,17.425,110,21.08,37.754,3.703,75.57,6.772,113.425,9.206,92.437,5.938,190.304,6.897,271.279-38.076,58.831-32.674,103.584-87.788,129.853-149.744,69.959-165.001,6.262-323.011-80.218-466.74Z"
              fill="#c48454"/>
    </g>
    <g>
        <path d="m820.548,793.903c-3.152-68.624-21.515-119.647-58.823-177.87-9.716-15.164-39.939-66.608-105.818-150.404-20.951-26.647-36.828-45.628-49.644-58.505-.011-.011-.022-.022-.032-.033-.011-.011-.022-.021-.033-.032-.014-.014-.026-.026-.04-.04-.006-.007-.012-.012-.019-.019-.014-.014-.026-.027-.04-.04-.011-.011-.022-.022-.034-.033l-.04-.04-.019-.019c-.014-.012-.026-.026-.04-.04-.011-.011-.022-.022-.033-.033-.011-.011-.021-.021-.032-.032-.013-.014-.026-.026-.04-.04-.006-.007-.012-.012-.019-.019-.014-.014-.027-.027-.04-.04-.011-.011-.022-.022-.033-.033-.014-.014-.026-.026-.04-.04l-.019-.019c-.014-.014-.026-.027-.04-.04-.011-.011-.022-.022-.034-.033-.011-.011-.021-.021-.032-.032-.014-.014-.026-.026-.04-.04-.006-.007-.012-.012-.019-.019-.014-.014-.027-.027-.04-.04-.011-.011-.022-.022-.033-.034-.014-.014-.026-.026-.04-.04l-.018-.019c-.014-.014-.026-.027-.04-.04-.011-.011-.022-.022-.033-.034-.012-.014-.026-.026-.04-.04-.009-.009-.017-.016-.026-.025-.009-.01-.017-.017-.025-.026-.014-.014-.027-.027-.04-.04-.011-.011-.022-.022-.034-.033-.014-.014-.026-.026-.04-.04-.006-.006-.012-.012-.019-.019-.014-.014-.026-.027-.039-.04-.011-.011-.022-.022-.034-.034-.014-.014-.026-.026-.04-.04-.006-.006-.012-.012-.019-.019-.014-.012-.026-.026-.04-.04-.011-.011-.022-.021-.032-.032-.011-.011-.022-.022-.033-.033-.013-.014-.026-.026-.04-.04-.006-.006-.012-.012-.019-.019-.014-.014-.026-.027-.04-.04-.011-.011-.022-.022-.033-.033-.014-.014-.026-.026-.04-.04-.006-.006-.012-.012-.019-.019-.014-.012-.026-.026-.04-.04-.011-.011-.022-.021-.033-.032-.011-.011-.021-.022-.032-.033-.014-.014-.026-.026-.04-.04-.006-.006-.012-.012-.019-.019-.014-.014-.027-.027-.04-.04-.011-.011-.022-.022-.033-.033-.014-.014-.026-.026-.04-.04,0,0-.012-.012-.018-.019-.014-.012-.026-.026-.04-.04-.011-.011-.022-.021-.033-.032-.012-.014-.026-.027-.04-.041-.009-.009-.016-.016-.026-.025-.009-.009-.016-.017-.025-.026-.014-.014-.027-.027-.04-.04-.011-.011-.022-.022-.033-.034-.014-.014-.026-.026-.04-.04l-.019-.019c-.014-.012-.026-.026-.039-.04-.011-.011-.023-.022-.034-.032-.012-.014-.026-.027-.04-.041-.006-.006-.012-.013-.019-.019-.014-.012-.026-.026-.04-.04-.011-.011-.021-.021-.032-.032-.011-.011-.022-.022-.034-.033-.013-.014-.026-.026-.04-.04l-.019-.019c-.014-.012-.026-.026-.04-.04-.011-.011-.022-.022-.034-.033-.012-.014-.026-.026-.04-.04-.006-.006-.012-.012-.019-.019-.014-.012-.026-.026-.04-.04-.011-.011-.022-.022-.032-.034-.011-.01-.022-.021-.034-.032-.014-.014-.026-.026-.04-.04-.006-.006-.012-.012-.019-.019-.014-.012-.026-.026-.04-.04-.011-.011-.022-.022-.033-.034-.014-.014-.026-.026-.04-.04-.006-.006-.012-.012-.018-.019-.014-.012-.026-.026-.04-.04-.011-.011-.022-.022-.034-.033-.012-.012-.026-.026-.04-.039-.009-.01-.016-.017-.026-.027-.007-.007-.016-.016-.025-.025-.014-.014-.026-.027-.04-.041-.011-.011-.022-.021-.033-.032-.014-.014-.026-.026-.04-.04l-.019-.019c-.014-.014-.026-.026-.04-.04-.011-.011-.022-.022-.034-.033-.012-.013-.026-.026-.04-.039-18.728-18.824-30.92-24.612-42.842-22.225-12.851,2.573-13.908,12.344-40.958,29.888-6.829,4.429-31.137,18.546-59.326,26.355-31.164,8.635-64.687,2.38-95.001-8.881-55.809-20.73-76.595-28.89-84.984-35.537-.12-.163-.244-.323-.355-.485-7.558-11.102-6.552-17.231-9.984-20.308-.012-.01-.021-.022-.033-.032-.011-.011-.021-.022-.032-.033-.012-.01-.022-.022-.034-.034-.011-.01-.021-.021-.032-.031-.011-.011-.021-.022-.034-.033-.011-.01-.021-.022-.032-.032-.012-.011-.022-.024-.033-.035-.011-.01-.02-.021-.031-.031-.012-.011-.022-.022-.034-.033-.012-.01-.022-.022-.033-.032-.011-.011-.021-.022-.032-.033-.012-.01-.022-.022-.035-.033-.01-.01-.02-.021-.031-.031-.011-.011-.021-.022-.034-.033-.011-.011-.021-.022-.032-.032-.012-.011-.023-.024-.034-.035-.011-.01-.02-.021-.031-.031-.012-.011-.022-.022-.034-.034-.012-.011-.022-.022-.033-.032-.011-.011-.021-.022-.032-.033-.012-.011-.022-.022-.035-.034-.01-.01-.02-.021-.031-.031-.011-.011-.021-.022-.033-.033-.011-.011-.021-.022-.032-.034-.012-.01-.022-.022-.034-.033-.011-.01-.02-.021-.031-.031-.012-.011-.023-.022-.035-.034-.011-.011-.021-.022-.032-.033-.012-.01-.022-.022-.034-.032-.011-.011-.021-.022-.032-.032-.011-.011-.021-.022-.032-.032-.011-.011-.021-.024-.033-.034-.011-.011-.021-.022-.032-.033-.012-.011-.022-.022-.034-.034-.011-.01-.02-.021-.031-.031-.012-.011-.022-.024-.035-.033-.011-.011-.021-.022-.032-.033-.012-.01-.022-.022-.033-.032-.011-.011-.02-.022-.031-.032-.012-.01-.022-.022-.034-.033-.012-.01-.021-.022-.034-.034-.011-.01-.021-.021-.032-.032-.012-.011-.022-.022-.034-.034-.011-.01-.021-.021-.032-.031-.011-.011-.021-.024-.034-.033-.011-.011-.021-.022-.032-.034-.012-.01-.023-.022-.034-.033-.011-.01-.02-.021-.031-.031-.012-.01-.022-.024-.034-.033-.012-.01-.022-.022-.033-.033-.011-.01-.021-.022-.032-.032-.012-.011-.022-.022-.035-.033-.01-.01-.02-.021-.031-.031-.011-.011-.021-.024-.034-.033-.011-.011-.021-.024-.032-.033-.012-.01-.022-.022-.034-.033-.011-.01-.02-.021-.031-.031-.012-.01-.023-.024-.034-.033-.012-.01-.022-.022-.033-.034-.012-.01-.021-.022-.034-.033-.011-.01-.021-.021-.032-.031-.011-.01-.02-.022-.032-.032-.011-.011-.021-.023-.033-.033-.011-.011-.021-.024-.032-.034-.012-.01-.022-.022-.034-.033-.011-.01-.02-.021-.031-.031-.012-.01-.022-.024-.035-.034-.011-.01-.021-.022-.032-.033-.012-.01-.022-.022-.033-.033-.011-.01-.02-.021-.031-.031-.012-.01-.022-.022-.033-.034-.012-.01-.021-.022-.034-.032-.011-.011-.021-.024-.032-.034-.013-.01-.022-.024-.034-.033-.011-.01-.02-.021-.031-.031-.012-.011-.022-.023-.035-.033-.011-.01-.021-.022-.032-.033-.012-.01-.022-.022-.034-.034-.011-.01-.02-.021-.031-.031-.012-.01-.022-.022-.034-.033-.012-.01-.021-.022-.033-.032-.011-.011-.021-.024-.032-.033-.012-.01-.022-.024-.034-.033-.011-.01-.021-.021-.032-.031-.011-.011-.021-.024-.033-.033-.011-.01-.021-.022-.032-.033-.012-.01-.022-.022-.034-.034-.011-.01-.02-.021-.031-.031-.012-.01-.023-.022-.034-.033-.012-.01-.022-.022-.033-.032-.011-.011-.021-.024-.034-.035-.011-.01-.021-.021-.032-.031-.011-.01-.02-.022-.032-.032-.011-.011-.021-.024-.033-.034-.011-.011-.021-.022-.032-.033-.012-.01-.022-.022-.033-.033-.011-.01-.02-.021-.031-.031-.012-.01-.022-.022-.034-.033-.012-.01-.022-.022-.033-.032-.013-.011-.021-.024-.034-.035-.495-.45-1.081-.838-1.803-1.164-25.763-11.672-112.431,101.13-169.198,223.047-37.546,80.634-64.718,143.533-63.676,232.48.952,81.22,30.733,163.772,89.827,219.499h.001c.022.022.042.045.064.066h.001c.01.011.02.022.031.032h.001c.011.011.021.024.032.033h.001c.022.022.042.045.065.066h0c.011.011.021.022.032.032h.001c.011.011.021.022.032.034h0c.011.011.021.022.032.032h.001c.022.022.042.045.064.066h.001c.011.011.02.022.031.033h.001c.011.01.021.022.032.032h.001c.022.022.042.045.065.066h0c.011.011.021.022.032.032h.001c.011.011.021.022.032.033v.003c.035.031.065.064.098.095h.001c.011.011.021.022.032.034h0c.011.011.021.022.032.032h.001c.022.022.042.045.065.066h0c.011.011.021.022.032.032h.001c.011.011.021.022.032.033h.001c.022.022.042.045.064.066h0c.011.011.021.022.032.032h.001c.011.011.021.022.032.034h0c.011.011.021.022.032.032h.001c.022.022.042.045.064.066h0c.011.011.021.022.032.032h.001c.011.011.021.024.032.034h.001c.022.022.042.045.065.066h0c.011.011.021.022.032.032h.001c.011.011.021.022.032.033h0c.011.011.021.022.032.032h.001c.022.022.042.045.064.066h.001c.01.011.02.022.031.032h.001c.011.011.021.024.032.033h.001c.022.022.042.045.065.066h0c.011.011.021.022.032.032h.001c.011.011.021.022.032.033h.001c.033.034.063.067.097.098h.001c.011.011.02.022.031.032h.001c.011.011.021.024.032.033h.001c.022.022.042.045.065.066h0c.011.011.021.022.032.032h.001c.011.011.021.022.032.033h.001c.022.021.042.045.064.065h0c.011.011.021.024.032.033h.001c.011.011.021.022.031.032h.001c.011.011.021.024.032.034h.001c.023.022.042.045.065.066h0c.011.011.021.022.032.032h.001c.011.011.021.022.032.033h.001c.022.021.042.045.065.065h0c.011.011.021.024.032.033h.001c.011.011.021.022.032.032h0c.011.011.021.023.032.033h.001c.022.022.042.045.064.066h0c.011.011.021.022.032.032h.001c.011.011.021.022.032.033h.001c.022.021.042.045.065.065h0c.011.011.021.024.032.034h.001c.011.011.021.022.032.032v.003c.035.031.065.066.098.097h0c.011.011.021.022.032.032h.001c.011.011.021.022.032.033h.001c.022.021.042.045.065.066h0c.011.01.021.022.032.032h.001c.011.011.021.022.032.032h0c.024.022.043.046.065.066h.001c.011.011.021.022.032.033h.001c.011.011.02.022.031.032h.001c.011.011.021.022.032.033h.001c.023.021.042.045.065.066h0c.011.011.021.022.032.032h.001c.011.011.021.022.032.033h.001c.022.021.042.045.063.066h.001c.011.011.021.021.032.032h.001c.011.011.021.022.031.033,22.159,20.896,49.841,38.376,80.289,39.129,30.448.753,62.724-20.174,66.186-50.434,1.762-15.395-3.759-30.567-8.717-45.249,0,0-20.406-49.927-17.451-130.929,2.153-59.037,36.835-136.45,107.174-171.602,57.057-28.514,113.405-17.141,133.805-11.722,35.73,9.489,67.909,29.058,93.555,53.83,35.628,35.845,57.818,81.752,57.939,123.777.072,24.909-7.636,36.104-9.665,93.565-1.026,29.033-.915,58.843,13.584,89.695,4.865,10.352,10.99,20.319,18.919,28.485.011.01.021.02.032.031.01.011.021.022.032.033.01.01.021.02.031.031.012.012.025.024.036.036.011.01.021.02.031.031.011.011.022.022.033.034.01.01.021.02.031.03.011.012.022.024.035.036.011.01.022.021.035.034.01.01.02.021.031.031.01.011.021.022.032.034.01.01.021.02.031.031.012.013.025.024.036.036.011.01.021.021.031.031.011.011.022.022.034.033.01.01.021.02.031.03.012.012.025.025.036.036.01.011.021.021.031.032.011.011.022.021.033.032.01.011.021.022.032.033.011.01.021.02.031.031.012.012.025.024.036.036.011.01.021.021.031.031.011.011.022.022.033.033.01.01.021.02.031.03l.036.036c.01.011.021.022.031.032.011.011.022.021.033.032.01.011.021.022.032.033.011.01.021.02.031.031.012.012.025.023.036.036.011.01.021.021.031.031.011.011.022.022.033.033.01.01.021.02.031.031.012.011.025.024.036.035.011.011.021.022.031.032.011.011.022.021.034.032.01.011.02.021.031.031.011.012.022.024.035.035.011.012.022.024.033.035s.021.021.032.031c.01.011.021.022.032.033.01.01.021.02.031.031.012.011.025.023.036.036.011.011.021.021.031.031.011.011.022.021.034.032.01.011.021.021.031.031.011.012.024.025.036.037.01.01.021.02.031.031.011.011.022.021.033.032.01.011.021.022.032.033.01.01.021.02.031.031.012.011.025.024.036.036l.031.031c.011.011.022.021.033.032.01.011.021.021.031.031.012.012.024.025.036.037.01.01.021.02.031.031.011.011.022.021.033.032.01.011.021.022.032.033.01.01.021.02.031.031.012.011.025.024.036.036.011.011.021.021.031.031.011.011.022.021.033.032.01.011.021.021.031.031.012.012.025.025.036.037.01.01.021.02.031.031.011.011.022.021.033.032.01.011.02.021.031.031.011.012.022.024.034.035.012.012.023.024.035.035.011.011.021.021.031.031.011.011.022.021.033.032.01.011.021.021.031.031.012.013.025.025.036.037.011.01.021.02.031.031.011.011.022.021.034.032.01.011.02.021.031.031.011.012.024.025.036.037.01.01.021.02.031.031.011.01.022.021.033.032.01.011.021.022.032.033.01.01.021.02.031.03.012.012.025.025.036.037.011.01.021.02.031.031.011.011.022.021.033.032.01.011.021.021.031.031.011.012.023.025.036.037.01.01.021.02.031.031.011.011.022.021.033.032.01.011.021.022.032.033.01.01.021.02.031.03.012.012.025.025.036.037.011.01.021.02.031.031.011.011.022.021.033.032.01.011.021.021.031.031.011.012.024.025.036.037.01.01.021.02.031.031.011.011.022.021.033.032.01.011.021.022.032.034,2.642,2.724,5.485,5.248,8.549,7.519,12.239,9.072,28.4,13.658,43.09,9.618,35.752-9.832,59.378-75.806,70.115-107.546,19.98-59.065,38.083-121.038,35.189-184.05Z"
              fill="#b06823"/>

    </g>
    <g>
        <path d="m269.049,1064.588c-12.095,25.89-37.08,41.432-75.77,28.387-39.507-13.321-66.644-57.048-59.831-98.18,13.584-82.019,119.078-81.835,140.058-3.763,6.678,24.846,5.336,52.594-4.457,73.557Z"
              fill="#f2be84"/>

    </g>
    <g>
        <path d="m623.852,1038.11c4.586,20.97,20.301,52.091,50.208,59.003,33.967,7.849,64.5-20.551,77.693-40.825,26.327-40.458,18.042-101.488-16.633-127.546-4.994-3.752-16.255-11.981-31.673-12.104-44.191-.35-91.694,66.142-79.595,121.472Z"
              fill="#f2be85"/>

    </g>
    <g>
        <path d="m168.158,1172.596c-40.511-.649-80.461,11.236-116.911,28.93-13.016,6.318-25.934,13.59-35.537,24.41-9.603,10.82-15.483,25.831-12.27,39.938,5.874,25.78,36.639,36.206,62.857,39.641,39.543,5.179,79.824,4.713,119.237-1.38,37.044-5.727,93.806-25.82,90.235-73.559-3.364-44.984-72.808-57.424-107.611-57.981Z"
              fill="#87501b"/>
        <path d="m171.474,1175.91c-40.512-.648-80.463,11.237-116.912,28.93-13.015,6.318-25.933,13.591-35.537,24.412-9.603,10.82-15.483,25.831-12.269,39.937,5.874,25.781,36.638,36.207,62.855,39.641,39.544,5.18,79.824,4.713,119.238-1.38,37.043-5.726,93.805-25.82,90.235-73.559-3.363-44.983-72.808-57.424-107.61-57.981Z"
              fill="#603913"/>
    </g>
    <g>
        <path d="m693.006,1172.596c40.512-.649,80.463,11.236,116.912,28.93,13.014,6.318,25.934,13.591,35.537,24.41,9.603,10.82,15.483,25.831,12.269,39.938-5.874,25.78-36.638,36.206-62.855,39.64-39.545,5.18-79.824,4.715-119.237-1.379-37.044-5.727-93.806-25.82-90.236-73.559,3.364-44.984,72.808-57.424,107.61-57.981Z"
              fill="#87501b"/>
        <path d="m696.322,1175.91c40.511-.649,80.461,11.237,116.911,28.931,13.016,6.317,25.934,13.59,35.537,24.41,9.604,10.82,15.483,25.831,12.27,39.937-5.874,25.781-36.638,36.207-62.857,39.641-39.543,5.18-79.822,4.713-119.236-1.38-37.044-5.726-93.805-25.82-90.236-73.559,3.364-44.983,72.808-57.422,107.611-57.981Z"
              fill="#603913"/>
    </g>
    <g>
        <path d="m300.317,123.424c-2.384-9.441-8.423-20.473-16.046-28.068-.01-.01-.021-.021-.032-.032l-.036-.036c-.009-.009-.017-.017-.027-.027-.012-.012-.024-.024-.036-.035-.01-.011-.021-.022-.032-.033-.011-.011-.024-.024-.035-.035-.01-.01-.021-.021-.031-.031-.01-.01-.02-.02-.03-.03l-.036-.036c-.011-.011-.024-.023-.035-.035-.01-.01-.02-.02-.031-.03-.01-.01-.02-.021-.03-.031-.012-.012-.024-.024-.036-.035-.01-.011-.021-.022-.032-.033-.011-.011-.024-.024-.035-.035-.011-.01-.021-.021-.031-.031-.01-.01-.02-.021-.03-.03l-.036-.036c-.011-.011-.024-.024-.035-.035-.01-.01-.02-.02-.031-.03-.01-.011-.02-.021-.03-.031-.013-.012-.024-.024-.036-.035-.01-.011-.021-.022-.032-.034-.011-.011-.024-.024-.035-.035-.01-.01-.019-.019-.029-.029-.011-.011-.024-.024-.035-.035-.011-.011-.022-.022-.033-.034-.011-.011-.024-.024-.035-.035-.01-.01-.021-.02-.031-.03-.01-.011-.02-.021-.03-.031-.012-.012-.023-.024-.036-.035-.01-.011-.021-.022-.032-.034-.012-.012-.023-.024-.035-.035-.01-.01-.019-.02-.029-.029-.011-.011-.024-.024-.035-.035-.011-.011-.022-.022-.033-.033-.011-.011-.024-.024-.035-.035-.01-.01-.021-.02-.031-.03-.01-.011-.02-.021-.03-.031-.012-.012-.023-.024-.036-.035-.011-.013-.024-.025-.035-.036-.01-.01-.02-.02-.03-.03-.011-.011-.021-.021-.031-.031-.012-.011-.024-.024-.035-.035-.011-.011-.022-.022-.033-.033-.011-.011-.024-.024-.035-.035-.01-.01-.021-.02-.031-.031-.01-.01-.02-.02-.03-.03-.012-.012-.024-.025-.036-.036l-.035-.035c-.01-.01-.02-.02-.031-.031-.01-.01-.02-.02-.03-.03-.012-.011-.024-.024-.036-.035-.01-.011-.021-.022-.032-.033-.011-.011-.024-.024-.035-.035-.01-.009-.019-.02-.029-.029-.011-.011-.024-.024-.035-.035-.011-.011-.022-.022-.034-.034-.011-.011-.023-.024-.035-.035-.01-.01-.02-.02-.031-.031-.01-.01-.02-.02-.03-.03-.012-.011-.024-.024-.036-.036-.01-.011-.021-.021-.032-.032-.012-.011-.024-.024-.035-.035-.01-.01-.019-.02-.029-.029-.011-.011-.023-.024-.035-.036-.011-.01-.022-.021-.034-.032-.011-.011-.024-.022-.035-.035-.01-.01-.021-.02-.031-.031-.01-.01-.02-.02-.03-.03-.012-.011-.024-.024-.036-.036-.011-.011-.024-.022-.035-.035-.01-.01-.02-.02-.03-.031-.011-.01-.021-.02-.031-.03-.011-.011-.024-.023-.035-.036-.011-.01-.022-.021-.033-.032-.011-.011-.024-.022-.035-.035-.01-.01-.021-.021-.031-.031-.01-.01-.02-.02-.03-.03-.012-.011-.024-.024-.036-.036-.011-.011-.024-.022-.035-.035-.01-.01-.02-.02-.03-.031-.011-.01-.021-.02-.031-.03-.012-.011-.024-.024-.035-.036-.011-.01-.022-.021-.033-.032-.011-.012-.024-.022-.035-.035-.01-.01-.019-.019-.028-.029-.011-.011-.024-.024-.035-.035-.011-.011-.022-.022-.034-.034-.011-.011-.024-.022-.035-.035-.01-.01-.02-.021-.031-.031-.01-.01-.02-.02-.03-.03-.012-.011-.024-.024-.036-.036-.01-.01-.021-.021-.032-.032-.012-.012-.024-.024-.035-.035-.01-.01-.019-.019-.029-.029-.011-.011-.024-.024-.035-.035-.011-.011-.022-.022-.034-.034l-.035-.035c-.01-.01-.02-.021-.031-.031-11.133-11.112-25.656-14.901-37.117,4.331-5.382,9.033-6.524,19.908-7.132,30.407-2.632,45.388,2.425,91.214,14.892,134.936,0,0,.01-.02.016-.03.006.02.01.041.016.062.005-.01.011-.02.016-.03.006.021.011.042.017.063.005-.01.01-.02.015-.03.006.02.011.041.017.062,0,0,.011-.02.016-.03.006.021.01.042.016.063.006-.01.011-.021.016-.031.006.021.011.042.017.063.005-.01.011-.02.016-.03.006.021.01.042.016.063.006-.011.011-.021.016-.031.006.021.011.042.017.063.005-.01.01-.02.016-.03.006.021.01.042.016.063.005-.011.011-.021.016-.031.006.021.011.042.017.063.005-.01.01-.02.016-.03.006.02.01.041.016.063.005-.011.011-.021.016-.031.006.021.011.042.018.063.005-.01.01-.02.015-.03.006.02.011.041.017.063.005-.011.011-.021.016-.031.006.021.011.042.016.063.006-.01.011-.021.016-.031.006.021.011.042.017.064,0,0,.011-.021.016-.031.006.02.011.042.016.063.006-.011.011-.021.016-.031.006.021.011.042.017.065.005-.011.01-.021.016-.031.006.02.01.042.016.063,0,0,.011-.021.016-.031.006.021.011.042.017.065.005-.011.01-.021.016-.031.006.02.01.041.016.063.005-.011.011-.021.016-.031.006.021.011.042.017.063.005-.01.01-.02.016-.03.005.02.01.041.016.063.005-.011.011-.021.016-.031.006.021.011.042.016.063.006-.01.011-.021.017-.031.005.021.01.042.016.065.005-.011.011-.021.016-.031.006.02.011.042.016.063.006-.01.011-.021.016-.031.006.021.011.042.017.065.005-.011.011-.021.016-.031.006.02.01.042.016.063.006-.01.011-.021.016-.031.006.021.011.042.017.065.005-.011.011-.021.016-.031.006.02.01.042.016.063,0,0,.011-.021.016-.031.006.021.011.042.017.063.005-.01.01-.02.016-.03.005.02.01.042.016.063.005-.011.011-.021.016-.031.006.021.011.042.017.063,0,0,.01-.021.016-.031.005.021.01.043.016.065.005-.011.011-.021.016-.031.006.02.011.042.017.063.005-.01.01-.021.015-.031.006.021.011.042.017.065,0,0,.011-.021.016-.031.006.02.01.042.016.063.006-.01.011-.021.016-.031.006.021.011.042.017.065.005-.011.011-.021.016-.031.006.02.01.042.016.063.006-.01.011-.021.016-.031.006.021.011.042.017.063.005-.01.01-.02.016-.03.006.02.01.042.016.063.005-.01.011-.021.016-.031.006.021.011.042.017.063.005-.01.01-.021.016-.031.006.021.01.043.016.064.005-.01.011-.021.016-.031.006.021.011.042.017.063,0,0,.01-.021.015-.031.006.021.011.043.017.064.005-.01.011-.021.016-.031.006.021.01.042.016.063.006-.01.011-.021.016-.031.006.021.011.043.017.063,0,0,.011-.02.016-.031.006.022.01.043.016.064.006-.01.011-.021.016-.031.006.021.011.043.017.063.005-.01.01-.02.016-.031.006.021.01.043.016.065,0,0,.011-.021.016-.031.006.021.011.043.017.063.005-.01.01-.02.016-.031.006.021.01.043.016.065.005-.01.011-.021.016-.031.006.021.011.042.017.063.005-.01.01-.02.015-.031.006.021.011.043.017.064.005-.01.011-.021.016-.031.006.021.011.042.016.063.006-.01.011-.02.016-.031.006.021.011.043.017.063.005-.01.011-.02.016-.031.006.022.011.043.016.065.006-.01.011-.021.016-.031.006.021.011.043.017.063.005-.01.01-.02.016-.031.006.022.01.043.016.065.005-.01.011-.021.016-.031.006.021.011.043.017.063.005-.01.01-.02.016-.031.006.022.01.043.016.065,0,0,.011-.021.016-.031.006.021.011.042.017.063.005-.01.01-.02.016-.031.005.022.01.043.016.065.005-.01.011-.021.016-.031.006.021.011.042.016.063,0,0,.011-.02.017-.031.005.022.01.043.016.063.005-.01.011-.02.016-.031.006.022.011.043.016.065.006-.01.011-.02.016-.031.006.022.011.043.017.063,0,0,.011-.02.016-.031.006.022.01.043.016.065.006-.01.011-.02.016-.031.006.021.011.043.017.063.005-.01.011-.02.016-.031.006.022.01.043.016.065.006-.01.011-.021.016-.031.006.021.011.042.017.063.005-.01.01-.02.016-.031.005.022.01.043.016.065.005-.01.011-.021.016-.031.006.021.011.042.017.063.005-.01.01-.02.016-.031.005.022.01.043.016.063.005-.01.011-.02.016-.03.006.021.011.042.017.063,0,0,.01-.02.015-.031.006.022.011.043.017.063.005-.01.011-.02.016-.03.006.021.01.042.016.063.006-.01.011-.02.016-.031.006.021.011.042.017.063,0,0,.011-.02.016-.03.006.021.01.042.016.063.006-.01.011-.02.016-.031.006.021.011.042.017.063.005-.01.01-.02.016-.03.006.021.01.042.016.063,0,0,.011-.021.016-.031.006.021.011.042.017.063.005-.01.01-.02.016-.03.006.021.01.042.016.062.005-.01.011-.02.016-.03.006.021.011.042.017.063.005-.01.01-.02.015-.031.006.022.011.043.017.063.005-.01.011-.02.016-.03.006.021.01.042.016.063.006-.01.011-.02.016-.031.006.021.011.042.017.063.005-.01.011-.02.016-.03.006.021.01.042.016.063.006-.01.011-.02.016-.031.006.021.011.042.017.063.005-.01.01-.02.016-.03.006.021.01.042.016.063.005-.01.011-.021.016-.031.006.021.011.042.017.063.005-.01.01-.02.016-.03.006.021.01.042.016.063,0,0,.011-.021.016-.031.006.021.011.042.017.063.005-.01.01-.02.015-.03.006.021.011.042.017.063.005-.011.011-.021.016-.031.006.021.011.042.016.063,0,0,.011-.02.016-.03.006.02.011.041.017.062.005-.01.011-.02.016-.03.006.021.01.042.016.063.006-.01.011-.02.016-.03.006.02.011.041.017.062.005-.01.01-.02.016-.03.006.021.01.042.016.063.005-.01.011-.021.016-.031.006.021.011.042.017.063.005-.01.01-.02.016-.03.006.021.01.042.016.063.005-.011.011-.021.016-.031.006.021.011.042.017.063.005-.01.01-.02.016-.03.005.021.01.042.016.063,9.341-17.63,18.683-35.258,28.024-52.887,14.433-27.235,25.225-57.571,17.347-88.754Z"
              fill="#995b1e"/>
        <path d="m247.188,99.721c-5.383,9.033-6.524,19.908-7.133,30.406-2.632,45.39,2.425,91.215,14.892,134.938,9.341-17.628,18.683-35.258,28.024-52.887,14.433-27.235,25.225-57.571,17.347-88.754-5.866-23.224-33.838-56.076-53.13-23.703Z"
              fill="#603913"/>
    </g>
    <g>
        <path d="m563.619,80.337c-1.561-2.6-3.473-5.15-5.681-7.311-.01-.011-.021-.022-.032-.034,0,0-.022-.022-.033-.032-.011-.011-.021-.022-.032-.034-.011-.01-.021-.021-.032-.032-.011-.011-.022-.022-.033-.034-.01-.01-.021-.021-.031-.031-.012-.011-.023-.024-.036-.035-.01-.011-.02-.022-.031-.032-.011-.011-.022-.022-.034-.032-.01-.011-.021-.022-.032-.034-.011-.011-.022-.022-.033-.032-.011-.011-.021-.022-.032-.034-.011-.01-.022-.021-.032-.032-.011-.011-.022-.022-.033-.034-.011-.01-.021-.021-.031-.031-.012-.011-.024-.024-.036-.036-.01-.01-.02-.021-.031-.031-.011-.011-.022-.022-.033-.032-.011-.011-.021-.022-.032-.034-.011-.011-.022-.022-.033-.032-.011-.011-.021-.022-.021-.022-.022-.021-.033-.032-.045-.043-.01-.011-.021-.022-.032-.034-.011-.01-.022-.021-.033-.032-.01-.011-.021-.022-.032-.032-.011-.011-.021-.022-.032-.034-.011-.011-.022-.022-.033-.032-.01-.011-.021-.021-.031-.032-.012-.011-.024-.024-.036-.035-.01-.011-.02-.021-.031-.032-.011-.01-.022-.021-.034-.032-.01-.011-.021-.022-.032-.033,0,0-.022-.021-.033-.032s-.021-.022-.032-.032c-.011-.011-.021-.022-.032-.034-.011-.011-.022-.022-.033-.032-.01-.011-.021-.022-.031-.032-.012-.011-.023-.024-.036-.035-.01-.011-.02-.021-.031-.032-.011-.01-.022-.021-.034-.032-.01-.011-.021-.022-.032-.034-.011-.01-.022-.021-.033-.032-.011-.011-.021-.022-.032-.032-.011-.011-.021-.022-.032-.034-.011-.011-.022-.022-.033-.032-.01-.011-.021-.022-.031-.032-.012-.012-.024-.024-.036-.035-.01-.011-.02-.021-.031-.032-.011-.011-.022-.021-.033-.032-.01-.011-.021-.022-.032-.034-.011-.01-.022-.021-.033-.032-.011-.011-.021-.022-.021-.022-.022-.021-.032-.032-.043-.043-.011-.011-.022-.022-.034-.034-.011-.01-.021-.021-.032-.032-.011-.011-.022-.022-.033-.034-.011-.01-.021-.021-.032-.032-.011-.011-.022-.022-.033-.032-.01-.011-.021-.022-.031-.032-.012-.012-.024-.024-.036-.035-.01-.01-.02-.021-.031-.032-.011-.011-.022-.022-.034-.032-.01-.011-.021-.022-.032-.034,0,0-.022-.022-.033-.032-.01-.011-.021-.022-.032-.034-.011-.011-.021-.021-.032-.032-.011-.011-.022-.022-.033-.034-.01-.01-.021-.021-.031-.031-.012-.012-.024-.024-.036-.035-.01-.011-.02-.021-.031-.032-.011-.011-.022-.022-.034-.034-.01-.01-.021-.021-.032-.032-.011-.011-.022-.022-.033-.034-.011-.01-.021-.021-.032-.032-.011-.011-.021-.022-.032-.032-.011-.011-.022-.022-.033-.034-.01-.01-.021-.021-.021-.021-.022-.022-.033-.034-.046-.045-.01-.011-.02-.022-.031-.032-.011-.011-.022-.022-.033-.033-.01-.01-.021-.021-.032-.032-.011-.011-.022-.022-.033-.034-.011-.01-.021-.021-.032-.032s-.021-.022-.032-.032c-.011-.011-.023-.022-.034-.034-.011-.011-.021-.022-.032-.032-.011-.011-.022-.022-.033-.034-.01-.01-.021-.021-.032-.032-.011-.011-.022-.022-.033-.034-.01-.01-.021-.021-.031-.031-.012-.011-.023-.024-.035-.035-.011-.011-.021-.022-.032-.032-.011-.011-.021-.022-.032-.032-.011-.011-.022-.022-.033-.033-.011-.011-.021-.022-.032-.032-.011-.011-.022-.022-.033-.034-.01-.01-.021-.021-.021-.021-.022-.022-.033-.034-.045-.045-.01-.01-.021-.021-.031-.031-.012-.011-.024-.024-.036-.035-3.672-3.609-8.164-6.139-13.215-6.004-8.125.216-14.337,7.126-18.965,13.809-19.966,28.827-28.001,44.341-6.616,69.893,8.774,10.484,46.302,59.441,39.284,73.859.104-.212.18-.434.282-.647-.084.226-.146.469-.248.68.103-.213.18-.437.282-.65-.084.226-.146.47-.249.683.104-.213.18-.436.283-.65-.084.227-.146.471-.249.684.103-.213.18-.437.282-.65-.084.227-.146.47-.249.682.103-.212.179-.434.282-.648-.084.226-.146.469-.249.68.104-.213.18-.436.283-.649-.084.226-.146.47-.249.683.104-.213.18-.437.282-.65-.083.227-.145.47-.249.683.104-.212.18-.436.283-.649-.084.226-.146.47-.249.683.104-.213.18-.437.283-.652-.084.227-.146.472-.251.684.104-.212.18-.434.282-.646-.084.226-.145.469-.248.68.103-.213.18-.437.282-.65-.084.226-.147.47-.25.682.104-.213.18-.436.283-.65-.084.227-.146.472-.249.684.103-.213.18-.437.282-.65-.084.227-.146.47-.249.683.103-.212.18-.434.282-.648-.084.227-.146.469-.248.68.103-.212.179-.435.282-.649-.084.226-.146.47-.249.682.104-.213.18-.437.282-.65-.083.227-.145.47-.248.683.103-.212.179-.436.282-.649-.084.226-.146.47-.249.682.104-.213.18-.437.283-.651-.084.227-.146.472-.249.684.103-.212.179-.434.28-.647-.084.226-.145.469-.248.68.103-.213.18-.437.282-.65-.084.226-.146.47-.249.683.104-.213.18-.436.283-.65-.084.227-.146.472-.249.684.103-.213.18-.437.282-.65-.084.227-.146.47-.249.682.103-.212.18-.434.282-.648-.084.227-.146.469-.248.68.103-.212.179-.436.282-.649-.084.226-.146.47-.249.683.104-.213.18-.437.283-.65-.084.227-.146.47-.249.683.103-.212.179-.436.282-.649-.084.226-.146.47-.249.683.103-.212.179-.434.282-.648-.084.226-.146.469-.249.68.104-.213.18-.435.283-.65-.085.227-.147.471-.25.684.103-.213.18-.437.282-.65-.084.227-.145.47-.249.683.104-.213.18-.436.283-.65-.084.227-.146.472-.249.684.103-.213.18-.437.282-.65-.084.227-.145.47-.249.683.104-.212.18-.434.282-.648-.084.227-.146.469-.248.68.103-.212.18-.436.282-.649-.084.226-.146.47-.249.683.104-.213.18-.437.283-.65-.084.227-.146.47-.249.683.103-.212.18-.436.282-.649-.084.226-.146.47-.249.683.103-.212.179-.434.282-.648-.084.226-.147.469-.249.68.104-.213.18-.436.283-.65-.084.227-.146.472-.249.684.103-.213.18-.437.282-.65-.084.227-.145.47-.249.683.104-.212.18-.436.283-.649-.084.226-.146.47-.249.681.104-.213.18-.435.283-.65-.084.227-.146.471-.251.684.104-.212.18-.434.282-.648-.084.227-.146.469-.248.68.103-.212.18-.436.282-.649-.084.227-.146.47-.249.683.104-.213.18-.437.283-.65-.084.227-.146.472-.249.683.103-.212.18-.436.282-.649-.084.227-.146.47-.249.683.103-.212.179-.434.282-.648-.084.226-.146.469-.249.68.104-.213.18-.436.283-.649-.084.227-.146.47-.249.683.104-.213.18-.437.282-.65-.083.227-.145.47-.249.682.104-.212.18-.436.283-.649-.084.227-.146.47-.249.681.104-.213.18-.436.283-.65-.084.227-.146.472-.251.684.104-.212.18-.434.282-.647-.084.226-.146.468-.248.679.103-.212.18-.436.282-.649-.084.227-.146.47-.249.683.104-.213.18-.437.283-.65-.084.227-.146.472-.249.682.103-.212.18-.435.282-.649-.084.227-.146.47-.249.683.103-.212.18-.434.282-.647-.084.225-.146.468-.248.679.103-.213.179-.436.282-.649-.084.227-.146.47-.249.682.104-.213.18-.437.282-.65-.083.227-.145.47-.248.683.103-.212.179-.436.282-.649-.084.227-.147.47-.25.681.103-.211.179-.433.281-.647-.083.226-.145.469-.248.68.104-.213.18-.436.283-.65-.084.227-.147.472-.25.683.103-.212.18-.436.282-.649-.084.227-.146.47-.249.682.104-.213.18-.436.283-.65-.084.227-.146.471-.249.683.103-.212.18-.436.282-.649-.084.227-.146.47-.249.683.103-.212.18-.434.282-.647-.084.225-.146.468-.248.679.103-.213.179-.436.282-.649-.084.227-.146.47-.249.683.104-.213.18-.437.283-.65-.084.227-.146.47-.249.683.103-.212.179-.436.282-.649-.084.227-.146.47-.249.681.103-.211.179-.433.281-.645-.083.225-.145.468-.248.679.104-.213.18-.436.283-.65-.084.227-.146.472-.249.683.103-.212.18-.436.282-.649-.084.227-.146.47-.249.683.104-.213.18-.436.283-.649-.084.227-.146.47-.249.681.104-.213.18-.437.282-.65-.083.227-.145.472-.249.684.103-.212.18-.434.282-.647-.084.225-.146.468-.248.679.103-.213.18-.436.282-.649-.085.227-.147.47-.25.683.104-.213.18-.437.283-.65-.084.227-.146.47-.249.683.103-.212.18-.436.282-.649-.084.227-.146.47-.249.683.103-.212.179-.434.282-.647-.084.225-.147.468-.25.679.104-.213.18-.436.283-.65-.084.227-.146.472-.249.684.103-.213.18-.437.282-.65-.084.227-.145.47-.249.683.104-.213.18-.436.283-.649-.084.227-.146.47-.249.683.104-.215.18-.438.283-.652-.084.227-.146.472-.251.684.104-.212.18-.434.282-.647-.084.225-.146.468-.248.68.103-.215.18-.437.282-.65-.084.227-.146.47-.249.683.104-.214.18-.437.283-.65-.084.227-.146.47-.249.683.103-.212.18-.436.282-.649-.084.227-.146.47-.249.683.103-.212.178-.434.281-.647-.084.225-.146.468-.249.679.104-.213.18-.436.283-.65-.084.227-.146.471-.249.684.104-.213.18-.437.282-.65-.083.227-.145.47-.249.682.104-.213.18-.436.283-.649-.084.227-.146.47-.249.683.103-.213.179-.434.28-.648-.083.226-.145.469-.248.68.104-.213.18-.437.283-.651-.084.228-.147.471-.25.685.103-.213.18-.437.282-.65-.084.227-.146.47-.249.683.104-.213.18-.437.283-.65-.084.227-.146.47-.249.684.103-.213.18-.437.282-.65-.084.227-.146.47-.249.682.103-.212.18-.434.282-.646-.084.225-.146.468-.248.68.103-.213.179-.437.282-.651-.084.227-.146.472-.249.684.104-.213.18-.437.282-.65-.083.227-.145.47-.248.684.103-.213.179-.437.282-.65-.084.227-.147.47-.25.683.103-.213.179-.434.281-.648-.083.226-.145.469-.248.68.104-.212.18-.437.283-.65-.084.227-.146.47-.249.684.103-.213.18-.437.282-.65-.084.227-.146.47-.249.682.104-.213.18-.436.283-.649-.084.226-.146.469-.249.682,11.983-24.621,14.683-52.638,15.846-79.996.937-22.028.669-45.382-10.685-64.283Z"
              fill="#995b1e"/>
        <path d="m525.788,80.862c4.628-6.682,10.84-13.591,18.966-13.807,8.066-.216,14.71,6.365,18.864,13.282,11.354,18.9,11.622,42.255,10.685,64.283-1.163,27.358-3.863,55.375-15.846,79.996,7.016-14.419-30.51-63.377-39.285-73.859-21.385-25.553-13.351-41.067,6.616-69.894Z"
              fill="#603913"/>
    </g>
    <path d="m488.917,177.737c0,21.133-30.61,38.265-68.37,38.265s-68.369-17.132-68.369-38.265,30.61-38.264,68.369-38.264,68.37,17.131,68.37,38.264Z"
          fill="#303030"/>
    <g>
        <path d="m592.904,256.761c-11.808-29.554-29.077-56.571-43.133-85.125-11.288-22.932-20.731-47.227-37.093-66.864-1.315-1.577-2.692-3.119-4.125-4.625-.011-.011-.022-.021-.033-.032-.01-.011-.021-.021-.031-.031-.011-.013-.025-.025-.036-.037,0,0-.021-.02-.031-.031-.011-.011-.022-.021-.034-.032-.01-.011-.02-.02-.031-.031-.011-.012-.025-.025-.036-.037-.01-.01-.021-.02-.031-.03l-.033-.033c-.01-.011-.021-.021-.032-.032-.01-.011-.021-.021-.021-.021-.021-.022-.035-.035-.046-.047-.01-.011-.021-.02-.031-.031-.011-.011-.022-.021-.033-.032-.01-.011-.021-.02-.031-.031-.011-.012-.025-.025-.036-.037-.01-.01-.021-.02-.021-.02-.021-.021-.032-.032-.044-.043-.01-.01-.02-.02-.03-.03-.012-.012-.024-.024-.035-.036-.012-.012-.025-.024-.036-.035-.009-.011-.02-.02-.03-.031-.011-.011-.022-.021-.033-.032-.01-.011-.021-.02-.031-.031-.011-.012-.025-.025-.036-.037-.01-.01-.021-.02-.031-.031-.011-.011-.022-.021-.033-.032l-.02-.02c-.022-.024-.035-.035-.047-.048-.01-.01-.021-.02-.031-.03-.01-.011-.022-.022-.032-.034-.011-.011-.022-.021-.033-.032-.01-.011-.021-.02-.031-.031-.011-.012-.025-.025-.036-.037,0,0-.021-.02-.031-.031-.011-.011-.022-.021-.034-.032-.01-.01-.02-.02-.031-.031-.011-.012-.025-.025-.036-.037-.01-.01-.021-.02-.031-.03-.011-.011-.022-.022-.032-.033-.011-.011-.022-.021-.033-.032-.01-.011-.021-.02-.021-.02-.021-.024-.035-.036-.046-.048-.01-.01-.021-.02-.031-.031-.011-.011-.022-.021-.034-.032-.01-.01-.02-.02-.031-.031-.011-.012-.025-.025-.036-.037-.01-.01-.021-.02-.021-.02-.021-.021-.032-.032-.043-.043-.009-.01-.02-.02-.03-.031-.012-.011-.023-.022-.035-.035s-.024-.022-.035-.035c-.01-.01-.021-.02-.031-.031-.011-.011-.022-.021-.033-.032-.01-.01-.021-.021-.031-.031-.011-.012-.025-.025-.036-.037-.01-.01-.021-.02-.031-.03-.011-.011-.022-.022-.033-.033l-.02-.02c-.022-.024-.035-.035-.047-.047-.01-.011-.021-.021-.031-.031-.01-.011-.022-.022-.022-.022-.021-.022-.032-.032-.043-.043l-.031-.031c-.011-.012-.025-.025-.036-.037,0,0-.021-.02-.031-.03-.011-.011-.022-.022-.034-.033-.01-.01-.02-.021-.03-.031-.012-.012-.025-.024-.037-.036-.01-.011-.021-.021-.031-.031-.01-.011-.022-.022-.032-.034-.011-.011-.022-.021-.033-.032l-.021-.021c-.021-.022-.035-.035-.046-.047-.01-.01-.021-.02-.031-.03-.011-.011-.022-.022-.033-.033-.01-.01-.02-.021-.031-.031-.011-.012-.025-.024-.036-.037-.01-.01-.021-.02-.021-.02-.021-.021-.032-.032-.042-.043-.01-.01-.021-.02-.031-.031-.012-.011-.024-.022-.035-.035-.011-.011-.024-.022-.035-.035-.01-.01-.021-.02-.031-.03-.011-.011-.022-.022-.034-.034-.01-.01-.02-.021-.031-.031-.011-.012-.025-.024-.036-.037-.01-.01-.021-.02-.031-.03-.011-.011-.022-.022-.033-.033-.009-.01-.02-.02-.02-.02-.022-.024-.035-.035-.047-.047-.01-.011-.021-.021-.031-.031-.01-.011-.022-.022-.022-.022l-.043-.044c-.01-.011-.021-.021-.031-.031-.011-.012-.025-.024-.036-.037,0,0-.021-.02-.031-.03-.011-.011-.022-.022-.034-.033-.01-.011-.02-.02-.03-.031-.012-.013-.025-.024-.037-.036-44.116-46.396-142.772-58.434-184.507-6.395-14.216,17.726-25.872,37.503-34.496,58.525-6.021,14.677-10.566,29.938-16.879,44.492-29.171,67.244-37.188,70.304-42.446,101.003-.936,5.464-9.193,58.203,21.713,99.314.834,1.109,1.756,2.203,2.764,3.286.01.01.021.02.03.03.011.013.024.024.035.035.01.011.022.022.032.033.011.011.023.022.035.034.009.01.021.02.03.03l.035.035c.01.011.022.022.032.032l.034.033c.01.011.024.022.033.034.01.01.021.02.03.03.011.012.024.024.035.035.01.011.022.022.032.033.011.011.024.022.035.033.01.01.021.02.03.03.011.011.024.023.035.035.01.011.022.022.032.032.011.012.024.023.035.035.01.01.021.021.031.031.01.011.022.021.032.031.01.012.022.023.034.035.01.011.022.022.034.033.01.011.022.022.033.033.01.01.021.02.03.03.011.011.024.024.035.035.01.011.022.022.032.032.011.012.024.024.035.035.009.01.021.02.03.03.011.011.024.023.035.035.01.011.022.021.032.032.01.011.022.022.033.034.01.011.024.022.034.033.01.01.021.02.03.03l.035.035c.01.011.022.022.032.033.011.011.024.022.035.033.009.01.021.02.03.03l.035.035c.01.011.022.022.032.032.01.011.022.022.033.033.01.011.024.022.034.033.01.01.021.02.03.03l.035.035c.01.011.022.022.032.033.011.011.024.022.035.034.009.01.021.02.03.03.011.011.024.024.035.035.01.011.022.022.032.032.011.012.024.022.035.035.01.01.021.021.031.031.01.01.021.021.031.031.011.011.024.024.035.035.01.011.022.022.032.034.011.011.024.022.035.033.01.01.021.02.03.03.011.011.024.024.035.035.01.011.022.022.032.032.011.013.024.024.035.035.009.01.02.02.03.03.011.011.023.022.035.035.01.01.022.021.032.032s.022.022.033.033c.01.011.022.022.034.033.01.01.021.02.03.03l.035.035c.01.011.022.022.032.032.011.012.024.024.035.035.009.01.021.02.03.03.011.011.024.022.035.035.01.01.022.021.032.032.01.011.022.022.033.034.01.011.024.022.034.033.01.01.021.02.03.031.011.01.024.022.035.034.01.011.022.022.032.032.011.012.024.024.035.035.009.01.021.02.03.03.011.011.024.022.035.035.01.01.022.021.032.032.011.011.024.022.035.035.01.01.021.021.031.031.01.01.021.021.031.032.011.011.024.022.035.034.01.011.022.022.032.032.011.012.024.024.035.035.009.01.021.02.03.03.011.013.024.022.035.035.01.01.022.021.032.032.011.011.024.022.035.035.009.01.02.02.03.03.01.011.024.022.034.033.011.011.024.022.033.033s.022.022.032.032c.011.012.023.024.035.035.009.01.021.02.03.03.011.012.024.024.035.035.01.01.022.021.032.032.011.011.024.022.035.035.009.01.02.02.03.03.011.011.024.024.034.033.011.011.024.022.033.034,14.943,16.092,49.366,29.673,114.166,55.239,13.76,5.428,30.195,11.562,52.093,11.171,21.147-.379,37.305-7.149,49.927-12.203,53.619-21.467,113.457-49.397,130.51-104.577,9.398-30.407,3.32-63.687-8.488-93.24Zm-220.081-75.171c0-7.329,5.941-13.271,13.27-13.271,2.818,0,5.419.891,7.569,2.389,1.497,2.148,2.388,4.749,2.388,7.566,0,7.331-5.942,13.271-13.271,13.271-2.817,0-5.419-.891-7.568-2.388-1.497-2.149-2.388-4.751-2.388-7.568Zm76.802-3.316c0,7.331-5.942,13.271-13.271,13.271-2.817,0-5.419-.891-7.567-2.388-1.497-2.149-2.388-4.751-2.388-7.568,0-7.329,5.941-13.271,13.27-13.271,2.818,0,5.419.891,7.569,2.388,1.497,2.149,2.388,4.751,2.388,7.568Z"
              fill="#ba7e50"/>

    </g>
    <g>
        <path d="m475.298,351.199c-1.471-5.635-4.834-10.721-9.54-15.186-.011-.011-.021-.022-.033-.032-.01-.011-.02-.021-.031-.032-.012-.011-.024-.024-.036-.036-.01-.01-.02-.02-.031-.031-.011-.01-.021-.021-.032-.032-.011-.01-.021-.021-.032-.031-.012-.012-.022-.025-.035-.036-.011-.011-.021-.021-.032-.031-.011-.011-.021-.022-.032-.033-.011-.011-.022-.022-.033-.032-.01-.011-.02-.021-.031-.032-.012-.011-.024-.024-.036-.036-.01-.01-.02-.02-.031-.031-.011-.01-.021-.021-.032-.032-.011-.01-.021-.021-.032-.031-.012-.013-.024-.025-.036-.036-.01-.011-.02-.021-.031-.031-.011-.011-.021-.022-.032-.033-.011-.01-.021-.021-.032-.031-.011-.011-.021-.024-.033-.035-.012-.011-.022-.024-.035-.035-.01-.01-.02-.02-.031-.031-.011-.01-.021-.021-.033-.032-.01-.01-.02-.021-.031-.032-.012-.011-.023-.024-.036-.035-.01-.011-.02-.021-.031-.031-.011-.011-.021-.022-.032-.033-.011-.01-.021-.021-.032-.032-.012-.011-.022-.024-.035-.035-.011-.01-.021-.021-.032-.031-.011-.011-.021-.022-.032-.033-.011-.01-.021-.021-.033-.032-.01-.01-.02-.021-.031-.032-.012-.011-.023-.024-.036-.036-.01-.01-.02-.02-.031-.03-.011-.011-.021-.022-.032-.033-.011-.01-.021-.021-.032-.032-.012-.011-.022-.024-.035-.035-.011-.01-.021-.021-.032-.031-.011-.011-.021-.022-.032-.033-.011-.01-.021-.021-.033-.032-.01-.011-.02-.021-.031-.032-.012-.011-.024-.024-.036-.036-.01-.01-.02-.02-.031-.03-.011-.011-.021-.022-.032-.033-.011-.01-.021-.021-.032-.032-.012-.011-.022-.024-.035-.035-.011-.01-.021-.021-.032-.031-.011-.011-.021-.022-.032-.034-.011-.01-.021-.021-.031-.032-.012-.011-.022-.022-.035-.034-.012-.011-.022-.023-.035-.035-.01-.01-.02-.02-.031-.03-.011-.011-.021-.022-.032-.034-.011-.011-.021-.022-.032-.032-.012-.011-.023-.024-.035-.035-.011-.01-.021-.021-.032-.031-.011-.011-.021-.022-.032-.033-.011-.011-.021-.021-.032-.032-.012-.011-.022-.024-.035-.035-.011-.01-.021-.021-.032-.031-.011-.011-.021-.022-.032-.034-.011-.011-.021-.021-.034-.032-.01-.011-.02-.022-.031-.032-.012-.011-.024-.024-.036-.035-.01-.01-.02-.021-.031-.032-.011-.01-.021-.021-.032-.032-.011-.011-.021-.021-.032-.032-.012-.011-.022-.023-.035-.035-.011-.01-.021-.021-.032-.031-.011-.011-.021-.022-.032-.034-.011-.011-.021-.022-.033-.032-.01-.011-.02-.022-.031-.032-.012-.011-.024-.024-.036-.035-.01-.01-.02-.021-.031-.032-.011-.011-.021-.022-.032-.032-.011-.011-.021-.021-.032-.032-.012-.011-.022-.024-.035-.035-.011-.01-.021-.021-.032-.032-.011-.01-.021-.021-.032-.032-.011-.01-.021-.021-.031-.031-.012-.011-.022-.024-.035-.035-.012-.011-.022-.022-.035-.033-.01-.01-.02-.021-.031-.032-.011-.011-.021-.022-.032-.032-.011-.011-.021-.021-.032-.032-.012-.011-.022-.024-.035-.035-.011-.01-.021-.021-.032-.032-.011-.01-.021-.021-.032-.032-.011-.01-.021-.021-.031-.031-.012-.012-.024-.025-.036-.036-.011-.01-.021-.021-.031-.031-.012-.011-.022-.022-.034-.033-.011-.011-.021-.022-.032-.032-.011-.011-.021-.021-.032-.032-.012-.011-.022-.024-.035-.035-.011-.011-.021-.021-.032-.032-.011-.01-.021-.021-.032-.032-.011-.01-.021-.021-.032-.031-.012-.013-.022-.025-.035-.036-25.372-24.125-89.896-30.181-106.782-7.063-9.428,12.91-2.501,32.857,0,40.06,3.326,9.576,9.533,20.244,18.142,29.006.01.01.02.019.03.03.011.011.024.022.035.034.011.011.021.022.032.033l.035.035c.01.01.02.019.03.03.011.011.022.022.035.033.01.011.021.022.032.033,0,0,.022.021.033.032.011.012.023.024.034.035.01.01.02.02.02.02.021.021.034.032.045.043.011.011.022.022.032.033.011.011.024.024.035.035l.03.03c.011.011.022.022.035.033.01.011.021.022.032.034.011.011.024.022.035.035.01.01.021.02.031.03.01.011.021.021.031.032.011.011.024.024.035.033.011.011.022.022.032.034.012.011.024.024.035.035.01.01.02.02.03.03.011.011.022.022.035.033.01.011.021.022.032.033.011.011.024.022.035.035.01.01.02.02.03.029.011.012.022.024.034.035.011.011.022.022.033.034.011.01.022.021.032.032.012.011.024.024.035.035.01.01.02.02.03.03.011.011.024.022.035.035.01.01.021.021.032.032.011.011.024.022.035.035.01.01.02.02.03.028.011.012.022.024.033.035.011.011.022.022.034.033.011.011.022.022.033.032.011.011.023.024.034.035.01.01.02.02.02.02.021.021.034.032.045.045.01.011.021.021.032.032.011.011.024.022.035.035,0,0,.02.02.03.029.011.012.022.024.035.036.01.011.021.021.032.032.011.011.023.022.035.035.01.01.021.02.031.031.01.01.021.02.031.031.011.011.024.022.035.035.011.011.022.022.032.032.011.011.024.022.035.035.01.01.02.02.03.029.011.012.022.024.035.036.01.011.021.021.032.032.011.011.024.022.035.035.01.01.02.019.03.029.011.012.022.024.034.035.011.011.022.022.033.033.011.011.022.022.032.032.012.012.024.024.035.035.01.01.02.02.03.03.011.011.022.022.035.035.01.011.021.021.032.032.011.012.024.022.035.035.01.01.02.019.03.029.011.012.022.024.034.035s.022.022.033.033c.011.011.022.022.034.032.011.012.023.023.033.035.01.01.02.02.02.02.021.021.032.032.045.045.01.011.021.021.032.032.011.012.024.024.035.035,0,0,.02.019.03.029.011.012.022.024.034.035.011.011.022.022.033.034.011.011.024.024.035.034.01.011.021.021.031.032,0,0,.021.02.031.031.011.011.024.022.035.035.01.011.021.021.032.032.011.012.024.023.035.035.01.01.02.019.03.029.011.012.022.024.033.035.011.011.022.022.034.033.011.011.024.024.035.035.01.01.02.019.03.029.011.012.022.024.034.035.011.011.022.022.033.034.011.011.021.021.032.032.011.012.024.024.035.035.01.01.02.02.03.029.011.012.022.024.035.035.01.011.021.022.032.034.011.011.024.023.035.035.01.01.02.019.03.029.011.012.022.023.034.035.011.011.022.022.033.033,11.055,11.266,26.078,19.387,44.052,17.993,35.859-2.782,60.176-41.632,54.13-64.808Z"
              fill="#cf9862"/>
        <path d="m421.168,416.006c35.859-2.782,60.176-41.632,54.13-64.808-9.404-36.046-96.284-49.608-116.289-22.216-9.429,12.909-2.502,32.857,0,40.058,7.595,21.869,30.218,49.444,62.159,46.966Z"
              fill="#a97c50"/>
    </g>
    <g>
        <path d="m387.844,337.789c-.802,10.678-1.329,25.362-.225,43.264,8.622-.695,17.244-1.389,25.866-2.084,1.66-7.827,2.833-11.699,3.516-11.614.638.079.85,3.606.635,10.579,7.386.524,14.773,1.049,22.159,1.572,2.636-11.339,4.892-23.692,6.452-36.981.572-4.87,1.023-9.626,1.368-14.259-4.657-15.701-18.124-25.805-31.408-25.016-14.522.864-22.963,14.398-23.648,15.536-3.373,5.597-4.103,10.865-4.715,19.002Z"
              fill="#fff"/>
    </g>
    <g>
        <path d="m497.208,295.802c-2.637-26.624-13.735-51.406-30.921-68.642-.011-.011-.022-.022-.032-.033-.011-.011-.022-.021-.033-.032-.011-.011-.022-.022-.032-.033-.011-.01-.022-.021-.034-.032-.011-.011-.022-.022-.032-.033-.011-.01-.021-.02-.031-.03-.012-.012-.025-.025-.037-.038-.01-.01-.021-.02-.031-.03-.011-.011-.021-.022-.032-.032l-.033-.033c-.01-.011-.021-.022-.032-.032-.011-.011-.022-.022-.033-.034-.011-.01-.021-.021-.032-.032-.011-.011-.022-.022-.034-.033-.01-.011-.021-.021-.032-.032-.011-.011-.021-.022-.032-.032-.011-.011-.022-.022-.033-.034-.011-.011-.021-.022-.032-.032-.011-.011-.022-.022-.034-.033-.01-.011-.021-.022-.032-.032-.011-.011-.022-.022-.034-.033-.011-.01-.021-.021-.032-.032s-.022-.022-.033-.034c-.01-.011-.021-.021-.032-.032-.011-.011-.021-.022-.032-.032-.011-.011-.022-.022-.034-.034-.011-.011-.021-.022-.032-.032-.011-.011-.022-.022-.033-.034-.01-.011-.021-.022-.032-.032-.011-.011-.022-.022-.033-.033-.011-.01-.021-.021-.032-.032-.011-.011-.021-.022-.032-.034-.011-.011-.022-.021-.033-.032-.011-.011-.021-.022-.032-.032-.011-.011-.022-.022-.034-.033s-.021-.022-.032-.032c-.011-.011-.021-.021-.031-.031l-.037-.037c-.01-.01-.021-.021-.031-.031-.01-.01-.021-.021-.032-.032-.011-.011-.022-.022-.032-.033-.011-.011-.022-.021-.033-.032-.011-.011-.022-.022-.032-.032-.011-.011-.022-.022-.033-.033-.011-.011-.021-.022-.032-.032-.011-.011-.022-.022-.034-.033l-.032-.032c-.011-.011-.022-.022-.033-.033-.011-.01-.021-.021-.032-.032l-.033-.033c-.01-.011-.021-.021-.032-.032-.011-.011-.022-.022-.034-.032-.01-.011-.021-.022-.032-.033-.011-.011-.022-.022-.033-.032-.01-.011-.021-.022-.032-.034-.011-.011-.021-.021-.032-.032-.011-.011-.022-.022-.033-.034-.011-.01-.021-.021-.032-.032l-.033-.033c-.01-.011-.021-.021-.032-.032s-.022-.022-.033-.032c-.011-.011-.021-.022-.032-.033-.011-.011-.021-.022-.032-.032-.011-.011-.022-.022-.034-.033-.011-.011-.021-.021-.032-.032-.011-.011-.022-.022-.034-.034-.011-.01-.021-.021-.032-.032-.01-.011-.02-.021-.031-.031-.012-.012-.025-.025-.037-.037-.01-.01-.02-.02-.031-.03-.01-.011-.021-.022-.032-.034-.011-.011-.021-.022-.032-.032l-.033-.033-.032-.032c-.011-.011-.022-.022-.033-.033-.011-.011-.021-.021-.032-.032-.011-.011-.022-.022-.033-.034-.01-.011-.021-.021-.032-.032-.011-.011-.022-.022-.033-.033-.01-.01-.021-.021-.032-.032-.011-.011-.021-.022-.032-.033-.011-.01-.022-.021-.033-.032-.011-.011-.021-.022-.032-.033-.011-.01-.022-.021-.033-.032-.011-.011-.021-.022-.032-.034-.011-.01-.022-.021-.034-.032s-.021-.022-.032-.032c-.011-.011-.022-.022-.033-.033-.01-.011-.021-.022-.032-.032-.011-.011-.022-.022-.033-.033-.01-.011-.021-.022-.032-.032l-.033-.033c-.01-.011-.021-.022-.032-.032-.011-.011-.021-.022-.032-.033-.011-.011-.022-.021-.033-.032-.011-.011-.021-.022-.032-.033-.011-.01-.023-.021-.034-.032-.011-.011-.021-.022-.032-.033-.01-.01-.02-.02-.031-.03-.012-.012-.025-.025-.037-.037-19.467-19.543-46.755-29.403-78.413-21.282-46.59,11.956-77.768,67.227-64.059,112.946,2.465,8.219,7.004,16.045,13.152,21.97.011.012.022.023.033.035.011.01.021.021.032.031.01.01.02.021.031.032.012.01.022.022.035.033.011.011.021.022.032.033.012.011.022.022.035.034.01.01.02.02.03.03.011.011.022.024.033.035.011.011.022.022.033.032.011.012.022.024.034.035.011.01.02.02.031.03.011.011.022.024.034.035.011.01.022.022.034.032.011.011.022.023.033.035.011.01.021.021.032.031.01.01.02.021.031.031.011.011.022.023.034.035s.022.022.033.032c.011.012.023.023.035.035.01.01.019.02.03.03.011.011.022.024.033.035.011.01.022.022.034.032.011.011.022.024.034.035.011.01.021.021.032.031.01.01.02.021.031.031.011.011.022.024.035.035.011.011.021.022.032.032.011.011.022.024.035.035.01.01.019.02.03.03.011.011.023.023.033.035.011.01.022.022.034.032.011.011.022.024.033.035.011.01.021.021.032.031.01.01.02.021.031.031.011.011.022.024.035.035.011.011.021.022.032.032.011.011.022.024.035.035.01.01.02.02.03.03.011.011.022.024.033.035.011.011.022.022.034.032.011.011.022.024.033.035.011.01.02.02.031.03.011.011.022.023.034.035.011.01.022.021.034.032.011.011.022.022.033.033l.032.032c.01.01.02.021.031.031.011.011.022.024.033.035.011.011.022.022.034.032.011.011.023.024.033.035.011.01.02.02.031.03.011.011.022.024.034.035.011.01.022.022.033.032.011.011.022.022.034.033.011.011.021.022.032.032.01.01.02.021.031.031.011.011.022.024.034.035.011.011.022.022.034.032.011.011.022.024.033.035.011.01.02.02.031.03.011.011.023.024.033.035.011.01.022.022.034.032.011.011.022.022.033.033.011.011.021.022.032.032.01.01.02.021.031.031.011.011.022.024.035.035.011.011.021.022.032.032.011.011.022.024.035.035.01.01.019.02.03.03.011.011.022.024.033.035.011.01.022.022.034.032.011.011.022.024.033.033.011.01.02.021.031.031.011.011.022.022.034.033.011.011.022.022.034.034.011.011.022.022.033.033l.032.032c.01.01.02.021.031.031.011.011.022.024.033.035.011.01.022.022.034.032.011.011.023.024.033.035.011.009.02.02.031.03.011.011.022.022.034.033.011.011.022.022.033.034.011.011.022.022.034.033.011.011.021.021.032.032.01.01.02.021.031.031.011.011.022.024.033.035.011.01.022.022.034.032.011.011.022.023.033.035.011.009.02.02.031.03.011.011.023.022.034.033.011.011.022.022.033.033.011.011.022.022.034.033.011.011.021.021.032.032.01.01.02.021.031.032.011.011.022.022.034.033.011.01.022.022.034.032.011.011.022.024.033.035.011.009.02.02.031.03,2.054,1.984,4.288,3.758,6.684,5.259,2.918,1.829,6.075,3.26,9.441,4.191,22.62,6.252,58.315-7.087,59.129-33.763,2.489,3.737,5.265,7.2,8.283,10.307.01.011.021.021.032.032.01.01.02.021.031.031.012.012.025.025.037.037.01.01.02.02.03.03.011.011.022.022.033.034.01.01.02.02.03.031.012.011.024.023.036.035.011.012.023.024.035.035.01.011.021.02.031.031.01.011.021.021.032.032.01.011.02.021.031.031.012.012.025.025.037.037.01.01.02.02.03.03.011.011.022.022.033.033.01.011.02.02.03.031.012.012.026.024.039.037.01.01.02.02.03.03.011.011.022.022.034.033.01.011.021.021.032.032.01.011.021.021.031.031.012.012.025.024.037.037.01.01.02.02.031.031.01.01.021.021.032.032.01.011.02.02.03.031.012.012.026.024.038.037.01.01.02.02.03.031.011.01.022.021.033.032.01.011.02.02.03.03.012.012.023.025.036.036.011.011.023.022.035.035.01.01.02.02.031.031.01.011.021.022.032.032.01.011.02.02.031.031.011.013.025.024.037.037.01.01.02.02.03.031.011.011.022.021.033.032.01.011.02.02.03.031.012.011.024.024.036.035.011.011.023.022.035.035l.031.031c.01.011.021.022.032.033.01.01.02.019.031.03.012.012.025.025.037.037.01.01.02.02.03.031.011.011.022.021.033.032.01.011.02.02.03.031.012.013.026.025.039.037.01.01.02.02.03.031.011.011.022.021.033.032.01.011.021.022.032.034.01.01.02.019.031.03.012.012.025.025.037.037.01.01.02.021.03.031.011.011.022.021.034.032.01.011.02.02.03.031.012.012.026.025.038.037.01.01.02.02.03.031.011.011.023.021.034.032.01.01.02.02.03.03.012.012.024.024.035.036.012.012.024.022.036.035.01.01.02.021.03.031.011.011.022.021.033.032.01.011.02.02.03.031.012.012.026.025.038.037.01.01.02.02.03.031.011.011.022.021.033.032.01.01.02.02.03.03.012.012.024.023.036.036.011.012.023.023.035.035.01.01.02.021.031.031.01.011.021.021.032.032.01.011.02.02.03.031.012.012.026.025.038.037.01.01.02.02.03.031.011.011.022.021.033.032.01.01.02.02.03.03.012.014.026.026.037.037.011.011.021.021.031.031l.033.034c.01.011.021.021.032.032.01.011.02.02.031.031.012.012.025.025.037.037.01.01.02.02.03.031.011.011.022.021.033.032.01.01.02.02.03.03.012.014.026.026.037.039.011.01.021.02.031.03.011.011.022.022.033.033.01.01.02.02.03.03.011.012.024.024.035.036.012.012.024.024.036.035.01.011.02.02.03.031.011.011.022.021.033.032.01.01.02.02.03.03.012.014.026.026.038.038.01.01.02.02.03.03.011.011.022.022.033.033.01.01.02.02.03.03.012.012.024.024.035.036,23.654,24.37,61.057,27.672,72.641-16.54,1.507-5.751,1.371-11.807.784-17.724Z"
              fill="#ebb881"/>

    </g>
    <g>
        <path d="m443.27,246.62c-.881-3.747-2.919-6.906-5.705-9.525-.011-.01-.022-.021-.034-.032-.011-.011-.021-.022-.032-.034-.012-.01-.022-.022-.035-.033-.01-.01-.02-.021-.03-.031-.012-.011-.022-.022-.035-.033-.011-.011-.021-.022-.032-.032-.011-.011-.022-.023-.033-.033-.011-.011-.02-.021-.031-.031-.011-.011-.022-.024-.033-.035-.011-.01-.022-.022-.033-.032-.011-.011-.021-.022-.032-.033-.012-.011-.022-.022-.035-.034-.01-.01-.02-.021-.03-.031-.012-.011-.022-.022-.035-.033-.011-.011-.021-.022-.032-.034-.011-.01-.022-.022-.033-.032-.011-.011-.02-.021-.031-.031-.011-.011-.022-.024-.033-.035-.012-.01-.022-.022-.033-.032-.011-.011-.021-.022-.032-.033-.012-.011-.022-.022-.035-.033-.01-.01-.02-.021-.03-.031-.012-.011-.022-.022-.035-.033-.011-.011-.021-.022-.032-.033-.011-.01-.022-.022-.034-.033-.011-.01-.021-.02-.031-.03-.011-.011-.022-.024-.033-.035-.012-.01-.022-.022-.034-.032-.011-.011-.022-.024-.033-.033-.011-.011-.021-.022-.032-.032-.011-.01-.021-.021-.031-.032-.012-.011-.022-.022-.035-.033-.011-.011-.021-.022-.032-.034-.012-.01-.022-.022-.033-.033-.011-.01-.021-.02-.031-.03-.012-.011-.022-.023-.034-.035-.012-.01-.022-.022-.033-.032-.011-.011-.022-.024-.033-.035-.011-.01-.02-.02-.031-.03-.011-.011-.022-.024-.033-.035-.011-.01-.022-.021-.033-.032-.011-.011-.021-.022-.032-.034-.012-.01-.022-.022-.035-.033-.01-.01-.02-.02-.03-.03-.012-.011-.022-.024-.033-.035-.012-.01-.022-.022-.033-.032-.011-.011-.022-.024-.034-.035-.011-.01-.02-.02-.031-.03-.011-.011-.022-.024-.033-.035-.011-.01-.022-.021-.033-.032-.011-.011-.021-.022-.032-.033-.012-.01-.022-.022-.035-.033-.01-.01-.02-.02-.03-.031-.012-.01-.022-.022-.035-.033-.011-.01-.021-.022-.032-.032-.011-.011-.022-.024-.034-.035-.011-.01-.02-.02-.031-.03-.011-.011-.022-.024-.033-.035-.011-.01-.022-.021-.033-.032-.011-.011-.022-.024-.034-.035-.011-.01-.021-.021-.032-.031-.011-.01-.021-.021-.031-.032-.012-.011-.022-.022-.035-.034-.011-.01-.021-.022-.032-.032-.011-.011-.022-.024-.034-.035-.011-.01-.021-.02-.031-.03-.011-.011-.022-.024-.034-.035-.012-.01-.022-.021-.034-.032s-.022-.024-.033-.035c-.011-.009-.02-.02-.031-.03-.011-.011-.022-.022-.034-.034-.011-.011-.021-.022-.033-.033-.011-.01-.021-.022-.032-.032-.012-.011-.022-.024-.033-.035-.011-.01-.021-.02-.031-.03-.011-.011-.022-.024-.034-.035-.012-.01-.022-.021-.033-.032-.011-.011-.022-.023-.033-.035-.011-.009-.02-.02-.031-.03-.011-.011-.022-.024-.033-.033-.011-.011-.022-.022-.033-.033s-.021-.022-.032-.032c-.012-.011-.022-.023-.035-.035-.01-.01-.02-.02-.03-.03-.012-.011-.022-.024-.033-.035-.012-.01-.022-.021-.033-.032-.011-.011-.022-.024-.034-.035-.011-.01-.02-.02-.031-.03-.011-.011-.022-.024-.033-.035-.011-.01-.022-.021-.033-.032-.011-.011-.022-.023-.033-.033-.011-.011-.021-.021-.032-.032-.011-.01-.02-.021-.031-.031-.012-.011-.022-.024-.035-.035-.011-.01-.021-.022-.032-.032-.011-.011-.022-.024-.033-.035-.011-.01-.02-.02-.031-.03-.011-.011-.022-.024-.034-.035-.011-.01-.022-.021-.033-.032-.011-.011-.022-.024-.033-.033-8.34-7.867-23.425-10.86-34.213-10.192-17.781,1.101-37.929,13.009-38.623,26.945-.258,5.213,2.19,11.023,5.788,14.849.009.01.017.015.026.025l.006.007c.009.01.016.016.025.024l.009.01c.007.009.016.015.025.024.002.002.005.006.007.009.009.009.016.015.024.022.004.004.006.007.006.007.011.012.021.019.028.029l.008.007c.009.009.016.015.025.024.003.003.005.006.008.009.009.01.017.016.025.025.004.003.006.006.008.009.008.009.016.014.024.022l.009.01c.009.01.017.016.025.025.003.003.006.006.009.009.008.01.017.016.026.025.002.002.004.005.006.007.009.01.016.016.025.024l.009.01c.007.009.016.015.025.024l.007.009c.009.009.016.015.024.022,0,0,.006.007.01.011.007.009.017.015.026.025,0,0,.004.005.006.007.009.009.016.015.025.023l.009.009c.008.01.016.016.024.025.004.002.006.006.009.009.008.009.016.014.024.022.002.004.006.007.009.01.009.01.017.016.026.025l.007.009c.009.009.016.015.025.024l.007.009c.009.01.017.016.025.024.004.004.006.006.009.01.009.009.016.015.025.024l.007.009c.009.009.016.015.024.022l.01.011c.009.009.017.016.026.025.002.003.004.005.006.007.009.009.016.015.025.024.002.004.005.006.009.009.007.01.016.016.025.025l.008.009c.007.009.016.014.023.022l.009.01c.009.01.017.016.026.025.002.003.005.006.007.009.009.009.016.015.025.024l.007.009c.009.01.017.016.025.024l.009.01c.009.009.016.015.025.024.002.004.005.006.007.009.009.009.016.015.024.022.004.004.006.007.01.011.009.009.017.016.026.025l.006.007c.009.009.016.015.025.024l.009.01c.007.009.016.015.025.024.003.002.005.006.007.009.007.009.016.014.024.022.004.004.006.007.009.011.009.009.017.015.026.025l.007.007c.009.009.016.015.025.024.003.004.005.006.008.01.008.009.017.015.025.022.004.004.006.007.009.01.007.009.016.014.024.022l.009.011c.009.009.016.015.025.022.002.004.005.007.009.01.008.009.017.016.026.025.002.003.004.005.006.009.009.007.016.014.025.022l.009.01c.007.009.016.015.025.024l.008.009c.007.009.016.014.024.022,0,0,.006.007.009.011.009.009.019.015.026.025l.007.007c.009.009.016.015.025.024l.007.01c.009.009.017.015.025.022l.009.01c.008.009.016.014.024.022.002.004.006.007.009.011.009.009.017.015.026.023l.007.009c.007.009.016.015.025.024l.007.01c.009.007.016.014.025.022.002.004.005.006.009.01.007.009.016.015.025.024.003.003.005.006.007.01.009.007.016.014.024.021l.01.011c.008.009.017.015.026.025.003.003.004.005.006.007.009.009.016.015.025.024.002.004.005.006.008.01.008.009.016.015.024.022l.009.01c.007.009.016.014.024.022l.009.011c.009.009.017.015.026.024.002.004.005.006.007.009.009.009.016.015.025.024l.007.01c.009.009.017.014.025.022l.009.01c.009.009.016.015.025.023.002.003.005.006.007.01.009.007.016.014.024.022.004.003.006.006.01.01.007.009.017.015.026.025l.006.007c.009.009.016.015.025.024l.009.01c.007.009.016.015.025.022.002.004.005.007.007.01.007.009.016.014.024.022.002.004.006.007.008.011.009.009.017.015.026.024l.007.009c.009.009.016.015.025.023.003.003.005.006.008.01.009.009.017.014.025.022.004.004.006.006.009.01.007.009.015.014.024.022l.009.011c.009.009.016.014.025.022.002.004.005.006.005.006.012.012.021.019.03.028.002.003.004.005.006.008.009.009.016.015.025.023l.009.01c.008.009.016.015.025.022l.007.01c.007.009.016.014.024.022.004.004.006.007.009.011.009.009.017.015.026.024l.007.009c.009.009.016.015.025.024l.007.01c.009.009.017.015.025.022l.009.01c.007.009.016.014.024.022.002.004.006.008.009.011.009.009.017.015.026.024l.007.009c.007.009.016.015.025.023l.007.009c.009.009.016.015.025.024.002.004.005.006.009.01.007.009.016.015.025.024.003.002.005.006.008.009.007.009.016.014.023.022l.009.011c.009.009.019.015.026.024.002.004.005.006.005.006.011.011.019.017.028.026.002.002.005.006.007.01.009.009.017.015.025.024l.009.009c.007.009.016.014.024.022l.009.011c.009.009.017.015.026.024.002.003.005.006.007.009.007.009.016.015.025.024,0,0,.005.006.007.009.009.009.016.015.025.024l.009.01c.007.009.016.015.025.024.003.002.005.006.007.009.009.009.016.014.024.022.004.004.006.007.009.011.009.009.019.015.026.024l.008.009c.009.009.016.015.025.024l.008.01c.009.009.017.015.025.024.004.002.006.005.009.009.007.009.016.014.024.022.002.004.006.007.008.011.009.009.017.015.026.024l.007.009c.008.009.016.015.025.024.002.002.005.006.007.009.009.009.017.015.025.025.002.002.006.005.008.009.007.009.016.015.025.024l.007.009c4.048,4.305,8.202,4.666,16.258,7.936,4.672,1.896,11.221,4.999,18.672,10.154,2.605-2.535,6.714-6.065,12.409-9.118,8.321-4.461,11.916-3.558,16.57-7.01,6.848-5.081,10.773-15.725,8.812-24.07Z"
              fill="#ffd6d8"/>
    </g>
</svg>