<?xml version="1.0" encoding="UTF-8"?>
<svg xmlns="http://www.w3.org/2000/svg" xmlns:xlink="http://www.w3.org/1999/xlink" viewBox="0 0 1388.974 436.518">
  <defs>
    <linearGradient id="linear-gradient" x1="497.254" y1="225.295" x2="1130.253" y2="423.295" gradientUnits="userSpaceOnUse">
      <stop offset="0" stop-color="#698ba9"/>
      <stop offset="1" stop-color="#5c7a94"/>
    </linearGradient>
  </defs>
  <g style="isolation: isolate;">
    <g id="Layer_2" data-name="Layer 2">
      <g id="_ÎÓÈ_6" data-name="—ÎÓÈ_6">
        <g id="mountain-2">
          <g>
            <g style="mix-blend-mode: multiply;">
              <path d="m1363.19,302.957c-21.518-2.956-49.862-22.498-72.265-28.606-54.004-14.727-60.559-82.502-125.123-84.606-77.409-2.52-60.803,19.046-143.336-37.777-38.495-26.504-119-187-248-145-68.479,22.295-75.64,89-126,89-52.348,0-78.498-23.933-117-23-71.101,1.721-62.771,82.75-125,100-36.849,10.215-79,11.34-128.324,5.583-91.372-10.664-91.546,158.85-231.342,167.759-7.731,31.239,394.158,40.518,475.872,41.258,221.949,2.008,443.956,1.611,665.929,1.705,66.093.029,132.172-.215,198.246-.579l-23.657-85.736Z" style="fill: #fff; opacity: 0;"/>
              <path d="m1363.124,303.475c-21.519-2.956-49.866-21.177-72.269-27.285-54.004-14.727-60.98-83.307-125.105-85.348-77.414-2.453-61.435,20.938-145.078-37.493-38.265-26.613-118.442-186.471-245.587-144.825-68.316,22.423-76.656,89.016-127.016,89.016-52.348,0-77.814-24.412-116.317-23.523-70.198,1.639-64.264,84.746-126.604,101.175-37.47,9.729-77.527,9.351-126.88,4.016-90.119-9.964-90.498,157.814-230.294,166.723-7.731,31.239,392.918,41.416,474.632,42.156,221.949,2.008,443.956,1.611,665.928,1.705,66.094.029,132.172-.215,198.246-.579l-23.656-85.736Z" style="fill: #f8fafb; opacity: .029;"/>
              <path d="m1363.058,303.991c-21.519-2.955-49.869-19.855-72.271-25.963-54.004-14.726-61.401-84.111-125.088-86.09-77.418-2.387-62.065,22.829-146.819-37.209-38.035-26.723-117.887-185.943-243.175-144.65-68.154,22.552-77.671,89.031-128.032,89.031-52.348,0-77.13-24.891-115.635-24.047-69.294,1.557-65.701,86.958-128.206,102.35-38.059,9.372-76.065,7.478-125.436,2.448-88.888-9.055-89.45,156.776-229.246,165.686-7.731,31.238,391.677,42.314,473.391,43.055,221.949,2.008,443.956,1.611,665.929,1.705,66.093.029,132.172-.215,198.246-.579l-23.657-85.737Z" style="fill: #f1f5f6; opacity: .057;"/>
              <path d="m1362.991,304.51c-21.519-2.956-49.873-18.534-72.274-24.643-54.004-14.727-61.823-84.915-125.071-86.832-77.422-2.319-62.528,24.488-148.561-36.925-37.731-26.935-117.33-185.414-240.762-144.475-67.992,22.68-78.688,89.047-129.048,89.047-52.348,0-76.446-25.371-114.952-24.572-68.392,1.476-67.175,89.042-129.81,103.525-38.67,8.942-74.596,5.539-123.992.88-87.642-8.267-88.402,155.742-228.198,164.651-7.731,31.238,390.437,43.213,472.151,43.953,221.949,2.008,443.956,1.611,665.929,1.705,66.092.029,132.171-.215,198.246-.579l-23.658-85.736Z" style="fill: #eaf1f2; opacity: .086;"/>
              <path d="m1362.926,305.026c-21.519-2.955-49.876-17.212-72.278-23.32-54.004-14.727-62.244-85.72-125.053-87.575-77.427-2.252-63.115,26.319-150.303-36.64-37.484-27.068-116.773-184.885-238.35-144.3-67.83,22.809-79.703,89.062-130.064,89.062-52.347,0-75.762-25.85-114.27-25.095-67.488,1.393-68.655,91.111-131.412,104.699-39.284,8.505-73.124,3.598-122.548-.686-86.394-7.489-87.354,154.705-227.15,163.614-7.731,31.239,389.196,44.112,470.91,44.852,221.949,2.008,443.956,1.61,665.929,1.705,66.093.028,132.172-.216,198.246-.579l-23.657-85.737Z" style="fill: #e3eced; opacity: .114;"/>
              <path d="m1362.86,305.544c-21.519-2.955-49.881-15.89-72.283-21.999-54.004-14.727-62.664-86.524-125.035-88.317-77.43-2.185-63.706,28.16-152.044-36.355-37.239-27.196-116.216-184.356-235.937-144.125-67.667,22.937-80.719,89.078-131.08,89.078-52.347,0-75.078-26.33-113.587-25.62-66.585,1.311-70.139,93.17-133.016,105.874-39.9,8.061-71.653,1.65-121.104-2.254-85.144-6.723-86.306,153.669-226.102,162.578-7.731,31.239,387.956,45.01,469.67,45.751,221.949,2.007,443.957,1.61,665.928,1.705,66.093.028,132.172-.215,198.246-.58l-23.656-85.736Z" style="fill: #dce7e9; opacity: .143;"/>
              <path d="m1362.794,306.062c-21.518-2.956-49.884-14.568-72.286-20.678-54.004-14.726-63.086-87.329-125.018-89.059-77.435-2.119-64.303,30.009-153.786-36.071-36.998-27.321-115.659-183.829-233.524-143.951-67.506,23.065-81.735,89.094-132.096,89.094-52.347,0-74.394-26.809-112.905-26.143-65.682,1.229-71.626,95.216-134.619,107.049-40.519,7.611-70.18-.303-119.66-3.821-83.891-5.966-85.257,152.633-225.054,161.542-7.731,31.239,386.714,45.908,468.429,46.648,221.949,2.008,443.956,1.611,665.929,1.706,66.093.028,132.172-.216,198.246-.58l-23.657-85.736Z" style="fill: #d4e2e5; opacity: .171;"/>
              <path d="m1362.729,306.579c-21.519-2.955-49.888-13.248-72.29-19.356-54.004-14.726-63.507-88.134-125-89.802-77.439-2.051-64.905,31.867-155.527-35.786-36.758-27.441-115.103-183.3-231.111-143.776-67.344,23.194-82.751,89.109-133.111,89.109-52.348,0-73.71-27.289-112.223-26.667-64.778,1.147-73.118,97.252-136.222,108.224-41.139,7.153-68.706-2.261-118.216-5.389-82.638-5.222-84.209,151.597-224.006,160.505-7.731,31.239,385.475,46.807,467.189,47.548,221.95,2.008,443.956,1.611,665.928,1.705,66.093.029,132.173-.214,198.246-.579l-23.656-85.736Z" style="fill: #cddde0; opacity: .2;"/>
              <path d="m1362.662,307.097c-21.519-2.956-49.891-11.926-72.293-18.035-54.004-14.727-63.929-88.939-124.982-90.544-77.443-1.984-65.515,33.733-157.269-35.502-36.521-27.558-114.546-182.771-228.699-143.601-67.181,23.322-83.766,89.126-134.127,89.126-52.347,0-73.025-27.769-111.539-27.191-63.876,1.065-74.612,99.274-137.826,109.399-41.762,6.689-67.231-4.225-116.772-6.957-81.383-4.488-83.162,150.562-222.958,159.471-7.731,31.238,384.234,47.704,465.949,48.446,221.949,2.007,443.956,1.61,665.928,1.704,66.092.029,132.172-.215,198.246-.579l-23.657-85.736Z" style="fill: #c6d9dc; opacity: .229;"/>
              <path d="m1362.597,307.614c-21.52-2.956-49.895-10.605-72.297-16.714-54.004-14.726-64.35-89.743-124.965-91.286-77.447-1.917-66.13,35.609-159.012-35.217-36.287-27.67-113.989-182.243-226.285-143.427-67.02,23.45-84.782,89.141-135.144,89.141-52.347,0-72.342-28.248-110.857-27.715-62.973.983-76.108,101.285-139.429,110.574-42.385,6.218-65.755-6.194-115.328-8.524-80.126-3.766-82.113,149.525-221.91,158.434-7.731,31.239,382.994,48.604,464.708,49.345,221.949,2.008,443.955,1.611,665.928,1.705,66.093.029,132.172-.215,198.246-.579l-23.656-85.736Z" style="fill: #bfd4d8; opacity: .257;"/>
              <path d="m1362.53,308.132c-21.52-2.956-49.898-9.283-72.301-15.393-54.004-14.727-64.77-90.547-124.947-92.028-77.451-1.851-66.75,37.492-160.752-34.933-36.056-27.779-113.433-181.715-223.874-143.252-66.857,23.579-85.798,89.156-136.159,89.156-52.348,0-71.658-28.727-110.175-28.238-62.069.901-77.607,103.285-141.032,111.749-43.011,5.739-64.279-8.171-113.884-10.092-78.869-3.055-81.065,148.488-220.862,157.398-7.731,31.239,381.752,49.502,463.467,50.243,221.95,2.007,443.956,1.611,665.929,1.705,66.093.029,132.172-.215,198.246-.579l-23.657-85.736Z" style="fill: #b8cfd3; opacity: .286;"/>
              <path d="m1362.465,308.648c-21.521-2.955-49.901-7.961-72.304-14.069-54.004-14.727-65.192-91.352-124.93-92.771-77.457-1.783-67.38,39.386-162.496-34.648-35.826-27.885-112.875-181.185-221.459-143.077-66.695,23.707-86.814,89.172-137.175,89.172-52.347,0-70.974-29.206-109.493-28.763-61.166.819-79.106,105.275-142.634,112.924-43.638,5.254-62.804-10.152-112.44-11.658-77.612-2.355-80.018,147.452-219.815,156.361-7.73,31.238,380.513,50.4,462.227,51.142,221.95,2.007,443.957,1.611,665.928,1.705,66.093.029,132.172-.215,198.246-.579l-23.656-85.737Z" style="fill: #b1cacf; opacity: .314;"/>
              <path d="m1362.399,309.167c-21.519-2.956-49.905-6.641-72.308-12.749-54.004-14.728-65.613-92.157-124.912-93.514-77.46-1.716-68.013,41.285-164.236-34.364-35.601-27.988-112.318-180.657-219.048-142.902-66.532,23.836-87.829,89.187-138.19,89.187-52.347,0-70.29-29.685-108.81-29.286-60.263.737-80.607,107.256-144.238,114.099-44.264,4.761-61.326-12.143-110.996-13.226-76.352-1.665-78.969,146.416-218.766,155.325-7.731,31.238,379.271,51.299,460.986,52.04,221.949,2.007,443.956,1.61,665.929,1.705,66.092.028,132.172-.215,198.246-.579l-23.657-85.736Z" style="fill: #aac5ca; opacity: .343;"/>
              <path d="m1362.333,309.684c-21.52-2.955-49.909-5.318-72.311-11.427-54.004-14.727-66.034-92.962-124.895-94.256-77.465-1.649-68.654,43.192-165.977-34.08-35.377-28.089-111.763-180.128-216.636-142.727-66.37,23.964-88.846,89.204-139.206,89.204-52.348,0-69.606-30.166-108.128-29.811-59.359.655-82.108,109.226-145.841,115.274-44.891,4.26-59.849-14.14-109.552-14.793-75.095-.987-77.921,145.38-217.718,154.289-7.731,31.238,378.031,52.196,459.746,52.938,221.949,2.007,443.955,1.61,665.928,1.705,66.092.028,132.172-.215,198.246-.579l-23.656-85.737Z" style="fill: #a3c0c6; opacity: .371;"/>
              <path d="m1362.267,310.201c-21.519-2.955-49.912-3.997-72.314-10.105-54.004-14.727-66.455-93.767-124.877-94.998-77.469-1.583-69.303,45.11-167.72-33.796-35.155-28.186-111.206-179.6-214.222-142.552-66.208,24.092-89.862,89.219-140.223,89.219-52.347,0-68.922-30.646-107.445-30.334-58.457.573-83.61,111.185-147.444,116.448-45.519,3.753-58.373-16.145-108.108-16.361-73.836-.321-76.874,144.344-216.669,153.253-7.731,31.239,376.79,53.096,458.505,53.837,221.95,2.008,443.956,1.611,665.928,1.705,66.093.029,132.173-.214,198.246-.578l-23.656-85.737Z" style="fill: #9cbcc2; opacity: .4;"/>
              <path d="m1362.201,310.719c-21.52-2.956-49.916-2.675-72.318-8.784-54.004-14.727-66.877-94.571-124.859-95.74-77.474-1.516-69.959,47.036-169.462-33.512-34.935-28.28-110.648-179.071-211.81-142.377-66.046,24.221-90.877,89.234-141.238,89.234-52.347,0-68.238-31.124-106.762-30.858-57.554.492-85.111,113.137-149.048,117.624-46.146,3.237-56.896-18.158-106.664-17.929-72.578.335-75.825,143.308-215.622,152.217-7.73,31.238,375.55,53.994,457.266,54.735,221.949,2.008,443.955,1.611,665.928,1.706,66.093.028,132.172-.216,198.246-.579l-23.656-85.737Z" style="fill: #95b7bd; opacity: .429;"/>
              <path d="m1362.135,311.236c-21.519-2.955-49.919-1.354-72.321-7.463-54.004-14.727-67.299-95.376-124.842-96.483-77.478-1.448-70.622,48.971-171.203-33.227-34.719-28.373-110.092-178.542-209.397-142.202-65.884,24.349-91.893,89.25-142.254,89.25-52.347,0-67.554-31.604-106.08-31.381-56.65.41-86.611,115.08-150.65,118.798-46.774,2.716-55.421-20.181-105.22-19.496-71.321.98-74.777,142.271-214.574,151.181-7.731,31.238,374.309,54.893,456.024,55.635,221.949,2.007,443.956,1.61,665.928,1.704,66.092.029,132.172-.215,198.246-.579l-23.657-85.736Z" style="fill: #8db2b9; opacity: .457;"/>
              <path d="m1362.069,311.753c-21.52-2.955-49.924-.031-72.326-6.141-54.003-14.727-67.719-96.18-124.823-97.226-77.482-1.381-71.293,50.914-172.945-32.942-34.503-28.463-109.535-178.013-206.984-142.027-65.722,24.478-92.91,89.266-143.271,89.266-52.347,0-66.87-32.083-105.397-31.905-55.747.328-88.111,117.013-152.253,119.973-47.4,2.187-53.947-22.21-103.776-21.062-70.065,1.614-73.729,141.235-213.526,150.145-7.731,31.238,373.069,55.791,454.784,56.533,221.949,2.007,443.955,1.609,665.928,1.704,66.092.028,132.172-.215,198.246-.579l-23.656-85.737Z" style="fill: #86adb5; opacity: .486;"/>
              <path d="m1362.003,312.271c-21.519-2.956-49.927,1.288-72.328-4.82-54.004-14.727-68.142-96.984-124.808-97.968-77.485-1.314-71.972,52.864-174.687-32.657-34.29-28.55-108.978-177.486-204.571-141.853-65.56,24.606-93.925,89.282-144.286,89.282-52.347,0-66.185-32.563-104.715-32.43-54.844.246-89.608,118.941-153.856,121.149-48.025,1.65-52.472-24.252-102.332-22.631-68.811,2.236-72.681,140.199-212.477,149.107-7.731,31.239,371.828,56.691,453.543,57.432,221.949,2.008,443.956,1.611,665.929,1.705,66.091.029,132.171-.215,198.246-.579l-23.657-85.736Z" style="fill: #7fa8b0; opacity: .514;"/>
              <path d="m1361.938,312.788c-21.52-2.955-49.931,2.611-72.333-3.498-54.004-14.727-68.562-97.789-124.789-98.71-77.49-1.247-72.794,54.985-176.429-32.373-34.123-28.583-108.421-176.957-202.158-141.678-65.398,24.734-94.941,89.296-145.302,89.296-52.347,0-65.501-33.041-104.032-32.953-53.941.164-91.105,120.858-155.46,122.323-48.65,1.108-51-26.302-100.888-24.198-67.559,2.848-71.633,139.163-211.43,148.072-7.73,31.238,370.587,57.589,452.303,58.33,221.949,2.007,443.955,1.61,665.928,1.705,66.092.028,132.172-.215,198.246-.579l-23.656-85.737Z" style="fill: #78a4ac; opacity: .543;"/>
              <path d="m1361.872,313.306c-21.521-2.955-49.935,3.933-72.337-2.177-54.004-14.727-68.983-98.594-124.771-99.452-77.494-1.18-73.426,56.877-178.17-32.089-33.894-28.692-107.864-176.428-199.746-141.503-65.235,24.863-95.957,89.312-146.318,89.312-52.347,0-64.818-33.522-103.35-33.478-53.038.082-92.6,122.677-157.062,123.498-49.274.486-49.533-28.444-99.444-25.766-66.314,3.34-70.585,138.127-210.381,147.036-7.731,31.238,369.347,58.486,451.062,59.229,221.949,2.007,443.956,1.61,665.927,1.705,66.093.028,132.172-.215,198.246-.579l-23.655-85.737Z" style="fill: #719fa7; opacity: .571;"/>
              <path d="m1361.806,313.823c-21.52-2.955-49.937,5.254-72.34-.855-54.004-14.727-69.404-99.398-124.754-100.194-77.499-1.113-74.057,58.769-179.912-31.805-33.663-28.802-107.308-175.899-197.333-141.328-65.073,24.991-96.973,89.328-147.334,89.328-52.347,0-64.134-34.001-102.667-34.001-52.135,0-94.092,124.673-158.666,124.673-49.895,0-48.06-30.434-98-27.333-65.061,4.04-69.537,137.091-209.334,146-7.73,31.238,368.106,59.385,449.822,60.127,221.949,2.007,443.955,1.61,665.928,1.705,66.092.028,132.172-.215,198.246-.579l-23.656-85.737Z" style="fill: #6a9aa3; opacity: .6;"/>
            </g>
            <path d="m1365.122,334.703c-21.699-3.417-60.637-13.646-83.224-20.71-54.45-17.029-68.413-105.239-124.218-106.158-78.139-1.289-78.657,73.943-185.388-30.791-33.94-33.305-109.269-194.676-200.038-154.699-65.611,28.899-85.566,109.269-136.344,109.269-52.779,0-68.1-44.287-106.951-44.287-52.567,0-84.1,126.614-149.209,126.614-50.307,0-58.559-40.766-108.913-37.182C205.239,181.431,141.053,355.098.102,365.399c-7.795,36.123,435.167,66.286,517.557,67.143,223.784,2.321,447.624,1.863,671.431,1.972,66.639.034,133.264-.249,199.885-.669l-23.851-99.142Z" style="fill: #9ec9f0;"/>
            <path d="m1365.122,336.705c-21.699-3.417-60.637-13.645-83.224-20.71-54.45-17.029-68.413-105.239-124.218-106.158-78.139-1.289-78.657,73.943-185.388-30.791-33.94-33.305-109.269-194.676-200.038-154.699-65.611,28.899-85.566,109.269-136.344,109.269-52.779,0-68.1-44.287-106.951-44.287-52.567,0-84.1,126.614-149.209,126.614-50.307,0-58.559-40.766-108.913-37.182C205.239,183.433,141.053,357.1.102,367.401c-7.795,36.123,435.167,66.286,517.557,67.143,223.784,2.321,447.624,1.863,671.431,1.972,66.639.034,133.264-.249,199.885-.669l-23.851-99.142Z" style="fill: url(#linear-gradient);"/>
          </g>
          <g>
            <g style="mix-blend-mode: multiply;">
              <path d="m816.8,130.969c-29.965-1.262-21.707-40.493-44.334-44.334-16.68-2.831-35.334,30.667-61.6,11.063-18.526-13.828,47.266-78.729,93.6-78.063,29.434.423,110.666,67,104.062,78.671-7.091,12.528-30.392-3.532-46.728.329-18.334,4.333-13.334,33.667-45,32.334Z" style="fill: #fff; opacity: 0;"/>
              <path d="m816.769,129.813c-29.593-1.229-22.112-40.725-44.43-44.576-16.513-2.854-35.647,30.757-61.269,11.79-18.421-13.549,46.856-77.707,93.269-77.219,30.547.242,110.25,66.689,103.805,77.925-7.327,12.773-30.547-4.638-47.059-.877-18.353,4.204-13.447,34.244-44.316,32.956Z" style="fill: #f8f9fa; opacity: .048;"/>
              <path d="m816.737,128.658c-29.221-1.196-22.518-40.957-44.525-44.817-16.346-2.876-35.906,30.773-60.94,12.518-18.275-13.327,46.447-76.576,92.94-76.376,31.662.137,109.826,66.375,103.548,77.178-7.567,13.02-30.702-5.743-47.389-2.083-18.373,4.077-13.562,34.822-43.634,33.579Z" style="fill: #f1f3f6; opacity: .095;"/>
              <path d="m816.706,127.504c-28.849-1.165-22.923-41.189-44.621-45.059-16.18-2.899-36.195,30.829-60.609,13.245-18.152-13.074,46.04-75.209,92.609-75.531,32.775-.226,109.398,66.057,103.291,76.432-7.809,13.265-30.857-6.85-47.719-3.289-18.393,3.948-13.676,35.4-42.952,34.202Z" style="fill: #eaeef1; opacity: .143;"/>
              <path d="m816.675,126.349c-28.479-1.132-23.329-41.421-44.717-45.301-16.013-2.921-36.488,30.889-60.279,13.972-18.029-12.82,45.63-74.458,92.279-74.686,33.89-.166,108.963,65.736,103.033,75.685-8.052,13.51-31.019-7.991-48.049-4.495-18.42,3.781-13.79,35.98-42.268,34.825Z" style="fill: #e2e8ed; opacity: .19;"/>
              <path d="m816.644,125.193c-28.106-1.1-23.735-41.653-44.812-45.543-15.846-2.944-36.784,30.953-59.949,14.699-17.909-12.565,45.222-73.41,91.949-73.842,35.005-.324,108.524,65.414,102.776,74.939-8.299,13.753-31.176-9.103-48.379-5.701-18.441,3.646-13.904,36.557-41.585,35.447Z" style="fill: #dbe2e8; opacity: .238;"/>
              <path d="m816.611,124.038c-27.734-1.067-24.139-41.885-44.907-45.784-15.679-2.967-37.082,31.019-59.619,15.426-17.789-12.308,44.814-72.369,91.619-72.997,36.121-.485,108.08,65.088,102.52,74.193-8.547,13.997-31.332-10.215-48.71-6.908-18.461,3.513-14.019,37.135-40.903,36.07Z" style="fill: #d4dce3; opacity: .286;"/>
              <path d="m816.58,122.884c-27.362-1.035-24.544-42.117-45.003-46.026-15.513-2.99-37.383,31.089-59.289,16.153-17.672-12.049,44.407-71.335,91.289-72.154,37.235-.65,107.632,64.76,102.264,73.447-8.799,14.239-31.487-11.325-49.041-8.114-18.481,3.38-14.132,37.712-40.22,36.693Z" style="fill: #cdd7df; opacity: .333;"/>
              <path d="m816.549,121.728c-26.991-1.003-24.951-42.349-45.099-46.269-15.346-3.012-37.689,31.163-58.959,16.881-17.557-11.789,43.999-70.306,90.959-71.31,38.351-.82,107.179,64.429,102.006,72.701-9.053,14.479-31.642-12.434-49.371-9.32-18.5,3.249-14.246,38.291-39.536,37.316Z" style="fill: #c6d1da; opacity: .381;"/>
              <path d="m816.518,120.573c-26.619-.97-25.356-42.581-45.194-46.51-15.179-3.035-37.995,31.241-58.629,17.607-17.443-11.525,43.591-69.282,90.629-70.465,39.465-.993,106.722,64.096,101.749,71.955-9.312,14.717-31.797-13.542-49.701-10.526-18.52,3.119-14.36,38.868-38.854,37.938Z" style="fill: #bfcbd5; opacity: .429;"/>
              <path d="m816.486,119.419c-26.247-.939-25.761-42.814-45.29-46.753-15.012-3.057-38.306,31.323-58.299,18.335-17.332-11.26,43.182-68.262,90.299-69.621,40.58-1.17,106.261,63.761,101.492,71.209-9.574,14.954-31.952-14.649-50.031-11.732-18.539,2.991-14.475,39.447-38.171,38.562Z" style="fill: #b8c5d1; opacity: .476;"/>
              <path d="m816.455,118.263c-25.876-.904-26.167-43.045-45.386-46.993-14.845-3.08-38.619,31.41-57.969,19.062-17.223-10.991,42.775-67.247,89.969-68.776,41.695-1.351,105.797,63.424,101.235,70.462-9.842,15.186-32.106-15.754-50.362-12.939-18.558,2.862-14.588,40.023-37.487,39.183Z" style="fill: #b0c0cc; opacity: .524;"/>
              <path d="m816.424,117.108c-25.504-.873-26.572-43.277-45.481-47.235-14.679-3.103-38.936,31.5-57.639,19.789-17.117-10.718,42.366-66.235,89.639-67.932,42.809-1.536,105.329,63.084,100.978,69.716-10.114,15.416-32.262-16.859-50.692-14.145-18.577,2.736-14.702,40.601-36.805,39.807Z" style="fill: #a9bac8; opacity: .571;"/>
              <path d="m816.393,115.953c-25.132-.841-26.978-43.509-45.577-47.477-14.512-3.125-39.256,31.595-57.309,20.516-17.013-10.441,41.957-65.228,89.309-67.087,43.923-1.725,104.858,62.744,100.721,68.97-10.395,15.641-32.415-17.962-51.022-15.35-18.596,2.61-14.817,41.179-36.122,40.429Z" style="fill: #a2b4c3; opacity: .619;"/>
              <path d="m816.361,114.798c-24.76-.808-27.382-43.741-45.672-47.719-14.345-3.147-39.579,31.697-56.979,21.244-16.912-10.161,41.548-64.224,88.979-66.244,45.038-1.917,104.386,62.4,100.465,68.224-10.681,15.863-32.569-19.065-51.353-16.557-18.615,2.485-14.931,41.758-35.439,41.052Z" style="fill: #9baebe; opacity: .667;"/>
              <path d="m816.329,113.644c-24.388-.776-27.788-43.974-45.768-47.961-14.178-3.171-39.905,31.803-56.648,21.97-16.814-9.874,41.14-63.223,88.648-65.399,46.152-2.114,103.909,62.055,100.208,67.478-10.976,16.078-32.724-20.167-51.685-17.763-18.633,2.362-15.044,42.335-34.756,41.675Z" style="fill: #94a9ba; opacity: .714;"/>
              <path d="m816.299,112.488c-24.018-.743-28.194-44.205-45.864-48.203-14.012-3.193-40.234,31.913-56.318,22.698-16.72-9.581,40.73-62.224,88.318-64.555,47.265-2.314,103.432,61.708,99.95,66.731-11.284,16.284-32.877-21.267-52.014-18.969-18.652,2.239-15.158,42.914-34.072,42.298Z" style="fill: #8da3b5; opacity: .762;"/>
              <path d="m816.267,111.333c-23.645-.711-28.599-44.437-45.959-48.444-13.845-3.216-40.566,32.031-55.988,23.424-16.629-9.281,40.32-61.229,87.988-63.71,48.378-2.519,102.95,61.359,99.693,65.984-11.604,16.48-33.027-22.329-52.344-20.175-18.666,2.153-15.273,43.491-33.39,42.92Z" style="fill: #869db0; opacity: .81;"/>
              <path d="m816.236,110.178c-23.273-.678-29.005-44.669-46.055-48.686-13.678-3.239-40.901,32.155-55.658,24.151-16.542-8.972,39.91-60.235,87.658-62.866,49.491-2.727,102.468,61.009,99.437,65.239-11.941,16.664-33.183-23.434-52.675-21.382-18.686,2.025-15.386,44.069-32.707,43.543Z" style="fill: #7e97ac; opacity: .857;"/>
              <path d="m816.205,109.022c-22.902-.645-29.41-44.9-46.151-48.927-13.511-3.261-41.238,32.286-55.328,24.879-16.461-8.653,39.496-59.313,87.328-62.021,50.599-3.011,101.983,60.656,99.18,64.493-12.299,16.832-33.338-24.541-53.005-22.588-18.705,1.897-15.501,44.646-32.024,44.165Z" style="fill: #7792a7; opacity: .905;"/>
              <path d="m816.173,107.868c-22.53-.614-29.815-45.133-46.246-49.17-13.345-3.284-41.578,32.423-54.998,25.606-16.383-8.322,39.087-58.291,86.998-61.177,51.713-3.191,101.496,60.302,98.923,63.746-12.686,16.978-33.493-25.646-53.335-23.794-18.725,1.769-15.615,45.226-31.341,44.789Z" style="fill: #708ca3; opacity: .952;"/>
              <path d="m816.142,106.713c-22.158-.581-30.221-45.365-46.342-49.411-13.178-3.307-41.919,32.567-54.668,26.333-16.311-7.977,38.678-57.27,86.668-60.333,52.827-3.372,101.009,59.945,98.666,63-13.108,17.092-33.648-26.752-53.666-25-18.744,1.641-15.729,45.803-30.658,45.411Z" style="fill: #69869e;"/>
            </g>
            <path d="m711.966,84.466c15.557,10.319,40.25-27.533,56-25,16.195,2.604,12,50.5,42,52,25.986,1.3,20.395-46.534,35.666-48.474,23.062-2.929,35.334,34.974,57.834,28.474,1.791-.518,3.301-1.081,4.579-1.682-36.967-47.261-83.851-90.314-135.79-67.439-28.901,12.73-48.942,35.446-66.662,56.881,1.697,1.787,3.806,3.537,6.373,5.24Z" style="fill: #fff;"/>
            <path d="m711.966,86.468c15.557,10.319,40.25-27.533,56-25,16.195,2.605,12,50.5,42,52,25.986,1.3,20.395-46.534,35.666-48.474,23.062-2.929,35.334,34.974,57.834,28.474,1.791-.518,3.301-1.081,4.579-1.682-36.967-47.261-83.851-90.315-135.79-67.44-28.901,12.731-48.942,35.446-66.662,56.881,1.697,1.787,3.806,3.537,6.373,5.24Z" style="fill: #e1f0fa;"/>
          </g>
        </g>
      </g>
    </g>
  </g>
</svg>