<?xml version="1.0" encoding="UTF-8"?>
<svg xmlns="http://www.w3.org/2000/svg" xmlns:xlink="http://www.w3.org/1999/xlink" viewBox="0 0 1576.55 436.037">
  <defs>
    <linearGradient id="linear-gradient" x1="492.419" y1="235.993" x2="1322.418" y2="380.993" gradientUnits="userSpaceOnUse">
      <stop offset="0" stop-color="#516c83"/>
      <stop offset="1" stop-color="#405a72"/>
    </linearGradient>
  </defs>
  <g style="isolation: isolate;">
    <g id="Layer_2" data-name="Layer 2">
      <g id="_ÎÓÈ_6" data-name="—ÎÓÈ_6">
        <g id="mountain-1">
          <g style="mix-blend-mode: multiply;">
            <path d="m55.46,302.331c21.519-2.956,49.862-22.498,72.265-28.606,54.004-14.727,60.559-82.502,125.124-84.605,77.408-2.521,72.858,29.349,155.393-27.475,38.495-26.504,104.691-192.427,222.798-156.603,68.916,20.902,101.64,95.5,152,95.5,52.347,0,57.042-11.502,95.544-10.569,71.101,1.721,119.226,74.662,182.956,85.069,76.801,12.541,109-105.5,196.289-102.676,122.547,3.965,178.851,243.405,318.648,252.315,7.731,31.239-598.784,61.521-680.499,62.262-221.949,2.008-443.955,1.611-665.929,1.705-66.093.029-132.172-.215-198.245-.579l23.656-85.736Z" style="fill: #fff; opacity: 0;"/>
            <path d="m55.526,302.849c21.519-2.956,50.226-21.032,72.628-27.141,54.004-14.727,61.092-83.505,125.218-85.546,77.413-2.454,72.666,31.502,156.31-26.929,38.265-26.613,104.314-192.575,220.952-156.502,68.062,21.05,100.64,95.477,151,95.477,52.347,0,58.307-12.052,96.81-11.163,70.197,1.639,117.232,76.358,181.029,86.232,81.533,12.619,112.126-106.03,199.27-103.189,120.497,3.919,174.849,242.793,314.645,251.702,7.73,31.239-595.63,60.929-677.345,61.669-221.949,2.008-443.955,1.611-665.929,1.705-66.093.029-132.172-.215-198.245-.579l23.656-85.736Z" style="fill: #f8f9fa; opacity: .048;"/>
            <path d="m55.592,303.366c21.519-2.956,50.59-19.566,72.993-25.676,54.004-14.727,61.624-84.507,125.312-86.486,77.417-2.386,72.473,33.656,157.229-26.382,38.034-26.723,103.937-192.723,219.105-156.4,67.209,21.197,99.639,95.452,149.999,95.452,52.347,0,59.571-12.6,98.076-11.756,69.294,1.557,115.247,78.015,179.102,87.396,86.276,12.675,115.252-106.561,202.25-103.703,118.446,3.873,170.847,242.181,310.644,251.09,7.73,31.239-592.477,60.336-674.192,61.076-221.949,2.008-443.955,1.611-665.929,1.705-66.093.029-132.171-.215-198.245-.579l23.656-85.736Z" style="fill: #f1f3f6; opacity: .095;"/>
            <path d="m55.658,303.884c21.519-2.956,50.954-18.102,73.356-24.21,54.004-14.727,62.158-85.51,125.407-87.427,77.421-2.319,72.113,35.576,158.146-25.836,37.732-26.934,103.559-192.87,217.259-156.299,66.356,21.345,98.639,95.429,148.999,95.429,52.347,0,60.836-13.148,99.342-12.35,68.392,1.475,113.269,79.639,177.176,88.559,91.022,12.704,118.377-107.092,205.229-104.217,116.397,3.827,166.845,241.568,306.642,250.478,7.73,31.239-589.324,59.743-671.039,60.483-221.949,2.008-443.955,1.611-665.929,1.705-66.092.029-132.171-.215-198.245-.579l23.656-85.736Z" style="fill: #eaeef1; opacity: .143;"/>
            <path d="m55.724,304.401c21.518-2.955,51.318-16.635,73.721-22.743,54.003-14.727,62.69-86.513,125.5-88.367,77.426-2.253,71.876,37.669,159.063-25.289,37.484-27.067,103.182-193.019,215.412-156.198,65.503,21.492,97.64,95.405,148,95.405,52.346,0,62.1-13.698,100.608-12.943,67.488,1.394,111.296,81.235,175.249,89.722,95.776,12.71,121.504-107.622,208.21-104.731,114.348,3.781,162.842,240.956,302.639,249.866,7.731,31.238-586.17,59.148-667.885,59.89-221.949,2.007-443.955,1.61-665.929,1.704-66.092.029-132.172-.214-198.245-.579l23.656-85.736Z" style="fill: #e2e8ed; opacity: .19;"/>
            <path d="m55.79,304.918c21.519-2.956,51.682-15.17,74.084-21.278,54.004-14.727,63.223-87.515,125.594-89.308,77.43-2.185,71.643,39.774,159.982-24.742,37.239-27.196,102.804-193.167,213.565-156.097,64.649,21.64,96.64,95.382,147,95.382,52.347,0,63.365-14.248,101.874-13.537,66.585,1.31,109.327,82.807,173.322,90.885,100.536,12.69,124.629-108.152,211.191-105.244,112.298,3.735,158.84,240.345,298.637,249.253,7.73,31.239-583.017,58.557-664.732,59.297-221.949,2.008-443.956,1.612-665.928,1.706-66.093.029-132.172-.215-198.246-.58l23.656-85.736Z" style="fill: #dbe2e8; opacity: .238;"/>
            <path d="m55.855,305.436c21.519-2.955,52.046-13.703,74.448-19.812,54.004-14.727,63.756-88.519,125.688-90.248,77.434-2.118,71.416,41.884,160.899-24.196,36.997-27.32,102.427-193.315,211.719-155.995,63.797,21.787,95.64,95.357,146,95.357,52.347,0,64.629-14.796,103.141-14.129,65.682,1.228,107.362,84.355,171.394,92.047,105.299,12.647,127.756-108.684,214.171-105.758,110.248,3.689,154.838,239.732,294.635,248.641,7.73,31.24-579.863,57.964-661.578,58.705-221.949,2.007-443.955,1.61-665.928,1.704-66.093.029-132.172-.214-198.246-.579l23.656-85.736Z" style="fill: #d4dce3; opacity: .286;"/>
            <path d="m55.921,305.953c21.52-2.956,52.41-12.238,74.812-18.347,54.004-14.728,64.289-89.522,125.783-91.188,77.438-2.052,71.194,44.002,161.817-23.65,36.758-27.441,102.05-193.463,209.873-155.894,62.942,21.935,94.639,95.334,144.999,95.334,52.347,0,65.894-15.345,104.407-14.724,64.779,1.147,105.399,85.89,169.468,93.212,110.064,12.579,130.881-109.215,217.152-106.272,108.197,3.644,150.835,239.12,290.632,248.029,7.73,31.238-576.71,57.37-658.425,58.111-221.95,2.007-443.956,1.61-665.929,1.705-66.093.028-132.172-.216-198.246-.58l23.656-85.736Z" style="fill: #cdd7df; opacity: .333;"/>
            <path d="m55.987,306.471c21.52-2.956,52.774-10.773,75.176-16.882,54.004-14.726,64.822-90.523,125.877-92.129,77.442-1.984,70.98,46.134,162.735-23.102,36.52-27.557,101.671-193.612,208.025-155.793,62.09,22.082,93.64,95.31,144,95.31,52.348,0,67.158-15.894,105.672-15.316,63.876,1.065,103.439,87.404,167.542,94.375,114.835,12.486,134.008-109.745,220.132-106.786,106.148,3.598,146.833,238.508,286.63,247.416,7.73,31.24-573.557,56.777-655.271,57.518-221.949,2.008-443.955,1.611-665.928,1.705-66.093.029-132.172-.214-198.246-.579l23.656-85.736Z" style="fill: #c6d1da; opacity: .381;"/>
            <path d="m56.053,306.989c21.52-2.956,53.138-9.307,75.54-15.416,54.004-14.727,65.355-91.526,125.971-93.069,77.447-1.917,70.769,48.269,163.653-22.558,36.287-27.669,101.295-193.759,206.18-155.69,61.236,22.23,92.639,95.286,143,95.286,52.347,0,68.423-16.442,106.938-15.909,62.973.982,101.48,88.905,165.615,95.537,119.608,12.368,137.133-110.276,223.112-107.3,104.098,3.551,142.831,237.895,282.627,246.805,7.731,31.238-570.402,56.184-652.117,56.925-221.949,2.008-443.956,1.611-665.929,1.705-66.093.029-132.172-.215-198.246-.579l23.656-85.736Z" style="fill: #bfcbd5; opacity: .429;"/>
            <path d="m56.119,307.506c21.519-2.956,53.501-7.842,75.904-13.95,54.003-14.727,65.888-92.529,126.065-94.011,77.451-1.85,70.567,50.416,164.571-22.01,36.056-27.779,100.917-193.907,204.333-155.59,60.384,22.377,91.64,95.262,142,95.262,52.348,0,69.688-16.991,108.205-16.502,62.07.9,99.522,90.394,163.688,96.7,124.384,12.225,140.259-110.807,226.093-107.814,102.048,3.506,138.828,237.283,278.625,246.192,7.731,31.239-567.25,55.591-648.965,56.332-221.949,2.008-443.955,1.61-665.928,1.705-66.093.028-132.172-.215-198.246-.579l23.656-85.736Z" style="fill: #b8c5d1; opacity: .476;"/>
            <path d="m56.185,308.024c21.519-2.956,53.866-6.376,76.268-12.484,54.004-14.727,66.421-93.532,126.159-94.951,77.456-1.783,70.371,52.569,165.489-21.464,35.826-27.885,100.54-194.056,202.487-155.487,59.529,22.524,90.639,95.238,141,95.238,52.347,0,70.952-17.541,109.47-17.098,61.166.82,97.565,91.871,161.761,97.864,129.16,12.058,143.385-111.337,229.072-108.327,99.999,3.46,134.826,236.671,274.623,245.58,7.73,31.238-564.096,54.998-645.81,55.739-221.949,2.007-443.956,1.61-665.929,1.705-66.093.028-132.172-.215-198.246-.579l23.656-85.736Z" style="fill: #b0c0cc; opacity: .524;"/>
            <path d="m56.251,308.54c21.519-2.955,54.229-4.909,76.632-11.019,54.004-14.727,66.954-94.534,126.253-95.891,77.46-1.716,70.181,54.731,166.406-20.918,35.6-27.987,100.162-194.203,200.64-155.386,58.676,22.671,89.639,95.214,139.999,95.214,52.348,0,72.217-18.09,110.736-17.69,60.264.737,95.609,93.338,159.835,99.026,133.939,11.864,146.511-111.868,232.053-108.841,97.948,3.414,130.823,236.059,270.62,244.968,7.73,31.239-560.942,54.405-642.657,55.146-221.949,2.007-443.955,1.61-665.928,1.705-66.093.028-132.172-.215-198.246-.579l23.656-85.737Z" style="fill: #a9bac8; opacity: .571;"/>
            <path d="m56.317,309.058c21.519-2.956,54.593-3.444,76.996-9.554,54.004-14.726,67.486-95.536,126.347-96.83,77.465-1.65,70,56.902,167.324-20.371,35.376-28.088,99.785-194.353,198.794-155.285,57.823,22.819,88.639,95.19,139,95.19,52.347,0,73.48-18.639,112.002-18.283,59.36.655,93.653,94.796,157.908,100.189,138.721,11.646,149.637-112.397,235.034-109.354,95.898,3.367,126.821,235.447,266.618,244.355,7.73,31.238-557.789,53.812-639.504,54.554-221.949,2.007-443.956,1.61-665.929,1.705-66.093.028-132.171-.215-198.246-.579l23.657-85.737Z" style="fill: #a2b4c3; opacity: .619;"/>
            <path d="m56.383,309.575c21.52-2.955,54.957-1.979,77.359-8.087,54.004-14.728,68.02-96.54,126.441-97.773,77.469-1.582,69.824,59.083,168.242-19.824,35.154-28.186,99.407-194.5,196.946-155.184,56.97,22.966,87.64,95.166,138,95.166,52.348,0,74.746-19.188,113.269-18.876,58.458.573,91.697,96.245,155.981,101.353,143.502,11.403,152.763-112.93,238.014-109.869,93.849,3.321,122.818,234.834,262.616,243.743,7.729,31.239-554.636,53.22-636.351,53.961-221.95,2.007-443.956,1.61-665.928,1.705-66.093.028-132.172-.215-198.246-.579l23.656-85.737Z" style="fill: #9baebe; opacity: .667;"/>
            <path d="m56.448,310.093c21.52-2.956,55.321-.513,77.724-6.622,54.004-14.727,68.553-97.542,126.535-98.712,77.473-1.515,69.657,61.27,169.16-19.278,34.935-28.28,99.03-194.648,195.101-155.082,56.117,23.114,86.639,95.143,137,95.143,52.348,0,76.01-19.736,114.534-19.47,57.555.491,89.742,97.688,154.055,102.517,148.285,11.135,155.889-113.46,240.993-110.383,91.8,3.275,118.817,234.223,258.614,243.131,7.73,31.239-551.482,52.626-633.197,53.367-221.949,2.008-443.956,1.611-665.928,1.705-66.092.029-132.171-.215-198.247-.578l23.656-85.737Z" style="fill: #94a9ba; opacity: .714;"/>
            <path d="m56.515,310.61c21.52-2.955,55.685.953,78.087-5.156,54.004-14.727,69.086-98.545,126.629-99.651,77.477-1.449,69.497,63.466,170.078-18.732,34.717-28.372,98.653-194.795,193.254-154.98,55.263,23.262,85.639,95.119,136,95.119,52.347,0,77.275-20.286,115.801-20.064,56.651.409,87.786,99.123,152.127,103.68,153.069,10.841,159.015-113.99,243.974-110.896,89.75,3.229,114.814,233.61,254.611,242.519,7.73,31.239-548.329,52.033-630.043,52.774-221.949,2.008-443.956,1.611-665.928,1.705-66.093.029-132.172-.214-198.247-.579l23.657-85.737Z" style="fill: #8da3b5; opacity: .762;"/>
            <path d="m56.58,311.128c21.52-2.956,56.049,2.418,78.451-3.69,54.004-14.728,69.619-99.549,126.724-100.594,77.481-1.381,69.344,65.671,170.996-18.186,34.501-28.461,98.275-194.944,191.407-154.879,54.41,23.409,84.639,95.096,135,95.096,52.348,0,78.539-20.835,117.067-20.657,55.748.327,85.83,100.552,150.2,104.843,157.852,10.523,162.141-114.521,246.955-111.41,87.699,3.184,110.811,232.998,250.608,241.907,7.731,31.238-545.175,51.44-626.89,52.181-221.949,2.008-443.956,1.611-665.928,1.705-66.093.029-132.172-.215-198.247-.579l23.656-85.736Z" style="fill: #869db0; opacity: .81;"/>
            <path d="m56.646,311.645c21.521-2.955,56.414,3.885,78.815-2.225,54.004-14.727,70.151-100.551,126.818-101.533,77.486-1.314,69.197,67.883,171.913-17.64,34.289-28.55,97.898-195.091,189.561-154.777,53.557,23.557,83.639,95.071,134,95.071,52.347,0,79.804-21.383,118.333-21.25,54.845.246,83.874,101.976,148.273,106.006,162.638,10.18,165.267-115.052,249.936-111.924,85.649,3.138,106.809,232.386,246.606,241.295,7.73,31.238-542.022,50.847-623.737,51.588-221.949,2.007-443.956,1.61-665.928,1.705-66.093.028-132.172-.215-198.247-.579l23.656-85.737Z" style="fill: #7e97ac; opacity: .857;"/>
            <path d="m56.712,312.162c21.52-2.955,56.777,5.351,79.179-.76,54.004-14.726,70.684-101.553,126.912-102.474,77.491-1.246,69.196,70.267,172.831-17.093,34.123-28.582,97.521-195.239,187.715-154.676,52.704,23.704,82.639,95.047,133,95.047,52.348,0,81.069-21.932,119.599-21.843,53.942.163,81.918,103.394,146.347,107.169,167.422,9.811,168.393-115.582,252.916-112.438,83.599,3.092,102.807,231.773,242.603,240.683,7.73,31.238-538.869,50.253-620.583,50.995-221.949,2.007-443.956,1.611-665.928,1.705-66.092.029-132.171-.215-198.247-.579l23.656-85.737Z" style="fill: #7792a7; opacity: .905;"/>
            <path d="m56.778,312.68c21.52-2.955,57.141,6.815,79.543.707,54.003-14.728,71.217-102.557,127.005-103.415,77.495-1.18,69.003,72.42,173.749-16.546,33.892-28.692,97.143-195.388,185.868-154.575,51.851,23.852,81.639,95.023,132,95.023,52.347,0,82.333-22.481,120.865-22.436,53.039.082,79.965,104.714,144.42,108.332,172.221,9.168,171.519-116.113,255.895-112.951,81.55,3.046,98.805,231.161,238.602,240.07,7.731,31.238-535.715,49.66-617.43,50.402-221.949,2.007-443.956,1.61-665.928,1.705-66.093.028-132.172-.215-198.247-.579l23.656-85.737Z" style="fill: #708ca3; opacity: .952;"/>
            <path d="m56.844,313.198c21.521-2.955,57.505,8.281,79.907,2.172,54.004-14.727,71.75-103.559,127.1-104.355,77.499-1.113,68.811,74.573,174.667-16,33.662-28.802,96.766-195.536,184.021-154.474,50.997,23.999,80.639,95,131,95,52.348,0,83.598-23.03,122.131-23.03,52.136,0,78.002,106.216,142.493,109.495,176.991,8.999,174.645-116.644,258.876-113.465,79.5,3,94.803,230.549,234.6,239.458,7.73,31.238-532.561,49.067-614.276,49.81-221.949,2.007-443.956,1.61-665.928,1.705-66.093.028-132.172-.215-198.247-.579l23.656-85.737Z" style="fill: #69869e;"/>
          </g>
          <path d="m23.852,334.222c21.699-3.417,60.637-13.645,83.223-20.71,54.451-17.029,68.414-105.239,124.218-106.158,78.14-1.289,78.657,73.943,185.388-30.791,33.941-33.305,109.27-194.676,200.039-154.699,65.611,28.899,85.566,109.269,136.343,109.269,52.779,0,68.1-44.287,106.952-44.287,52.566,0,84.471,119.673,149.208,126.614,144.974,15.544,164.934-129.948,250.429-129.948,100.495,0,111.037,252.185,251.988,262.486,7.795,36.123-557.934,85.207-640.324,86.063-223.783,2.321-447.623,1.863-671.43,1.972-66.639.034-133.264-.249-199.885-.669l23.852-99.142Z" style="fill: #89afd1;"/>
          <path d="m23.852,336.224c21.699-3.417,60.637-13.646,83.223-20.71,54.451-17.029,68.414-105.239,124.218-106.158,78.14-1.289,78.657,73.943,185.388-30.791,33.941-33.305,109.27-194.676,200.039-154.699,65.611,28.899,85.566,109.269,136.343,109.269,52.779,0,68.1-44.287,106.952-44.287,52.566,0,84.471,119.673,149.208,126.614,144.974,15.544,164.934-129.948,250.429-129.948,100.495,0,111.037,252.185,251.988,262.486,7.795,36.123-557.934,85.207-640.324,86.064-223.783,2.321-447.623,1.863-671.43,1.972-66.639.034-133.264-.249-199.885-.669l23.852-99.142Z" style="fill: url(#linear-gradient);"/>
          <g>
            <g style="mix-blend-mode: multiply;">
              <path d="m601.039,135.875c-31.256-1.316-24.721-15.745-48.324-19.751-17.399-2.953-45.611,22.866-73.009,2.418-19.326-14.425,60.253-97.261,108.585-96.566,30.703.441,113.748,63.899,102.748,77.899-14.956,19.035-25.293,12.639-42.334,16.667-19.123,4.52-14.634,20.724-47.666,19.333Z" style="fill: #fff; opacity: 0;"/>
              <path d="m600.61,134.812c-30.868-1.282-24.79-16.191-48.07-20.207-17.225-2.977-45.092,23.039-71.818,3.255-19.216-14.134,59.022-96.211,107.436-95.702,31.866.252,113.373,63.669,102.564,77.32-15.019,18.867-25.697,11.427-42.921,15.351-19.144,4.385-14.989,21.327-47.19,19.983Z" style="fill: #f8f9fa; opacity: .048;"/>
              <path d="m600.182,133.748c-30.481-1.249-24.86-16.638-47.818-20.663-17.05-3.001-44.514,23.133-70.627,4.092-19.064-13.901,57.791-95.046,106.288-94.837,33.027.143,113.031,63.467,102.378,76.741-15.035,18.735-26.102,10.214-43.509,14.032-19.163,4.252-15.344,21.932-46.713,20.635Z" style="fill: #f1f3f6; opacity: .095;"/>
              <path d="m599.753,132.685c-30.093-1.215-24.93-17.084-47.564-21.12-16.877-3.024-43.97,23.271-69.436,4.93-18.935-13.638,56.562-93.636,105.141-93.972,34.189-.236,112.668,63.248,102.192,76.162-15.076,18.584-26.506,9.001-44.096,12.715-19.184,4.118-15.699,22.535-46.237,21.285Z" style="fill: #eaeef1; opacity: .143;"/>
              <path d="m599.325,131.621c-29.704-1.181-24.999-17.529-47.31-21.576-16.703-3.048-43.429,23.413-68.245,5.767-18.808-13.374,55.331-92.869,103.992-93.107,35.352-.173,112.306,63.029,102.008,75.584-15.119,18.433-26.918,7.75-44.683,11.397-19.214,3.943-16.055,23.141-45.762,21.936Z" style="fill: #e2e8ed; opacity: .19;"/>
              <path d="m598.896,130.558c-29.317-1.148-25.069-17.976-47.057-22.032-16.529-3.071-42.891,23.558-67.055,6.604-18.682-13.107,54.102-91.792,102.844-92.242,36.515-.338,111.941,62.808,101.823,75.004-15.165,18.28-27.324,6.532-45.27,10.08-19.235,3.803-16.41,23.744-45.285,22.587Z" style="fill: #dbe2e8; opacity: .238;"/>
              <path d="m598.468,129.494c-28.93-1.113-25.139-18.422-46.803-22.489-16.355-3.095-42.355,23.705-65.863,7.441-18.558-12.839,52.872-90.723,101.695-91.378,37.678-.506,111.574,62.587,101.639,74.426-15.212,18.126-27.729,5.311-45.858,8.762-19.255,3.664-16.765,24.349-44.809,23.238Z" style="fill: #d4dce3; opacity: .286;"/>
              <path d="m598.039,128.431c-28.542-1.079-25.208-18.868-46.55-22.945-16.181-3.118-41.822,23.858-64.672,8.278-18.435-12.57,51.643-89.658,100.546-90.513,38.841-.679,111.206,62.363,101.454,73.847-15.261,17.97-28.134,4.095-46.445,7.444-19.277,3.525-17.12,24.952-44.333,23.889Z" style="fill: #cdd7df; opacity: .333;"/>
              <path d="m597.61,127.367c-28.154-1.046-25.277-19.315-46.296-23.402-16.007-3.142-41.294,24.015-63.482,9.117-18.315-12.298,50.413-88.602,99.399-89.649,40.004-.855,110.835,62.14,101.269,73.269-15.312,17.812-28.539,2.879-47.033,6.127-19.297,3.389-17.476,25.556-43.857,24.539Z" style="fill: #c6d1da; opacity: .381;"/>
              <path d="m597.182,126.304c-27.767-1.012-25.348-19.761-46.043-23.858-15.833-3.166-40.767,24.174-62.291,9.953-18.196-12.022,49.184-87.548,98.251-88.783,41.167-1.036,110.463,61.912,101.083,72.689-15.366,17.653-28.943,1.664-47.62,4.81-19.318,3.254-17.831,26.16-43.38,25.19Z" style="fill: #bfcbd5; opacity: .429;"/>
              <path d="m596.753,125.24c-27.378-.978-25.417-20.207-45.789-24.314-15.659-3.189-40.246,24.339-61.1,10.791-18.081-11.746,47.954-86.503,97.102-87.92,42.33-1.221,110.089,61.685,100.898,72.11-15.422,17.492-29.346.449-48.207,3.491-19.338,3.119-18.186,26.766-42.905,25.842Z" style="fill: #b8c5d1; opacity: .476;"/>
              <path d="m596.325,124.177c-26.991-.944-25.486-20.652-45.535-24.771-15.485-3.213-39.725,24.507-59.909,11.627-17.967-11.465,46.724-85.458,95.953-87.054,43.493-1.41,109.714,61.457,100.713,71.53-15.482,17.328-29.75-.762-48.794,2.175-19.358,2.985-18.541,27.368-42.428,26.492Z" style="fill: #b0c0cc; opacity: .524;"/>
              <path d="m595.896,123.114c-26.604-.91-25.557-21.099-45.282-25.228-15.312-3.236-39.209,24.681-58.718,12.466-17.856-11.181,45.494-84.421,94.806-86.19,44.655-1.602,109.335,61.227,100.527,70.952-15.543,17.162-30.154-1.974-49.381.857-19.378,2.854-18.896,27.973-41.952,27.143Z" style="fill: #a9bac8; opacity: .571;"/>
              <path d="m595.468,122.05c-26.215-.876-25.626-21.545-45.028-25.684-15.138-3.26-38.696,24.859-57.527,13.302-17.747-10.893,44.264-83.384,93.657-85.324,45.818-1.8,108.957,60.994,100.343,70.373-15.608,16.993-30.558-3.185-49.968-.461-19.398,2.723-19.252,28.577-41.476,27.794Z" style="fill: #a2b4c3; opacity: .619;"/>
              <path d="m595.039,120.987c-25.828-.842-25.695-21.991-44.775-26.14-14.963-3.284-38.186,25.044-56.336,14.14-17.642-10.599,43.034-82.354,92.509-84.461,46.98-2.001,108.577,60.761,100.158,69.794-15.676,16.822-30.962-4.394-50.556-1.777-19.417,2.593-19.607,29.181-41,28.444Z" style="fill: #9baebe; opacity: .667;"/>
              <path d="m594.61,119.923c-25.439-.809-25.765-22.438-44.521-26.597-14.789-3.307-37.68,25.233-55.145,14.977-17.54-10.3,41.803-81.324,91.361-83.595,48.142-2.206,108.193,60.524,99.973,69.215-15.747,16.647-31.365-5.603-51.144-3.096-19.435,2.463-19.962,29.785-40.523,29.096Z" style="fill: #94a9ba; opacity: .714;"/>
              <path d="m594.182,118.86c-25.052-.775-25.834-22.884-44.268-27.053-14.615-3.33-37.177,25.428-53.954,15.815-17.442-9.995,40.571-80.301,90.212-82.732,49.304-2.414,107.809,60.289,99.789,68.637-15.824,16.469-31.769-6.81-51.731-4.413-19.456,2.336-20.317,30.389-40.048,29.746Z" style="fill: #8da3b5; opacity: .762;"/>
              <path d="m593.753,117.796c-24.665-.741-25.904-23.33-44.014-27.509-14.442-3.354-36.677,25.63-52.764,16.651-17.347-9.682,39.34-79.278,89.064-81.866,50.465-2.627,107.423,60.049,99.604,68.057-15.903,16.286-32.168-7.977-52.318-5.73-19.471,2.245-20.673,30.993-39.572,30.397Z" style="fill: #869db0; opacity: .81;"/>
              <path d="m593.325,116.733c-24.277-.707-25.974-23.775-43.76-27.965-14.269-3.379-36.18,25.837-51.573,17.488-17.257-9.359,38.108-78.258,87.916-81.002,51.625-2.844,107.035,59.809,99.418,67.478-15.987,16.097-32.572-9.189-52.905-7.048-19.492,2.112-21.028,31.597-39.096,31.048Z" style="fill: #7e97ac; opacity: .857;"/>
              <path d="m592.896,115.669c-23.888-.673-26.043-24.222-43.507-28.421-14.094-3.402-35.685,26.051-50.382,18.325-17.171-9.026,36.872-77.311,86.767-80.137,52.781-3.141,106.646,59.566,99.233,66.899-16.076,15.903-32.976-10.402-53.493-8.365-19.512,1.979-21.383,32.201-38.619,31.698Z" style="fill: #7792a7; opacity: .905;"/>
              <path d="m592.468,114.606c-23.501-.639-26.113-24.668-43.254-28.878-13.92-3.425-35.192,26.274-49.191,19.163-17.091-8.682,35.642-76.262,85.619-79.272,53.943-3.328,106.255,59.321,99.048,66.32-16.17,15.703-33.381-11.614-54.08-9.683-19.532,1.845-21.739,32.806-38.143,32.35Z" style="fill: #708ca3; opacity: .952;"/>
              <path d="m592.039,113.542c-23.113-.605-26.183-25.114-43-29.334-13.746-3.449-34.701,26.503-48,20-17.016-8.322,34.411-75.212,84.471-78.407,55.105-3.518,105.863,59.074,98.863,65.741-16.27,15.496-33.785-12.827-54.667-11-19.553,1.711-22.094,33.409-37.667,33Z" style="fill: #69869e;"/>
            </g>
            <path d="m499.539,107.819c12.793,3.57,30.055-23.635,47-22.279,12.5,1,20.016,29.209,39.5,30,25,1.015,28.625-32.85,41.5-34.5,19.5-2.5,41.5,32,58.5,9.5,1.246-1.649,2.02-3.557,2.39-5.664-18.999-23.11-40.033-49.059-71.71-63.012-49.743-21.908-94.849,16.654-131.047,61.469-1.378,11.149,2.047,21.188,13.867,24.486Z" style="fill: #fff;"/>
            <path d="m499.539,109.821c12.793,3.57,30.055-23.635,47-22.279,12.5,1,20.016,29.209,39.5,30,25,1.015,28.625-32.85,41.5-34.5,19.5-2.5,41.5,32,58.5,9.5,1.246-1.649,2.02-3.557,2.39-5.664-18.999-23.11-40.033-49.059-71.71-63.012-49.743-21.908-94.849,16.654-131.047,61.469-1.378,11.149,2.047,21.188,13.867,24.486Z" style="fill: #e1f0fa;"/>
          </g>
          <g>
            <g style="mix-blend-mode: multiply;">
              <path d="m1258.782,146.24c-25.076,1.634-53.743,20.968-69.243,6.801-17.065-15.597,26.849-69.604,73.182-68.939,29.434.423,78.32,53.483,68.568,62.689-22.25,21-49.604-2.043-72.507-.551Z" style="fill: #fff; opacity: 0;"/>
              <path d="m1258.675,144.862c-24.715,1.52-53.077,20.771-68.207,7.045-16.981-15.318,26.292-68.279,72.126-67.629,29.937.42,77.59,52.771,67.969,61.847-21.764,20.533-48.909-2.634-71.888-1.263Z" style="fill: #f8f9fa; opacity: .048;"/>
              <path d="m1258.568,143.484c-24.354,1.406-52.376,20.532-67.172,7.288-16.856-15.089,25.735-66.955,71.07-66.32,30.442.419,76.859,52.059,67.37,61.007-21.278,20.064-48.215-3.225-71.269-1.975Z" style="fill: #f1f3f6; opacity: .095;"/>
              <path d="m1258.462,142.105c-23.997,1.232-51.695,20.317-66.137,7.532-16.754-14.833,25.178-65.629,70.015-65.011,30.945.417,76.129,51.347,66.77,60.165-20.792,19.598-47.523-3.874-70.648-2.686Z" style="fill: #eaeef1; opacity: .143;"/>
              <path d="m1258.354,140.727c-23.637,1.104-51.016,20.104-65.101,7.775-16.651-14.576,24.621-64.304,68.959-63.7,31.45.414,75.399,50.634,66.172,59.323-20.307,19.13-46.829-4.481-70.03-3.398Z" style="fill: #e2e8ed; opacity: .19;"/>
              <path d="m1258.248,139.348c-23.276.977-50.34,19.894-64.066,8.02-16.553-14.317,24.064-62.98,67.904-62.392,31.954.412,74.669,49.921,65.572,58.481-19.82,18.663-46.135-5.086-69.41-4.109Z" style="fill: #dbe2e8; opacity: .238;"/>
              <path d="m1258.142,137.969c-22.916.853-49.665,19.683-63.031,8.263-16.455-14.059,23.508-61.653,66.849-61.081,32.458.41,73.938,49.209,64.973,57.641-19.333,18.195-45.439-5.69-68.79-4.822Z" style="fill: #d4dce3; opacity: .286;"/>
              <path d="m1258.034,136.59c-22.555.731-48.99,19.476-61.995,8.507-16.358-13.797,22.951-60.329,65.793-59.771,32.962.407,73.208,48.495,64.373,56.799-18.847,17.727-44.743-6.293-68.171-5.534Z" style="fill: #cdd7df; opacity: .333;"/>
              <path d="m1257.928,135.212c-22.193.61-48.319,19.269-60.96,8.75-16.265-13.534,22.394-59.003,64.737-58.463,33.467.405,72.478,47.784,63.774,55.958-18.361,17.261-44.05-6.892-67.552-6.245Z" style="fill: #c6d1da; opacity: .381;"/>
              <path d="m1257.82,133.834c-21.831.492-47.65,19.064-59.924,8.993-16.172-13.269,21.837-57.679,63.682-57.153,33.971.403,71.748,47.071,63.176,55.117-17.876,16.792-43.355-7.489-66.933-6.957Z" style="fill: #bfcbd5; opacity: .429;"/>
              <path d="m1257.714,132.455c-21.471.377-46.982,18.863-58.89,9.236-16.081-13.002,21.281-56.353,62.627-55.843,34.475.401,71.018,46.358,62.576,54.275-17.39,16.325-42.66-8.084-66.313-7.669Z" style="fill: #b8c5d1; opacity: .476;"/>
              <path d="m1257.608,131.076c-21.109.264-46.317,18.664-57.854,9.48-15.995-12.732,20.724-55.027,61.57-54.533,34.978.399,70.287,45.647,61.976,53.435-16.903,15.857-41.964-8.678-65.693-8.382Z" style="fill: #b0c0cc; opacity: .524;"/>
              <path d="m1257.5,129.698c-20.747.152-45.654,18.468-56.818,9.725-15.909-12.46,20.167-53.702,60.516-53.225,35.482.397,69.557,44.934,61.378,52.594-16.418,15.39-41.269-9.269-65.075-9.094Z" style="fill: #a9bac8; opacity: .571;"/>
              <path d="m1257.394,128.32c-20.387.045-44.993,18.273-55.783,9.968-15.828-12.184,19.61-52.377,59.46-51.915,35.986.394,68.826,44.222,60.778,51.752-15.932,14.923-40.573-9.856-64.455-9.805Z" style="fill: #a2b4c3; opacity: .619;"/>
              <path d="m1257.287,126.941c-20.025-.062-44.336,18.082-54.748,10.212-15.749-11.903,19.054-51.053,58.404-50.605,36.491.392,68.096,43.509,60.179,50.911-15.445,14.455-39.877-10.443-63.835-10.518Z" style="fill: #9baebe; opacity: .667;"/>
              <path d="m1257.18,125.563c-19.663-.167-43.679,17.893-53.712,10.455-15.673-11.619,18.497-49.728,57.349-49.296,36.995.391,67.366,42.797,59.58,50.069-14.96,13.987-39.183-11.024-63.217-11.228Z" style="fill: #94a9ba; opacity: .714;"/>
              <path d="m1257.073,124.184c-19.303-.27-43.024,17.708-52.677,10.699-15.602-11.329,17.939-48.402,56.293-47.986,37.499.388,66.636,42.084,58.98,49.228-14.473,13.52-38.487-11.605-62.597-11.94Z" style="fill: #8da3b5; opacity: .762;"/>
              <path d="m1256.966,122.805c-18.941-.369-42.371,17.526-51.641,10.943-15.534-11.033,17.383-47.077,55.237-46.677,38.004.386,65.905,41.371,58.382,48.387-13.987,13.052-37.793-12.183-61.978-12.653Z" style="fill: #869db0; opacity: .81;"/>
              <path d="m1256.859,121.427c-18.581-.468-41.721,17.348-50.606,11.186-15.471-10.728,16.827-45.751,54.183-45.366,38.507.383,65.175,40.658,57.782,47.545-13.501,12.585-37.098-12.753-61.358-13.364Z" style="fill: #7e97ac; opacity: .857;"/>
              <path d="m1256.753,120.048c-18.221-.563-41.073,17.173-49.571,11.431-15.413-10.415,16.271-44.428,53.127-44.059,39.012.382,64.445,39.947,57.183,46.704-13.015,12.118-36.402-13.323-60.738-14.076Z" style="fill: #7792a7; opacity: .905;"/>
              <path d="m1256.646,118.67c-17.86-.637-40.426,17.001-48.535,11.673-15.36-10.093,15.713-43.102,52.071-42.748,39.516.379,63.715,39.234,56.583,45.862-12.528,11.65-35.71-13.858-60.119-14.787Z" style="fill: #708ca3; opacity: .952;"/>
              <path d="m1256.539,117.291c-17.5-.75-39.781,16.835-47.5,11.917-15.314-9.758,15.156-41.776,51.016-41.439,40.02.377,62.984,38.522,55.984,45.022-12.043,11.183-35.016-14.45-59.5-15.5Z" style="fill: #69869e;"/>
            </g>
            <path d="m1197.039,134.54c10.334,6.666,39.315-15.041,58.666-14,26.156,1.407,42.668,17,56.668,14.666,10.477-1.747,10.25-8.75,7.742-14.14-16.953-22.676-36.055-37.556-60.465-37.556-27.508,0-48.23,15.062-68.518,34.976-2.453,6.697-2.578,10.581,5.906,16.054Z" style="fill: #fff;"/>
            <path d="m1197.039,136.542c10.334,6.666,39.315-15.041,58.666-14,26.156,1.407,42.668,17,56.668,14.666,10.477-1.747,10.25-8.75,7.742-14.14-16.953-22.676-36.055-37.556-60.465-37.556-27.508,0-48.23,15.062-68.518,34.976-2.453,6.697-2.578,10.581,5.906,16.054Z" style="fill: #e1f0fa;"/>
          </g>
        </g>
      </g>
    </g>
  </g>
</svg>