<?xml version="1.0" encoding="UTF-8"?>
<svg xmlns="http://www.w3.org/2000/svg" xmlns:xlink="http://www.w3.org/1999/xlink" viewBox="0 0 307.787 315.005">
    <defs>
        <linearGradient id="linear-gradient" x1="136.567" y1="25.345" x2="168.522" y2="57.3"
                        gradientUnits="userSpaceOnUse">
            <stop offset="0" stop-color="#ffd45c"/>
            <stop offset="1" stop-color="#ff9d00"/>
        </linearGradient>
        <linearGradient id="linear-gradient-2" x1="136.567" y1="248.077" x2="168.522" y2="280.033"
                        xlink:href="#linear-gradient"/>
        <linearGradient id="linear-gradient-3" x1="2417.658" y1="1033.12" x2="2385.702" y2="1065.076"
                        gradientTransform="translate(-1007.919 2554.369) rotate(-90)" xlink:href="#linear-gradient"/>
        <linearGradient id="linear-gradient-4" x1="2417.657" y1="1255.852" x2="2385.702" y2="1287.807"
                        gradientTransform="translate(-1007.919 2554.369) rotate(-90)" xlink:href="#linear-gradient"/>
        <linearGradient id="linear-gradient-5" x1="2380.004" y1="2382.477" x2="2347.411" y2="2382.477"
                        gradientTransform="translate(60.524 3587.463) rotate(-135)" xlink:href="#linear-gradient"/>
        <linearGradient id="linear-gradient-6" x1="2380.004" y1="2605.212" x2="2347.408" y2="2605.212"
                        gradientTransform="translate(60.524 3587.463) rotate(-135)" xlink:href="#linear-gradient"/>
        <linearGradient id="linear-gradient-7" x1="60.702" y1="3292.142" x2="60.702" y2="3228.375"
                        gradientTransform="translate(2579.545 2493.842) rotate(135)" xlink:href="#linear-gradient"/>
        <linearGradient id="linear-gradient-8" x1="60.703" y1="3514.877" x2="60.703" y2="3451.11"
                        gradientTransform="translate(2579.545 2493.842) rotate(135)" xlink:href="#linear-gradient"/>
        <linearGradient id="linear-gradient-9" x1="238.771" y1="178.643" x2="272.097" y2="211.97"
                        gradientUnits="userSpaceOnUse">
            <stop offset="0" stop-color="#ffbb31"/>
            <stop offset="1" stop-color="#ff9d00"/>
        </linearGradient>
        <linearGradient id="linear-gradient-10" x1="32.989" y1="93.405" x2="66.319" y2="126.735"
                        xlink:href="#linear-gradient-9"/>
        <linearGradient id="linear-gradient-11" x1="93.264" y1="33.136" x2="126.591" y2="66.463"
                        xlink:href="#linear-gradient-9"/>
        <linearGradient id="linear-gradient-12" x1="178.499" y1="238.915" x2="211.826" y2="272.241"
                        xlink:href="#linear-gradient-9"/>
        <linearGradient id="linear-gradient-13" x1="39.782" y1="185.433" x2="59.531" y2="205.182"
                        xlink:href="#linear-gradient-9"/>
        <linearGradient id="linear-gradient-14" x1="245.559" y1="100.194" x2="265.309" y2="119.944"
                        xlink:href="#linear-gradient-9"/>
        <linearGradient id="linear-gradient-15" x1="100.053" y1="245.702" x2="119.804" y2="265.453"
                        xlink:href="#linear-gradient-9"/>
        <linearGradient id="linear-gradient-16" x1="185.288" y1="39.923" x2="205.037" y2="59.673"
                        xlink:href="#linear-gradient-9"/>
        <linearGradient id="linear-gradient-17" x1="88.346" y1="88.489" x2="216.744" y2="216.886"
                        xlink:href="#linear-gradient"/>
    </defs>
    <g id="sun">
        <g>
            <path d="m167.359,39.839c0,17.607-16.301,31.883-16.301,31.883,0,0-16.295-14.275-16.295-31.883s16.295-31.888,16.295-31.888c0,0,16.301,14.275,16.301,31.888Z"
                  style="fill: #ffe3ab;"/>
            <path d="m167.359,262.57c0,17.612-16.301,31.883-16.301,31.883,0,0-16.295-14.27-16.295-31.883s16.295-31.883,16.295-31.883c0,0,16.301,14.272,16.301,31.883Z"
                  style="fill: #ffe3ab;"/>
            <path d="m39.694,134.907c17.607,0,31.884,16.3,31.884,16.3,0,0-14.276,16.295-31.884,16.295s-31.888-16.295-31.888-16.295c0,0,14.276-16.3,31.888-16.3Z"
                  style="fill: #ffe3ab;"/>
            <path d="m262.426,134.907c17.612,0,31.888,16.3,31.888,16.3,0,0-14.275,16.295-31.888,16.295s-31.888-16.295-31.888-16.295c0,0,14.28-16.3,31.888-16.3Z"
                  style="fill: #ffe3ab;"/>
            <path d="m60.789,218.428c12.45-12.449,34.068-11.02,34.068-11.02,0,0,1.431,21.618-11.018,34.067-12.454,12.449-34.073,11.024-34.073,11.024,0,0-1.43-21.623,11.023-34.072Z"
                  style="fill: #ffe3ab;"/>
            <path d="m218.283,60.929c12.454-12.449,34.072-11.02,34.072-11.02,0,0,1.431,21.619-11.023,34.068-12.449,12.454-34.067,11.024-34.067,11.024,0,0-1.43-21.619,11.019-34.073Z"
                  style="fill: #ffe3ab;"/>
            <path d="m218.283,241.476c-12.453-12.449-11.019-34.067-11.019-34.067,0,0,21.613-1.43,34.067,11.02,12.454,12.453,11.023,34.072,11.023,34.072,0,0-21.618,1.425-34.072-11.024Z"
                  style="fill: #ffe3ab;"/>
            <path d="m60.785,83.978c-12.449-12.449-11.019-34.068-11.019-34.068,0,0,21.619-1.43,34.073,11.02,12.449,12.454,11.018,34.073,11.018,34.073,0,0-21.618,1.43-34.072-11.024Z"
                  style="fill: #ffe3ab;"/>
        </g>
        <g>
            <path d="m248.959,205.865c-13.012-5.39-18.575-21.803-18.575-21.803,0,0,15.54-7.679,28.556-2.284,13.016,5.39,18.574,21.803,18.574,21.803,0,0-15.54,7.678-28.555,2.284Z"
                  style="fill: #ffe3ab;"/>
            <path d="m43.182,120.631c-13.016-5.389-18.58-21.807-18.58-21.807,0,0,15.541-7.674,28.556-2.284,13.016,5.39,18.58,21.808,18.58,21.808,0,0-15.541,7.678-28.556,2.283Z"
                  style="fill: #ffe3ab;"/>
            <path d="m120.488,43.326c5.389,13.016-2.285,28.551-2.285,28.551,0,0-16.418-5.559-21.807-18.574-5.39-13.016,2.284-28.556,2.284-28.556,0,0,16.417,5.564,21.808,18.579Z"
                  style="fill: #ffe3ab;"/>
            <path d="m205.725,249.102c5.39,13.016-2.284,28.561-2.284,28.561,0,0-16.418-5.564-21.807-18.579-5.395-13.016,2.283-28.556,2.283-28.556,0,0,16.413,5.56,21.808,18.574Z"
                  style="fill: #ffe3ab;"/>
            <path d="m43.182,181.778c13.015-5.395,28.556,2.284,28.556,2.284,0,0-5.564,16.413-18.58,21.803-13.011,5.394-28.556-2.284-28.556-2.284,0,0,5.564-16.413,18.58-21.803Z"
                  style="fill: #ffe3ab;"/>
            <path d="m248.963,96.54c13.011-5.39,28.551,2.284,28.551,2.284,0,0-5.559,16.413-18.574,21.807-13.016,5.395-28.556-2.283-28.556-2.283,0,0,5.563-16.418,18.579-21.808Z"
                  style="fill: #ffe3ab;"/>
            <path d="m96.396,249.102c5.389-13.015,21.807-18.574,21.807-18.574,0,0,7.674,15.54,2.285,28.556-5.391,13.016-21.808,18.579-21.808,18.579,0,0-7.674-15.545-2.284-28.561Z"
                  style="fill: #ffe3ab;"/>
            <path d="m181.635,43.326c5.389-13.016,21.807-18.579,21.807-18.579,0,0,7.674,15.54,2.284,28.556-5.39,13.016-21.808,18.574-21.808,18.574,0,0-7.678-15.535-2.283-28.551Z"
                  style="fill: #ffe3ab;"/>
        </g>
        <g>
            <path d="m168.84,41.32c0,17.612-16.295,31.888-16.295,31.888,0,0-16.295-14.275-16.295-31.888s16.295-31.883,16.295-31.883c0,0,16.295,14.275,16.295,31.883Z"
                  style="fill: url(#linear-gradient);"/>
            <path d="m168.84,264.058c0,17.606-16.295,31.883-16.295,31.883,0,0-16.295-14.276-16.295-31.883s16.295-31.888,16.295-31.888c0,0,16.295,14.275,16.295,31.888Z"
                  style="fill: url(#linear-gradient-2);"/>
            <path d="m41.176,136.389c17.612,0,31.888,16.301,31.888,16.301,0,0-14.275,16.3-31.888,16.3s-31.883-16.3-31.883-16.3c0,0,14.275-16.301,31.883-16.301Z"
                  style="fill: url(#linear-gradient-3);"/>
            <path d="m263.914,136.389c17.606,0,31.882,16.301,31.882,16.301,0,0-14.275,16.3-31.882,16.3s-31.888-16.3-31.888-16.3c0,0,14.275-16.301,31.888-16.301Z"
                  style="fill: url(#linear-gradient-4);"/>
            <path d="m62.271,219.914c12.454-12.454,34.072-11.02,34.072-11.02,0,0,1.43,21.614-11.023,34.063-12.449,12.454-34.068,11.023-34.068,11.023,0,0-1.43-21.618,11.02-34.067Z"
                  style="fill: url(#linear-gradient-5);"/>
            <path d="m219.769,62.415c12.449-12.454,34.068-11.019,34.068-11.019,0,0,1.431,21.613-11.019,34.067-12.454,12.454-34.072,11.019-34.072,11.019,0,0-1.431-21.614,11.023-34.068Z"
                  style="fill: url(#linear-gradient-6);"/>
            <path d="m219.769,242.958c-12.454-12.449-11.023-34.063-11.023-34.063,0,0,21.618-1.435,34.072,11.02,12.45,12.449,11.019,34.067,11.019,34.067,0,0-21.619,1.431-34.068-11.023Z"
                  style="fill: url(#linear-gradient-7);"/>
            <path d="m62.271,85.464c-12.449-12.454-11.02-34.067-11.02-34.067,0,0,21.619-1.436,34.068,11.019,12.453,12.454,11.023,34.068,11.023,34.068,0,0-21.618,1.435-34.072-11.019Z"
                  style="fill: url(#linear-gradient-8);"/>
        </g>
        <g>
            <path d="m250.444,207.352c-13.015-5.39-18.574-21.808-18.574-21.808,0,0,15.536-7.673,28.556-2.284,13.011,5.395,18.574,21.808,18.574,21.808,0,0-15.54,7.678-28.556,2.284Z"
                  style="fill: url(#linear-gradient-9);"/>
            <path d="m44.664,122.118c-13.011-5.39-18.575-21.812-18.575-21.812,0,0,15.541-7.673,28.557-2.279,13.016,5.39,18.575,21.808,18.575,21.808,0,0-15.541,7.674-28.557,2.284Z"
                  style="fill: url(#linear-gradient-10);"/>
            <path d="m121.973,44.809c5.39,13.016-2.284,28.556-2.284,28.556,0,0-16.417-5.56-21.807-18.575-5.394-13.016,2.284-28.556,2.284-28.556,0,0,16.413,5.56,21.807,18.575Z"
                  style="fill: url(#linear-gradient-11);"/>
            <path d="m207.207,250.589c5.395,13.016-2.284,28.556-2.284,28.556,0,0-16.413-5.56-21.802-18.574-5.394-13.016,2.283-28.561,2.283-28.561,0,0,16.414,5.564,21.803,18.579Z"
                  style="fill: url(#linear-gradient-12);"/>
            <path d="m44.669,183.26c13.011-5.389,28.552,2.284,28.552,2.284,0,0-5.56,16.418-18.575,21.808-13.016,5.394-28.557-2.284-28.557-2.284,0,0,5.564-16.413,18.58-21.808Z"
                  style="fill: url(#linear-gradient-13);"/>
            <path d="m250.444,98.021c13.016-5.389,28.556,2.284,28.556,2.284,0,0-5.563,16.418-18.574,21.812-13.016,5.39-28.556-2.284-28.556-2.284,0,0,5.56-16.418,18.574-21.812Z"
                  style="fill: url(#linear-gradient-14);"/>
            <path d="m97.883,250.589c5.39-13.016,21.807-18.579,21.807-18.579,0,0,7.674,15.54,2.284,28.561-5.394,13.015-21.807,18.574-21.807,18.574,0,0-7.674-15.54-2.284-28.556Z"
                  style="fill: url(#linear-gradient-15);"/>
            <path d="m183.116,44.809c5.394-13.016,21.807-18.575,21.807-18.575,0,0,7.679,15.535,2.284,28.556-5.389,13.011-21.803,18.575-21.803,18.575,0,0-7.678-15.54-2.288-28.556Z"
                  style="fill: url(#linear-gradient-16);"/>
        </g>
        <path d="m241.851,151.207c0,50.137-40.647,90.788-90.793,90.788s-90.788-40.651-90.788-90.788,40.646-90.797,90.788-90.797,90.793,40.65,90.793,90.797Z"
              style="fill: #ffe3ab;"/>
        <path d="m243.338,152.689c0,50.141-40.651,90.787-90.793,90.787s-90.793-40.646-90.793-90.787,40.652-90.793,90.793-90.793,90.793,40.65,90.793,90.793Z"
              style="fill: url(#linear-gradient-17);"/>
    </g>
</svg>