<!-- Created with Inkscape (http://www.inkscape.org/) -->
<svg id="marmot" viewBox="0 0 68 100" xmlns="http://www.w3.org/2000/svg"><defs><linearGradient id="linear-gradient" x1="77.238" x2="816.14" y1="623.79" y2="1050.4" gradientUnits="userSpaceOnUse"><stop stop-color="#6b492f" offset="0"/><stop
        stop-color="#815738" offset=".597"/><stop stop-color="#8b5e3c" offset="1"/></linearGradient><linearGradient
        id="linear-gradient-2" x1="104.77" x2="796.66" y1="576.59" y2="976.06" gradientUnits="userSpaceOnUse"><stop stop-color="#4f2f10" offset="0"/>
    <stop stop-color="#573411" offset=".41"/>
    <stop stop-color="#603913" offset="1"/></linearGradient><linearGradient id="linear-gradient-4" x1="636.25"
                                                                            x2="761.75" y1="975.83" y2="1048.3"
                                                                            gradientUnits="userSpaceOnUse"><stop stop-color="#997854" offset="0"/>
    <stop stop-color="#9e7c56" offset=".063"/>
    <stop stop-color="#b38c62" offset=".386"/>
    <stop stop-color="#bf9669" offset=".701"/>
    <stop stop-color="#c49a6c" offset="1"/></linearGradient><linearGradient id="linear-gradient-5" x1="268.74"
                                                                            x2="592.26" y1="184.13" y2="370.92"
                                                                            gradientUnits="userSpaceOnUse"><stop stop-color="#7a5335" offset="0"/>
    <stop stop-color="#855a39" offset=".496"/>
    <stop stop-color="#8b5e3c" offset="1"/></linearGradient><linearGradient id="linear-gradient-6" x1="335.96"
                                                                            x2="488.12" y1="245.04" y2="332.89"
                                                                            gradientUnits="userSpaceOnUse"><stop stop-color="#a3805a" offset="0"/>
    <stop stop-color="#ae8960" offset=".236"/>
    <stop stop-color="#be9569" offset=".663"/>
    <stop stop-color="#c49a6c" offset="1"/></linearGradient><linearGradient id="linear-gradient-7" x1="373.45" x2="436"
                                                                            y1="235.24" y2="271.35"
                                                                            gradientUnits="userSpaceOnUse"><stop stop-color="#d9a9ab" offset="0"/>
    <stop stop-color="#dfaeb0" offset=".153"/>
    <stop stop-color="#e9b6b8" offset=".538"/>
    <stop stop-color="#edb9bb" offset="1"/></linearGradient></defs>
    <g transform="translate(.17458 -20.577)"><g id="marmot" transform="matrix(.26458 0 0 .26458 -.175 5.6443)" style="isolation:isolate"><path d="m732.23 584.88c-43.692-72.613-102.7-136.01-159.14-199.03-6e-3 -8e-3 -0.014-0.012-0.02-0.019 0 0-9e-3 -0.01-0.012-0.015-7e-3 -6e-3 -0.014-0.011-0.021-0.019-4e-3 -4e-3 -7e-3 -0.01-0.012-0.014 0 0-0.014-0.012-0.02-0.019-5e-3 -5e-3 -9e-3 -0.01-9e-3 -0.01-0.011-0.012-0.019-0.016-0.026-0.025 0 0-7e-3 -7e-3 -0.011-0.012-6e-3 -6e-3 -0.012-0.011-0.019-0.017-5e-3 -5e-3 -9e-3 -0.011-0.014-0.016-6e-3 -6e-3 -0.014-0.011-0.02-0.017-5e-3 -5e-3 -9e-3 -0.01-9e-3 -0.01-0.011-0.012-0.019-0.016-0.025-0.023 0 0-9e-3 -0.01-0.012-0.015-8e-3 -7e-3 -0.015-0.011-0.021-0.02-4e-3 -4e-3 -9e-3 -7e-3 -0.012-0.012-5e-3 -6e-3 -0.012-0.01-0.019-0.017-4e-3 -5e-3 -9e-3 -0.01-9e-3 -0.01-0.011-0.012-0.019-0.017-0.025-0.024 0 0-9e-3 -0.01-0.012-0.015 0 0-0.014-0.011-0.021-0.019-4e-3 -4e-3 -7e-3 -0.01-0.012-0.014-6e-3 -8e-3 -0.014-0.013-0.02-0.019-5e-3 -5e-3 -9e-3 -0.01-9e-3 -0.01-0.011-0.012-0.019-0.017-0.026-0.025 0 0-8e-3 -9e-3 -0.011-0.012 0 0-0.012-0.011-0.019-0.017-5e-3 -5e-3 -9e-3 -0.011-0.014-0.016-6e-3 -6e-3 -0.014-0.011-0.02-0.017l-0.014-0.015c-6e-3 -7e-3 -0.014-0.011-0.02-0.019-4e-3 -5e-3 -9e-3 -0.01-0.012-0.015 0 0-0.015-0.011-0.021-0.02-5e-3 -4e-3 -9e-3 -9e-3 -9e-3 -9e-3 -0.01-0.011-0.016-0.014-0.022-0.021 0 0-9e-3 -0.01-0.014-0.015-6e-3 -7e-3 -0.014-0.012-0.02-0.019-5e-3 -5e-3 -9e-3 -0.01-0.012-0.015-7e-3 -6e-3 -0.014-0.011-0.021-0.019-4e-3 -5e-3 -7e-3 -0.01-7e-3 -0.01-0.011-0.011-0.019-0.016-0.025-0.022 0 0-9e-3 -0.01-0.012-0.015-8e-3 -7e-3 -0.015-0.012-0.022-0.02-4e-3 -4e-3 -7e-3 -9e-3 -0.011-0.012-6e-3 -7e-3 -0.012-0.011-0.019-0.017-5e-3 -5e-3 -0.01-0.011-0.01-0.011-0.011-0.011-0.018-0.016-0.025-0.022l-0.012-0.015c-6e-3 -7e-3 -0.014-0.011-0.02-0.019-4e-3 -5e-3 -9e-3 -0.01-0.012-0.015-7e-3 -7e-3 -0.015-0.012-0.022-0.02-4e-3 -4e-3 -7e-3 -9e-3 -7e-3 -9e-3 -0.01-0.011-0.016-0.014-0.022-0.021-4e-3 -5e-3 -9e-3 -0.01-0.014-0.015 0 0-0.013-0.012-0.02-0.019-5e-3 -6e-3 -9e-3 -0.01-0.012-0.015-7e-3 -7e-3 -0.014-0.011-0.021-0.019-4e-3 -5e-3 -9e-3 -0.01-9e-3 -0.01-0.011-0.011-0.019-0.016-0.025-0.024 0 0-7e-3 -9e-3 -0.011-0.014 0 0-0.014-0.011-0.021-0.019-4e-3 -5e-3 -9e-3 -9e-3 -9e-3 -9e-3 -0.01-0.012-0.016-0.016-0.022-0.022 0 0-0.01-0.011-0.014-0.016-7e-3 -7e-3 -0.014-0.011-0.021-0.017-4e-3 -6e-3 -7e-3 -0.01-0.012-0.015-6e-3 -7e-3 -0.014-0.011-0.02-0.019-5e-3 -5e-3 -9e-3 -0.01-9e-3 -0.01-0.011-0.012-0.019-0.017-0.026-0.025 0 0-7e-3 -9e-3 -0.011-0.012-6e-3 -7e-3 -0.012-0.01-0.019-0.017-5e-3 -5e-3 -9e-3 -0.01-0.014-0.015-6e-3 -9e-3 -0.014-0.012-0.02-0.019-5e-3 -6e-3 -9e-3 -0.01-9e-3 -0.01-0.011-0.012-0.019-0.016-0.025-0.024 0 0-9e-3 -0.01-0.012-0.014-8e-3 -7e-3 -0.015-0.012-0.021-0.02-4e-3 -5e-3 -7e-3 -9e-3 -0.012-0.014-5e-3 -6e-3 -0.012-0.01-0.019-0.017-4e-3 -5e-3 -9e-3 -0.01-9e-3 -0.01-0.011-0.012-0.019-0.016-0.025-0.024 0 0-9e-3 -0.01-0.012-0.015 0 0-0.013-0.011-0.021-0.019-4e-3 -5e-3 -7e-3 -9e-3 -0.012-0.014-6e-3 -7e-3 -0.014-0.011-0.02-0.019-5e-3 -5e-3 -9e-3 -0.01-9e-3 -0.01-0.011-0.012-0.019-0.017-0.026-0.025 0 0-7e-3 -9e-3 -0.011-0.012 0 0-0.012-0.011-0.019-0.017-5e-3 -5e-3 -9e-3 -0.01-0.014-0.015-6e-3 -9e-3 -0.014-0.012-0.02-0.02l-0.014-0.014c-6e-3 -7e-3 -0.014-0.011-0.02-0.019-4e-3 -5e-3 -9e-3 -0.01-0.012-0.014 0 0-0.015-0.012-0.021-0.02-4e-3 -5e-3 -9e-3 -9e-3 -9e-3 -9e-3 -9e-3 -0.011-0.016-0.015-0.022-0.022 0 0-9e-3 -0.01-0.014-0.015-6e-3 -7e-3 -0.014-0.011-0.02-0.02-5e-3 -4e-3 -9e-3 -9e-3 -0.012-0.014-7e-3 -7e-3 -0.014-0.011-0.021-0.019-4e-3 -5e-3 -7e-3 -9e-3 -7e-3 -9e-3 -0.011-0.012-0.019-0.016-0.025-0.025 0 0-9e-3 -9e-3 -0.012-0.014-8e-3 -7e-3 -0.015-0.012-0.022-0.02-4e-3 -4e-3 -7e-3 -9e-3 -0.011-0.012-6e-3 -7e-3 -0.012-0.011-0.019-0.017-5e-3 -5e-3 -9e-3 -0.01-9e-3 -0.01-0.011-0.014-0.019-0.017-0.025-0.025l-0.014-0.014s-0.014-0.011-0.02-0.019c-4e-3 -5e-3 -9e-3 -0.01-0.012-0.014-7e-3 -9e-3 -0.015-0.012-0.021-0.02-5e-3 -5e-3 -8e-3 -9e-3 -8e-3 -9e-3 -0.01-0.011-0.016-0.015-0.022-0.022-4e-3 -5e-3 -9e-3 -0.01-0.014-0.015 0 0-0.014-0.011-0.02-0.02-5e-3 -4e-3 -9e-3 -9e-3 -0.012-0.014-7e-3 -7e-3 -0.014-0.011-0.021-0.019-4e-3 -5e-3 -7e-3 -9e-3 -7e-3 -9e-3 -0.012-0.014-0.02-0.017-0.026-0.025 0 0-7e-3 -9e-3 -0.011-0.014 0 0-0.014-0.011-0.021-0.019-4e-3 -5e-3 -7e-3 -9e-3 -7e-3 -9e-3 -0.011-0.012-0.017-0.016-0.023-0.022 0 0-0.01-0.01-0.014-0.016-6e-3 -7e-3 -0.014-0.011-0.021-0.019-4e-3 -5e-3 -7e-3 -9e-3 -0.012-0.014 0 0-0.014-0.011-0.02-0.019-4e-3 -5e-3 -9e-3 -0.01-9e-3 -0.01-0.011-0.012-0.019-0.016-0.026-0.024 0 0-7e-3 -9e-3 -0.011-0.014-6e-3 -6e-3 -0.012-0.01-0.019-0.017-4e-3 -5e-3 -9e-3 -0.01-0.014-0.015-6e-3 -7e-3 -0.014-0.011-0.02-0.02-5e-3 -4e-3 -9e-3 -9e-3 -9e-3 -9e-3 -0.011-0.012-0.017-0.016-0.025-0.024 0 0-9e-3 -9e-3 -0.012-0.014-8e-3 -9e-3 -0.015-0.012-0.021-0.02-3e-3 -5e-3 -7e-3 -9e-3 -0.011-0.014-6e-3 -6e-3 -0.014-0.01-0.02-0.017-4e-3 -5e-3 -9e-3 -0.01-9e-3 -0.01-0.011-0.013-0.019-0.016-0.025-0.024 0 0-9e-3 -0.01-0.012-0.015 0 0-0.013-0.011-0.021-0.019-4e-3 -5e-3 -7e-3 -9e-3 -0.012-0.014-6e-3 -7e-3 -0.014-0.011-0.02-0.019-5e-3 -5e-3 -9e-3 -0.01-9e-3 -0.01-0.011-0.012-0.019-0.016-0.026-0.024 0 0-8e-3 -9e-3 -0.011-0.014 0 0-0.012-0.01-0.019-0.017-4e-3 -5e-3 -9e-3 -0.01-0.014-0.015-6e-3 -7e-3 -0.014-0.012-0.02-0.02l-0.014-0.014c-6e-3 -7e-3 -0.014-0.011-0.02-0.019-4e-3 -5e-3 -9e-3 -9e-3 -0.012-0.014 0 0-0.015-0.012-0.021-0.02l-0.012-0.014c-5e-3 -6e-3 -0.012-0.01-0.019-0.017 0 0-9e-3 -0.01-0.014-0.015-6e-3 -7e-3 -0.014-0.011-0.02-0.019-5e-3 -5e-3 -9e-3 -0.01-0.012-0.015-7e-3 -7e-3 -0.014-0.011-0.021-0.019-4e-3 -5e-3 -7e-3 -9e-3 -7e-3 -9e-3 -0.011-0.012-0.019-0.016-0.025-0.024 0 0-9e-3 -0.01-0.012-0.015-8e-3 -7e-3 -0.015-0.011-0.022-0.02-4e-3 -4e-3 -7e-3 -7e-3 -0.011-0.012-6e-3 -6e-3 -0.012-0.01-0.019-0.017-5e-3 -5e-3 -9e-3 -0.01-9e-3 -0.01-0.011-0.012-0.019-0.017-0.025-0.025l-0.014-0.014s-0.014-0.011-0.02-0.019c-4e-3 -5e-3 -9e-3 -0.01-0.012-0.014-7e-3 -9e-3 -0.015-0.012-0.021-0.021-4e-3 -4e-3 -9e-3 -7e-3 -9e-3 -7e-3 -9e-3 -0.011-0.016-0.015-0.022-0.022-4e-3 -5e-3 -9e-3 -0.01-0.014-0.015 0 0-0.013-0.011-0.02-0.019 0 0-9e-3 -0.01-0.012-0.015-7e-3 -7e-3 -0.014-0.011-0.021-0.019-4e-3 -5e-3 -8e-3 -9e-3 -8e-3 -9e-3 -0.012-0.014-0.019-0.017-0.026-0.026l-0.011-0.011s-0.014-0.012-0.021-0.02c-4e-3 -4e-3 -7e-3 -9e-3 -7e-3 -9e-3 -0.011-0.011-0.017-0.015-0.023-0.022 0 0-9e-3 -0.01-0.014-0.015-6e-3 -7e-3 -0.014-0.012-0.02-0.02-5e-3 -4e-3 -9e-3 -9e-3 -0.014-0.014 0 0-0.014-0.011-0.02-0.019-4e-3 -5e-3 -9e-3 -0.01-9e-3 -0.01-0.011-0.012-0.019-0.016-0.025-0.025 0 0-9e-3 -7e-3 -0.012-0.012-6e-3 -6e-3 -0.012-0.01-0.019-0.017-4e-3 -5e-3 -9e-3 -0.01-0.014-0.015-6e-3 -7e-3 -0.014-0.011-0.02-0.019-5e-3 -5e-3 -8e-3 -0.01-8e-3 -0.01-0.011-0.012-0.017-0.016-0.025-0.024 0 0-8e-3 -9e-3 -0.012-0.014-8e-3 -9e-3 -0.015-0.012-0.021-0.021l-0.011-0.011c-12.772-14.262-32.342 4.772-47.679 16.23-65.095 48.629-163.98 45.014-225.35-8.238-9.983-8.662-19.588-18.764-32.313-22.336-12.724-3.573-26.396-0.233-27.455 12.942-58.555 76.196-112.72 155.76-162.14 238.18-16.193 27.004-31.94 54.441-43.458 83.745-12.372 31.472-19.711 64.726-24.649 98.179-11.647 78.919-9.769 161.38 18.317 236.04 15.801 42.005 40.648 81.294 72.674 112.58l0.027 0.027c0.012 0.012 0.024 0.025 0.036 0.036 0.011 0.011 0.021 0.022 0.032 0.033 0.012 0.011 0.024 0.022 0.036 0.035 9e-3 0.01 0.019 0.019 0.027 0.027 0.012 0.013 0.024 0.025 0.036 0.036 0.011 0.011 0.021 0.022 0.032 0.033 0.011 0.01 0.022 0.021 0.033 0.032s0.024 0.022 0.035 0.035l0.029 0.029c0.011 0.011 0.022 0.024 0.035 0.035 0.011 0.011 0.021 0.022 0.032 0.034 0.012 0.011 0.024 0.022 0.036 0.035 9e-3 0.01 0.019 0.019 0.027 0.027 0.012 0.012 0.024 0.025 0.036 0.036 0.011 0.011 0.021 0.022 0.032 0.033 0.012 0.011 0.023 0.022 0.036 0.033 0.01 0.01 0.02 0.021 0.03 0.031l0.031 0.031c0.011 0.011 0.022 0.023 0.035 0.035 0.011 0.011 0.021 0.022 0.032 0.033 0.012 0.011 0.024 0.022 0.036 0.035 9e-3 0.01 0.019 0.019 0.027 0.027 0.012 0.012 0.024 0.025 0.036 0.036 0.011 0.011 0.021 0.022 0.032 0.034 0.012 0.011 0.024 0.022 0.036 0.034 9e-3 0.01 0.019 0.02 0.027 0.029 0.012 0.012 0.024 0.024 0.035 0.036 0.011 0.011 0.022 0.022 0.034 0.032 0.011 0.011 0.021 0.022 0.032 0.033 0.012 0.011 0.023 0.022 0.036 0.035l0.027 0.027c0.012 0.012 0.024 0.025 0.036 0.036 0.011 0.011 0.021 0.022 0.032 0.034l0.036 0.033c9e-3 0.01 0.019 0.02 0.027 0.029 0.012 0.012 0.024 0.023 0.036 0.036 0.01 0.011 0.021 0.022 0.032 0.032 0.011 0.011 0.023 0.022 0.032 0.033 0.012 0.011 0.024 0.022 0.036 0.035l0.027 0.027c0.012 0.012 0.024 0.025 0.036 0.036 0.011 0.011 0.021 0.022 0.032 0.033l0.036 0.033c9e-3 0.01 0.019 0.02 0.027 0.029l0.036 0.036c0.011 0.011 0.021 0.022 0.032 0.032 0.012 0.012 0.023 0.024 0.036 0.035 0.01 0.011 0.02 0.021 0.03 0.031s0.02 0.02 0.031 0.03c0.011 0.012 0.022 0.025 0.035 0.036 0.011 0.011 0.021 0.022 0.032 0.033 0.012 0.011 0.024 0.024 0.036 0.033 9e-3 0.01 0.019 0.02 0.027 0.029 0.012 0.012 0.023 0.024 0.036 0.036 0.011 0.011 0.021 0.022 0.032 0.032 0.012 0.012 0.024 0.024 0.036 0.035 9e-3 0.01 0.019 0.02 0.027 0.029 0.012 0.011 0.024 0.024 0.035 0.036 0.011 0.01 0.022 0.021 0.033 0.032s0.021 0.022 0.032 0.034c0.012 0.011 0.023 0.024 0.036 0.035l0.027 0.027c0.012 0.012 0.024 0.025 0.036 0.036 0.011 0.011 0.021 0.022 0.032 0.032l0.036 0.036c9e-3 0.01 0.019 0.019 0.027 0.027 0.012 0.011 0.024 0.024 0.035 0.036 0.011 0.01 0.022 0.021 0.034 0.032 0.011 0.011 0.021 0.022 0.032 0.033 0.012 0.011 0.024 0.024 0.036 0.035l0.027 0.027c0.012 0.012 0.024 0.025 0.036 0.036 0.011 0.011 0.021 0.022 0.032 0.032 0.012 0.013 0.024 0.024 0.036 0.036 9e-3 0.01 0.019 0.019 0.027 0.027 0.012 0.011 0.024 0.024 0.035 0.036 0.011 0.01 0.022 0.021 0.034 0.032l0.096 0.096c0.012 0.012 0.024 0.025 0.036 0.036 0.011 0.011 0.021 0.022 0.032 0.032l0.063 0.063c0.012 0.011 0.024 0.024 0.036 0.036 0.011 0.011 0.021 0.022 0.032 0.032 0.012 0.012 0.024 0.023 0.036 0.036l0.027 0.027c0.012 0.011 0.024 0.024 0.035 0.036 0.011 0.01 0.022 0.021 0.033 0.032s0.021 0.022 0.032 0.033c0.012 0.011 0.023 0.022 0.036 0.035 9e-3 0.01 0.019 0.019 0.027 0.029 0.012 0.01 0.024 0.022 0.036 0.035 0.011 0.011 0.021 0.022 0.032 0.032l0.036 0.036c9e-3 0.01 0.019 0.017 0.027 0.027 0.012 0.011 0.024 0.024 0.035 0.036 0.011 0.01 0.022 0.021 0.033 0.032 24.911 24.343 54.166 43.845 86.89 56.01 35.096 13.049 72.736 17.425 110 21.08 37.754 3.703 75.57 6.772 113.42 9.206 92.437 5.938 190.3 6.897 271.28-38.076 58.831-32.674 103.58-87.788 129.85-149.74 69.959-165 6.262-323.01-80.218-466.74z" fill="#c48454"/><path
            d="m573.1 385.85c56.436 63.015 115.44 126.42 159.14 199.03 86.48 143.73 150.18 301.74 80.218 466.74-26.269 61.956-71.022 117.07-129.85 149.74-80.975 44.974-178.84 44.015-271.28 38.076-37.855-2.434-75.671-5.503-113.42-9.206-37.264-3.655-74.904-8.031-110-21.08-74.773-27.8-131.44-93.889-159.53-168.56-28.086-74.665-29.964-157.12-18.316-236.04 4.937-33.454 12.277-66.706 24.647-98.178 11.52-29.305 27.266-56.741 43.46-83.746 49.42-82.415 103.59-161.98 162.14-238.18 1.059-13.174 14.729-16.514 27.455-12.942 12.724 3.572 22.33 13.675 32.313 22.335 61.37 53.251 160.25 56.866 225.35 8.238 15.338-11.457 34.907-30.491 47.679-16.23z"
            fill="url(#linear-gradient)"/><path
            d="m820.55 793.9c-3.152-68.624-21.515-119.65-58.823-177.87-9.716-15.164-39.939-66.608-105.82-150.4-20.951-26.647-36.828-45.628-49.644-58.505-0.011-0.011-0.022-0.022-0.032-0.033-0.011-0.011-0.022-0.021-0.033-0.032l-0.04-0.04c-6e-3 -7e-3 -0.012-0.012-0.019-0.019-0.014-0.014-0.026-0.027-0.04-0.04-0.011-0.011-0.022-0.022-0.034-0.033l-0.059-0.059c-0.014-0.012-0.026-0.026-0.04-0.04l-0.065-0.065c-0.013-0.014-0.026-0.026-0.04-0.04-6e-3 -7e-3 -0.012-0.012-0.019-0.019l-0.132-0.132c-0.014-0.014-0.026-0.027-0.04-0.04-0.011-0.011-0.022-0.022-0.034-0.033l-0.072-0.072c-6e-3 -7e-3 -0.012-0.012-0.019-0.019l-0.04-0.04c-0.011-0.011-0.022-0.022-0.033-0.034l-0.04-0.04-0.018-0.019c-0.014-0.014-0.026-0.027-0.04-0.04-0.011-0.011-0.022-0.022-0.033-0.034-0.012-0.014-0.026-0.026-0.04-0.04-9e-3 -9e-3 -0.017-0.016-0.026-0.025-9e-3 -0.01-0.017-0.017-0.025-0.026l-0.04-0.04c-0.011-0.011-0.022-0.022-0.034-0.033l-0.059-0.059c-0.014-0.014-0.026-0.027-0.039-0.04l-0.093-0.093c-0.014-0.012-0.026-0.026-0.04-0.04-0.011-0.011-0.022-0.021-0.032-0.032l-0.033-0.033c-0.013-0.014-0.026-0.026-0.04-0.04l-0.019-0.019c-0.014-0.014-0.026-0.027-0.04-0.04l-0.092-0.092c-0.014-0.012-0.026-0.026-0.04-0.04-0.011-0.011-0.022-0.021-0.033-0.032s-0.021-0.022-0.032-0.033l-0.172-0.172s-0.012-0.012-0.018-0.019c-0.014-0.012-0.026-0.026-0.04-0.04-0.011-0.011-0.022-0.021-0.033-0.032-0.012-0.014-0.026-0.027-0.04-0.041-9e-3 -9e-3 -0.016-0.016-0.026-0.025-9e-3 -9e-3 -0.016-0.017-0.025-0.026l-0.04-0.04c-0.011-0.011-0.022-0.022-0.033-0.034l-0.059-0.059c-0.014-0.012-0.026-0.026-0.039-0.04-0.011-0.011-0.023-0.022-0.034-0.032-0.012-0.014-0.026-0.027-0.04-0.041-6e-3 -6e-3 -0.012-0.013-0.019-0.019-0.014-0.012-0.026-0.026-0.04-0.04l-0.032-0.032c-0.011-0.011-0.022-0.022-0.034-0.033-0.013-0.014-0.026-0.026-0.04-0.04l-0.019-0.019c-0.014-0.012-0.026-0.026-0.04-0.04-0.011-0.011-0.022-0.022-0.034-0.033-0.012-0.014-0.026-0.026-0.04-0.04l-0.019-0.019c-0.014-0.012-0.026-0.026-0.04-0.04-0.011-0.011-0.022-0.022-0.032-0.034-0.011-0.01-0.022-0.021-0.034-0.032l-0.059-0.059c-0.014-0.012-0.026-0.026-0.04-0.04-0.011-0.011-0.022-0.022-0.033-0.034l-0.04-0.04c-6e-3 -6e-3 -0.012-0.012-0.018-0.019-0.014-0.012-0.026-0.026-0.04-0.04-0.011-0.011-0.022-0.022-0.034-0.033-0.012-0.012-0.026-0.026-0.04-0.039-9e-3 -0.01-0.016-0.017-0.026-0.027l-0.025-0.025c-0.014-0.014-0.026-0.027-0.04-0.041-0.011-0.011-0.022-0.021-0.033-0.032l-0.099-0.099c-0.011-0.011-0.022-0.022-0.034-0.033-0.012-0.013-0.026-0.026-0.04-0.039-18.728-18.824-30.92-24.612-42.842-22.225-12.851 2.573-13.908 12.344-40.958 29.888-6.829 4.429-31.137 18.546-59.326 26.355-31.164 8.635-64.687 2.38-95.001-8.881-55.809-20.73-76.595-28.89-84.984-35.537-0.12-0.163-0.244-0.323-0.355-0.485-7.558-11.102-6.552-17.231-9.984-20.308-0.012-0.01-0.021-0.022-0.033-0.032-0.011-0.011-0.021-0.022-0.032-0.033-0.012-0.01-0.022-0.022-0.034-0.034-0.011-0.01-0.021-0.021-0.032-0.031-0.011-0.011-0.021-0.022-0.034-0.033-0.011-0.01-0.021-0.022-0.032-0.032-0.012-0.011-0.022-0.024-0.033-0.035-0.011-0.01-0.02-0.021-0.031-0.031-0.012-0.011-0.022-0.022-0.034-0.033-0.012-0.01-0.022-0.022-0.033-0.032-0.011-0.011-0.021-0.022-0.032-0.033-0.012-0.01-0.022-0.022-0.035-0.033-0.01-0.01-0.02-0.021-0.031-0.031-0.011-0.011-0.021-0.022-0.034-0.033-0.011-0.011-0.021-0.022-0.032-0.032-0.012-0.011-0.023-0.024-0.034-0.035-0.011-0.01-0.02-0.021-0.031-0.031-0.012-0.011-0.022-0.022-0.034-0.034-0.012-0.011-0.022-0.022-0.033-0.032-0.011-0.011-0.021-0.022-0.032-0.033-0.012-0.011-0.022-0.022-0.035-0.034-0.01-0.01-0.02-0.021-0.031-0.031-0.011-0.011-0.021-0.022-0.033-0.033-0.011-0.011-0.021-0.022-0.032-0.034-0.012-0.01-0.022-0.022-0.034-0.033-0.011-0.01-0.02-0.021-0.031-0.031-0.012-0.011-0.023-0.022-0.035-0.034-0.011-0.011-0.021-0.022-0.032-0.033-0.012-0.01-0.022-0.022-0.034-0.032-0.011-0.011-0.021-0.022-0.032-0.032-0.011-0.011-0.021-0.022-0.032-0.032-0.011-0.011-0.021-0.024-0.033-0.034-0.011-0.011-0.021-0.022-0.032-0.033-0.012-0.011-0.022-0.022-0.034-0.034-0.011-0.01-0.02-0.021-0.031-0.031-0.012-0.011-0.022-0.024-0.035-0.033-0.011-0.011-0.021-0.022-0.032-0.033-0.012-0.01-0.022-0.022-0.033-0.032-0.011-0.011-0.02-0.022-0.031-0.032-0.012-0.01-0.022-0.022-0.034-0.033-0.012-0.01-0.021-0.022-0.034-0.034-0.011-0.01-0.021-0.021-0.032-0.032-0.012-0.011-0.022-0.022-0.034-0.034-0.011-0.01-0.021-0.021-0.032-0.031-0.011-0.011-0.021-0.024-0.034-0.033-0.011-0.011-0.021-0.022-0.032-0.034-0.012-0.01-0.023-0.022-0.034-0.033-0.011-0.01-0.02-0.021-0.031-0.031-0.012-0.01-0.022-0.024-0.034-0.033-0.012-0.01-0.022-0.022-0.033-0.033-0.011-0.01-0.021-0.022-0.032-0.032-0.012-0.011-0.022-0.022-0.035-0.033-0.01-0.01-0.02-0.021-0.031-0.031-0.011-0.011-0.021-0.024-0.034-0.033-0.011-0.011-0.021-0.024-0.032-0.033-0.012-0.01-0.022-0.022-0.034-0.033-0.011-0.01-0.02-0.021-0.031-0.031-0.012-0.01-0.023-0.024-0.034-0.033-0.012-0.01-0.022-0.022-0.033-0.034-0.012-0.01-0.021-0.022-0.034-0.033-0.011-0.01-0.021-0.021-0.032-0.031s-0.02-0.022-0.032-0.032c-0.011-0.011-0.021-0.023-0.033-0.033-0.011-0.011-0.021-0.024-0.032-0.034-0.012-0.01-0.022-0.022-0.034-0.033-0.011-0.01-0.02-0.021-0.031-0.031-0.012-0.01-0.022-0.024-0.035-0.034-0.011-0.01-0.021-0.022-0.032-0.033-0.012-0.01-0.022-0.022-0.033-0.033-0.011-0.01-0.02-0.021-0.031-0.031-0.012-0.01-0.022-0.022-0.033-0.034-0.012-0.01-0.021-0.022-0.034-0.032-0.011-0.011-0.021-0.024-0.032-0.034-0.013-0.01-0.022-0.024-0.034-0.033-0.011-0.01-0.02-0.021-0.031-0.031-0.012-0.011-0.022-0.023-0.035-0.033-0.011-0.01-0.021-0.022-0.032-0.033-0.012-0.01-0.022-0.022-0.034-0.034-0.011-0.01-0.02-0.021-0.031-0.031-0.012-0.01-0.022-0.022-0.034-0.033-0.012-0.01-0.021-0.022-0.033-0.032-0.011-0.011-0.021-0.024-0.032-0.033-0.012-0.01-0.022-0.024-0.034-0.033-0.011-0.01-0.021-0.021-0.032-0.031-0.011-0.011-0.021-0.024-0.033-0.033-0.011-0.01-0.021-0.022-0.032-0.033-0.012-0.01-0.022-0.022-0.034-0.034-0.011-0.01-0.02-0.021-0.031-0.031-0.012-0.01-0.023-0.022-0.034-0.033-0.012-0.01-0.022-0.022-0.033-0.032-0.011-0.011-0.021-0.024-0.034-0.035-0.011-0.01-0.021-0.021-0.032-0.031s-0.02-0.022-0.032-0.032c-0.011-0.011-0.021-0.024-0.033-0.034-0.011-0.011-0.021-0.022-0.032-0.033-0.012-0.01-0.022-0.022-0.033-0.033-0.011-0.01-0.02-0.021-0.031-0.031-0.012-0.01-0.022-0.022-0.034-0.033-0.012-0.01-0.022-0.022-0.033-0.032-0.013-0.011-0.021-0.024-0.034-0.035-0.495-0.45-1.081-0.838-1.803-1.164-25.763-11.672-112.43 101.13-169.2 223.05-37.546 80.634-64.718 143.53-63.676 232.48 0.952 81.22 30.733 163.77 89.827 219.5h1e-3c0.022 0.022 0.042 0.045 0.064 0.066h1e-3c0.01 0.011 0.02 0.022 0.031 0.032h1e-3c0.011 0.011 0.021 0.024 0.032 0.033h1e-3c0.022 0.022 0.042 0.045 0.065 0.066 0.011 0.011 0.021 0.022 0.032 0.032h1e-3c0.011 0.011 0.021 0.022 0.032 0.034 0.011 0.011 0.021 0.022 0.032 0.032h1e-3c0.022 0.022 0.042 0.045 0.064 0.066h1e-3c0.011 0.011 0.02 0.022 0.031 0.033h1e-3c0.011 0.01 0.021 0.022 0.032 0.032h1e-3c0.022 0.022 0.042 0.045 0.065 0.066 0.011 0.011 0.021 0.022 0.032 0.032h1e-3c0.011 0.011 0.021 0.022 0.032 0.033 0.035 0.031 0.065 0.064 0.098 0.095h1e-3c0.011 0.011 0.021 0.022 0.032 0.034 0.011 0.011 0.021 0.022 0.032 0.032h1e-3c0.022 0.022 0.042 0.045 0.065 0.066 0.011 0.011 0.021 0.022 0.032 0.032h1e-3c0.011 0.011 0.021 0.022 0.032 0.033h1e-3c0.022 0.022 0.042 0.045 0.064 0.066 0.011 0.011 0.021 0.022 0.032 0.032h1e-3c0.011 0.011 0.021 0.022 0.032 0.034 0.011 0.011 0.021 0.022 0.032 0.032h1e-3c0.022 0.022 0.042 0.045 0.064 0.066 0.011 0.011 0.021 0.022 0.032 0.032h1e-3c0.011 0.011 0.021 0.024 0.032 0.034h1e-3c0.022 0.022 0.042 0.045 0.065 0.066 0.011 0.011 0.021 0.022 0.032 0.032h1e-3c0.011 0.011 0.021 0.022 0.032 0.033s0.021 0.022 0.032 0.032h1e-3c0.022 0.022 0.042 0.045 0.064 0.066h1e-3c0.01 0.011 0.02 0.022 0.031 0.032h1e-3c0.011 0.011 0.021 0.024 0.032 0.033h1e-3c0.022 0.022 0.042 0.045 0.065 0.066 0.011 0.011 0.021 0.022 0.032 0.032h1e-3c0.011 0.011 0.021 0.022 0.032 0.033h1e-3c0.033 0.034 0.063 0.067 0.097 0.098h1e-3c0.011 0.011 0.02 0.022 0.031 0.032h1e-3c0.011 0.011 0.021 0.024 0.032 0.033h1e-3c0.022 0.022 0.042 0.045 0.065 0.066 0.011 0.011 0.021 0.022 0.032 0.032h1e-3c0.011 0.011 0.021 0.022 0.032 0.033h1e-3c0.022 0.021 0.042 0.045 0.064 0.065 0.011 0.011 0.021 0.024 0.032 0.033h1e-3c0.011 0.011 0.021 0.022 0.031 0.032h1e-3c0.011 0.011 0.021 0.024 0.032 0.034h1e-3c0.023 0.022 0.042 0.045 0.065 0.066 0.011 0.011 0.021 0.022 0.032 0.032h1e-3c0.011 0.011 0.021 0.022 0.032 0.033h1e-3c0.022 0.021 0.042 0.045 0.065 0.065 0.011 0.011 0.021 0.024 0.032 0.033h1e-3c0.011 0.011 0.021 0.022 0.032 0.032 0.011 0.011 0.021 0.023 0.032 0.033h1e-3c0.022 0.022 0.042 0.045 0.064 0.066 0.011 0.011 0.021 0.022 0.032 0.032h1e-3c0.011 0.011 0.021 0.022 0.032 0.033h1e-3c0.022 0.021 0.042 0.045 0.065 0.065 0.011 0.011 0.021 0.024 0.032 0.034h1e-3c0.011 0.011 0.021 0.022 0.032 0.032 0.035 0.031 0.065 0.066 0.098 0.097 0.011 0.011 0.021 0.022 0.032 0.032h1e-3c0.011 0.011 0.021 0.022 0.032 0.033h1e-3c0.022 0.021 0.042 0.045 0.065 0.066 0.011 0.01 0.021 0.022 0.032 0.032h1e-3c0.011 0.011 0.021 0.022 0.032 0.032 0.024 0.022 0.043 0.046 0.065 0.066h1e-3c0.011 0.011 0.021 0.022 0.032 0.033h1e-3c0.011 0.011 0.02 0.022 0.031 0.032h1e-3c0.011 0.011 0.021 0.022 0.032 0.033h1e-3c0.023 0.021 0.042 0.045 0.065 0.066 0.011 0.011 0.021 0.022 0.032 0.032h1e-3c0.011 0.011 0.021 0.022 0.032 0.033h1e-3c0.022 0.021 0.042 0.045 0.063 0.066h1e-3l0.032 0.032h1e-3c0.011 0.011 0.021 0.022 0.031 0.033 22.159 20.896 49.841 38.376 80.289 39.129s62.724-20.174 66.186-50.434c1.762-15.395-3.759-30.567-8.717-45.249 0 0-20.406-49.927-17.451-130.93 2.153-59.037 36.835-136.45 107.17-171.6 57.057-28.514 113.4-17.141 133.8-11.722 35.73 9.489 67.909 29.058 93.555 53.83 35.628 35.845 57.818 81.752 57.939 123.78 0.072 24.909-7.636 36.104-9.665 93.565-1.026 29.033-0.915 58.843 13.584 89.695 4.865 10.352 10.99 20.319 18.919 28.485 0.011 0.01 0.021 0.02 0.032 0.031 0.01 0.011 0.021 0.022 0.032 0.033 0.01 0.01 0.021 0.02 0.031 0.031 0.012 0.012 0.025 0.024 0.036 0.036 0.011 0.01 0.021 0.02 0.031 0.031 0.011 0.011 0.022 0.022 0.033 0.034 0.01 0.01 0.021 0.02 0.031 0.03 0.011 0.012 0.022 0.024 0.035 0.036 0.011 0.01 0.022 0.021 0.035 0.034 0.01 0.01 0.02 0.021 0.031 0.031 0.01 0.011 0.021 0.022 0.032 0.034 0.01 0.01 0.021 0.02 0.031 0.031 0.012 0.013 0.025 0.024 0.036 0.036 0.011 0.01 0.021 0.021 0.031 0.031 0.011 0.011 0.022 0.022 0.034 0.033 0.01 0.01 0.021 0.02 0.031 0.03l0.036 0.036c0.01 0.011 0.021 0.021 0.031 0.032 0.011 0.011 0.022 0.021 0.033 0.032 0.01 0.011 0.021 0.022 0.032 0.033 0.011 0.01 0.021 0.02 0.031 0.031 0.012 0.012 0.025 0.024 0.036 0.036 0.011 0.01 0.021 0.021 0.031 0.031l0.033 0.033c0.01 0.01 0.021 0.02 0.031 0.03l0.036 0.036c0.01 0.011 0.021 0.022 0.031 0.032 0.011 0.011 0.022 0.021 0.033 0.032 0.01 0.011 0.021 0.022 0.032 0.033 0.011 0.01 0.021 0.02 0.031 0.031 0.012 0.012 0.025 0.023 0.036 0.036 0.011 0.01 0.021 0.021 0.031 0.031l0.033 0.033c0.01 0.01 0.021 0.02 0.031 0.031 0.012 0.011 0.025 0.024 0.036 0.035s0.021 0.022 0.031 0.032c0.011 0.011 0.022 0.021 0.034 0.032 0.01 0.011 0.02 0.021 0.031 0.031 0.011 0.012 0.022 0.024 0.035 0.035 0.011 0.012 0.022 0.024 0.033 0.035s0.021 0.021 0.032 0.031c0.01 0.011 0.021 0.022 0.032 0.033 0.01 0.01 0.021 0.02 0.031 0.031 0.012 0.011 0.025 0.023 0.036 0.036l0.031 0.031c0.011 0.011 0.022 0.021 0.034 0.032 0.01 0.011 0.021 0.021 0.031 0.031 0.011 0.012 0.024 0.025 0.036 0.037 0.01 0.01 0.021 0.02 0.031 0.031 0.011 0.011 0.022 0.021 0.033 0.032 0.01 0.011 0.021 0.022 0.032 0.033 0.01 0.01 0.021 0.02 0.031 0.031 0.012 0.011 0.025 0.024 0.036 0.036l0.031 0.031c0.011 0.011 0.022 0.021 0.033 0.032 0.01 0.011 0.021 0.021 0.031 0.031 0.012 0.012 0.024 0.025 0.036 0.037 0.01 0.01 0.021 0.02 0.031 0.031 0.011 0.011 0.022 0.021 0.033 0.032 0.01 0.011 0.021 0.022 0.032 0.033 0.01 0.01 0.021 0.02 0.031 0.031 0.012 0.011 0.025 0.024 0.036 0.036l0.031 0.031c0.011 0.011 0.022 0.021 0.033 0.032 0.01 0.011 0.021 0.021 0.031 0.031 0.012 0.012 0.025 0.025 0.036 0.037 0.01 0.01 0.021 0.02 0.031 0.031 0.011 0.011 0.022 0.021 0.033 0.032 0.01 0.011 0.02 0.021 0.031 0.031 0.011 0.012 0.022 0.024 0.034 0.035 0.012 0.012 0.023 0.024 0.035 0.035l0.031 0.031c0.011 0.011 0.022 0.021 0.033 0.032 0.01 0.011 0.021 0.021 0.031 0.031 0.012 0.013 0.025 0.025 0.036 0.037 0.011 0.01 0.021 0.02 0.031 0.031 0.011 0.011 0.022 0.021 0.034 0.032 0.01 0.011 0.02 0.021 0.031 0.031 0.011 0.012 0.024 0.025 0.036 0.037 0.01 0.01 0.021 0.02 0.031 0.031 0.011 0.01 0.022 0.021 0.033 0.032 0.01 0.011 0.021 0.022 0.032 0.033 0.01 0.01 0.021 0.02 0.031 0.03 0.012 0.012 0.025 0.025 0.036 0.037 0.011 0.01 0.021 0.02 0.031 0.031 0.011 0.011 0.022 0.021 0.033 0.032 0.01 0.011 0.021 0.021 0.031 0.031 0.011 0.012 0.023 0.025 0.036 0.037 0.01 0.01 0.021 0.02 0.031 0.031 0.011 0.011 0.022 0.021 0.033 0.032 0.01 0.011 0.021 0.022 0.032 0.033 0.01 0.01 0.021 0.02 0.031 0.03 0.012 0.012 0.025 0.025 0.036 0.037 0.011 0.01 0.021 0.02 0.031 0.031 0.011 0.011 0.022 0.021 0.033 0.032 0.01 0.011 0.021 0.021 0.031 0.031 0.011 0.012 0.024 0.025 0.036 0.037 0.01 0.01 0.021 0.02 0.031 0.031 0.011 0.011 0.022 0.021 0.033 0.032 0.01 0.011 0.021 0.022 0.032 0.034 2.642 2.724 5.485 5.248 8.549 7.519 12.239 9.072 28.4 13.658 43.09 9.618 35.752-9.832 59.378-75.806 70.115-107.55 19.98-59.065 38.083-121.04 35.189-184.05z"
            fill="#b06823"/><path
            d="m563.45 384.93c20.078-4.02 40.919 15.145 92.459 80.702 65.88 83.796 96.103 135.24 105.82 150.4 37.308 58.223 55.671 109.25 58.823 177.87 2.894 63.012-15.208 124.98-35.189 184.05-10.737 31.74-34.363 97.714-70.115 107.55-14.69 4.041-30.851-0.546-43.09-9.618-12.24-9.073-20.954-22.182-27.435-35.97-14.499-30.851-14.61-60.66-13.584-89.693 2.03-57.461 9.737-68.657 9.666-93.565-0.21-72.893-66.726-157.53-154.81-180.92-20.4-5.418-76.748-16.792-133.8 11.722-70.339 35.151-105.02 112.56-107.17 171.6-2.955 81.003 17.451 130.93 17.451 130.93 4.958 14.682 10.479 29.855 8.717 45.249-3.462 30.261-35.738 51.188-66.186 50.434-30.449-0.753-58.13-18.233-80.289-39.129-59.094-55.727-88.874-138.28-89.827-219.5-1.042-88.946 26.13-151.85 63.676-232.48 56.768-121.92 143.44-234.72 169.2-223.05 5.663 2.565 3.122 8.76 11.755 21.441 5.271 7.741 21.961 14.564 88.653 39.338 30.315 11.26 63.837 17.514 95.001 8.879 28.189-7.81 52.497-21.925 59.327-26.355 27.049-17.544 28.106-27.316 40.957-29.887z"
            fill="url(#linear-gradient-2)"/><path
            d="m269.05 1064.6c-12.095 25.89-37.08 41.432-75.77 28.387-39.507-13.321-66.644-57.048-59.831-98.18 13.584-82.019 119.08-81.835 140.06-3.763 6.678 24.846 5.336 52.594-4.457 73.557z"
            fill="#f2be84"/><path
            d="m272.36 1067.9c-12.095 25.89-37.079 41.433-75.769 28.387-39.507-13.321-66.645-57.048-59.832-98.181 13.584-82.018 119.08-81.835 140.06-3.763 6.677 24.847 5.335 52.594-4.458 73.556z"
            fill="url(#linearGradient739)"/><path
            d="m623.85 1038.1c4.586 20.97 20.301 52.091 50.208 59.003 33.967 7.849 64.5-20.551 77.693-40.825 26.327-40.458 18.042-101.49-16.633-127.55-4.994-3.752-16.255-11.981-31.673-12.104-44.191-0.35-91.694 66.142-79.595 121.47z"
            fill="#f2be85"/><path
            d="m627.17 1041.4c4.585 20.969 20.301 52.09 50.208 59.002 33.967 7.851 64.501-20.551 77.693-40.825 26.328-40.458 18.043-101.49-16.633-127.54-4.992-3.753-16.255-11.982-31.673-12.104-44.191-0.35-91.694 66.14-79.595 121.47z"
            fill="url(#linear-gradient-4)"/><path
            d="m168.16 1172.6c-40.511-0.649-80.461 11.236-116.91 28.93-13.016 6.318-25.934 13.59-35.537 24.41s-15.483 25.831-12.27 39.938c5.874 25.78 36.639 36.206 62.857 39.641 39.543 5.179 79.824 4.713 119.24-1.38 37.044-5.727 93.806-25.82 90.235-73.559-3.364-44.984-72.808-57.424-107.61-57.981z"
            fill="#87501b"/><path
            d="m171.47 1175.9c-40.512-0.648-80.463 11.237-116.91 28.93-13.015 6.318-25.933 13.591-35.537 24.412-9.603 10.82-15.483 25.831-12.269 39.937 5.874 25.781 36.638 36.207 62.855 39.641 39.544 5.18 79.824 4.713 119.24-1.38 37.043-5.726 93.805-25.82 90.235-73.559-3.363-44.983-72.808-57.424-107.61-57.981z"
            fill="#603913"/><path
            d="m693.01 1172.6c40.512-0.649 80.463 11.236 116.91 28.93 13.014 6.318 25.934 13.591 35.537 24.41 9.603 10.82 15.483 25.831 12.269 39.938-5.874 25.78-36.638 36.206-62.855 39.64-39.545 5.18-79.824 4.715-119.24-1.379-37.044-5.727-93.806-25.82-90.236-73.559 3.364-44.984 72.808-57.424 107.61-57.981z"
            fill="#87501b"/><path
            d="m696.32 1175.9c40.511-0.649 80.461 11.237 116.91 28.931 13.016 6.317 25.934 13.59 35.537 24.41 9.604 10.82 15.483 25.831 12.27 39.937-5.874 25.781-36.638 36.207-62.857 39.641-39.543 5.18-79.822 4.713-119.24-1.38-37.044-5.726-93.805-25.82-90.236-73.559 3.364-44.983 72.808-57.422 107.61-57.981z"
            fill="#603913"/><path
            d="m300.32 123.42c-2.384-9.441-8.423-20.473-16.046-28.068l-0.095-0.095c-0.012-0.012-0.024-0.024-0.036-0.035-0.01-0.011-0.021-0.022-0.032-0.033l-0.132-0.132c-0.011-0.011-0.024-0.023-0.035-0.035-0.01-0.01-0.02-0.02-0.031-0.03-0.01-0.01-0.02-0.021-0.03-0.031-0.012-0.012-0.024-0.024-0.036-0.035-0.01-0.011-0.021-0.022-0.032-0.033l-0.035-0.035c-0.011-0.01-0.021-0.021-0.031-0.031s-0.02-0.021-0.03-0.03l-0.071-0.071c-0.01-0.01-0.02-0.02-0.031-0.03-0.01-0.011-0.02-0.021-0.03-0.031-0.013-0.012-0.024-0.024-0.036-0.035-0.01-0.011-0.021-0.022-0.032-0.034l-0.099-0.099c-0.011-0.011-0.022-0.022-0.033-0.034l-0.035-0.035c-0.01-0.01-0.021-0.02-0.031-0.03-0.01-0.011-0.02-0.021-0.03-0.031-0.012-0.012-0.023-0.024-0.036-0.035-0.01-0.011-0.021-0.022-0.032-0.034-0.012-0.012-0.023-0.024-0.035-0.035-0.01-0.01-0.019-0.02-0.029-0.029l-0.103-0.103c-0.01-0.01-0.021-0.02-0.031-0.03-0.01-0.011-0.02-0.021-0.03-0.031-0.012-0.012-0.023-0.024-0.036-0.035-0.011-0.013-0.024-0.025-0.035-0.036l-0.061-0.061c-0.012-0.011-0.024-0.024-0.035-0.035l-0.068-0.068c-0.01-0.01-0.021-0.02-0.031-0.031l-0.03-0.03c-0.012-0.012-0.024-0.025-0.036-0.036l-0.096-0.096c-0.012-0.011-0.024-0.024-0.036-0.035-0.01-0.011-0.021-0.022-0.032-0.033l-0.035-0.035c-0.01-9e-3 -0.019-0.02-0.029-0.029l-0.069-0.069c-0.011-0.011-0.023-0.024-0.035-0.035l-0.061-0.061c-0.012-0.011-0.024-0.024-0.036-0.036-0.01-0.011-0.021-0.021-0.032-0.032-0.012-0.011-0.024-0.024-0.035-0.035-0.01-0.01-0.019-0.02-0.029-0.029-0.011-0.011-0.023-0.024-0.035-0.036-0.011-0.01-0.022-0.021-0.034-0.032-0.011-0.011-0.024-0.022-0.035-0.035-0.01-0.01-0.021-0.02-0.031-0.031l-0.03-0.03c-0.012-0.011-0.024-0.024-0.036-0.036-0.011-0.011-0.024-0.022-0.035-0.035-0.01-0.01-0.02-0.02-0.03-0.031-0.011-0.01-0.021-0.02-0.031-0.03-0.011-0.011-0.024-0.023-0.035-0.036-0.011-0.01-0.022-0.021-0.033-0.032s-0.024-0.022-0.035-0.035l-0.061-0.061c-0.012-0.011-0.024-0.024-0.036-0.036-0.011-0.011-0.024-0.022-0.035-0.035-0.01-0.01-0.02-0.02-0.03-0.031-0.011-0.01-0.021-0.02-0.031-0.03-0.012-0.011-0.024-0.024-0.035-0.036-0.011-0.01-0.022-0.021-0.033-0.032-0.011-0.012-0.024-0.022-0.035-0.035-0.01-0.01-0.019-0.019-0.028-0.029l-0.069-0.069c-0.011-0.011-0.024-0.022-0.035-0.035-0.01-0.01-0.02-0.021-0.031-0.031l-0.03-0.03c-0.012-0.011-0.024-0.024-0.036-0.036l-0.2-0.2c-0.01-0.01-0.02-0.021-0.031-0.031-11.133-11.112-25.656-14.901-37.117 4.331-5.382 9.033-6.524 19.908-7.132 30.407-2.632 45.388 2.425 91.214 14.892 134.94 0 0 0.01-0.02 0.016-0.03 6e-3 0.02 0.01 0.041 0.016 0.062 5e-3 -0.01 0.011-0.02 0.016-0.03 6e-3 0.021 0.011 0.042 0.017 0.063l0.015-0.03c6e-3 0.02 0.011 0.041 0.017 0.062 0 0 0.011-0.02 0.016-0.03 6e-3 0.021 0.01 0.042 0.016 0.063 6e-3 -0.01 0.011-0.021 0.016-0.031 6e-3 0.021 0.011 0.042 0.017 0.063 5e-3 -0.01 0.011-0.02 0.016-0.03 6e-3 0.021 0.01 0.042 0.016 0.063 6e-3 -0.011 0.011-0.021 0.016-0.031 6e-3 0.021 0.011 0.042 0.017 0.063 5e-3 -0.01 0.01-0.02 0.016-0.03 6e-3 0.021 0.01 0.042 0.016 0.063 5e-3 -0.011 0.011-0.021 0.016-0.031 6e-3 0.021 0.011 0.042 0.017 0.063 5e-3 -0.01 0.01-0.02 0.016-0.03 6e-3 0.02 0.01 0.041 0.016 0.063 5e-3 -0.011 0.011-0.021 0.016-0.031 6e-3 0.021 0.011 0.042 0.018 0.063l0.015-0.03c6e-3 0.02 0.011 0.041 0.017 0.063 5e-3 -0.011 0.011-0.021 0.016-0.031 6e-3 0.021 0.011 0.042 0.016 0.063 6e-3 -0.01 0.011-0.021 0.016-0.031 6e-3 0.021 0.011 0.042 0.017 0.064 0 0 0.011-0.021 0.016-0.031 6e-3 0.02 0.011 0.042 0.016 0.063 6e-3 -0.011 0.011-0.021 0.016-0.031 6e-3 0.021 0.011 0.042 0.017 0.065 5e-3 -0.011 0.01-0.021 0.016-0.031 6e-3 0.02 0.01 0.042 0.016 0.063 0 0 0.011-0.021 0.016-0.031 6e-3 0.021 0.011 0.042 0.017 0.065 5e-3 -0.011 0.01-0.021 0.016-0.031 6e-3 0.02 0.01 0.041 0.016 0.063 5e-3 -0.011 0.011-0.021 0.016-0.031 6e-3 0.021 0.011 0.042 0.017 0.063 5e-3 -0.01 0.01-0.02 0.016-0.03 5e-3 0.02 0.01 0.041 0.016 0.063 5e-3 -0.011 0.011-0.021 0.016-0.031 6e-3 0.021 0.011 0.042 0.016 0.063 6e-3 -0.01 0.011-0.021 0.017-0.031 5e-3 0.021 0.01 0.042 0.016 0.065 5e-3 -0.011 0.011-0.021 0.016-0.031 6e-3 0.02 0.011 0.042 0.016 0.063 6e-3 -0.01 0.011-0.021 0.016-0.031 6e-3 0.021 0.011 0.042 0.017 0.065 5e-3 -0.011 0.011-0.021 0.016-0.031 6e-3 0.02 0.01 0.042 0.016 0.063 6e-3 -0.01 0.011-0.021 0.016-0.031 6e-3 0.021 0.011 0.042 0.017 0.065 5e-3 -0.011 0.011-0.021 0.016-0.031 6e-3 0.02 0.01 0.042 0.016 0.063 0 0 0.011-0.021 0.016-0.031 6e-3 0.021 0.011 0.042 0.017 0.063 5e-3 -0.01 0.01-0.02 0.016-0.03 5e-3 0.02 0.01 0.042 0.016 0.063 5e-3 -0.011 0.011-0.021 0.016-0.031 6e-3 0.021 0.011 0.042 0.017 0.063 0 0 0.01-0.021 0.016-0.031 5e-3 0.021 0.01 0.043 0.016 0.065 5e-3 -0.011 0.011-0.021 0.016-0.031 6e-3 0.02 0.011 0.042 0.017 0.063 5e-3 -0.01 0.01-0.021 0.015-0.031 6e-3 0.021 0.011 0.042 0.017 0.065 0 0 0.011-0.021 0.016-0.031 6e-3 0.02 0.01 0.042 0.016 0.063 6e-3 -0.01 0.011-0.021 0.016-0.031 6e-3 0.021 0.011 0.042 0.017 0.065 5e-3 -0.011 0.011-0.021 0.016-0.031 6e-3 0.02 0.01 0.042 0.016 0.063 6e-3 -0.01 0.011-0.021 0.016-0.031 6e-3 0.021 0.011 0.042 0.017 0.063 5e-3 -0.01 0.01-0.02 0.016-0.03 6e-3 0.02 0.01 0.042 0.016 0.063 5e-3 -0.01 0.011-0.021 0.016-0.031 6e-3 0.021 0.011 0.042 0.017 0.063 5e-3 -0.01 0.01-0.021 0.016-0.031 6e-3 0.021 0.01 0.043 0.016 0.064 5e-3 -0.01 0.011-0.021 0.016-0.031 6e-3 0.021 0.011 0.042 0.017 0.063 0 0 0.01-0.021 0.015-0.031 6e-3 0.021 0.011 0.043 0.017 0.064 5e-3 -0.01 0.011-0.021 0.016-0.031 6e-3 0.021 0.01 0.042 0.016 0.063 6e-3 -0.01 0.011-0.021 0.016-0.031 6e-3 0.021 0.011 0.043 0.017 0.063 0 0 0.011-0.02 0.016-0.031 6e-3 0.022 0.01 0.043 0.016 0.064 6e-3 -0.01 0.011-0.021 0.016-0.031 6e-3 0.021 0.011 0.043 0.017 0.063 5e-3 -0.01 0.01-0.02 0.016-0.031 6e-3 0.021 0.01 0.043 0.016 0.065 0 0 0.011-0.021 0.016-0.031 6e-3 0.021 0.011 0.043 0.017 0.063 5e-3 -0.01 0.01-0.02 0.016-0.031 6e-3 0.021 0.01 0.043 0.016 0.065 5e-3 -0.01 0.011-0.021 0.016-0.031 6e-3 0.021 0.011 0.042 0.017 0.063 5e-3 -0.01 0.01-0.02 0.015-0.031 6e-3 0.021 0.011 0.043 0.017 0.064 5e-3 -0.01 0.011-0.021 0.016-0.031 6e-3 0.021 0.011 0.042 0.016 0.063 6e-3 -0.01 0.011-0.02 0.016-0.031 6e-3 0.021 0.011 0.043 0.017 0.063 5e-3 -0.01 0.011-0.02 0.016-0.031 6e-3 0.022 0.011 0.043 0.016 0.065 6e-3 -0.01 0.011-0.021 0.016-0.031 6e-3 0.021 0.011 0.043 0.017 0.063 5e-3 -0.01 0.01-0.02 0.016-0.031 6e-3 0.022 0.01 0.043 0.016 0.065 5e-3 -0.01 0.011-0.021 0.016-0.031 6e-3 0.021 0.011 0.043 0.017 0.063 5e-3 -0.01 0.01-0.02 0.016-0.031 6e-3 0.022 0.01 0.043 0.016 0.065 0 0 0.011-0.021 0.016-0.031 6e-3 0.021 0.011 0.042 0.017 0.063 5e-3 -0.01 0.01-0.02 0.016-0.031 5e-3 0.022 0.01 0.043 0.016 0.065 5e-3 -0.01 0.011-0.021 0.016-0.031 6e-3 0.021 0.011 0.042 0.016 0.063 0 0 0.011-0.02 0.017-0.031 5e-3 0.022 0.01 0.043 0.016 0.063 5e-3 -0.01 0.011-0.02 0.016-0.031 6e-3 0.022 0.011 0.043 0.016 0.065 6e-3 -0.01 0.011-0.02 0.016-0.031 6e-3 0.022 0.011 0.043 0.017 0.063 0 0 0.011-0.02 0.016-0.031 6e-3 0.022 0.01 0.043 0.016 0.065 6e-3 -0.01 0.011-0.02 0.016-0.031 6e-3 0.021 0.011 0.043 0.017 0.063 5e-3 -0.01 0.011-0.02 0.016-0.031 6e-3 0.022 0.01 0.043 0.016 0.065 6e-3 -0.01 0.011-0.021 0.016-0.031 6e-3 0.021 0.011 0.042 0.017 0.063 5e-3 -0.01 0.01-0.02 0.016-0.031 5e-3 0.022 0.01 0.043 0.016 0.065 5e-3 -0.01 0.011-0.021 0.016-0.031 6e-3 0.021 0.011 0.042 0.017 0.063 5e-3 -0.01 0.01-0.02 0.016-0.031 5e-3 0.022 0.01 0.043 0.016 0.063 5e-3 -0.01 0.011-0.02 0.016-0.03 6e-3 0.021 0.011 0.042 0.017 0.063 0 0 0.01-0.02 0.015-0.031 6e-3 0.022 0.011 0.043 0.017 0.063 5e-3 -0.01 0.011-0.02 0.016-0.03 6e-3 0.021 0.01 0.042 0.016 0.063 6e-3 -0.01 0.011-0.02 0.016-0.031 6e-3 0.021 0.011 0.042 0.017 0.063 0 0 0.011-0.02 0.016-0.03 6e-3 0.021 0.01 0.042 0.016 0.063 6e-3 -0.01 0.011-0.02 0.016-0.031 6e-3 0.021 0.011 0.042 0.017 0.063 5e-3 -0.01 0.01-0.02 0.016-0.03 6e-3 0.021 0.01 0.042 0.016 0.063 0 0 0.011-0.021 0.016-0.031 6e-3 0.021 0.011 0.042 0.017 0.063 5e-3 -0.01 0.01-0.02 0.016-0.03 6e-3 0.021 0.01 0.042 0.016 0.062 5e-3 -0.01 0.011-0.02 0.016-0.03 6e-3 0.021 0.011 0.042 0.017 0.063 5e-3 -0.01 0.01-0.02 0.015-0.031 6e-3 0.022 0.011 0.043 0.017 0.063 5e-3 -0.01 0.011-0.02 0.016-0.03 6e-3 0.021 0.01 0.042 0.016 0.063 6e-3 -0.01 0.011-0.02 0.016-0.031 6e-3 0.021 0.011 0.042 0.017 0.063 5e-3 -0.01 0.011-0.02 0.016-0.03 6e-3 0.021 0.01 0.042 0.016 0.063 6e-3 -0.01 0.011-0.02 0.016-0.031 6e-3 0.021 0.011 0.042 0.017 0.063 5e-3 -0.01 0.01-0.02 0.016-0.03 6e-3 0.021 0.01 0.042 0.016 0.063 5e-3 -0.01 0.011-0.021 0.016-0.031 6e-3 0.021 0.011 0.042 0.017 0.063 5e-3 -0.01 0.01-0.02 0.016-0.03 6e-3 0.021 0.01 0.042 0.016 0.063 0 0 0.011-0.021 0.016-0.031 6e-3 0.021 0.011 0.042 0.017 0.063l0.015-0.03c6e-3 0.021 0.011 0.042 0.017 0.063 5e-3 -0.011 0.011-0.021 0.016-0.031 6e-3 0.021 0.011 0.042 0.016 0.063 0 0 0.011-0.02 0.016-0.03 6e-3 0.02 0.011 0.041 0.017 0.062 5e-3 -0.01 0.011-0.02 0.016-0.03 6e-3 0.021 0.01 0.042 0.016 0.063 6e-3 -0.01 0.011-0.02 0.016-0.03 6e-3 0.02 0.011 0.041 0.017 0.062 5e-3 -0.01 0.01-0.02 0.016-0.03 6e-3 0.021 0.01 0.042 0.016 0.063 5e-3 -0.01 0.011-0.021 0.016-0.031 6e-3 0.021 0.011 0.042 0.017 0.063 5e-3 -0.01 0.01-0.02 0.016-0.03 6e-3 0.021 0.01 0.042 0.016 0.063 5e-3 -0.011 0.011-0.021 0.016-0.031 6e-3 0.021 0.011 0.042 0.017 0.063 5e-3 -0.01 0.01-0.02 0.016-0.03 5e-3 0.021 0.01 0.042 0.016 0.063 9.341-17.63 18.683-35.258 28.024-52.887 14.433-27.235 25.225-57.571 17.347-88.754z"
            fill="#995b1e"/><path
            d="m247.19 99.721c-5.383 9.033-6.524 19.908-7.133 30.406-2.632 45.39 2.425 91.215 14.892 134.94 9.341-17.628 18.683-35.258 28.024-52.887 14.433-27.235 25.225-57.571 17.347-88.754-5.866-23.224-33.838-56.076-53.13-23.703z"
            fill="#603913"/><path
            d="m563.62 80.337c-1.561-2.6-3.473-5.15-5.681-7.311-0.01-0.011-0.021-0.022-0.032-0.034 0 0-0.022-0.022-0.033-0.032-0.011-0.011-0.021-0.022-0.032-0.034-0.011-0.01-0.021-0.021-0.032-0.032s-0.022-0.022-0.033-0.034l-0.031-0.031c-0.012-0.011-0.023-0.024-0.036-0.035-0.01-0.011-0.02-0.022-0.031-0.032-0.011-0.011-0.022-0.022-0.034-0.032-0.01-0.011-0.021-0.022-0.032-0.034-0.011-0.011-0.022-0.022-0.033-0.032-0.011-0.011-0.021-0.022-0.032-0.034-0.011-0.01-0.022-0.021-0.032-0.032-0.011-0.011-0.022-0.022-0.033-0.034-0.011-0.01-0.021-0.021-0.031-0.031-0.012-0.011-0.024-0.024-0.036-0.036-0.01-0.01-0.02-0.021-0.031-0.031-0.011-0.011-0.022-0.022-0.033-0.032-0.011-0.011-0.021-0.022-0.032-0.034-0.011-0.011-0.022-0.022-0.033-0.032-0.011-0.011-0.021-0.022-0.021-0.022-0.022-0.021-0.033-0.032-0.045-0.043-0.01-0.011-0.021-0.022-0.032-0.034-0.011-0.01-0.022-0.021-0.033-0.032-0.01-0.011-0.021-0.022-0.032-0.032-0.011-0.011-0.021-0.022-0.032-0.034-0.011-0.011-0.022-0.022-0.033-0.032-0.01-0.011-0.021-0.021-0.031-0.032-0.012-0.011-0.024-0.024-0.036-0.035-0.01-0.011-0.02-0.021-0.031-0.032-0.011-0.01-0.022-0.021-0.034-0.032-0.01-0.011-0.021-0.022-0.032-0.033 0 0-0.022-0.021-0.033-0.032s-0.021-0.022-0.032-0.032c-0.011-0.011-0.021-0.022-0.032-0.034-0.011-0.011-0.022-0.022-0.033-0.032-0.01-0.011-0.021-0.022-0.031-0.032-0.012-0.011-0.023-0.024-0.036-0.035-0.01-0.011-0.02-0.021-0.031-0.032-0.011-0.01-0.022-0.021-0.034-0.032-0.01-0.011-0.021-0.022-0.032-0.034-0.011-0.01-0.022-0.021-0.033-0.032s-0.021-0.022-0.032-0.032c-0.011-0.011-0.021-0.022-0.032-0.034-0.011-0.011-0.022-0.022-0.033-0.032-0.01-0.011-0.021-0.022-0.031-0.032-0.012-0.012-0.024-0.024-0.036-0.035-0.01-0.011-0.02-0.021-0.031-0.032s-0.022-0.021-0.033-0.032c-0.01-0.011-0.021-0.022-0.032-0.034-0.011-0.01-0.022-0.021-0.033-0.032s-0.021-0.022-0.021-0.022c-0.022-0.021-0.032-0.032-0.043-0.043l-0.034-0.034c-0.011-0.01-0.021-0.021-0.032-0.032s-0.022-0.022-0.033-0.034c-0.011-0.01-0.021-0.021-0.032-0.032s-0.022-0.022-0.033-0.032c-0.01-0.011-0.021-0.022-0.031-0.032-0.012-0.012-0.024-0.024-0.036-0.035-0.01-0.01-0.02-0.021-0.031-0.032s-0.022-0.022-0.034-0.032c-0.01-0.011-0.021-0.022-0.032-0.034 0 0-0.022-0.022-0.033-0.032-0.01-0.011-0.021-0.022-0.032-0.034l-0.032-0.032c-0.011-0.011-0.022-0.022-0.033-0.034l-0.031-0.031c-0.012-0.012-0.024-0.024-0.036-0.035-0.01-0.011-0.02-0.021-0.031-0.032l-0.066-0.066c-0.011-0.011-0.022-0.022-0.033-0.034-0.011-0.01-0.021-0.021-0.032-0.032s-0.021-0.022-0.032-0.032c-0.011-0.011-0.022-0.022-0.033-0.034l-0.021-0.021c-0.022-0.022-0.033-0.034-0.046-0.045-0.01-0.011-0.02-0.022-0.031-0.032l-0.065-0.065c-0.011-0.011-0.022-0.022-0.033-0.034-0.011-0.01-0.021-0.021-0.032-0.032s-0.021-0.022-0.032-0.032c-0.011-0.011-0.023-0.022-0.034-0.034-0.011-0.011-0.021-0.022-0.032-0.032-0.011-0.011-0.022-0.022-0.033-0.034l-0.032-0.032c-0.011-0.011-0.022-0.022-0.033-0.034l-0.031-0.031c-0.012-0.011-0.023-0.024-0.035-0.035-0.011-0.011-0.021-0.022-0.032-0.032-0.011-0.011-0.021-0.022-0.032-0.032l-0.033-0.033c-0.011-0.011-0.021-0.022-0.032-0.032-0.011-0.011-0.022-0.022-0.033-0.034l-0.021-0.021c-0.022-0.022-0.033-0.034-0.045-0.045l-0.031-0.031c-0.012-0.011-0.024-0.024-0.036-0.035-3.672-3.609-8.164-6.139-13.215-6.004-8.125 0.216-14.337 7.126-18.965 13.809-19.966 28.827-28.001 44.341-6.616 69.893 8.774 10.484 46.302 59.441 39.284 73.859 0.104-0.212 0.18-0.434 0.282-0.647-0.084 0.226-0.146 0.469-0.248 0.68 0.103-0.213 0.18-0.437 0.282-0.65-0.084 0.226-0.146 0.47-0.249 0.683 0.104-0.213 0.18-0.436 0.283-0.65-0.084 0.227-0.146 0.471-0.249 0.684 0.103-0.213 0.18-0.437 0.282-0.65-0.084 0.227-0.146 0.47-0.249 0.682 0.103-0.212 0.179-0.434 0.282-0.648-0.084 0.226-0.146 0.469-0.249 0.68 0.104-0.213 0.18-0.436 0.283-0.649-0.084 0.226-0.146 0.47-0.249 0.683 0.104-0.213 0.18-0.437 0.282-0.65-0.083 0.227-0.145 0.47-0.249 0.683 0.104-0.212 0.18-0.436 0.283-0.649-0.084 0.226-0.146 0.47-0.249 0.683 0.104-0.213 0.18-0.437 0.283-0.652-0.084 0.227-0.146 0.472-0.251 0.684 0.104-0.212 0.18-0.434 0.282-0.646-0.084 0.226-0.145 0.469-0.248 0.68 0.103-0.213 0.18-0.437 0.282-0.65-0.084 0.226-0.147 0.47-0.25 0.682 0.104-0.213 0.18-0.436 0.283-0.65-0.084 0.227-0.146 0.472-0.249 0.684 0.103-0.213 0.18-0.437 0.282-0.65-0.084 0.227-0.146 0.47-0.249 0.683 0.103-0.212 0.18-0.434 0.282-0.648-0.084 0.227-0.146 0.469-0.248 0.68 0.103-0.212 0.179-0.435 0.282-0.649-0.084 0.226-0.146 0.47-0.249 0.682 0.104-0.213 0.18-0.437 0.282-0.65-0.083 0.227-0.145 0.47-0.248 0.683 0.103-0.212 0.179-0.436 0.282-0.649-0.084 0.226-0.146 0.47-0.249 0.682 0.104-0.213 0.18-0.437 0.283-0.651-0.084 0.227-0.146 0.472-0.249 0.684 0.103-0.212 0.179-0.434 0.28-0.647-0.084 0.226-0.145 0.469-0.248 0.68 0.103-0.213 0.18-0.437 0.282-0.65-0.084 0.226-0.146 0.47-0.249 0.683 0.104-0.213 0.18-0.436 0.283-0.65-0.084 0.227-0.146 0.472-0.249 0.684 0.103-0.213 0.18-0.437 0.282-0.65-0.084 0.227-0.146 0.47-0.249 0.682 0.103-0.212 0.18-0.434 0.282-0.648-0.084 0.227-0.146 0.469-0.248 0.68 0.103-0.212 0.179-0.436 0.282-0.649-0.084 0.226-0.146 0.47-0.249 0.683 0.104-0.213 0.18-0.437 0.283-0.65-0.084 0.227-0.146 0.47-0.249 0.683 0.103-0.212 0.179-0.436 0.282-0.649-0.084 0.226-0.146 0.47-0.249 0.683 0.103-0.212 0.179-0.434 0.282-0.648-0.084 0.226-0.146 0.469-0.249 0.68 0.104-0.213 0.18-0.435 0.283-0.65-0.085 0.227-0.147 0.471-0.25 0.684 0.103-0.213 0.18-0.437 0.282-0.65-0.084 0.227-0.145 0.47-0.249 0.683 0.104-0.213 0.18-0.436 0.283-0.65-0.084 0.227-0.146 0.472-0.249 0.684 0.103-0.213 0.18-0.437 0.282-0.65-0.084 0.227-0.145 0.47-0.249 0.683 0.104-0.212 0.18-0.434 0.282-0.648-0.084 0.227-0.146 0.469-0.248 0.68 0.103-0.212 0.18-0.436 0.282-0.649-0.084 0.226-0.146 0.47-0.249 0.683 0.104-0.213 0.18-0.437 0.283-0.65-0.084 0.227-0.146 0.47-0.249 0.683 0.103-0.212 0.18-0.436 0.282-0.649-0.084 0.226-0.146 0.47-0.249 0.683 0.103-0.212 0.179-0.434 0.282-0.648-0.084 0.226-0.147 0.469-0.249 0.68 0.104-0.213 0.18-0.436 0.283-0.65-0.084 0.227-0.146 0.472-0.249 0.684 0.103-0.213 0.18-0.437 0.282-0.65-0.084 0.227-0.145 0.47-0.249 0.683 0.104-0.212 0.18-0.436 0.283-0.649-0.084 0.226-0.146 0.47-0.249 0.681 0.104-0.213 0.18-0.435 0.283-0.65-0.084 0.227-0.146 0.471-0.251 0.684 0.104-0.212 0.18-0.434 0.282-0.648-0.084 0.227-0.146 0.469-0.248 0.68 0.103-0.212 0.18-0.436 0.282-0.649-0.084 0.227-0.146 0.47-0.249 0.683 0.104-0.213 0.18-0.437 0.283-0.65-0.084 0.227-0.146 0.472-0.249 0.683 0.103-0.212 0.18-0.436 0.282-0.649-0.084 0.227-0.146 0.47-0.249 0.683 0.103-0.212 0.179-0.434 0.282-0.648-0.084 0.226-0.146 0.469-0.249 0.68 0.104-0.213 0.18-0.436 0.283-0.649-0.084 0.227-0.146 0.47-0.249 0.683 0.104-0.213 0.18-0.437 0.282-0.65-0.083 0.227-0.145 0.47-0.249 0.682 0.104-0.212 0.18-0.436 0.283-0.649-0.084 0.227-0.146 0.47-0.249 0.681 0.104-0.213 0.18-0.436 0.283-0.65-0.084 0.227-0.146 0.472-0.251 0.684 0.104-0.212 0.18-0.434 0.282-0.647-0.084 0.226-0.146 0.468-0.248 0.679 0.103-0.212 0.18-0.436 0.282-0.649-0.084 0.227-0.146 0.47-0.249 0.683 0.104-0.213 0.18-0.437 0.283-0.65-0.084 0.227-0.146 0.472-0.249 0.682 0.103-0.212 0.18-0.435 0.282-0.649-0.084 0.227-0.146 0.47-0.249 0.683 0.103-0.212 0.18-0.434 0.282-0.647-0.084 0.225-0.146 0.468-0.248 0.679 0.103-0.213 0.179-0.436 0.282-0.649-0.084 0.227-0.146 0.47-0.249 0.682 0.104-0.213 0.18-0.437 0.282-0.65-0.083 0.227-0.145 0.47-0.248 0.683 0.103-0.212 0.179-0.436 0.282-0.649-0.084 0.227-0.147 0.47-0.25 0.681 0.103-0.211 0.179-0.433 0.281-0.647-0.083 0.226-0.145 0.469-0.248 0.68 0.104-0.213 0.18-0.436 0.283-0.65-0.084 0.227-0.147 0.472-0.25 0.683 0.103-0.212 0.18-0.436 0.282-0.649-0.084 0.227-0.146 0.47-0.249 0.682 0.104-0.213 0.18-0.436 0.283-0.65-0.084 0.227-0.146 0.471-0.249 0.683 0.103-0.212 0.18-0.436 0.282-0.649-0.084 0.227-0.146 0.47-0.249 0.683 0.103-0.212 0.18-0.434 0.282-0.647-0.084 0.225-0.146 0.468-0.248 0.679 0.103-0.213 0.179-0.436 0.282-0.649-0.084 0.227-0.146 0.47-0.249 0.683 0.104-0.213 0.18-0.437 0.283-0.65-0.084 0.227-0.146 0.47-0.249 0.683 0.103-0.212 0.179-0.436 0.282-0.649-0.084 0.227-0.146 0.47-0.249 0.681 0.103-0.211 0.179-0.433 0.281-0.645-0.083 0.225-0.145 0.468-0.248 0.679 0.104-0.213 0.18-0.436 0.283-0.65-0.084 0.227-0.146 0.472-0.249 0.683 0.103-0.212 0.18-0.436 0.282-0.649-0.084 0.227-0.146 0.47-0.249 0.683 0.104-0.213 0.18-0.436 0.283-0.649-0.084 0.227-0.146 0.47-0.249 0.681 0.104-0.213 0.18-0.437 0.282-0.65-0.083 0.227-0.145 0.472-0.249 0.684 0.103-0.212 0.18-0.434 0.282-0.647-0.084 0.225-0.146 0.468-0.248 0.679 0.103-0.213 0.18-0.436 0.282-0.649-0.085 0.227-0.147 0.47-0.25 0.683 0.104-0.213 0.18-0.437 0.283-0.65-0.084 0.227-0.146 0.47-0.249 0.683 0.103-0.212 0.18-0.436 0.282-0.649-0.084 0.227-0.146 0.47-0.249 0.683 0.103-0.212 0.179-0.434 0.282-0.647-0.084 0.225-0.147 0.468-0.25 0.679 0.104-0.213 0.18-0.436 0.283-0.65-0.084 0.227-0.146 0.472-0.249 0.684 0.103-0.213 0.18-0.437 0.282-0.65-0.084 0.227-0.145 0.47-0.249 0.683 0.104-0.213 0.18-0.436 0.283-0.649-0.084 0.227-0.146 0.47-0.249 0.683 0.104-0.215 0.18-0.438 0.283-0.652-0.084 0.227-0.146 0.472-0.251 0.684 0.104-0.212 0.18-0.434 0.282-0.647-0.084 0.225-0.146 0.468-0.248 0.68 0.103-0.215 0.18-0.437 0.282-0.65-0.084 0.227-0.146 0.47-0.249 0.683 0.104-0.214 0.18-0.437 0.283-0.65-0.084 0.227-0.146 0.47-0.249 0.683 0.103-0.212 0.18-0.436 0.282-0.649-0.084 0.227-0.146 0.47-0.249 0.683 0.103-0.212 0.178-0.434 0.281-0.647-0.084 0.225-0.146 0.468-0.249 0.679 0.104-0.213 0.18-0.436 0.283-0.65-0.084 0.227-0.146 0.471-0.249 0.684 0.104-0.213 0.18-0.437 0.282-0.65-0.083 0.227-0.145 0.47-0.249 0.682 0.104-0.213 0.18-0.436 0.283-0.649-0.084 0.227-0.146 0.47-0.249 0.683 0.103-0.213 0.179-0.434 0.28-0.648-0.083 0.226-0.145 0.469-0.248 0.68 0.104-0.213 0.18-0.437 0.283-0.651-0.084 0.228-0.147 0.471-0.25 0.685 0.103-0.213 0.18-0.437 0.282-0.65-0.084 0.227-0.146 0.47-0.249 0.683 0.104-0.213 0.18-0.437 0.283-0.65-0.084 0.227-0.146 0.47-0.249 0.684 0.103-0.213 0.18-0.437 0.282-0.65-0.084 0.227-0.146 0.47-0.249 0.682 0.103-0.212 0.18-0.434 0.282-0.646-0.084 0.225-0.146 0.468-0.248 0.68 0.103-0.213 0.179-0.437 0.282-0.651-0.084 0.227-0.146 0.472-0.249 0.684 0.104-0.213 0.18-0.437 0.282-0.65-0.083 0.227-0.145 0.47-0.248 0.684 0.103-0.213 0.179-0.437 0.282-0.65-0.084 0.227-0.147 0.47-0.25 0.683 0.103-0.213 0.179-0.434 0.281-0.648-0.083 0.226-0.145 0.469-0.248 0.68 0.104-0.212 0.18-0.437 0.283-0.65-0.084 0.227-0.146 0.47-0.249 0.684 0.103-0.213 0.18-0.437 0.282-0.65-0.084 0.227-0.146 0.47-0.249 0.682 0.104-0.213 0.18-0.436 0.283-0.649-0.084 0.226-0.146 0.469-0.249 0.682 11.983-24.621 14.683-52.638 15.846-79.996 0.937-22.028 0.669-45.382-10.685-64.283z"
            fill="#995b1e"/><path
            d="m525.79 80.862c4.628-6.682 10.84-13.591 18.966-13.807 8.066-0.216 14.71 6.365 18.864 13.282 11.354 18.9 11.622 42.255 10.685 64.283-1.163 27.358-3.863 55.375-15.846 79.996 7.016-14.419-30.51-63.377-39.285-73.859-21.385-25.553-13.351-41.067 6.616-69.894z"
            fill="#603913"/><path
            d="m488.92 177.74c0 21.133-30.61 38.265-68.37 38.265s-68.369-17.132-68.369-38.265 30.61-38.264 68.369-38.264 68.37 17.131 68.37 38.264z"
            fill="#303030"/><path
            d="m592.9 256.76c-11.808-29.554-29.077-56.571-43.133-85.125-11.288-22.932-20.731-47.227-37.093-66.864-1.315-1.577-2.692-3.119-4.125-4.625-0.011-0.011-0.022-0.021-0.033-0.032-0.01-0.011-0.021-0.021-0.031-0.031-0.011-0.013-0.025-0.025-0.036-0.037 0 0-0.021-0.02-0.031-0.031-0.011-0.011-0.022-0.021-0.034-0.032-0.01-0.011-0.02-0.02-0.031-0.031-0.011-0.012-0.025-0.025-0.036-0.037-0.01-0.01-0.021-0.02-0.031-0.03l-0.033-0.033c-0.01-0.011-0.021-0.021-0.032-0.032-0.01-0.011-0.021-0.021-0.021-0.021-0.021-0.022-0.035-0.035-0.046-0.047-0.01-0.011-0.021-0.02-0.031-0.031-0.011-0.011-0.022-0.021-0.033-0.032-0.01-0.011-0.021-0.02-0.031-0.031-0.011-0.012-0.025-0.025-0.036-0.037-0.01-0.01-0.021-0.02-0.021-0.02-0.021-0.021-0.032-0.032-0.044-0.043l-0.03-0.03c-0.012-0.012-0.024-0.024-0.035-0.036-0.012-0.012-0.025-0.024-0.036-0.035-9e-3 -0.011-0.02-0.02-0.03-0.031-0.011-0.011-0.022-0.021-0.033-0.032-0.01-0.011-0.021-0.02-0.031-0.031-0.011-0.012-0.025-0.025-0.036-0.037-0.01-0.01-0.021-0.02-0.031-0.031-0.011-0.011-0.022-0.021-0.033-0.032l-0.02-0.02c-0.022-0.024-0.035-0.035-0.047-0.048-0.01-0.01-0.021-0.02-0.031-0.03-0.01-0.011-0.022-0.022-0.032-0.034-0.011-0.011-0.022-0.021-0.033-0.032-0.01-0.011-0.021-0.02-0.031-0.031-0.011-0.012-0.025-0.025-0.036-0.037 0 0-0.021-0.02-0.031-0.031-0.011-0.011-0.022-0.021-0.034-0.032l-0.031-0.031c-0.011-0.012-0.025-0.025-0.036-0.037-0.01-0.01-0.021-0.02-0.031-0.03-0.011-0.011-0.022-0.022-0.032-0.033-0.011-0.011-0.022-0.021-0.033-0.032-0.01-0.011-0.021-0.02-0.021-0.02-0.021-0.024-0.035-0.036-0.046-0.048-0.01-0.01-0.021-0.02-0.031-0.031-0.011-0.011-0.022-0.021-0.034-0.032l-0.031-0.031c-0.011-0.012-0.025-0.025-0.036-0.037-0.01-0.01-0.021-0.02-0.021-0.02l-0.043-0.043c-9e-3 -0.01-0.02-0.02-0.03-0.031-0.012-0.011-0.023-0.022-0.035-0.035s-0.024-0.022-0.035-0.035c-0.01-0.01-0.021-0.02-0.031-0.031-0.011-0.011-0.022-0.021-0.033-0.032l-0.031-0.031c-0.011-0.012-0.025-0.025-0.036-0.037-0.01-0.01-0.021-0.02-0.031-0.03l-0.053-0.053c-0.022-0.024-0.035-0.035-0.047-0.047-0.01-0.011-0.021-0.021-0.031-0.031-0.01-0.011-0.022-0.022-0.022-0.022-0.021-0.022-0.032-0.032-0.043-0.043l-0.031-0.031c-0.011-0.012-0.025-0.025-0.036-0.037 0 0-0.021-0.02-0.031-0.03-0.011-0.011-0.022-0.022-0.034-0.033-0.01-0.01-0.02-0.021-0.03-0.031-0.012-0.012-0.025-0.024-0.037-0.036-0.01-0.011-0.021-0.021-0.031-0.031-0.01-0.011-0.022-0.022-0.032-0.034-0.011-0.011-0.022-0.021-0.033-0.032l-0.021-0.021c-0.021-0.022-0.035-0.035-0.046-0.047-0.01-0.01-0.021-0.02-0.031-0.03l-0.033-0.033c-0.01-0.01-0.02-0.021-0.031-0.031-0.011-0.012-0.025-0.024-0.036-0.037-0.01-0.01-0.021-0.02-0.021-0.02-0.021-0.021-0.032-0.032-0.042-0.043-0.01-0.01-0.021-0.02-0.031-0.031-0.012-0.011-0.024-0.022-0.035-0.035-0.011-0.011-0.024-0.022-0.035-0.035-0.01-0.01-0.021-0.02-0.031-0.03l-0.034-0.034c-0.01-0.01-0.02-0.021-0.031-0.031-0.011-0.012-0.025-0.024-0.036-0.037-0.01-0.01-0.021-0.02-0.031-0.03l-0.033-0.033c-9e-3 -0.01-0.02-0.02-0.02-0.02-0.022-0.024-0.035-0.035-0.047-0.047-0.01-0.011-0.021-0.021-0.031-0.031-0.01-0.011-0.022-0.022-0.022-0.022l-0.043-0.044c-0.01-0.011-0.021-0.021-0.031-0.031-0.011-0.012-0.025-0.024-0.036-0.037 0 0-0.021-0.02-0.031-0.03-0.011-0.011-0.022-0.022-0.034-0.033-0.01-0.011-0.02-0.02-0.03-0.031-0.012-0.013-0.025-0.024-0.037-0.036-44.116-46.396-142.77-58.434-184.51-6.395-14.216 17.726-25.872 37.503-34.496 58.525-6.021 14.677-10.566 29.938-16.879 44.492-29.171 67.244-37.188 70.304-42.446 101-0.936 5.464-9.193 58.203 21.713 99.314 0.834 1.109 1.756 2.203 2.764 3.286 0.01 0.01 0.021 0.02 0.03 0.03 0.011 0.013 0.024 0.024 0.035 0.035 0.01 0.011 0.022 0.022 0.032 0.033 0.011 0.011 0.023 0.022 0.035 0.034 9e-3 0.01 0.021 0.02 0.03 0.03l0.035 0.035c0.01 0.011 0.022 0.022 0.032 0.032l0.034 0.033c0.01 0.011 0.024 0.022 0.033 0.034 0.01 0.01 0.021 0.02 0.03 0.03 0.011 0.012 0.024 0.024 0.035 0.035 0.01 0.011 0.022 0.022 0.032 0.033 0.011 0.011 0.024 0.022 0.035 0.033 0.01 0.01 0.021 0.02 0.03 0.03 0.011 0.011 0.024 0.023 0.035 0.035 0.01 0.011 0.022 0.022 0.032 0.032 0.011 0.012 0.024 0.023 0.035 0.035l0.031 0.031c0.01 0.011 0.022 0.021 0.032 0.031 0.01 0.012 0.022 0.023 0.034 0.035 0.01 0.011 0.022 0.022 0.034 0.033 0.01 0.011 0.022 0.022 0.033 0.033 0.01 0.01 0.021 0.02 0.03 0.03l0.035 0.035c0.01 0.011 0.022 0.022 0.032 0.032 0.011 0.012 0.024 0.024 0.035 0.035 9e-3 0.01 0.021 0.02 0.03 0.03 0.011 0.011 0.024 0.023 0.035 0.035 0.01 0.011 0.022 0.021 0.032 0.032s0.022 0.022 0.033 0.034c0.01 0.011 0.024 0.022 0.034 0.033 0.01 0.01 0.021 0.02 0.03 0.03l0.035 0.035c0.01 0.011 0.022 0.022 0.032 0.033 0.011 0.011 0.024 0.022 0.035 0.033 9e-3 0.01 0.021 0.02 0.03 0.03l0.035 0.035c0.01 0.011 0.022 0.022 0.032 0.032 0.01 0.011 0.022 0.022 0.033 0.033 0.01 0.011 0.024 0.022 0.034 0.033 0.01 0.01 0.021 0.02 0.03 0.03l0.035 0.035c0.01 0.011 0.022 0.022 0.032 0.033 0.011 0.011 0.024 0.022 0.035 0.034 9e-3 0.01 0.021 0.02 0.03 0.03l0.035 0.035c0.01 0.011 0.022 0.022 0.032 0.032 0.011 0.012 0.024 0.022 0.035 0.035l0.097 0.097c0.01 0.011 0.022 0.022 0.032 0.034 0.011 0.011 0.024 0.022 0.035 0.033 0.01 0.01 0.021 0.02 0.03 0.03l0.035 0.035c0.01 0.011 0.022 0.022 0.032 0.032 0.011 0.013 0.024 0.024 0.035 0.035 9e-3 0.01 0.02 0.02 0.03 0.03 0.011 0.011 0.023 0.022 0.035 0.035 0.01 0.01 0.022 0.021 0.032 0.032s0.022 0.022 0.033 0.033c0.01 0.011 0.022 0.022 0.034 0.033 0.01 0.01 0.021 0.02 0.03 0.03l0.035 0.035c0.01 0.011 0.022 0.022 0.032 0.032 0.011 0.012 0.024 0.024 0.035 0.035 9e-3 0.01 0.021 0.02 0.03 0.03 0.011 0.011 0.024 0.022 0.035 0.035 0.01 0.01 0.022 0.021 0.032 0.032s0.022 0.022 0.033 0.034c0.01 0.011 0.024 0.022 0.034 0.033 0.01 0.01 0.021 0.02 0.03 0.031 0.011 0.01 0.024 0.022 0.035 0.034 0.01 0.011 0.022 0.022 0.032 0.032 0.011 0.012 0.024 0.024 0.035 0.035 9e-3 0.01 0.021 0.02 0.03 0.03 0.011 0.011 0.024 0.022 0.035 0.035 0.01 0.01 0.022 0.021 0.032 0.032 0.011 0.011 0.024 0.022 0.035 0.035l0.031 0.031c0.01 0.01 0.021 0.021 0.031 0.032 0.011 0.011 0.024 0.022 0.035 0.034 0.01 0.011 0.022 0.022 0.032 0.032 0.011 0.012 0.024 0.024 0.035 0.035 9e-3 0.01 0.021 0.02 0.03 0.03 0.011 0.013 0.024 0.022 0.035 0.035 0.01 0.01 0.022 0.021 0.032 0.032 0.011 0.011 0.024 0.022 0.035 0.035 9e-3 0.01 0.02 0.02 0.03 0.03 0.01 0.011 0.024 0.022 0.034 0.033 0.011 0.011 0.024 0.022 0.033 0.033s0.022 0.022 0.032 0.032c0.011 0.012 0.023 0.024 0.035 0.035 9e-3 0.01 0.021 0.02 0.03 0.03 0.011 0.012 0.024 0.024 0.035 0.035 0.01 0.01 0.022 0.021 0.032 0.032 0.011 0.011 0.024 0.022 0.035 0.035 9e-3 0.01 0.02 0.02 0.03 0.03 0.011 0.011 0.024 0.024 0.034 0.033 0.011 0.011 0.024 0.022 0.033 0.034 14.943 16.092 49.366 29.673 114.17 55.239 13.76 5.428 30.195 11.562 52.093 11.171 21.147-0.379 37.305-7.149 49.927-12.203 53.619-21.467 113.46-49.397 130.51-104.58 9.398-30.407 3.32-63.687-8.488-93.24zm-220.08-75.171c0-7.329 5.941-13.271 13.27-13.271 2.818 0 5.419 0.891 7.569 2.389 1.497 2.148 2.388 4.749 2.388 7.566 0 7.331-5.942 13.271-13.271 13.271-2.817 0-5.419-0.891-7.568-2.388-1.497-2.149-2.388-4.751-2.388-7.568zm76.802-3.316c0 7.331-5.942 13.271-13.271 13.271-2.817 0-5.419-0.891-7.567-2.388-1.497-2.149-2.388-4.751-2.388-7.568 0-7.329 5.941-13.271 13.27-13.271 2.818 0 5.419 0.891 7.569 2.388 1.497 2.149 2.388 4.751 2.388 7.568z"
            fill="#ba7e50"/><path
            d="m592.9 256.76c-11.808-29.554-29.077-56.571-43.133-85.125-11.288-22.932-20.731-47.227-37.093-66.864-41.788-50.146-145.52-64.706-188.6-10.988-14.216 17.727-25.872 37.502-34.496 58.524-6.021 14.677-10.566 29.939-16.879 44.492-29.17 67.244-37.188 70.304-42.445 101-0.936 5.464-9.193 58.203 21.711 99.314 13.224 17.59 47.781 31.224 116.9 58.492 13.76 5.428 30.195 11.562 52.093 11.171 21.147-0.379 37.305-7.149 49.927-12.203 53.619-21.467 113.46-49.397 130.51-104.58 9.398-30.407 3.32-63.687-8.488-93.24zm-206.81-61.9c-7.329 0-13.27-5.942-13.27-13.271s5.941-13.271 13.27-13.271 13.271 5.942 13.271 13.271-5.942 13.271-13.271 13.271zm53.575 0c-7.329 0-13.27-5.942-13.27-13.271s5.941-13.271 13.27-13.271 13.271 5.942 13.271 13.271-5.941 13.271-13.271 13.271z"
            fill="url(#linear-gradient-5)"/><path
            d="m475.3 351.2c-1.471-5.635-4.834-10.721-9.54-15.186-0.011-0.011-0.021-0.022-0.033-0.032-0.01-0.011-0.02-0.021-0.031-0.032-0.012-0.011-0.024-0.024-0.036-0.036l-0.031-0.031c-0.011-0.01-0.021-0.021-0.032-0.032-0.011-0.01-0.021-0.021-0.032-0.031-0.012-0.012-0.022-0.025-0.035-0.036-0.011-0.011-0.021-0.021-0.032-0.031-0.011-0.011-0.021-0.022-0.032-0.033s-0.022-0.022-0.033-0.032c-0.01-0.011-0.02-0.021-0.031-0.032-0.012-0.011-0.024-0.024-0.036-0.036l-0.031-0.031c-0.011-0.01-0.021-0.021-0.032-0.032-0.011-0.01-0.021-0.021-0.032-0.031-0.012-0.013-0.024-0.025-0.036-0.036-0.01-0.011-0.02-0.021-0.031-0.031-0.011-0.011-0.021-0.022-0.032-0.033-0.011-0.01-0.021-0.021-0.032-0.031-0.011-0.011-0.021-0.024-0.033-0.035s-0.022-0.024-0.035-0.035l-0.031-0.031c-0.011-0.01-0.021-0.021-0.033-0.032-0.01-0.01-0.02-0.021-0.031-0.032-0.012-0.011-0.023-0.024-0.036-0.035-0.01-0.011-0.02-0.021-0.031-0.031-0.011-0.011-0.021-0.022-0.032-0.033-0.011-0.01-0.021-0.021-0.032-0.032-0.012-0.011-0.022-0.024-0.035-0.035-0.011-0.01-0.021-0.021-0.032-0.031-0.011-0.011-0.021-0.022-0.032-0.033-0.011-0.01-0.021-0.021-0.033-0.032-0.01-0.01-0.02-0.021-0.031-0.032-0.012-0.011-0.023-0.024-0.036-0.036-0.01-0.01-0.02-0.02-0.031-0.03-0.011-0.011-0.021-0.022-0.032-0.033-0.011-0.01-0.021-0.021-0.032-0.032-0.012-0.011-0.022-0.024-0.035-0.035-0.011-0.01-0.021-0.021-0.032-0.031-0.011-0.011-0.021-0.022-0.032-0.033-0.011-0.01-0.021-0.021-0.033-0.032-0.01-0.011-0.02-0.021-0.031-0.032-0.012-0.011-0.024-0.024-0.036-0.036-0.01-0.01-0.02-0.02-0.031-0.03-0.011-0.011-0.021-0.022-0.032-0.033-0.011-0.01-0.021-0.021-0.032-0.032-0.012-0.011-0.022-0.024-0.035-0.035-0.011-0.01-0.021-0.021-0.032-0.031-0.011-0.011-0.021-0.022-0.032-0.034-0.011-0.01-0.021-0.021-0.031-0.032-0.012-0.011-0.022-0.022-0.035-0.034-0.012-0.011-0.022-0.023-0.035-0.035-0.01-0.01-0.02-0.02-0.031-0.03-0.011-0.011-0.021-0.022-0.032-0.034-0.011-0.011-0.021-0.022-0.032-0.032-0.012-0.011-0.023-0.024-0.035-0.035-0.011-0.01-0.021-0.021-0.032-0.031-0.011-0.011-0.021-0.022-0.032-0.033l-0.032-0.032c-0.012-0.011-0.022-0.024-0.035-0.035-0.011-0.01-0.021-0.021-0.032-0.031-0.011-0.011-0.021-0.022-0.032-0.034-0.011-0.011-0.021-0.021-0.034-0.032-0.01-0.011-0.02-0.022-0.031-0.032-0.012-0.011-0.024-0.024-0.036-0.035-0.01-0.01-0.02-0.021-0.031-0.032-0.011-0.01-0.021-0.021-0.032-0.032l-0.032-0.032c-0.012-0.011-0.022-0.023-0.035-0.035-0.011-0.01-0.021-0.021-0.032-0.031-0.011-0.011-0.021-0.022-0.032-0.034-0.011-0.011-0.021-0.022-0.033-0.032-0.01-0.011-0.02-0.022-0.031-0.032-0.012-0.011-0.024-0.024-0.036-0.035-0.01-0.01-0.02-0.021-0.031-0.032s-0.021-0.022-0.032-0.032l-0.032-0.032c-0.012-0.011-0.022-0.024-0.035-0.035-0.011-0.01-0.021-0.021-0.032-0.032-0.011-0.01-0.021-0.021-0.032-0.032-0.011-0.01-0.021-0.021-0.031-0.031-0.012-0.011-0.022-0.024-0.035-0.035-0.012-0.011-0.022-0.022-0.035-0.033-0.01-0.01-0.02-0.021-0.031-0.032s-0.021-0.022-0.032-0.032l-0.032-0.032c-0.012-0.011-0.022-0.024-0.035-0.035-0.011-0.01-0.021-0.021-0.032-0.032-0.011-0.01-0.021-0.021-0.032-0.032-0.011-0.01-0.021-0.021-0.031-0.031-0.012-0.012-0.024-0.025-0.036-0.036-0.011-0.01-0.021-0.021-0.031-0.031-0.012-0.011-0.022-0.022-0.034-0.033-0.011-0.011-0.021-0.022-0.032-0.032l-0.032-0.032c-0.012-0.011-0.022-0.024-0.035-0.035l-0.032-0.032c-0.011-0.01-0.021-0.021-0.032-0.032-0.011-0.01-0.021-0.021-0.032-0.031-0.012-0.013-0.022-0.025-0.035-0.036-25.372-24.125-89.896-30.181-106.78-7.063-9.428 12.91-2.501 32.857 0 40.06 3.326 9.576 9.533 20.244 18.142 29.006 0.01 0.01 0.02 0.019 0.03 0.03 0.011 0.011 0.024 0.022 0.035 0.034 0.011 0.011 0.021 0.022 0.032 0.033l0.035 0.035c0.01 0.01 0.02 0.019 0.03 0.03 0.011 0.011 0.022 0.022 0.035 0.033 0.01 0.011 0.021 0.022 0.032 0.033 0 0 0.022 0.021 0.033 0.032 0.011 0.012 0.023 0.024 0.034 0.035l0.02 0.02c0.021 0.021 0.034 0.032 0.045 0.043s0.022 0.022 0.032 0.033l0.065 0.065c0.011 0.011 0.022 0.022 0.035 0.033 0.01 0.011 0.021 0.022 0.032 0.034 0.011 0.011 0.024 0.022 0.035 0.035 0.01 0.01 0.021 0.02 0.031 0.03 0.01 0.011 0.021 0.021 0.031 0.032 0.011 0.011 0.024 0.024 0.035 0.033 0.011 0.011 0.022 0.022 0.032 0.034 0.012 0.011 0.024 0.024 0.035 0.035l0.03 0.03c0.011 0.011 0.022 0.022 0.035 0.033 0.01 0.011 0.021 0.022 0.032 0.033s0.024 0.022 0.035 0.035c0.01 0.01 0.02 0.02 0.03 0.029 0.011 0.012 0.022 0.024 0.034 0.035 0.011 0.011 0.022 0.022 0.033 0.034 0.011 0.01 0.022 0.021 0.032 0.032 0.012 0.011 0.024 0.024 0.035 0.035l0.03 0.03c0.011 0.011 0.024 0.022 0.035 0.035l0.032 0.032c0.011 0.011 0.024 0.022 0.035 0.035 0.01 0.01 0.02 0.02 0.03 0.028 0.011 0.012 0.022 0.024 0.033 0.035s0.022 0.022 0.034 0.033c0.011 0.011 0.022 0.022 0.033 0.032 0.011 0.011 0.023 0.024 0.034 0.035l0.02 0.02c0.021 0.021 0.034 0.032 0.045 0.045 0.01 0.011 0.021 0.021 0.032 0.032s0.024 0.022 0.035 0.035c0 0 0.02 0.02 0.03 0.029 0.011 0.012 0.022 0.024 0.035 0.036 0.01 0.011 0.021 0.021 0.032 0.032s0.023 0.022 0.035 0.035c0.01 0.01 0.021 0.02 0.031 0.031 0.01 0.01 0.021 0.02 0.031 0.031 0.011 0.011 0.024 0.022 0.035 0.035l0.032 0.032c0.011 0.011 0.024 0.022 0.035 0.035 0.01 0.01 0.02 0.02 0.03 0.029 0.011 0.012 0.022 0.024 0.035 0.036 0.01 0.011 0.021 0.021 0.032 0.032s0.024 0.022 0.035 0.035c0.01 0.01 0.02 0.019 0.03 0.029 0.011 0.012 0.022 0.024 0.034 0.035l0.165 0.165c0.01 0.011 0.021 0.021 0.032 0.032 0.011 0.012 0.024 0.022 0.035 0.035 0.01 0.01 0.02 0.019 0.03 0.029 0.011 0.012 0.022 0.024 0.034 0.035s0.022 0.022 0.033 0.033 0.022 0.022 0.034 0.032c0.011 0.012 0.023 0.023 0.033 0.035l0.065 0.065c0.01 0.011 0.021 0.021 0.032 0.032 0.011 0.012 0.024 0.024 0.035 0.035 0 0 0.02 0.019 0.03 0.029 0.011 0.012 0.022 0.024 0.034 0.035 0.011 0.011 0.022 0.022 0.033 0.034 0.011 0.011 0.024 0.024 0.035 0.034 0.01 0.011 0.021 0.021 0.031 0.032 0 0 0.021 0.02 0.031 0.031 0.011 0.011 0.024 0.022 0.035 0.035 0.01 0.011 0.021 0.021 0.032 0.032 0.011 0.012 0.024 0.023 0.035 0.035 0.01 0.01 0.02 0.019 0.03 0.029 0.011 0.012 0.022 0.024 0.033 0.035s0.022 0.022 0.034 0.033l0.035 0.035c0.01 0.01 0.02 0.019 0.03 0.029 0.011 0.012 0.022 0.024 0.034 0.035 0.011 0.011 0.022 0.022 0.033 0.034l0.032 0.032c0.011 0.012 0.024 0.024 0.035 0.035 0.01 0.01 0.02 0.02 0.03 0.029 0.011 0.012 0.022 0.024 0.035 0.035 0.01 0.011 0.021 0.022 0.032 0.034 0.011 0.011 0.024 0.023 0.035 0.035 0.01 0.01 0.02 0.019 0.03 0.029 0.011 0.012 0.022 0.023 0.034 0.035l0.033 0.033c11.055 11.266 26.078 19.387 44.052 17.993 35.859-2.782 60.176-41.632 54.13-64.808z"
            fill="#cf9862"/><path
            d="m421.17 416.01c35.859-2.782 60.176-41.632 54.13-64.808-9.404-36.046-96.284-49.608-116.29-22.216-9.429 12.909-2.502 32.857 0 40.058 7.595 21.869 30.218 49.444 62.159 46.966z"
            fill="#a97c50"/><path
            d="m387.84 337.79c-0.802 10.678-1.329 25.362-0.225 43.264 8.622-0.695 17.244-1.389 25.866-2.084 1.66-7.827 2.833-11.699 3.516-11.614 0.638 0.079 0.85 3.606 0.635 10.579 7.386 0.524 14.773 1.049 22.159 1.572 2.636-11.339 4.892-23.692 6.452-36.981 0.572-4.87 1.023-9.626 1.368-14.259-4.657-15.701-18.124-25.805-31.408-25.016-14.522 0.864-22.963 14.398-23.648 15.536-3.373 5.597-4.103 10.865-4.715 19.002z"
            fill="#fff"/><path
            d="m497.21 295.8c-2.637-26.624-13.735-51.406-30.921-68.642-0.011-0.011-0.022-0.022-0.032-0.033-0.011-0.011-0.022-0.021-0.033-0.032s-0.022-0.022-0.032-0.033c-0.011-0.01-0.022-0.021-0.034-0.032-0.011-0.011-0.022-0.022-0.032-0.033-0.011-0.01-0.021-0.02-0.031-0.03-0.012-0.012-0.025-0.025-0.037-0.038-0.01-0.01-0.021-0.02-0.031-0.03-0.011-0.011-0.021-0.022-0.032-0.032l-0.033-0.033c-0.01-0.011-0.021-0.022-0.032-0.032-0.011-0.011-0.022-0.022-0.033-0.034-0.011-0.01-0.021-0.021-0.032-0.032s-0.022-0.022-0.034-0.033c-0.01-0.011-0.021-0.021-0.032-0.032s-0.021-0.022-0.032-0.032c-0.011-0.011-0.022-0.022-0.033-0.034-0.011-0.011-0.021-0.022-0.032-0.032-0.011-0.011-0.022-0.022-0.034-0.033-0.01-0.011-0.021-0.022-0.032-0.032-0.011-0.011-0.022-0.022-0.034-0.033-0.011-0.01-0.021-0.021-0.032-0.032s-0.022-0.022-0.033-0.034c-0.01-0.011-0.021-0.021-0.032-0.032s-0.021-0.022-0.032-0.032l-0.034-0.034c-0.011-0.011-0.021-0.022-0.032-0.032-0.011-0.011-0.022-0.022-0.033-0.034-0.01-0.011-0.021-0.022-0.032-0.032l-0.033-0.033c-0.011-0.01-0.021-0.021-0.032-0.032s-0.021-0.022-0.032-0.034c-0.011-0.011-0.022-0.021-0.033-0.032s-0.021-0.022-0.032-0.032c-0.011-0.011-0.022-0.022-0.034-0.033s-0.021-0.022-0.032-0.032l-0.131-0.131c-0.011-0.011-0.022-0.022-0.032-0.033-0.011-0.011-0.022-0.021-0.033-0.032l-0.065-0.065c-0.011-0.011-0.021-0.022-0.032-0.032-0.011-0.011-0.022-0.022-0.034-0.033l-0.065-0.065c-0.011-0.01-0.021-0.021-0.032-0.032l-0.033-0.033c-0.01-0.011-0.021-0.021-0.032-0.032s-0.022-0.022-0.034-0.032c-0.01-0.011-0.021-0.022-0.032-0.033s-0.022-0.022-0.033-0.032c-0.01-0.011-0.021-0.022-0.032-0.034l-0.032-0.032c-0.011-0.011-0.022-0.022-0.033-0.034-0.011-0.01-0.021-0.021-0.032-0.032l-0.033-0.033c-0.01-0.011-0.021-0.021-0.032-0.032s-0.022-0.022-0.033-0.032c-0.011-0.011-0.021-0.022-0.032-0.033s-0.021-0.022-0.032-0.032c-0.011-0.011-0.022-0.022-0.034-0.033l-0.066-0.066c-0.011-0.01-0.021-0.021-0.032-0.032-0.01-0.011-0.02-0.021-0.031-0.031l-0.037-0.037c-0.01-0.01-0.02-0.02-0.031-0.03-0.01-0.011-0.021-0.022-0.032-0.034-0.011-0.011-0.021-0.022-0.032-0.032l-0.13-0.13c-0.011-0.011-0.022-0.022-0.033-0.034-0.01-0.011-0.021-0.021-0.032-0.032l-0.065-0.065c-0.011-0.011-0.021-0.022-0.032-0.033-0.011-0.01-0.022-0.021-0.033-0.032s-0.021-0.022-0.032-0.033c-0.011-0.01-0.022-0.021-0.033-0.032s-0.021-0.022-0.032-0.034c-0.011-0.01-0.022-0.021-0.034-0.032s-0.021-0.022-0.032-0.032l-0.033-0.033c-0.01-0.011-0.021-0.022-0.032-0.032l-0.033-0.033c-0.01-0.011-0.021-0.022-0.032-0.032l-0.033-0.033c-0.01-0.011-0.021-0.022-0.032-0.032-0.011-0.011-0.021-0.022-0.032-0.033s-0.022-0.021-0.033-0.032-0.021-0.022-0.032-0.033c-0.011-0.01-0.023-0.021-0.034-0.032s-0.021-0.022-0.032-0.033c-0.01-0.01-0.02-0.02-0.031-0.03l-0.037-0.037c-19.467-19.543-46.755-29.403-78.413-21.282-46.59 11.956-77.768 67.227-64.059 112.95 2.465 8.219 7.004 16.045 13.152 21.97 0.011 0.012 0.022 0.023 0.033 0.035 0.011 0.01 0.021 0.021 0.032 0.031 0.01 0.01 0.02 0.021 0.031 0.032 0.012 0.01 0.022 0.022 0.035 0.033 0.011 0.011 0.021 0.022 0.032 0.033 0.012 0.011 0.022 0.022 0.035 0.034l0.03 0.03c0.011 0.011 0.022 0.024 0.033 0.035s0.022 0.022 0.033 0.032c0.011 0.012 0.022 0.024 0.034 0.035 0.011 0.01 0.02 0.02 0.031 0.03 0.011 0.011 0.022 0.024 0.034 0.035 0.011 0.01 0.022 0.022 0.034 0.032 0.011 0.011 0.022 0.023 0.033 0.035 0.011 0.01 0.021 0.021 0.032 0.031 0.01 0.01 0.02 0.021 0.031 0.031 0.011 0.011 0.022 0.023 0.034 0.035s0.022 0.022 0.033 0.032c0.011 0.012 0.023 0.023 0.035 0.035 0.01 0.01 0.019 0.02 0.03 0.03 0.011 0.011 0.022 0.024 0.033 0.035 0.011 0.01 0.022 0.022 0.034 0.032 0.011 0.011 0.022 0.024 0.034 0.035 0.011 0.01 0.021 0.021 0.032 0.031 0.01 0.01 0.02 0.021 0.031 0.031 0.011 0.011 0.022 0.024 0.035 0.035 0.011 0.011 0.021 0.022 0.032 0.032 0.011 0.011 0.022 0.024 0.035 0.035 0.01 0.01 0.019 0.02 0.03 0.03 0.011 0.011 0.023 0.023 0.033 0.035 0.011 0.01 0.022 0.022 0.034 0.032 0.011 0.011 0.022 0.024 0.033 0.035 0.011 0.01 0.021 0.021 0.032 0.031 0.01 0.01 0.02 0.021 0.031 0.031 0.011 0.011 0.022 0.024 0.035 0.035 0.011 0.011 0.021 0.022 0.032 0.032 0.011 0.011 0.022 0.024 0.035 0.035l0.03 0.03c0.011 0.011 0.022 0.024 0.033 0.035s0.022 0.022 0.034 0.032c0.011 0.011 0.022 0.024 0.033 0.035 0.011 0.01 0.02 0.02 0.031 0.03 0.011 0.011 0.022 0.023 0.034 0.035 0.011 0.01 0.022 0.021 0.034 0.032l0.065 0.065c0.01 0.01 0.02 0.021 0.031 0.031 0.011 0.011 0.022 0.024 0.033 0.035s0.022 0.022 0.034 0.032c0.011 0.011 0.023 0.024 0.033 0.035 0.011 0.01 0.02 0.02 0.031 0.03 0.011 0.011 0.022 0.024 0.034 0.035 0.011 0.01 0.022 0.022 0.033 0.032 0.011 0.011 0.022 0.022 0.034 0.033 0.011 0.011 0.021 0.022 0.032 0.032 0.01 0.01 0.02 0.021 0.031 0.031 0.011 0.011 0.022 0.024 0.034 0.035 0.011 0.011 0.022 0.022 0.034 0.032 0.011 0.011 0.022 0.024 0.033 0.035 0.011 0.01 0.02 0.02 0.031 0.03 0.011 0.011 0.023 0.024 0.033 0.035 0.011 0.01 0.022 0.022 0.034 0.032l0.033 0.033c0.011 0.011 0.021 0.022 0.032 0.032 0.01 0.01 0.02 0.021 0.031 0.031 0.011 0.011 0.022 0.024 0.035 0.035 0.011 0.011 0.021 0.022 0.032 0.032 0.011 0.011 0.022 0.024 0.035 0.035 0.01 0.01 0.019 0.02 0.03 0.03 0.011 0.011 0.022 0.024 0.033 0.035 0.011 0.01 0.022 0.022 0.034 0.032 0.011 0.011 0.022 0.024 0.033 0.033 0.011 0.01 0.02 0.021 0.031 0.031 0.011 0.011 0.022 0.022 0.034 0.033l0.099 0.099c0.01 0.01 0.02 0.021 0.031 0.031 0.011 0.011 0.022 0.024 0.033 0.035 0.011 0.01 0.022 0.022 0.034 0.032 0.011 0.011 0.023 0.024 0.033 0.035 0.011 9e-3 0.02 0.02 0.031 0.03 0.011 0.011 0.022 0.022 0.034 0.033 0.011 0.011 0.022 0.022 0.033 0.034 0.011 0.011 0.022 0.022 0.034 0.033l0.032 0.032c0.01 0.01 0.02 0.021 0.031 0.031 0.011 0.011 0.022 0.024 0.033 0.035 0.011 0.01 0.022 0.022 0.034 0.032 0.011 0.011 0.022 0.023 0.033 0.035 0.011 9e-3 0.02 0.02 0.031 0.03 0.011 0.011 0.023 0.022 0.034 0.033l0.033 0.033c0.011 0.011 0.022 0.022 0.034 0.033l0.032 0.032c0.01 0.01 0.02 0.021 0.031 0.032s0.022 0.022 0.034 0.033c0.011 0.01 0.022 0.022 0.034 0.032 0.011 0.011 0.022 0.024 0.033 0.035 0.011 9e-3 0.02 0.02 0.031 0.03 2.054 1.984 4.288 3.758 6.684 5.259 2.918 1.829 6.075 3.26 9.441 4.191 22.62 6.252 58.315-7.087 59.129-33.763 2.489 3.737 5.265 7.2 8.283 10.307 0.01 0.011 0.021 0.021 0.032 0.032 0.01 0.01 0.02 0.021 0.031 0.031l0.067 0.067c0.011 0.011 0.022 0.022 0.033 0.034 0.01 0.01 0.02 0.02 0.03 0.031 0.012 0.011 0.024 0.023 0.036 0.035 0.011 0.012 0.023 0.024 0.035 0.035 0.01 0.011 0.021 0.02 0.031 0.031s0.021 0.021 0.032 0.032c0.01 0.011 0.02 0.021 0.031 0.031l0.1 0.1c0.01 0.011 0.02 0.02 0.03 0.031 0.012 0.012 0.026 0.024 0.039 0.037l0.03 0.03c0.011 0.011 0.022 0.022 0.034 0.033 0.01 0.011 0.021 0.021 0.032 0.032 0.01 0.011 0.021 0.021 0.031 0.031 0.012 0.012 0.025 0.024 0.037 0.037l0.063 0.063c0.01 0.011 0.02 0.02 0.03 0.031 0.012 0.012 0.026 0.024 0.038 0.037 0.01 0.01 0.02 0.02 0.03 0.031 0.011 0.01 0.022 0.021 0.033 0.032 0.01 0.011 0.02 0.02 0.03 0.03 0.012 0.012 0.023 0.025 0.036 0.036 0.011 0.011 0.023 0.022 0.035 0.035l0.031 0.031c0.01 0.011 0.021 0.022 0.032 0.032 0.01 0.011 0.02 0.02 0.031 0.031 0.011 0.013 0.025 0.024 0.037 0.037 0.01 0.01 0.02 0.02 0.03 0.031 0.011 0.011 0.022 0.021 0.033 0.032 0.01 0.011 0.02 0.02 0.03 0.031 0.012 0.011 0.024 0.024 0.036 0.035 0.011 0.011 0.023 0.022 0.035 0.035l0.031 0.031c0.01 0.011 0.021 0.022 0.032 0.033 0.01 0.01 0.02 0.019 0.031 0.03l0.037 0.037c0.01 0.01 0.02 0.02 0.03 0.031 0.011 0.011 0.022 0.021 0.033 0.032 0.01 0.011 0.02 0.02 0.03 0.031 0.012 0.013 0.026 0.025 0.039 0.037 0.01 0.01 0.02 0.02 0.03 0.031 0.011 0.011 0.022 0.021 0.033 0.032 0.01 0.011 0.021 0.022 0.032 0.034 0.01 0.01 0.02 0.019 0.031 0.03l0.037 0.037c0.01 0.01 0.02 0.021 0.03 0.031 0.011 0.011 0.022 0.021 0.034 0.032 0.01 0.011 0.02 0.02 0.03 0.031 0.012 0.012 0.026 0.025 0.038 0.037 0.01 0.01 0.02 0.02 0.03 0.031 0.011 0.011 0.023 0.021 0.034 0.032l0.03 0.03c0.012 0.012 0.024 0.024 0.035 0.036 0.012 0.012 0.024 0.022 0.036 0.035 0.01 0.01 0.02 0.021 0.03 0.031 0.011 0.011 0.022 0.021 0.033 0.032 0.01 0.011 0.02 0.02 0.03 0.031 0.012 0.012 0.026 0.025 0.038 0.037 0.01 0.01 0.02 0.02 0.03 0.031 0.011 0.011 0.022 0.021 0.033 0.032l0.03 0.03c0.012 0.012 0.024 0.023 0.036 0.036 0.011 0.012 0.023 0.023 0.035 0.035 0.01 0.01 0.02 0.021 0.031 0.031 0.01 0.011 0.021 0.021 0.032 0.032 0.01 0.011 0.02 0.02 0.03 0.031 0.012 0.012 0.026 0.025 0.038 0.037 0.01 0.01 0.02 0.02 0.03 0.031 0.011 0.011 0.022 0.021 0.033 0.032l0.03 0.03c0.012 0.014 0.026 0.026 0.037 0.037l0.031 0.031 0.033 0.034c0.01 0.011 0.021 0.021 0.032 0.032 0.01 0.011 0.02 0.02 0.031 0.031l0.037 0.037c0.01 0.01 0.02 0.02 0.03 0.031 0.011 0.011 0.022 0.021 0.033 0.032l0.03 0.03c0.012 0.014 0.026 0.026 0.037 0.039 0.011 0.01 0.021 0.02 0.031 0.03l0.063 0.063c0.011 0.012 0.024 0.024 0.035 0.036 0.012 0.012 0.024 0.024 0.036 0.035 0.01 0.011 0.02 0.02 0.03 0.031 0.011 0.011 0.022 0.021 0.033 0.032l0.03 0.03c0.012 0.014 0.026 0.026 0.038 0.038l0.093 0.093c0.012 0.012 0.024 0.024 0.035 0.036 23.654 24.37 61.057 27.672 72.641-16.54 1.507-5.751 1.371-11.807 0.784-17.724z"
            fill="#ebb881"/><path
            d="m343.65 346.05c2.918 1.829 6.075 3.26 9.441 4.191 23.172 6.405 60.17-7.709 59.225-35.7 20.393 37.045 70.382 51.38 84.109-1.014 1.507-5.751 1.371-11.807 0.784-17.724-5.624-56.781-49.726-105.18-109.3-89.893-46.591 11.954-77.769 67.226-64.06 112.94 3.285 10.953 10.253 21.209 19.803 27.195z"
            fill="url(#linear-gradient-6)"/><path
            d="m443.27 246.62c-0.881-3.747-2.919-6.906-5.705-9.525-0.011-0.01-0.022-0.021-0.034-0.032-0.011-0.011-0.021-0.022-0.032-0.034-0.012-0.01-0.022-0.022-0.035-0.033-0.01-0.01-0.02-0.021-0.03-0.031-0.012-0.011-0.022-0.022-0.035-0.033-0.011-0.011-0.021-0.022-0.032-0.032-0.011-0.011-0.022-0.023-0.033-0.033-0.011-0.011-0.02-0.021-0.031-0.031-0.011-0.011-0.022-0.024-0.033-0.035-0.011-0.01-0.022-0.022-0.033-0.032-0.011-0.011-0.021-0.022-0.032-0.033-0.012-0.011-0.022-0.022-0.035-0.034-0.01-0.01-0.02-0.021-0.03-0.031-0.012-0.011-0.022-0.022-0.035-0.033-0.011-0.011-0.021-0.022-0.032-0.034-0.011-0.01-0.022-0.022-0.033-0.032-0.011-0.011-0.02-0.021-0.031-0.031-0.011-0.011-0.022-0.024-0.033-0.035-0.012-0.01-0.022-0.022-0.033-0.032-0.011-0.011-0.021-0.022-0.032-0.033-0.012-0.011-0.022-0.022-0.035-0.033-0.01-0.01-0.02-0.021-0.03-0.031-0.012-0.011-0.022-0.022-0.035-0.033-0.011-0.011-0.021-0.022-0.032-0.033-0.011-0.01-0.022-0.022-0.034-0.033-0.011-0.01-0.021-0.02-0.031-0.03-0.011-0.011-0.022-0.024-0.033-0.035-0.012-0.01-0.022-0.022-0.034-0.032-0.011-0.011-0.022-0.024-0.033-0.033-0.011-0.011-0.021-0.022-0.032-0.032s-0.021-0.021-0.031-0.032c-0.012-0.011-0.022-0.022-0.035-0.033-0.011-0.011-0.021-0.022-0.032-0.034-0.012-0.01-0.022-0.022-0.033-0.033-0.011-0.01-0.021-0.02-0.031-0.03-0.012-0.011-0.022-0.023-0.034-0.035-0.012-0.01-0.022-0.022-0.033-0.032-0.011-0.011-0.022-0.024-0.033-0.035-0.011-0.01-0.02-0.02-0.031-0.03-0.011-0.011-0.022-0.024-0.033-0.035-0.011-0.01-0.022-0.021-0.033-0.032s-0.021-0.022-0.032-0.034c-0.012-0.01-0.022-0.022-0.035-0.033l-0.03-0.03c-0.012-0.011-0.022-0.024-0.033-0.035-0.012-0.01-0.022-0.022-0.033-0.032-0.011-0.011-0.022-0.024-0.034-0.035-0.011-0.01-0.02-0.02-0.031-0.03-0.011-0.011-0.022-0.024-0.033-0.035-0.011-0.01-0.022-0.021-0.033-0.032s-0.021-0.022-0.032-0.033c-0.012-0.01-0.022-0.022-0.035-0.033-0.01-0.01-0.02-0.02-0.03-0.031-0.012-0.01-0.022-0.022-0.035-0.033-0.011-0.01-0.021-0.022-0.032-0.032-0.011-0.011-0.022-0.024-0.034-0.035-0.011-0.01-0.02-0.02-0.031-0.03-0.011-0.011-0.022-0.024-0.033-0.035-0.011-0.01-0.022-0.021-0.033-0.032s-0.022-0.024-0.034-0.035c-0.011-0.01-0.021-0.021-0.032-0.031s-0.021-0.021-0.031-0.032c-0.012-0.011-0.022-0.022-0.035-0.034-0.011-0.01-0.021-0.022-0.032-0.032-0.011-0.011-0.022-0.024-0.034-0.035-0.011-0.01-0.021-0.02-0.031-0.03-0.011-0.011-0.022-0.024-0.034-0.035-0.012-0.01-0.022-0.021-0.034-0.032s-0.022-0.024-0.033-0.035c-0.011-9e-3 -0.02-0.02-0.031-0.03l-0.034-0.034c-0.011-0.011-0.021-0.022-0.033-0.033-0.011-0.01-0.021-0.022-0.032-0.032-0.012-0.011-0.022-0.024-0.033-0.035-0.011-0.01-0.021-0.02-0.031-0.03-0.011-0.011-0.022-0.024-0.034-0.035-0.012-0.01-0.022-0.021-0.033-0.032s-0.022-0.023-0.033-0.035c-0.011-9e-3 -0.02-0.02-0.031-0.03-0.011-0.011-0.022-0.024-0.033-0.033l-0.033-0.033c-0.011-0.011-0.021-0.022-0.032-0.032-0.012-0.011-0.022-0.023-0.035-0.035l-0.03-0.03c-0.012-0.011-0.022-0.024-0.033-0.035-0.012-0.01-0.022-0.021-0.033-0.032s-0.022-0.024-0.034-0.035c-0.011-0.01-0.02-0.02-0.031-0.03-0.011-0.011-0.022-0.024-0.033-0.035-0.011-0.01-0.022-0.021-0.033-0.032s-0.022-0.023-0.033-0.033l-0.032-0.032c-0.011-0.01-0.02-0.021-0.031-0.031-0.012-0.011-0.022-0.024-0.035-0.035-0.011-0.01-0.021-0.022-0.032-0.032-0.011-0.011-0.022-0.024-0.033-0.035-0.011-0.01-0.02-0.02-0.031-0.03-0.011-0.011-0.022-0.024-0.034-0.035-0.011-0.01-0.022-0.021-0.033-0.032s-0.022-0.024-0.033-0.033c-8.34-7.867-23.425-10.86-34.213-10.192-17.781 1.101-37.929 13.009-38.623 26.945-0.258 5.213 2.19 11.023 5.788 14.849 9e-3 0.01 0.017 0.015 0.026 0.025l6e-3 7e-3c9e-3 0.01 0.016 0.016 0.025 0.024l9e-3 0.01c7e-3 9e-3 0.016 0.015 0.025 0.024 2e-3 2e-3 5e-3 6e-3 7e-3 9e-3 9e-3 9e-3 0.016 0.015 0.024 0.022 4e-3 4e-3 6e-3 7e-3 6e-3 7e-3 0.011 0.012 0.021 0.019 0.028 0.029l8e-3 7e-3c9e-3 9e-3 0.016 0.015 0.025 0.024 3e-3 3e-3 5e-3 6e-3 8e-3 9e-3 9e-3 0.01 0.017 0.016 0.025 0.025 4e-3 3e-3 6e-3 6e-3 8e-3 9e-3 8e-3 9e-3 0.016 0.014 0.024 0.022l9e-3 0.01c9e-3 0.01 0.017 0.016 0.025 0.025l9e-3 9e-3c8e-3 0.01 0.017 0.016 0.026 0.025 2e-3 2e-3 4e-3 5e-3 6e-3 7e-3 9e-3 0.01 0.016 0.016 0.025 0.024l9e-3 0.01c7e-3 9e-3 0.016 0.015 0.025 0.024l7e-3 9e-3c9e-3 9e-3 0.016 0.015 0.024 0.022 0 0 6e-3 7e-3 0.01 0.011 7e-3 9e-3 0.017 0.015 0.026 0.025 0 0 4e-3 5e-3 6e-3 7e-3 9e-3 9e-3 0.016 0.015 0.025 0.023l9e-3 9e-3c8e-3 0.01 0.016 0.016 0.024 0.025 4e-3 2e-3 6e-3 6e-3 9e-3 9e-3 8e-3 9e-3 0.016 0.014 0.024 0.022 2e-3 4e-3 6e-3 7e-3 9e-3 0.01 9e-3 0.01 0.017 0.016 0.026 0.025l7e-3 9e-3c9e-3 9e-3 0.016 0.015 0.025 0.024l7e-3 9e-3c9e-3 0.01 0.017 0.016 0.025 0.024 4e-3 4e-3 6e-3 6e-3 9e-3 0.01 9e-3 9e-3 0.016 0.015 0.025 0.024l7e-3 9e-3c9e-3 9e-3 0.016 0.015 0.024 0.022l0.01 0.011c9e-3 9e-3 0.017 0.016 0.026 0.025 2e-3 3e-3 4e-3 5e-3 6e-3 7e-3 9e-3 9e-3 0.016 0.015 0.025 0.024 2e-3 4e-3 5e-3 6e-3 9e-3 9e-3 7e-3 0.01 0.016 0.016 0.025 0.025l8e-3 9e-3c7e-3 9e-3 0.016 0.014 0.023 0.022l9e-3 0.01c9e-3 0.01 0.017 0.016 0.026 0.025 2e-3 3e-3 5e-3 6e-3 7e-3 9e-3 9e-3 9e-3 0.016 0.015 0.025 0.024l7e-3 9e-3c9e-3 0.01 0.017 0.016 0.025 0.024l9e-3 0.01c9e-3 9e-3 0.016 0.015 0.025 0.024 2e-3 4e-3 5e-3 6e-3 7e-3 9e-3 9e-3 9e-3 0.016 0.015 0.024 0.022 4e-3 4e-3 6e-3 7e-3 0.01 0.011 9e-3 9e-3 0.017 0.016 0.026 0.025l6e-3 7e-3c9e-3 9e-3 0.016 0.015 0.025 0.024l9e-3 0.01c7e-3 9e-3 0.016 0.015 0.025 0.024 3e-3 2e-3 5e-3 6e-3 7e-3 9e-3 7e-3 9e-3 0.016 0.014 0.024 0.022 4e-3 4e-3 6e-3 7e-3 9e-3 0.011 9e-3 9e-3 0.017 0.015 0.026 0.025l7e-3 7e-3c9e-3 9e-3 0.016 0.015 0.025 0.024 3e-3 4e-3 5e-3 6e-3 8e-3 0.01 8e-3 9e-3 0.017 0.015 0.025 0.022 4e-3 4e-3 6e-3 7e-3 9e-3 0.01 7e-3 9e-3 0.016 0.014 0.024 0.022l9e-3 0.011c9e-3 9e-3 0.016 0.015 0.025 0.022 2e-3 4e-3 5e-3 7e-3 9e-3 0.01 8e-3 9e-3 0.017 0.016 0.026 0.025 2e-3 3e-3 4e-3 5e-3 6e-3 9e-3 9e-3 7e-3 0.016 0.014 0.025 0.022l9e-3 0.01c7e-3 9e-3 0.016 0.015 0.025 0.024l8e-3 9e-3c7e-3 9e-3 0.016 0.014 0.024 0.022 0 0 6e-3 7e-3 9e-3 0.011 9e-3 9e-3 0.019 0.015 0.026 0.025l7e-3 7e-3c9e-3 9e-3 0.016 0.015 0.025 0.024l7e-3 0.01c9e-3 9e-3 0.017 0.015 0.025 0.022l9e-3 0.01c8e-3 9e-3 0.016 0.014 0.024 0.022 2e-3 4e-3 6e-3 7e-3 9e-3 0.011 9e-3 9e-3 0.017 0.015 0.026 0.023l7e-3 9e-3c7e-3 9e-3 0.016 0.015 0.025 0.024l7e-3 0.01c9e-3 7e-3 0.016 0.014 0.025 0.022 2e-3 4e-3 5e-3 6e-3 9e-3 0.01 7e-3 9e-3 0.016 0.015 0.025 0.024 3e-3 3e-3 5e-3 6e-3 7e-3 0.01 9e-3 7e-3 0.016 0.014 0.024 0.021l0.01 0.011c8e-3 9e-3 0.017 0.015 0.026 0.025 3e-3 3e-3 4e-3 5e-3 6e-3 7e-3 9e-3 9e-3 0.016 0.015 0.025 0.024 2e-3 4e-3 5e-3 6e-3 8e-3 0.01 8e-3 9e-3 0.016 0.015 0.024 0.022l9e-3 0.01c7e-3 9e-3 0.016 0.014 0.024 0.022l9e-3 0.011c9e-3 9e-3 0.017 0.015 0.026 0.024 2e-3 4e-3 5e-3 6e-3 7e-3 9e-3 9e-3 9e-3 0.016 0.015 0.025 0.024l7e-3 0.01c9e-3 9e-3 0.017 0.014 0.025 0.022l9e-3 0.01c9e-3 9e-3 0.016 0.015 0.025 0.023 2e-3 3e-3 5e-3 6e-3 7e-3 0.01 9e-3 7e-3 0.016 0.014 0.024 0.022 4e-3 3e-3 6e-3 6e-3 0.01 0.01 7e-3 9e-3 0.017 0.015 0.026 0.025l6e-3 7e-3c9e-3 9e-3 0.016 0.015 0.025 0.024l9e-3 0.01c7e-3 9e-3 0.016 0.015 0.025 0.022 2e-3 4e-3 5e-3 7e-3 7e-3 0.01 7e-3 9e-3 0.016 0.014 0.024 0.022 2e-3 4e-3 6e-3 7e-3 8e-3 0.011 9e-3 9e-3 0.017 0.015 0.026 0.024l7e-3 9e-3c9e-3 9e-3 0.016 0.015 0.025 0.023 3e-3 3e-3 5e-3 6e-3 8e-3 0.01 9e-3 9e-3 0.017 0.014 0.025 0.022 4e-3 4e-3 6e-3 6e-3 9e-3 0.01 7e-3 9e-3 0.015 0.014 0.024 0.022l9e-3 0.011c9e-3 9e-3 0.016 0.014 0.025 0.022 2e-3 4e-3 5e-3 6e-3 5e-3 6e-3 0.012 0.012 0.021 0.019 0.03 0.028 2e-3 3e-3 4e-3 5e-3 6e-3 8e-3 9e-3 9e-3 0.016 0.015 0.025 0.023l9e-3 0.01c8e-3 9e-3 0.016 0.015 0.025 0.022l7e-3 0.01c7e-3 9e-3 0.016 0.014 0.024 0.022 4e-3 4e-3 6e-3 7e-3 9e-3 0.011 9e-3 9e-3 0.017 0.015 0.026 0.024l7e-3 9e-3c9e-3 9e-3 0.016 0.015 0.025 0.024l7e-3 0.01c9e-3 9e-3 0.017 0.015 0.025 0.022l9e-3 0.01c7e-3 9e-3 0.016 0.014 0.024 0.022 2e-3 4e-3 6e-3 8e-3 9e-3 0.011 9e-3 9e-3 0.017 0.015 0.026 0.024l7e-3 9e-3c7e-3 9e-3 0.016 0.015 0.025 0.023l7e-3 9e-3c9e-3 9e-3 0.016 0.015 0.025 0.024 2e-3 4e-3 5e-3 6e-3 9e-3 0.01 7e-3 9e-3 0.016 0.015 0.025 0.024 3e-3 2e-3 5e-3 6e-3 8e-3 9e-3 7e-3 9e-3 0.016 0.014 0.023 0.022l9e-3 0.011c9e-3 9e-3 0.019 0.015 0.026 0.024 2e-3 4e-3 5e-3 6e-3 5e-3 6e-3 0.011 0.011 0.019 0.017 0.028 0.026 2e-3 2e-3 5e-3 6e-3 7e-3 0.01 9e-3 9e-3 0.017 0.015 0.025 0.024l9e-3 9e-3c7e-3 9e-3 0.016 0.014 0.024 0.022l9e-3 0.011c9e-3 9e-3 0.017 0.015 0.026 0.024 2e-3 3e-3 5e-3 6e-3 7e-3 9e-3 7e-3 9e-3 0.016 0.015 0.025 0.024 0 0 5e-3 6e-3 7e-3 9e-3 9e-3 9e-3 0.016 0.015 0.025 0.024l9e-3 0.01c7e-3 9e-3 0.016 0.015 0.025 0.024 3e-3 2e-3 5e-3 6e-3 7e-3 9e-3 9e-3 9e-3 0.016 0.014 0.024 0.022 4e-3 4e-3 6e-3 7e-3 9e-3 0.011 9e-3 9e-3 0.019 0.015 0.026 0.024l8e-3 9e-3c9e-3 9e-3 0.016 0.015 0.025 0.024l8e-3 0.01c9e-3 9e-3 0.017 0.015 0.025 0.024 4e-3 2e-3 6e-3 5e-3 9e-3 9e-3 7e-3 9e-3 0.016 0.014 0.024 0.022 2e-3 4e-3 6e-3 7e-3 8e-3 0.011 9e-3 9e-3 0.017 0.015 0.026 0.024l7e-3 9e-3c8e-3 9e-3 0.016 0.015 0.025 0.024 2e-3 2e-3 5e-3 6e-3 7e-3 9e-3 9e-3 9e-3 0.017 0.015 0.025 0.025 2e-3 2e-3 6e-3 5e-3 8e-3 9e-3 7e-3 9e-3 0.016 0.015 0.025 0.024l7e-3 9e-3c4.048 4.305 8.202 4.666 16.258 7.936 4.672 1.896 11.221 4.999 18.672 10.154 2.605-2.535 6.714-6.065 12.409-9.118 8.321-4.461 11.916-3.558 16.57-7.01 6.848-5.081 10.773-15.725 8.812-24.07z"
            fill="#ffd6d8"/><path
            d="m405.48 286.82c2.605-2.535 6.714-6.065 12.409-9.118 8.321-4.461 11.916-3.558 16.57-7.01 6.848-5.081 10.773-15.725 8.812-24.07-3.518-14.97-25.516-20.573-39.887-19.684-17.78 1.1-37.929 13.008-38.621 26.943-0.26 5.213 2.189 11.023 5.787 14.849 4.048 4.305 8.202 4.666 16.258 7.936 4.672 1.896 11.221 4.999 18.672 10.154z"
            fill="url(#linear-gradient-7)"/></g></g></svg>
